%TF.GenerationSoftware,KiCad,Pcbnew,(5.1.10)-1*%
%TF.CreationDate,2021-07-06T17:58:10+02:00*%
%TF.ProjectId,StopWatch,53746f70-5761-4746-9368-2e6b69636164,rev?*%
%TF.SameCoordinates,Original*%
%TF.FileFunction,Copper,L2,Bot*%
%TF.FilePolarity,Positive*%
%FSLAX46Y46*%
G04 Gerber Fmt 4.6, Leading zero omitted, Abs format (unit mm)*
G04 Created by KiCad (PCBNEW (5.1.10)-1) date 2021-07-06 17:58:10*
%MOMM*%
%LPD*%
G01*
G04 APERTURE LIST*
%TA.AperFunction,ComponentPad*%
%ADD10C,1.500000*%
%TD*%
%TA.AperFunction,ComponentPad*%
%ADD11R,1.500000X1.500000*%
%TD*%
%TA.AperFunction,ComponentPad*%
%ADD12C,1.850000*%
%TD*%
%TA.AperFunction,ComponentPad*%
%ADD13C,1.950000*%
%TD*%
%TA.AperFunction,SMDPad,CuDef*%
%ADD14R,1.000000X1.400000*%
%TD*%
%TA.AperFunction,SMDPad,CuDef*%
%ADD15R,1.400000X1.000000*%
%TD*%
%TA.AperFunction,ComponentPad*%
%ADD16C,1.300000*%
%TD*%
%TA.AperFunction,ComponentPad*%
%ADD17C,1.725000*%
%TD*%
%TA.AperFunction,ComponentPad*%
%ADD18R,1.725000X1.725000*%
%TD*%
%TA.AperFunction,SMDPad,CuDef*%
%ADD19R,1.050000X1.470000*%
%TD*%
%TA.AperFunction,SMDPad,CuDef*%
%ADD20R,1.470000X1.050000*%
%TD*%
%TA.AperFunction,ViaPad*%
%ADD21C,3.750000*%
%TD*%
%TA.AperFunction,ViaPad*%
%ADD22C,0.800000*%
%TD*%
%TA.AperFunction,Conductor*%
%ADD23C,0.250000*%
%TD*%
%TA.AperFunction,Conductor*%
%ADD24C,0.200000*%
%TD*%
%TA.AperFunction,Conductor*%
%ADD25C,0.254000*%
%TD*%
%TA.AperFunction,Conductor*%
%ADD26C,0.100000*%
%TD*%
G04 APERTURE END LIST*
D10*
%TO.P,U3,5*%
%TO.N,/D_g*%
X76970000Y-46360000D03*
%TO.P,U3,11*%
%TO.N,/D_a*%
X69350000Y-36200000D03*
%TO.P,U3,12*%
%TO.N,/CC_5*%
X66810000Y-36200000D03*
%TO.P,U3,10*%
%TO.N,/D_f*%
X71890000Y-36200000D03*
%TO.P,U3,9*%
%TO.N,/CC_6*%
X74430000Y-36200000D03*
%TO.P,U3,8*%
%TO.N,/CC_7*%
X76970000Y-36200000D03*
%TO.P,U3,6*%
%TO.N,/CC_8*%
X79510000Y-46360000D03*
%TO.P,U3,7*%
%TO.N,/D_b*%
X79510000Y-36200000D03*
%TO.P,U3,3*%
%TO.N,/D_dp*%
X71890000Y-46360000D03*
%TO.P,U3,4*%
%TO.N,/D_c*%
X74430000Y-46360000D03*
D11*
%TO.P,U3,1*%
%TO.N,/D_e*%
X66810000Y-46360000D03*
D10*
%TO.P,U3,2*%
%TO.N,/D_d*%
X69350000Y-46360000D03*
%TD*%
%TO.P,U1,12*%
%TO.N,/CC_1*%
X37500000Y-36200000D03*
%TO.P,U1,11*%
%TO.N,/D_a*%
X40040000Y-36200000D03*
%TO.P,U1,10*%
%TO.N,/D_f*%
X42580000Y-36200000D03*
%TO.P,U1,9*%
%TO.N,/CC_2*%
X45120000Y-36200000D03*
%TO.P,U1,8*%
%TO.N,/CC_3*%
X47660000Y-36200000D03*
%TO.P,U1,7*%
%TO.N,/D_b*%
X50200000Y-36200000D03*
%TO.P,U1,6*%
%TO.N,/CC_4*%
X50200000Y-46360000D03*
%TO.P,U1,5*%
%TO.N,/D_g*%
X47660000Y-46360000D03*
%TO.P,U1,4*%
%TO.N,/D_c*%
X45120000Y-46360000D03*
%TO.P,U1,3*%
%TO.N,/D_dp*%
X42580000Y-46360000D03*
%TO.P,U1,2*%
%TO.N,/D_d*%
X40040000Y-46360000D03*
D11*
%TO.P,U1,1*%
%TO.N,/D_e*%
X37500000Y-46360000D03*
%TD*%
D12*
%TO.P,S1,4*%
%TO.N,Net-(R11-Pad1)*%
X72252000Y-64256000D03*
%TO.P,S1,3*%
X84752000Y-64256000D03*
%TO.P,S1,2*%
%TO.N,gnd*%
X72252000Y-68756000D03*
%TO.P,S1,1*%
X84752000Y-68756000D03*
%TD*%
%TO.P,S2,4*%
%TO.N,Net-(R15-Pad1)*%
X32252000Y-64256000D03*
%TO.P,S2,3*%
X44752000Y-64256000D03*
%TO.P,S2,2*%
%TO.N,gnd*%
X32252000Y-68756000D03*
%TO.P,S2,1*%
X44752000Y-68756000D03*
%TD*%
D13*
%TO.P,U2,2*%
%TO.N,gnd*%
X50228500Y-59378700D03*
%TO.P,U2,1*%
%TO.N,+3V*%
X70228500Y-59378700D03*
%TD*%
D14*
%TO.P,R16,2*%
%TO.N,/B_1*%
X35916900Y-69246200D03*
%TO.P,R16,1*%
%TO.N,Net-(R15-Pad1)*%
X37816900Y-69246200D03*
%TD*%
%TO.P,R15,2*%
%TO.N,+3V*%
X41626900Y-69246200D03*
%TO.P,R15,1*%
%TO.N,Net-(R15-Pad1)*%
X39726900Y-69246200D03*
%TD*%
D15*
%TO.P,R12,2*%
%TO.N,/B_2*%
X79518000Y-63778000D03*
%TO.P,R12,1*%
%TO.N,Net-(R11-Pad1)*%
X79518000Y-65678000D03*
%TD*%
%TO.P,R11,2*%
%TO.N,+3V*%
X79518000Y-69488000D03*
%TO.P,R11,1*%
%TO.N,Net-(R11-Pad1)*%
X79518000Y-67588000D03*
%TD*%
D16*
%TO.P,LS1,2*%
%TO.N,gnd*%
X34157600Y-59378700D03*
%TO.P,LS1,1*%
%TO.N,Net-(LS1-Pad1)*%
X41757600Y-59378700D03*
%TD*%
D17*
%TO.P,J1,6*%
%TO.N,Net-(J1-Pad6)*%
X50200000Y-41265000D03*
%TO.P,J1,5*%
%TO.N,/B_2*%
X47660000Y-41265000D03*
%TO.P,J1,4*%
%TO.N,/B_1*%
X45120000Y-41265000D03*
%TO.P,J1,3*%
%TO.N,gnd*%
X42580000Y-41265000D03*
%TO.P,J1,2*%
%TO.N,+3V*%
X40040000Y-41265000D03*
D18*
%TO.P,J1,1*%
%TO.N,/MCLR*%
X37500000Y-41265000D03*
%TD*%
D19*
%TO.P,C3,2*%
%TO.N,gnd*%
X37980900Y-66960200D03*
%TO.P,C3,1*%
%TO.N,/B_1*%
X39660900Y-66960200D03*
%TD*%
D20*
%TO.P,C2,2*%
%TO.N,gnd*%
X77232000Y-67522000D03*
%TO.P,C2,1*%
%TO.N,/B_2*%
X77232000Y-65842000D03*
%TD*%
D21*
%TO.N,gnd*%
X88500000Y-33500000D03*
X88500000Y-73500000D03*
X28500000Y-73500000D03*
X28500000Y-33500000D03*
D22*
%TO.N,+3V*%
X47489400Y-68216600D03*
%TO.N,/B_2*%
X63671000Y-69964400D03*
%TO.N,/B_1*%
X65169500Y-69942700D03*
%TO.N,/D_a*%
X61635800Y-69610300D03*
%TO.N,/D_b*%
X59861000Y-69548800D03*
%TO.N,/D_c*%
X62327200Y-66436800D03*
%TO.N,/C_1*%
X64726600Y-50293300D03*
X59645700Y-68053800D03*
%TO.N,/C_2*%
X55693200Y-51851800D03*
X55731700Y-69701200D03*
%TO.N,/C_3*%
X53646900Y-50221000D03*
X54442500Y-69929800D03*
%TO.N,/D_dp*%
X47897600Y-58092000D03*
%TO.N,/D_g*%
X51117100Y-54482900D03*
%TO.N,/D_d*%
X62554200Y-58787000D03*
%TO.N,/D_e*%
X61815500Y-59537200D03*
%TO.N,/D_f*%
X61513800Y-60610200D03*
%TO.N,/CC_1*%
X64819200Y-54254100D03*
%TO.N,/CC_2*%
X62242400Y-55643600D03*
%TO.N,/CC_3*%
X58093800Y-56079200D03*
%TO.N,/CC_4*%
X51379600Y-55654100D03*
%TO.N,/MCLR*%
X57120300Y-54387300D03*
%TO.N,/C_U13*%
X74782200Y-50230000D03*
X63592200Y-63673300D03*
%TO.N,/CC_5*%
X73847400Y-55645000D03*
%TD*%
D23*
%TO.N,gnd*%
X44752000Y-68756000D02*
X44937900Y-68941900D01*
X44937900Y-68941900D02*
X47825700Y-68941900D01*
X47825700Y-68941900D02*
X50228500Y-66539100D01*
X50228500Y-66539100D02*
X50228500Y-59378700D01*
X34157600Y-66960200D02*
X37980900Y-66960200D01*
X32252000Y-68756000D02*
X34047800Y-66960200D01*
X34047800Y-66960200D02*
X34157600Y-66960200D01*
X34157600Y-66960200D02*
X34157600Y-59378700D01*
X42580000Y-41265000D02*
X43799300Y-42484300D01*
X43799300Y-42484300D02*
X43799300Y-52949500D01*
X43799300Y-52949500D02*
X50228500Y-59378700D01*
X77232000Y-67522000D02*
X73486000Y-67522000D01*
X73486000Y-67522000D02*
X72252000Y-68756000D01*
X88500000Y-73500000D02*
X88500000Y-72504000D01*
X88500000Y-72504000D02*
X84752000Y-68756000D01*
%TO.N,+3V*%
X45485600Y-66212800D02*
X46015800Y-65682600D01*
X46015800Y-65682600D02*
X46015800Y-61178100D01*
X46015800Y-61178100D02*
X41310000Y-56472300D01*
X41310000Y-56472300D02*
X41310000Y-42535000D01*
X41310000Y-42535000D02*
X40040000Y-41265000D01*
X42452200Y-69246200D02*
X45485600Y-66212800D01*
X45485600Y-66212800D02*
X47489400Y-68216600D01*
X41626900Y-69246200D02*
X42452200Y-69246200D01*
X79518000Y-69488000D02*
X79518000Y-68662700D01*
X70228500Y-59378700D02*
X72515000Y-59378700D01*
X72515000Y-59378700D02*
X78443400Y-65307100D01*
X78443400Y-65307100D02*
X78443400Y-68207100D01*
X78443400Y-68207100D02*
X78899000Y-68662700D01*
X78899000Y-68662700D02*
X79518000Y-68662700D01*
D24*
%TO.N,/B_2*%
X63671000Y-69964400D02*
X63324800Y-70310600D01*
X63324800Y-70310600D02*
X59623600Y-70310600D01*
X59623600Y-70310600D02*
X57393500Y-68080500D01*
X57393500Y-68080500D02*
X57393500Y-55264700D01*
X57393500Y-55264700D02*
X57860300Y-54797900D01*
X57860300Y-54797900D02*
X57860300Y-51465300D01*
X57860300Y-51465300D02*
X47660000Y-41265000D01*
X68878600Y-65842000D02*
X67793400Y-65842000D01*
X67793400Y-65842000D02*
X63671000Y-69964400D01*
X76196700Y-65842000D02*
X68878600Y-65842000D01*
X68878600Y-65842000D02*
X68878600Y-58847700D01*
X68878600Y-58847700D02*
X69644100Y-58082200D01*
X69644100Y-58082200D02*
X74622500Y-58082200D01*
X74622500Y-58082200D02*
X79518000Y-62977700D01*
X79518000Y-63778000D02*
X79518000Y-62977700D01*
X77232000Y-65842000D02*
X76196700Y-65842000D01*
%TO.N,/B_1*%
X51504700Y-70188200D02*
X51446300Y-70246600D01*
X51446300Y-70246600D02*
X37191800Y-70246600D01*
X37191800Y-70246600D02*
X36717200Y-69772000D01*
X36717200Y-69772000D02*
X36717200Y-69246200D01*
X45120000Y-41265000D02*
X46299100Y-42444100D01*
X46299100Y-42444100D02*
X46299100Y-53616700D01*
X46299100Y-53616700D02*
X51504700Y-58822300D01*
X51504700Y-58822300D02*
X51504700Y-70188200D01*
X51504700Y-70188200D02*
X52027500Y-70711000D01*
X52027500Y-70711000D02*
X64401200Y-70711000D01*
X64401200Y-70711000D02*
X65169500Y-69942700D01*
X35916900Y-69246200D02*
X36717200Y-69246200D01*
X39660900Y-66960200D02*
X39660900Y-67995500D01*
X39660900Y-67995500D02*
X37442700Y-67995500D01*
X37442700Y-67995500D02*
X36717200Y-68721000D01*
X36717200Y-68721000D02*
X36717200Y-69246200D01*
D23*
%TO.N,/D_a*%
X61635800Y-69610300D02*
X60768900Y-68743400D01*
X60768900Y-68743400D02*
X60768900Y-58909500D01*
X60768900Y-58909500D02*
X62067100Y-57611300D01*
X62067100Y-57611300D02*
X62500600Y-57611300D01*
X62500600Y-57611300D02*
X65902200Y-54209700D01*
X65902200Y-54209700D02*
X65902200Y-49806200D01*
X65902200Y-49806200D02*
X65725000Y-49629000D01*
X65725000Y-49629000D02*
X65725000Y-39825000D01*
X65725000Y-39825000D02*
X69350000Y-36200000D01*
%TO.N,/D_b*%
X50200000Y-36200000D02*
X58920400Y-44920400D01*
X58920400Y-44920400D02*
X58920400Y-68608200D01*
X58920400Y-68608200D02*
X59861000Y-69548800D01*
%TO.N,/D_c*%
X74430000Y-46360000D02*
X74430000Y-49556400D01*
X74430000Y-49556400D02*
X62327200Y-61659200D01*
X62327200Y-61659200D02*
X62327200Y-66436800D01*
D24*
%TO.N,/C_1*%
X59645700Y-68053800D02*
X59645700Y-59351600D01*
X59645700Y-59351600D02*
X63252800Y-55744500D01*
X63252800Y-55744500D02*
X63252800Y-51767100D01*
X63252800Y-51767100D02*
X64726600Y-50293300D01*
%TO.N,/C_2*%
X55731700Y-69701200D02*
X55731700Y-51890300D01*
X55731700Y-51890300D02*
X55693200Y-51851800D01*
%TO.N,/C_3*%
X53646900Y-50221000D02*
X54442500Y-51016600D01*
X54442500Y-51016600D02*
X54442500Y-69929800D01*
D23*
%TO.N,/D_dp*%
X42580000Y-46360000D02*
X42580000Y-52774400D01*
X42580000Y-52774400D02*
X47897600Y-58092000D01*
%TO.N,/D_g*%
X51117100Y-54482900D02*
X47660000Y-51025800D01*
X47660000Y-51025800D02*
X47660000Y-46360000D01*
%TO.N,/D_d*%
X69350000Y-46360000D02*
X69350000Y-52118600D01*
X69350000Y-52118600D02*
X62681600Y-58787000D01*
X62681600Y-58787000D02*
X62554200Y-58787000D01*
%TO.N,/D_e*%
X66810000Y-46360000D02*
X66810000Y-54014700D01*
X66810000Y-54014700D02*
X62763100Y-58061600D01*
X62763100Y-58061600D02*
X62253700Y-58061600D01*
X62253700Y-58061600D02*
X61815500Y-58499800D01*
X61815500Y-58499800D02*
X61815500Y-59537200D01*
%TO.N,/D_f*%
X71890000Y-36200000D02*
X70620000Y-37470000D01*
X70620000Y-37470000D02*
X70620000Y-51787900D01*
X70620000Y-51787900D02*
X61797700Y-60610200D01*
X61797700Y-60610200D02*
X61513800Y-60610200D01*
%TO.N,/CC_1*%
X64819200Y-54254100D02*
X65451900Y-53621400D01*
X65451900Y-53621400D02*
X65451900Y-49992800D01*
X65451900Y-49992800D02*
X65215500Y-49756400D01*
X65215500Y-49756400D02*
X65215500Y-49018400D01*
X65215500Y-49018400D02*
X50848300Y-34651200D01*
X50848300Y-34651200D02*
X39048800Y-34651200D01*
X39048800Y-34651200D02*
X37500000Y-36200000D01*
%TO.N,/CC_2*%
X45120000Y-36200000D02*
X46195400Y-35124600D01*
X46195400Y-35124600D02*
X50657300Y-35124600D01*
X50657300Y-35124600D02*
X62242400Y-46709700D01*
X62242400Y-46709700D02*
X62242400Y-55643600D01*
%TO.N,/CC_3*%
X58093800Y-56079200D02*
X58285600Y-55887400D01*
X58285600Y-55887400D02*
X58285600Y-46825600D01*
X58285600Y-46825600D02*
X47660000Y-36200000D01*
%TO.N,/CC_4*%
X51379600Y-55654100D02*
X51842400Y-55191300D01*
X51842400Y-55191300D02*
X51842400Y-54182400D01*
X51842400Y-54182400D02*
X51379700Y-53719700D01*
X51379700Y-53719700D02*
X51379600Y-53719700D01*
X51379600Y-53719700D02*
X51379600Y-47539600D01*
X51379600Y-47539600D02*
X50200000Y-46360000D01*
D24*
%TO.N,Net-(R11-Pad1)*%
X79518000Y-67588000D02*
X79518000Y-65678000D01*
X84752000Y-64256000D02*
X83330000Y-65678000D01*
X83330000Y-65678000D02*
X79518000Y-65678000D01*
%TO.N,Net-(R15-Pad1)*%
X39726900Y-69246200D02*
X40527200Y-69246200D01*
X44752000Y-64256000D02*
X40527200Y-68480800D01*
X40527200Y-68480800D02*
X40527200Y-69246200D01*
X38617200Y-69246200D02*
X39726900Y-69246200D01*
X37816900Y-69246200D02*
X38617200Y-69246200D01*
%TO.N,/MCLR*%
X37500000Y-41265000D02*
X38662800Y-41265000D01*
X38662800Y-41265000D02*
X38662800Y-40974300D01*
X38662800Y-40974300D02*
X39556900Y-40080200D01*
X39556900Y-40080200D02*
X45591600Y-40080200D01*
X45591600Y-40080200D02*
X46390000Y-40878600D01*
X46390000Y-40878600D02*
X46390000Y-41648500D01*
X46390000Y-41648500D02*
X47363500Y-42622000D01*
X47363500Y-42622000D02*
X47984000Y-42622000D01*
X47984000Y-42622000D02*
X57120300Y-51758300D01*
X57120300Y-51758300D02*
X57120300Y-54387300D01*
%TO.N,/C_U13*%
X63592200Y-63673300D02*
X63592200Y-61420000D01*
X63592200Y-61420000D02*
X74782200Y-50230000D01*
D23*
%TO.N,/CC_5*%
X66810000Y-36200000D02*
X67901100Y-35108900D01*
X67901100Y-35108900D02*
X72326200Y-35108900D01*
X72326200Y-35108900D02*
X73160000Y-35942700D01*
X73160000Y-35942700D02*
X73160000Y-36630200D01*
X73160000Y-36630200D02*
X75532300Y-39002500D01*
X75532300Y-39002500D02*
X75532300Y-53960100D01*
X75532300Y-53960100D02*
X73847400Y-55645000D01*
%TD*%
D25*
%TO.N,gnd*%
X89249899Y-31737907D02*
X89490285Y-31810484D01*
X89711991Y-31928368D01*
X89906577Y-32087068D01*
X90066635Y-32280545D01*
X90186064Y-32501424D01*
X90260317Y-32741297D01*
X90290000Y-33023716D01*
X90290001Y-73965269D01*
X90262093Y-74249899D01*
X90189517Y-74490282D01*
X90071633Y-74711989D01*
X89912929Y-74906580D01*
X89719455Y-75066635D01*
X89498576Y-75186064D01*
X89258701Y-75260317D01*
X88976291Y-75290000D01*
X28034721Y-75290000D01*
X27750101Y-75262093D01*
X27509718Y-75189517D01*
X27288011Y-75071633D01*
X27093420Y-74912929D01*
X26933365Y-74719455D01*
X26813936Y-74498576D01*
X26739683Y-74258701D01*
X26710000Y-73976291D01*
X26710000Y-69837917D01*
X31349688Y-69837917D01*
X31436393Y-70094653D01*
X31713223Y-70228048D01*
X32010757Y-70304873D01*
X32317562Y-70322176D01*
X32621848Y-70279292D01*
X32911921Y-70177868D01*
X33067607Y-70094653D01*
X33154312Y-69837917D01*
X32252000Y-68935605D01*
X31349688Y-69837917D01*
X26710000Y-69837917D01*
X26710000Y-68821562D01*
X30685824Y-68821562D01*
X30728708Y-69125848D01*
X30830132Y-69415921D01*
X30913347Y-69571607D01*
X31170083Y-69658312D01*
X32072395Y-68756000D01*
X32431605Y-68756000D01*
X33333917Y-69658312D01*
X33590653Y-69571607D01*
X33724048Y-69294777D01*
X33800873Y-68997243D01*
X33818176Y-68690438D01*
X33797849Y-68546200D01*
X34778828Y-68546200D01*
X34778828Y-69946200D01*
X34791088Y-70070682D01*
X34827398Y-70190380D01*
X34886363Y-70300694D01*
X34965715Y-70397385D01*
X35062406Y-70476737D01*
X35172720Y-70535702D01*
X35292418Y-70572012D01*
X35416900Y-70584272D01*
X36416900Y-70584272D01*
X36483470Y-70577716D01*
X36646541Y-70740787D01*
X36669562Y-70768838D01*
X36774654Y-70855085D01*
X36781480Y-70860687D01*
X36909166Y-70928937D01*
X37047715Y-70970965D01*
X37191800Y-70985156D01*
X37227905Y-70981600D01*
X51258653Y-70981600D01*
X51482246Y-71205192D01*
X51505262Y-71233238D01*
X51617180Y-71325087D01*
X51744867Y-71393337D01*
X51883415Y-71435365D01*
X52027500Y-71449556D01*
X52063605Y-71446000D01*
X64365095Y-71446000D01*
X64401200Y-71449556D01*
X64437305Y-71446000D01*
X64545285Y-71435365D01*
X64683833Y-71393337D01*
X64811520Y-71325087D01*
X64923438Y-71233238D01*
X64946458Y-71205188D01*
X65173946Y-70977700D01*
X65271439Y-70977700D01*
X65471398Y-70937926D01*
X65659756Y-70859905D01*
X65829274Y-70746637D01*
X65973437Y-70602474D01*
X66086705Y-70432956D01*
X66164726Y-70244598D01*
X66204500Y-70044639D01*
X66204500Y-69840761D01*
X66203935Y-69837917D01*
X71349688Y-69837917D01*
X71436393Y-70094653D01*
X71713223Y-70228048D01*
X72010757Y-70304873D01*
X72317562Y-70322176D01*
X72621848Y-70279292D01*
X72911921Y-70177868D01*
X73067607Y-70094653D01*
X73154312Y-69837917D01*
X72252000Y-68935605D01*
X71349688Y-69837917D01*
X66203935Y-69837917D01*
X66164726Y-69640802D01*
X66086705Y-69452444D01*
X65973437Y-69282926D01*
X65829274Y-69138763D01*
X65659756Y-69025495D01*
X65652399Y-69022448D01*
X65853285Y-68821562D01*
X70685824Y-68821562D01*
X70728708Y-69125848D01*
X70830132Y-69415921D01*
X70913347Y-69571607D01*
X71170083Y-69658312D01*
X72072395Y-68756000D01*
X72431605Y-68756000D01*
X73333917Y-69658312D01*
X73590653Y-69571607D01*
X73724048Y-69294777D01*
X73800873Y-68997243D01*
X73818176Y-68690438D01*
X73775292Y-68386152D01*
X73673868Y-68096079D01*
X73647636Y-68047000D01*
X75858928Y-68047000D01*
X75871188Y-68171482D01*
X75907498Y-68291180D01*
X75966463Y-68401494D01*
X76045815Y-68498185D01*
X76142506Y-68577537D01*
X76252820Y-68636502D01*
X76372518Y-68672812D01*
X76497000Y-68685072D01*
X76946250Y-68682000D01*
X77105000Y-68523250D01*
X77105000Y-67649000D01*
X76020750Y-67649000D01*
X75862000Y-67807750D01*
X75858928Y-68047000D01*
X73647636Y-68047000D01*
X73590653Y-67940393D01*
X73333917Y-67853688D01*
X72431605Y-68756000D01*
X72072395Y-68756000D01*
X71170083Y-67853688D01*
X70913347Y-67940393D01*
X70779952Y-68217223D01*
X70703127Y-68514757D01*
X70685824Y-68821562D01*
X65853285Y-68821562D01*
X67000764Y-67674083D01*
X71349688Y-67674083D01*
X72252000Y-68576395D01*
X73154312Y-67674083D01*
X73067607Y-67417347D01*
X72790777Y-67283952D01*
X72493243Y-67207127D01*
X72186438Y-67189824D01*
X71882152Y-67232708D01*
X71592079Y-67334132D01*
X71436393Y-67417347D01*
X71349688Y-67674083D01*
X67000764Y-67674083D01*
X68097847Y-66577000D01*
X68842495Y-66577000D01*
X68878600Y-66580556D01*
X68914705Y-66577000D01*
X75897130Y-66577000D01*
X75907498Y-66611180D01*
X75945353Y-66682000D01*
X75907498Y-66752820D01*
X75871188Y-66872518D01*
X75858928Y-66997000D01*
X75862000Y-67236250D01*
X76020750Y-67395000D01*
X77105000Y-67395000D01*
X77105000Y-67375000D01*
X77359000Y-67375000D01*
X77359000Y-67395000D01*
X77379000Y-67395000D01*
X77379000Y-67649000D01*
X77359000Y-67649000D01*
X77359000Y-68523250D01*
X77517750Y-68682000D01*
X77851847Y-68684285D01*
X77870372Y-68706856D01*
X77903400Y-68747101D01*
X77932398Y-68770899D01*
X78179928Y-69018429D01*
X78179928Y-69988000D01*
X78192188Y-70112482D01*
X78228498Y-70232180D01*
X78287463Y-70342494D01*
X78366815Y-70439185D01*
X78463506Y-70518537D01*
X78573820Y-70577502D01*
X78693518Y-70613812D01*
X78818000Y-70626072D01*
X80218000Y-70626072D01*
X80342482Y-70613812D01*
X80462180Y-70577502D01*
X80572494Y-70518537D01*
X80669185Y-70439185D01*
X80748537Y-70342494D01*
X80807502Y-70232180D01*
X80843812Y-70112482D01*
X80856072Y-69988000D01*
X80856072Y-69837917D01*
X83849688Y-69837917D01*
X83936393Y-70094653D01*
X84213223Y-70228048D01*
X84510757Y-70304873D01*
X84817562Y-70322176D01*
X85121848Y-70279292D01*
X85411921Y-70177868D01*
X85567607Y-70094653D01*
X85654312Y-69837917D01*
X84752000Y-68935605D01*
X83849688Y-69837917D01*
X80856072Y-69837917D01*
X80856072Y-68988000D01*
X80843812Y-68863518D01*
X80831085Y-68821562D01*
X83185824Y-68821562D01*
X83228708Y-69125848D01*
X83330132Y-69415921D01*
X83413347Y-69571607D01*
X83670083Y-69658312D01*
X84572395Y-68756000D01*
X84931605Y-68756000D01*
X85833917Y-69658312D01*
X86090653Y-69571607D01*
X86224048Y-69294777D01*
X86300873Y-68997243D01*
X86318176Y-68690438D01*
X86275292Y-68386152D01*
X86173868Y-68096079D01*
X86090653Y-67940393D01*
X85833917Y-67853688D01*
X84931605Y-68756000D01*
X84572395Y-68756000D01*
X83670083Y-67853688D01*
X83413347Y-67940393D01*
X83279952Y-68217223D01*
X83203127Y-68514757D01*
X83185824Y-68821562D01*
X80831085Y-68821562D01*
X80807502Y-68743820D01*
X80748537Y-68633506D01*
X80670158Y-68538000D01*
X80748537Y-68442494D01*
X80807502Y-68332180D01*
X80843812Y-68212482D01*
X80856072Y-68088000D01*
X80856072Y-67674083D01*
X83849688Y-67674083D01*
X84752000Y-68576395D01*
X85654312Y-67674083D01*
X85567607Y-67417347D01*
X85290777Y-67283952D01*
X84993243Y-67207127D01*
X84686438Y-67189824D01*
X84382152Y-67232708D01*
X84092079Y-67334132D01*
X83936393Y-67417347D01*
X83849688Y-67674083D01*
X80856072Y-67674083D01*
X80856072Y-67088000D01*
X80843812Y-66963518D01*
X80807502Y-66843820D01*
X80748537Y-66733506D01*
X80669185Y-66636815D01*
X80664536Y-66633000D01*
X80669185Y-66629185D01*
X80748537Y-66532494D01*
X80807502Y-66422180D01*
X80810287Y-66413000D01*
X83293895Y-66413000D01*
X83330000Y-66416556D01*
X83366105Y-66413000D01*
X83474085Y-66402365D01*
X83612633Y-66360337D01*
X83740320Y-66292087D01*
X83852238Y-66200238D01*
X83875258Y-66172188D01*
X84293027Y-65754419D01*
X84296965Y-65756050D01*
X84598353Y-65816000D01*
X84905647Y-65816000D01*
X85207035Y-65756050D01*
X85490937Y-65638454D01*
X85746442Y-65467731D01*
X85963731Y-65250442D01*
X86134454Y-64994937D01*
X86252050Y-64711035D01*
X86312000Y-64409647D01*
X86312000Y-64102353D01*
X86252050Y-63800965D01*
X86134454Y-63517063D01*
X85963731Y-63261558D01*
X85746442Y-63044269D01*
X85490937Y-62873546D01*
X85207035Y-62755950D01*
X84905647Y-62696000D01*
X84598353Y-62696000D01*
X84296965Y-62755950D01*
X84013063Y-62873546D01*
X83757558Y-63044269D01*
X83540269Y-63261558D01*
X83369546Y-63517063D01*
X83251950Y-63800965D01*
X83192000Y-64102353D01*
X83192000Y-64409647D01*
X83251950Y-64711035D01*
X83253581Y-64714973D01*
X83025554Y-64943000D01*
X80810287Y-64943000D01*
X80807502Y-64933820D01*
X80748537Y-64823506D01*
X80670158Y-64728000D01*
X80748537Y-64632494D01*
X80807502Y-64522180D01*
X80843812Y-64402482D01*
X80856072Y-64278000D01*
X80856072Y-63278000D01*
X80843812Y-63153518D01*
X80807502Y-63033820D01*
X80748537Y-62923506D01*
X80669185Y-62826815D01*
X80572494Y-62747463D01*
X80462180Y-62688498D01*
X80342482Y-62652188D01*
X80218000Y-62639928D01*
X80170865Y-62639928D01*
X80132087Y-62567380D01*
X80040238Y-62455462D01*
X80012193Y-62432446D01*
X75167759Y-57588013D01*
X75144738Y-57559962D01*
X75032820Y-57468113D01*
X74905133Y-57399863D01*
X74766585Y-57357835D01*
X74658605Y-57347200D01*
X74622500Y-57343644D01*
X74586395Y-57347200D01*
X69680194Y-57347200D01*
X69644099Y-57343645D01*
X69608004Y-57347200D01*
X69607995Y-57347200D01*
X69500015Y-57357835D01*
X69361467Y-57399863D01*
X69233780Y-57468113D01*
X69121862Y-57559962D01*
X69098846Y-57588007D01*
X68384408Y-58302446D01*
X68356363Y-58325462D01*
X68264514Y-58437380D01*
X68199208Y-58559560D01*
X68196264Y-58565067D01*
X68154235Y-58703615D01*
X68140044Y-58847700D01*
X68143601Y-58883815D01*
X68143600Y-65107000D01*
X67829505Y-65107000D01*
X67793400Y-65103444D01*
X67649314Y-65117635D01*
X67607286Y-65130384D01*
X67510767Y-65159663D01*
X67383080Y-65227913D01*
X67271162Y-65319762D01*
X67248146Y-65347807D01*
X63666554Y-68929400D01*
X63569061Y-68929400D01*
X63369102Y-68969174D01*
X63180744Y-69047195D01*
X63011226Y-69160463D01*
X62867063Y-69304626D01*
X62753795Y-69474144D01*
X62711770Y-69575600D01*
X62670800Y-69575600D01*
X62670800Y-69508361D01*
X62631026Y-69308402D01*
X62553005Y-69120044D01*
X62439737Y-68950526D01*
X62295574Y-68806363D01*
X62126056Y-68693095D01*
X61937698Y-68615074D01*
X61737739Y-68575300D01*
X61675601Y-68575300D01*
X61528900Y-68428599D01*
X61528900Y-67102211D01*
X61667426Y-67240737D01*
X61836944Y-67354005D01*
X62025302Y-67432026D01*
X62225261Y-67471800D01*
X62429139Y-67471800D01*
X62629098Y-67432026D01*
X62817456Y-67354005D01*
X62986974Y-67240737D01*
X63131137Y-67096574D01*
X63244405Y-66927056D01*
X63322426Y-66738698D01*
X63362200Y-66538739D01*
X63362200Y-66334861D01*
X63322426Y-66134902D01*
X63244405Y-65946544D01*
X63131137Y-65777026D01*
X63087200Y-65733089D01*
X63087200Y-64580653D01*
X63101944Y-64590505D01*
X63290302Y-64668526D01*
X63490261Y-64708300D01*
X63694139Y-64708300D01*
X63894098Y-64668526D01*
X64082456Y-64590505D01*
X64251974Y-64477237D01*
X64396137Y-64333074D01*
X64509405Y-64163556D01*
X64587426Y-63975198D01*
X64627200Y-63775239D01*
X64627200Y-63571361D01*
X64587426Y-63371402D01*
X64509405Y-63183044D01*
X64396137Y-63013526D01*
X64327200Y-62944589D01*
X64327200Y-61724446D01*
X74772301Y-51279346D01*
X74772301Y-53645296D01*
X73807598Y-54610000D01*
X73745461Y-54610000D01*
X73545502Y-54649774D01*
X73357144Y-54727795D01*
X73187626Y-54841063D01*
X73043463Y-54985226D01*
X72930195Y-55154744D01*
X72852174Y-55343102D01*
X72812400Y-55543061D01*
X72812400Y-55746939D01*
X72852174Y-55946898D01*
X72930195Y-56135256D01*
X73043463Y-56304774D01*
X73187626Y-56448937D01*
X73357144Y-56562205D01*
X73545502Y-56640226D01*
X73745461Y-56680000D01*
X73949339Y-56680000D01*
X74149298Y-56640226D01*
X74337656Y-56562205D01*
X74507174Y-56448937D01*
X74651337Y-56304774D01*
X74764605Y-56135256D01*
X74842626Y-55946898D01*
X74882400Y-55746939D01*
X74882400Y-55684802D01*
X76043308Y-54523895D01*
X76072301Y-54500101D01*
X76096095Y-54471108D01*
X76096099Y-54471104D01*
X76154111Y-54400415D01*
X76167274Y-54384376D01*
X76237846Y-54252347D01*
X76281303Y-54109086D01*
X76292300Y-53997433D01*
X76292300Y-53997424D01*
X76295976Y-53960101D01*
X76292300Y-53922778D01*
X76292300Y-47572900D01*
X76313957Y-47587371D01*
X76566011Y-47691775D01*
X76833589Y-47745000D01*
X77106411Y-47745000D01*
X77373989Y-47691775D01*
X77626043Y-47587371D01*
X77852886Y-47435799D01*
X78045799Y-47242886D01*
X78197371Y-47016043D01*
X78240000Y-46913127D01*
X78282629Y-47016043D01*
X78434201Y-47242886D01*
X78627114Y-47435799D01*
X78853957Y-47587371D01*
X79106011Y-47691775D01*
X79373589Y-47745000D01*
X79646411Y-47745000D01*
X79913989Y-47691775D01*
X80166043Y-47587371D01*
X80392886Y-47435799D01*
X80585799Y-47242886D01*
X80737371Y-47016043D01*
X80841775Y-46763989D01*
X80895000Y-46496411D01*
X80895000Y-46223589D01*
X80841775Y-45956011D01*
X80737371Y-45703957D01*
X80585799Y-45477114D01*
X80392886Y-45284201D01*
X80166043Y-45132629D01*
X79913989Y-45028225D01*
X79646411Y-44975000D01*
X79373589Y-44975000D01*
X79106011Y-45028225D01*
X78853957Y-45132629D01*
X78627114Y-45284201D01*
X78434201Y-45477114D01*
X78282629Y-45703957D01*
X78240000Y-45806873D01*
X78197371Y-45703957D01*
X78045799Y-45477114D01*
X77852886Y-45284201D01*
X77626043Y-45132629D01*
X77373989Y-45028225D01*
X77106411Y-44975000D01*
X76833589Y-44975000D01*
X76566011Y-45028225D01*
X76313957Y-45132629D01*
X76292300Y-45147100D01*
X76292300Y-39039823D01*
X76295976Y-39002500D01*
X76292300Y-38965177D01*
X76292300Y-38965167D01*
X76281303Y-38853514D01*
X76237846Y-38710253D01*
X76167274Y-38578224D01*
X76072301Y-38462499D01*
X76043304Y-38438702D01*
X75047809Y-37443208D01*
X75086043Y-37427371D01*
X75312886Y-37275799D01*
X75505799Y-37082886D01*
X75657371Y-36856043D01*
X75700000Y-36753127D01*
X75742629Y-36856043D01*
X75894201Y-37082886D01*
X76087114Y-37275799D01*
X76313957Y-37427371D01*
X76566011Y-37531775D01*
X76833589Y-37585000D01*
X77106411Y-37585000D01*
X77373989Y-37531775D01*
X77626043Y-37427371D01*
X77852886Y-37275799D01*
X78045799Y-37082886D01*
X78197371Y-36856043D01*
X78240000Y-36753127D01*
X78282629Y-36856043D01*
X78434201Y-37082886D01*
X78627114Y-37275799D01*
X78853957Y-37427371D01*
X79106011Y-37531775D01*
X79373589Y-37585000D01*
X79646411Y-37585000D01*
X79913989Y-37531775D01*
X80166043Y-37427371D01*
X80392886Y-37275799D01*
X80585799Y-37082886D01*
X80737371Y-36856043D01*
X80841775Y-36603989D01*
X80895000Y-36336411D01*
X80895000Y-36063589D01*
X80841775Y-35796011D01*
X80737371Y-35543957D01*
X80585799Y-35317114D01*
X80392886Y-35124201D01*
X80166043Y-34972629D01*
X79913989Y-34868225D01*
X79646411Y-34815000D01*
X79373589Y-34815000D01*
X79106011Y-34868225D01*
X78853957Y-34972629D01*
X78627114Y-35124201D01*
X78434201Y-35317114D01*
X78282629Y-35543957D01*
X78240000Y-35646873D01*
X78197371Y-35543957D01*
X78045799Y-35317114D01*
X77852886Y-35124201D01*
X77626043Y-34972629D01*
X77373989Y-34868225D01*
X77106411Y-34815000D01*
X76833589Y-34815000D01*
X76566011Y-34868225D01*
X76313957Y-34972629D01*
X76087114Y-35124201D01*
X75894201Y-35317114D01*
X75742629Y-35543957D01*
X75700000Y-35646873D01*
X75657371Y-35543957D01*
X75505799Y-35317114D01*
X75312886Y-35124201D01*
X75086043Y-34972629D01*
X74833989Y-34868225D01*
X74566411Y-34815000D01*
X74293589Y-34815000D01*
X74026011Y-34868225D01*
X73773957Y-34972629D01*
X73547114Y-35124201D01*
X73481708Y-35189607D01*
X72890003Y-34597902D01*
X72866201Y-34568899D01*
X72750476Y-34473926D01*
X72618447Y-34403354D01*
X72475186Y-34359897D01*
X72363533Y-34348900D01*
X72363522Y-34348900D01*
X72326200Y-34345224D01*
X72288878Y-34348900D01*
X67938422Y-34348900D01*
X67901099Y-34345224D01*
X67863776Y-34348900D01*
X67863767Y-34348900D01*
X67752114Y-34359897D01*
X67608853Y-34403354D01*
X67476824Y-34473926D01*
X67476822Y-34473927D01*
X67476823Y-34473927D01*
X67390096Y-34545101D01*
X67390092Y-34545105D01*
X67361099Y-34568899D01*
X67337305Y-34597892D01*
X67091364Y-34843833D01*
X66946411Y-34815000D01*
X66673589Y-34815000D01*
X66406011Y-34868225D01*
X66153957Y-34972629D01*
X65927114Y-35124201D01*
X65734201Y-35317114D01*
X65582629Y-35543957D01*
X65478225Y-35796011D01*
X65425000Y-36063589D01*
X65425000Y-36336411D01*
X65478225Y-36603989D01*
X65582629Y-36856043D01*
X65734201Y-37082886D01*
X65927114Y-37275799D01*
X66153957Y-37427371D01*
X66406011Y-37531775D01*
X66673589Y-37585000D01*
X66890199Y-37585000D01*
X65213998Y-39261201D01*
X65185000Y-39284999D01*
X65161202Y-39313997D01*
X65161201Y-39313998D01*
X65090026Y-39400724D01*
X65019454Y-39532754D01*
X65009279Y-39566299D01*
X64975998Y-39676014D01*
X64967290Y-39764428D01*
X64961324Y-39825000D01*
X64965001Y-39862332D01*
X64965000Y-47693098D01*
X51412104Y-34140203D01*
X51388301Y-34111199D01*
X51272576Y-34016226D01*
X51140547Y-33945654D01*
X50997286Y-33902197D01*
X50885633Y-33891200D01*
X50885622Y-33891200D01*
X50848300Y-33887524D01*
X50810978Y-33891200D01*
X39086123Y-33891200D01*
X39048800Y-33887524D01*
X39011477Y-33891200D01*
X39011467Y-33891200D01*
X38899814Y-33902197D01*
X38756553Y-33945654D01*
X38624523Y-34016226D01*
X38540883Y-34084868D01*
X38508799Y-34111199D01*
X38485001Y-34140197D01*
X37781365Y-34843833D01*
X37636411Y-34815000D01*
X37363589Y-34815000D01*
X37096011Y-34868225D01*
X36843957Y-34972629D01*
X36617114Y-35124201D01*
X36424201Y-35317114D01*
X36272629Y-35543957D01*
X36168225Y-35796011D01*
X36115000Y-36063589D01*
X36115000Y-36336411D01*
X36168225Y-36603989D01*
X36272629Y-36856043D01*
X36424201Y-37082886D01*
X36617114Y-37275799D01*
X36843957Y-37427371D01*
X37096011Y-37531775D01*
X37363589Y-37585000D01*
X37636411Y-37585000D01*
X37903989Y-37531775D01*
X38156043Y-37427371D01*
X38382886Y-37275799D01*
X38575799Y-37082886D01*
X38727371Y-36856043D01*
X38770000Y-36753127D01*
X38812629Y-36856043D01*
X38964201Y-37082886D01*
X39157114Y-37275799D01*
X39383957Y-37427371D01*
X39636011Y-37531775D01*
X39903589Y-37585000D01*
X40176411Y-37585000D01*
X40443989Y-37531775D01*
X40696043Y-37427371D01*
X40922886Y-37275799D01*
X41115799Y-37082886D01*
X41267371Y-36856043D01*
X41310000Y-36753127D01*
X41352629Y-36856043D01*
X41504201Y-37082886D01*
X41697114Y-37275799D01*
X41923957Y-37427371D01*
X42176011Y-37531775D01*
X42443589Y-37585000D01*
X42716411Y-37585000D01*
X42983989Y-37531775D01*
X43236043Y-37427371D01*
X43462886Y-37275799D01*
X43655799Y-37082886D01*
X43807371Y-36856043D01*
X43850000Y-36753127D01*
X43892629Y-36856043D01*
X44044201Y-37082886D01*
X44237114Y-37275799D01*
X44463957Y-37427371D01*
X44716011Y-37531775D01*
X44983589Y-37585000D01*
X45256411Y-37585000D01*
X45523989Y-37531775D01*
X45776043Y-37427371D01*
X46002886Y-37275799D01*
X46195799Y-37082886D01*
X46347371Y-36856043D01*
X46390000Y-36753127D01*
X46432629Y-36856043D01*
X46584201Y-37082886D01*
X46777114Y-37275799D01*
X47003957Y-37427371D01*
X47256011Y-37531775D01*
X47523589Y-37585000D01*
X47796411Y-37585000D01*
X47941365Y-37556167D01*
X50152699Y-39767500D01*
X50052509Y-39767500D01*
X49763195Y-39825048D01*
X49490668Y-39937933D01*
X49245399Y-40101816D01*
X49036816Y-40310399D01*
X48930000Y-40470261D01*
X48823184Y-40310399D01*
X48614601Y-40101816D01*
X48369332Y-39937933D01*
X48096805Y-39825048D01*
X47807491Y-39767500D01*
X47512509Y-39767500D01*
X47223195Y-39825048D01*
X46950668Y-39937933D01*
X46705399Y-40101816D01*
X46679031Y-40128184D01*
X46136858Y-39586012D01*
X46113838Y-39557962D01*
X46001920Y-39466113D01*
X45874233Y-39397863D01*
X45735685Y-39355835D01*
X45627705Y-39345200D01*
X45591600Y-39341644D01*
X45555495Y-39345200D01*
X39592994Y-39345200D01*
X39556899Y-39341645D01*
X39520804Y-39345200D01*
X39520795Y-39345200D01*
X39412815Y-39355835D01*
X39274267Y-39397863D01*
X39146580Y-39466113D01*
X39034662Y-39557962D01*
X39011646Y-39586007D01*
X38721770Y-39875883D01*
X38716994Y-39871963D01*
X38606680Y-39812998D01*
X38486982Y-39776688D01*
X38362500Y-39764428D01*
X36637500Y-39764428D01*
X36513018Y-39776688D01*
X36393320Y-39812998D01*
X36283006Y-39871963D01*
X36186315Y-39951315D01*
X36106963Y-40048006D01*
X36047998Y-40158320D01*
X36011688Y-40278018D01*
X35999428Y-40402500D01*
X35999428Y-42127500D01*
X36011688Y-42251982D01*
X36047998Y-42371680D01*
X36106963Y-42481994D01*
X36186315Y-42578685D01*
X36283006Y-42658037D01*
X36393320Y-42717002D01*
X36513018Y-42753312D01*
X36637500Y-42765572D01*
X38362500Y-42765572D01*
X38486982Y-42753312D01*
X38606680Y-42717002D01*
X38716994Y-42658037D01*
X38813685Y-42578685D01*
X38893037Y-42481994D01*
X38952002Y-42371680D01*
X38969898Y-42312683D01*
X39085399Y-42428184D01*
X39330668Y-42592067D01*
X39603195Y-42704952D01*
X39892509Y-42762500D01*
X40187491Y-42762500D01*
X40417039Y-42716840D01*
X40550001Y-42849803D01*
X40550001Y-45072136D01*
X40443989Y-45028225D01*
X40176411Y-44975000D01*
X39903589Y-44975000D01*
X39636011Y-45028225D01*
X39383957Y-45132629D01*
X39157114Y-45284201D01*
X38964201Y-45477114D01*
X38886445Y-45593483D01*
X38875812Y-45485518D01*
X38839502Y-45365820D01*
X38780537Y-45255506D01*
X38701185Y-45158815D01*
X38604494Y-45079463D01*
X38494180Y-45020498D01*
X38374482Y-44984188D01*
X38250000Y-44971928D01*
X36750000Y-44971928D01*
X36625518Y-44984188D01*
X36505820Y-45020498D01*
X36395506Y-45079463D01*
X36298815Y-45158815D01*
X36219463Y-45255506D01*
X36160498Y-45365820D01*
X36124188Y-45485518D01*
X36111928Y-45610000D01*
X36111928Y-47110000D01*
X36124188Y-47234482D01*
X36160498Y-47354180D01*
X36219463Y-47464494D01*
X36298815Y-47561185D01*
X36395506Y-47640537D01*
X36505820Y-47699502D01*
X36625518Y-47735812D01*
X36750000Y-47748072D01*
X38250000Y-47748072D01*
X38374482Y-47735812D01*
X38494180Y-47699502D01*
X38604494Y-47640537D01*
X38701185Y-47561185D01*
X38780537Y-47464494D01*
X38839502Y-47354180D01*
X38875812Y-47234482D01*
X38886445Y-47126517D01*
X38964201Y-47242886D01*
X39157114Y-47435799D01*
X39383957Y-47587371D01*
X39636011Y-47691775D01*
X39903589Y-47745000D01*
X40176411Y-47745000D01*
X40443989Y-47691775D01*
X40550001Y-47647864D01*
X40550000Y-56434978D01*
X40546324Y-56472300D01*
X40550000Y-56509622D01*
X40550000Y-56509632D01*
X40560997Y-56621285D01*
X40589174Y-56714174D01*
X40604454Y-56764546D01*
X40675026Y-56896576D01*
X40714871Y-56945126D01*
X40769999Y-57012301D01*
X40799003Y-57036104D01*
X41856599Y-58093700D01*
X41631039Y-58093700D01*
X41382779Y-58143081D01*
X41148924Y-58239947D01*
X40938460Y-58380575D01*
X40759475Y-58559560D01*
X40618847Y-58770024D01*
X40521981Y-59003879D01*
X40472600Y-59252139D01*
X40472600Y-59505261D01*
X40521981Y-59753521D01*
X40618847Y-59987376D01*
X40759475Y-60197840D01*
X40938460Y-60376825D01*
X41148924Y-60517453D01*
X41382779Y-60614319D01*
X41631039Y-60663700D01*
X41884161Y-60663700D01*
X42132421Y-60614319D01*
X42366276Y-60517453D01*
X42576740Y-60376825D01*
X42755725Y-60197840D01*
X42896353Y-59987376D01*
X42993219Y-59753521D01*
X43042600Y-59505261D01*
X43042600Y-59279701D01*
X45255801Y-61492903D01*
X45255801Y-62776149D01*
X45207035Y-62755950D01*
X44905647Y-62696000D01*
X44598353Y-62696000D01*
X44296965Y-62755950D01*
X44013063Y-62873546D01*
X43757558Y-63044269D01*
X43540269Y-63261558D01*
X43369546Y-63517063D01*
X43251950Y-63800965D01*
X43192000Y-64102353D01*
X43192000Y-64409647D01*
X43251950Y-64711035D01*
X43253581Y-64714972D01*
X40823972Y-67144582D01*
X40823972Y-66225200D01*
X40811712Y-66100718D01*
X40775402Y-65981020D01*
X40716437Y-65870706D01*
X40637085Y-65774015D01*
X40540394Y-65694663D01*
X40430080Y-65635698D01*
X40310382Y-65599388D01*
X40185900Y-65587128D01*
X39135900Y-65587128D01*
X39011418Y-65599388D01*
X38891720Y-65635698D01*
X38820900Y-65673553D01*
X38750080Y-65635698D01*
X38630382Y-65599388D01*
X38505900Y-65587128D01*
X38266650Y-65590200D01*
X38107900Y-65748950D01*
X38107900Y-66833200D01*
X38127900Y-66833200D01*
X38127900Y-67087200D01*
X38107900Y-67087200D01*
X38107900Y-67107200D01*
X37853900Y-67107200D01*
X37853900Y-67087200D01*
X36979650Y-67087200D01*
X36820900Y-67245950D01*
X36818615Y-67580138D01*
X36484016Y-67914738D01*
X36416900Y-67908128D01*
X35416900Y-67908128D01*
X35292418Y-67920388D01*
X35172720Y-67956698D01*
X35062406Y-68015663D01*
X34965715Y-68095015D01*
X34886363Y-68191706D01*
X34827398Y-68302020D01*
X34791088Y-68421718D01*
X34778828Y-68546200D01*
X33797849Y-68546200D01*
X33775292Y-68386152D01*
X33673868Y-68096079D01*
X33590653Y-67940393D01*
X33333917Y-67853688D01*
X32431605Y-68756000D01*
X32072395Y-68756000D01*
X31170083Y-67853688D01*
X30913347Y-67940393D01*
X30779952Y-68217223D01*
X30703127Y-68514757D01*
X30685824Y-68821562D01*
X26710000Y-68821562D01*
X26710000Y-67674083D01*
X31349688Y-67674083D01*
X32252000Y-68576395D01*
X33154312Y-67674083D01*
X33067607Y-67417347D01*
X32790777Y-67283952D01*
X32493243Y-67207127D01*
X32186438Y-67189824D01*
X31882152Y-67232708D01*
X31592079Y-67334132D01*
X31436393Y-67417347D01*
X31349688Y-67674083D01*
X26710000Y-67674083D01*
X26710000Y-66225200D01*
X36817828Y-66225200D01*
X36820900Y-66674450D01*
X36979650Y-66833200D01*
X37853900Y-66833200D01*
X37853900Y-65748950D01*
X37695150Y-65590200D01*
X37455900Y-65587128D01*
X37331418Y-65599388D01*
X37211720Y-65635698D01*
X37101406Y-65694663D01*
X37004715Y-65774015D01*
X36925363Y-65870706D01*
X36866398Y-65981020D01*
X36830088Y-66100718D01*
X36817828Y-66225200D01*
X26710000Y-66225200D01*
X26710000Y-64102353D01*
X30692000Y-64102353D01*
X30692000Y-64409647D01*
X30751950Y-64711035D01*
X30869546Y-64994937D01*
X31040269Y-65250442D01*
X31257558Y-65467731D01*
X31513063Y-65638454D01*
X31796965Y-65756050D01*
X32098353Y-65816000D01*
X32405647Y-65816000D01*
X32707035Y-65756050D01*
X32990937Y-65638454D01*
X33246442Y-65467731D01*
X33463731Y-65250442D01*
X33634454Y-64994937D01*
X33752050Y-64711035D01*
X33812000Y-64409647D01*
X33812000Y-64102353D01*
X33752050Y-63800965D01*
X33634454Y-63517063D01*
X33463731Y-63261558D01*
X33246442Y-63044269D01*
X32990937Y-62873546D01*
X32707035Y-62755950D01*
X32405647Y-62696000D01*
X32098353Y-62696000D01*
X31796965Y-62755950D01*
X31513063Y-62873546D01*
X31257558Y-63044269D01*
X31040269Y-63261558D01*
X30869546Y-63517063D01*
X30751950Y-63800965D01*
X30692000Y-64102353D01*
X26710000Y-64102353D01*
X26710000Y-60264227D01*
X33451678Y-60264227D01*
X33505066Y-60492901D01*
X33734974Y-60598795D01*
X33981124Y-60657802D01*
X34234055Y-60667652D01*
X34484049Y-60627970D01*
X34721496Y-60540278D01*
X34810134Y-60492901D01*
X34863522Y-60264227D01*
X34157600Y-59558305D01*
X33451678Y-60264227D01*
X26710000Y-60264227D01*
X26710000Y-59455155D01*
X32868648Y-59455155D01*
X32908330Y-59705149D01*
X32996022Y-59942596D01*
X33043399Y-60031234D01*
X33272073Y-60084622D01*
X33977995Y-59378700D01*
X34337205Y-59378700D01*
X35043127Y-60084622D01*
X35271801Y-60031234D01*
X35377695Y-59801326D01*
X35436702Y-59555176D01*
X35446552Y-59302245D01*
X35406870Y-59052251D01*
X35319178Y-58814804D01*
X35271801Y-58726166D01*
X35043127Y-58672778D01*
X34337205Y-59378700D01*
X33977995Y-59378700D01*
X33272073Y-58672778D01*
X33043399Y-58726166D01*
X32937505Y-58956074D01*
X32878498Y-59202224D01*
X32868648Y-59455155D01*
X26710000Y-59455155D01*
X26710000Y-58493173D01*
X33451678Y-58493173D01*
X34157600Y-59199095D01*
X34863522Y-58493173D01*
X34810134Y-58264499D01*
X34580226Y-58158605D01*
X34334076Y-58099598D01*
X34081145Y-58089748D01*
X33831151Y-58129430D01*
X33593704Y-58217122D01*
X33505066Y-58264499D01*
X33451678Y-58493173D01*
X26710000Y-58493173D01*
X26710000Y-33034721D01*
X26737907Y-32750101D01*
X26810484Y-32509715D01*
X26928368Y-32288009D01*
X27087068Y-32093423D01*
X27280545Y-31933365D01*
X27501424Y-31813936D01*
X27741297Y-31739683D01*
X28023716Y-31710000D01*
X88965279Y-31710000D01*
X89249899Y-31737907D01*
%TA.AperFunction,Conductor*%
D26*
G36*
X89249899Y-31737907D02*
G01*
X89490285Y-31810484D01*
X89711991Y-31928368D01*
X89906577Y-32087068D01*
X90066635Y-32280545D01*
X90186064Y-32501424D01*
X90260317Y-32741297D01*
X90290000Y-33023716D01*
X90290001Y-73965269D01*
X90262093Y-74249899D01*
X90189517Y-74490282D01*
X90071633Y-74711989D01*
X89912929Y-74906580D01*
X89719455Y-75066635D01*
X89498576Y-75186064D01*
X89258701Y-75260317D01*
X88976291Y-75290000D01*
X28034721Y-75290000D01*
X27750101Y-75262093D01*
X27509718Y-75189517D01*
X27288011Y-75071633D01*
X27093420Y-74912929D01*
X26933365Y-74719455D01*
X26813936Y-74498576D01*
X26739683Y-74258701D01*
X26710000Y-73976291D01*
X26710000Y-69837917D01*
X31349688Y-69837917D01*
X31436393Y-70094653D01*
X31713223Y-70228048D01*
X32010757Y-70304873D01*
X32317562Y-70322176D01*
X32621848Y-70279292D01*
X32911921Y-70177868D01*
X33067607Y-70094653D01*
X33154312Y-69837917D01*
X32252000Y-68935605D01*
X31349688Y-69837917D01*
X26710000Y-69837917D01*
X26710000Y-68821562D01*
X30685824Y-68821562D01*
X30728708Y-69125848D01*
X30830132Y-69415921D01*
X30913347Y-69571607D01*
X31170083Y-69658312D01*
X32072395Y-68756000D01*
X32431605Y-68756000D01*
X33333917Y-69658312D01*
X33590653Y-69571607D01*
X33724048Y-69294777D01*
X33800873Y-68997243D01*
X33818176Y-68690438D01*
X33797849Y-68546200D01*
X34778828Y-68546200D01*
X34778828Y-69946200D01*
X34791088Y-70070682D01*
X34827398Y-70190380D01*
X34886363Y-70300694D01*
X34965715Y-70397385D01*
X35062406Y-70476737D01*
X35172720Y-70535702D01*
X35292418Y-70572012D01*
X35416900Y-70584272D01*
X36416900Y-70584272D01*
X36483470Y-70577716D01*
X36646541Y-70740787D01*
X36669562Y-70768838D01*
X36774654Y-70855085D01*
X36781480Y-70860687D01*
X36909166Y-70928937D01*
X37047715Y-70970965D01*
X37191800Y-70985156D01*
X37227905Y-70981600D01*
X51258653Y-70981600D01*
X51482246Y-71205192D01*
X51505262Y-71233238D01*
X51617180Y-71325087D01*
X51744867Y-71393337D01*
X51883415Y-71435365D01*
X52027500Y-71449556D01*
X52063605Y-71446000D01*
X64365095Y-71446000D01*
X64401200Y-71449556D01*
X64437305Y-71446000D01*
X64545285Y-71435365D01*
X64683833Y-71393337D01*
X64811520Y-71325087D01*
X64923438Y-71233238D01*
X64946458Y-71205188D01*
X65173946Y-70977700D01*
X65271439Y-70977700D01*
X65471398Y-70937926D01*
X65659756Y-70859905D01*
X65829274Y-70746637D01*
X65973437Y-70602474D01*
X66086705Y-70432956D01*
X66164726Y-70244598D01*
X66204500Y-70044639D01*
X66204500Y-69840761D01*
X66203935Y-69837917D01*
X71349688Y-69837917D01*
X71436393Y-70094653D01*
X71713223Y-70228048D01*
X72010757Y-70304873D01*
X72317562Y-70322176D01*
X72621848Y-70279292D01*
X72911921Y-70177868D01*
X73067607Y-70094653D01*
X73154312Y-69837917D01*
X72252000Y-68935605D01*
X71349688Y-69837917D01*
X66203935Y-69837917D01*
X66164726Y-69640802D01*
X66086705Y-69452444D01*
X65973437Y-69282926D01*
X65829274Y-69138763D01*
X65659756Y-69025495D01*
X65652399Y-69022448D01*
X65853285Y-68821562D01*
X70685824Y-68821562D01*
X70728708Y-69125848D01*
X70830132Y-69415921D01*
X70913347Y-69571607D01*
X71170083Y-69658312D01*
X72072395Y-68756000D01*
X72431605Y-68756000D01*
X73333917Y-69658312D01*
X73590653Y-69571607D01*
X73724048Y-69294777D01*
X73800873Y-68997243D01*
X73818176Y-68690438D01*
X73775292Y-68386152D01*
X73673868Y-68096079D01*
X73647636Y-68047000D01*
X75858928Y-68047000D01*
X75871188Y-68171482D01*
X75907498Y-68291180D01*
X75966463Y-68401494D01*
X76045815Y-68498185D01*
X76142506Y-68577537D01*
X76252820Y-68636502D01*
X76372518Y-68672812D01*
X76497000Y-68685072D01*
X76946250Y-68682000D01*
X77105000Y-68523250D01*
X77105000Y-67649000D01*
X76020750Y-67649000D01*
X75862000Y-67807750D01*
X75858928Y-68047000D01*
X73647636Y-68047000D01*
X73590653Y-67940393D01*
X73333917Y-67853688D01*
X72431605Y-68756000D01*
X72072395Y-68756000D01*
X71170083Y-67853688D01*
X70913347Y-67940393D01*
X70779952Y-68217223D01*
X70703127Y-68514757D01*
X70685824Y-68821562D01*
X65853285Y-68821562D01*
X67000764Y-67674083D01*
X71349688Y-67674083D01*
X72252000Y-68576395D01*
X73154312Y-67674083D01*
X73067607Y-67417347D01*
X72790777Y-67283952D01*
X72493243Y-67207127D01*
X72186438Y-67189824D01*
X71882152Y-67232708D01*
X71592079Y-67334132D01*
X71436393Y-67417347D01*
X71349688Y-67674083D01*
X67000764Y-67674083D01*
X68097847Y-66577000D01*
X68842495Y-66577000D01*
X68878600Y-66580556D01*
X68914705Y-66577000D01*
X75897130Y-66577000D01*
X75907498Y-66611180D01*
X75945353Y-66682000D01*
X75907498Y-66752820D01*
X75871188Y-66872518D01*
X75858928Y-66997000D01*
X75862000Y-67236250D01*
X76020750Y-67395000D01*
X77105000Y-67395000D01*
X77105000Y-67375000D01*
X77359000Y-67375000D01*
X77359000Y-67395000D01*
X77379000Y-67395000D01*
X77379000Y-67649000D01*
X77359000Y-67649000D01*
X77359000Y-68523250D01*
X77517750Y-68682000D01*
X77851847Y-68684285D01*
X77870372Y-68706856D01*
X77903400Y-68747101D01*
X77932398Y-68770899D01*
X78179928Y-69018429D01*
X78179928Y-69988000D01*
X78192188Y-70112482D01*
X78228498Y-70232180D01*
X78287463Y-70342494D01*
X78366815Y-70439185D01*
X78463506Y-70518537D01*
X78573820Y-70577502D01*
X78693518Y-70613812D01*
X78818000Y-70626072D01*
X80218000Y-70626072D01*
X80342482Y-70613812D01*
X80462180Y-70577502D01*
X80572494Y-70518537D01*
X80669185Y-70439185D01*
X80748537Y-70342494D01*
X80807502Y-70232180D01*
X80843812Y-70112482D01*
X80856072Y-69988000D01*
X80856072Y-69837917D01*
X83849688Y-69837917D01*
X83936393Y-70094653D01*
X84213223Y-70228048D01*
X84510757Y-70304873D01*
X84817562Y-70322176D01*
X85121848Y-70279292D01*
X85411921Y-70177868D01*
X85567607Y-70094653D01*
X85654312Y-69837917D01*
X84752000Y-68935605D01*
X83849688Y-69837917D01*
X80856072Y-69837917D01*
X80856072Y-68988000D01*
X80843812Y-68863518D01*
X80831085Y-68821562D01*
X83185824Y-68821562D01*
X83228708Y-69125848D01*
X83330132Y-69415921D01*
X83413347Y-69571607D01*
X83670083Y-69658312D01*
X84572395Y-68756000D01*
X84931605Y-68756000D01*
X85833917Y-69658312D01*
X86090653Y-69571607D01*
X86224048Y-69294777D01*
X86300873Y-68997243D01*
X86318176Y-68690438D01*
X86275292Y-68386152D01*
X86173868Y-68096079D01*
X86090653Y-67940393D01*
X85833917Y-67853688D01*
X84931605Y-68756000D01*
X84572395Y-68756000D01*
X83670083Y-67853688D01*
X83413347Y-67940393D01*
X83279952Y-68217223D01*
X83203127Y-68514757D01*
X83185824Y-68821562D01*
X80831085Y-68821562D01*
X80807502Y-68743820D01*
X80748537Y-68633506D01*
X80670158Y-68538000D01*
X80748537Y-68442494D01*
X80807502Y-68332180D01*
X80843812Y-68212482D01*
X80856072Y-68088000D01*
X80856072Y-67674083D01*
X83849688Y-67674083D01*
X84752000Y-68576395D01*
X85654312Y-67674083D01*
X85567607Y-67417347D01*
X85290777Y-67283952D01*
X84993243Y-67207127D01*
X84686438Y-67189824D01*
X84382152Y-67232708D01*
X84092079Y-67334132D01*
X83936393Y-67417347D01*
X83849688Y-67674083D01*
X80856072Y-67674083D01*
X80856072Y-67088000D01*
X80843812Y-66963518D01*
X80807502Y-66843820D01*
X80748537Y-66733506D01*
X80669185Y-66636815D01*
X80664536Y-66633000D01*
X80669185Y-66629185D01*
X80748537Y-66532494D01*
X80807502Y-66422180D01*
X80810287Y-66413000D01*
X83293895Y-66413000D01*
X83330000Y-66416556D01*
X83366105Y-66413000D01*
X83474085Y-66402365D01*
X83612633Y-66360337D01*
X83740320Y-66292087D01*
X83852238Y-66200238D01*
X83875258Y-66172188D01*
X84293027Y-65754419D01*
X84296965Y-65756050D01*
X84598353Y-65816000D01*
X84905647Y-65816000D01*
X85207035Y-65756050D01*
X85490937Y-65638454D01*
X85746442Y-65467731D01*
X85963731Y-65250442D01*
X86134454Y-64994937D01*
X86252050Y-64711035D01*
X86312000Y-64409647D01*
X86312000Y-64102353D01*
X86252050Y-63800965D01*
X86134454Y-63517063D01*
X85963731Y-63261558D01*
X85746442Y-63044269D01*
X85490937Y-62873546D01*
X85207035Y-62755950D01*
X84905647Y-62696000D01*
X84598353Y-62696000D01*
X84296965Y-62755950D01*
X84013063Y-62873546D01*
X83757558Y-63044269D01*
X83540269Y-63261558D01*
X83369546Y-63517063D01*
X83251950Y-63800965D01*
X83192000Y-64102353D01*
X83192000Y-64409647D01*
X83251950Y-64711035D01*
X83253581Y-64714973D01*
X83025554Y-64943000D01*
X80810287Y-64943000D01*
X80807502Y-64933820D01*
X80748537Y-64823506D01*
X80670158Y-64728000D01*
X80748537Y-64632494D01*
X80807502Y-64522180D01*
X80843812Y-64402482D01*
X80856072Y-64278000D01*
X80856072Y-63278000D01*
X80843812Y-63153518D01*
X80807502Y-63033820D01*
X80748537Y-62923506D01*
X80669185Y-62826815D01*
X80572494Y-62747463D01*
X80462180Y-62688498D01*
X80342482Y-62652188D01*
X80218000Y-62639928D01*
X80170865Y-62639928D01*
X80132087Y-62567380D01*
X80040238Y-62455462D01*
X80012193Y-62432446D01*
X75167759Y-57588013D01*
X75144738Y-57559962D01*
X75032820Y-57468113D01*
X74905133Y-57399863D01*
X74766585Y-57357835D01*
X74658605Y-57347200D01*
X74622500Y-57343644D01*
X74586395Y-57347200D01*
X69680194Y-57347200D01*
X69644099Y-57343645D01*
X69608004Y-57347200D01*
X69607995Y-57347200D01*
X69500015Y-57357835D01*
X69361467Y-57399863D01*
X69233780Y-57468113D01*
X69121862Y-57559962D01*
X69098846Y-57588007D01*
X68384408Y-58302446D01*
X68356363Y-58325462D01*
X68264514Y-58437380D01*
X68199208Y-58559560D01*
X68196264Y-58565067D01*
X68154235Y-58703615D01*
X68140044Y-58847700D01*
X68143601Y-58883815D01*
X68143600Y-65107000D01*
X67829505Y-65107000D01*
X67793400Y-65103444D01*
X67649314Y-65117635D01*
X67607286Y-65130384D01*
X67510767Y-65159663D01*
X67383080Y-65227913D01*
X67271162Y-65319762D01*
X67248146Y-65347807D01*
X63666554Y-68929400D01*
X63569061Y-68929400D01*
X63369102Y-68969174D01*
X63180744Y-69047195D01*
X63011226Y-69160463D01*
X62867063Y-69304626D01*
X62753795Y-69474144D01*
X62711770Y-69575600D01*
X62670800Y-69575600D01*
X62670800Y-69508361D01*
X62631026Y-69308402D01*
X62553005Y-69120044D01*
X62439737Y-68950526D01*
X62295574Y-68806363D01*
X62126056Y-68693095D01*
X61937698Y-68615074D01*
X61737739Y-68575300D01*
X61675601Y-68575300D01*
X61528900Y-68428599D01*
X61528900Y-67102211D01*
X61667426Y-67240737D01*
X61836944Y-67354005D01*
X62025302Y-67432026D01*
X62225261Y-67471800D01*
X62429139Y-67471800D01*
X62629098Y-67432026D01*
X62817456Y-67354005D01*
X62986974Y-67240737D01*
X63131137Y-67096574D01*
X63244405Y-66927056D01*
X63322426Y-66738698D01*
X63362200Y-66538739D01*
X63362200Y-66334861D01*
X63322426Y-66134902D01*
X63244405Y-65946544D01*
X63131137Y-65777026D01*
X63087200Y-65733089D01*
X63087200Y-64580653D01*
X63101944Y-64590505D01*
X63290302Y-64668526D01*
X63490261Y-64708300D01*
X63694139Y-64708300D01*
X63894098Y-64668526D01*
X64082456Y-64590505D01*
X64251974Y-64477237D01*
X64396137Y-64333074D01*
X64509405Y-64163556D01*
X64587426Y-63975198D01*
X64627200Y-63775239D01*
X64627200Y-63571361D01*
X64587426Y-63371402D01*
X64509405Y-63183044D01*
X64396137Y-63013526D01*
X64327200Y-62944589D01*
X64327200Y-61724446D01*
X74772301Y-51279346D01*
X74772301Y-53645296D01*
X73807598Y-54610000D01*
X73745461Y-54610000D01*
X73545502Y-54649774D01*
X73357144Y-54727795D01*
X73187626Y-54841063D01*
X73043463Y-54985226D01*
X72930195Y-55154744D01*
X72852174Y-55343102D01*
X72812400Y-55543061D01*
X72812400Y-55746939D01*
X72852174Y-55946898D01*
X72930195Y-56135256D01*
X73043463Y-56304774D01*
X73187626Y-56448937D01*
X73357144Y-56562205D01*
X73545502Y-56640226D01*
X73745461Y-56680000D01*
X73949339Y-56680000D01*
X74149298Y-56640226D01*
X74337656Y-56562205D01*
X74507174Y-56448937D01*
X74651337Y-56304774D01*
X74764605Y-56135256D01*
X74842626Y-55946898D01*
X74882400Y-55746939D01*
X74882400Y-55684802D01*
X76043308Y-54523895D01*
X76072301Y-54500101D01*
X76096095Y-54471108D01*
X76096099Y-54471104D01*
X76154111Y-54400415D01*
X76167274Y-54384376D01*
X76237846Y-54252347D01*
X76281303Y-54109086D01*
X76292300Y-53997433D01*
X76292300Y-53997424D01*
X76295976Y-53960101D01*
X76292300Y-53922778D01*
X76292300Y-47572900D01*
X76313957Y-47587371D01*
X76566011Y-47691775D01*
X76833589Y-47745000D01*
X77106411Y-47745000D01*
X77373989Y-47691775D01*
X77626043Y-47587371D01*
X77852886Y-47435799D01*
X78045799Y-47242886D01*
X78197371Y-47016043D01*
X78240000Y-46913127D01*
X78282629Y-47016043D01*
X78434201Y-47242886D01*
X78627114Y-47435799D01*
X78853957Y-47587371D01*
X79106011Y-47691775D01*
X79373589Y-47745000D01*
X79646411Y-47745000D01*
X79913989Y-47691775D01*
X80166043Y-47587371D01*
X80392886Y-47435799D01*
X80585799Y-47242886D01*
X80737371Y-47016043D01*
X80841775Y-46763989D01*
X80895000Y-46496411D01*
X80895000Y-46223589D01*
X80841775Y-45956011D01*
X80737371Y-45703957D01*
X80585799Y-45477114D01*
X80392886Y-45284201D01*
X80166043Y-45132629D01*
X79913989Y-45028225D01*
X79646411Y-44975000D01*
X79373589Y-44975000D01*
X79106011Y-45028225D01*
X78853957Y-45132629D01*
X78627114Y-45284201D01*
X78434201Y-45477114D01*
X78282629Y-45703957D01*
X78240000Y-45806873D01*
X78197371Y-45703957D01*
X78045799Y-45477114D01*
X77852886Y-45284201D01*
X77626043Y-45132629D01*
X77373989Y-45028225D01*
X77106411Y-44975000D01*
X76833589Y-44975000D01*
X76566011Y-45028225D01*
X76313957Y-45132629D01*
X76292300Y-45147100D01*
X76292300Y-39039823D01*
X76295976Y-39002500D01*
X76292300Y-38965177D01*
X76292300Y-38965167D01*
X76281303Y-38853514D01*
X76237846Y-38710253D01*
X76167274Y-38578224D01*
X76072301Y-38462499D01*
X76043304Y-38438702D01*
X75047809Y-37443208D01*
X75086043Y-37427371D01*
X75312886Y-37275799D01*
X75505799Y-37082886D01*
X75657371Y-36856043D01*
X75700000Y-36753127D01*
X75742629Y-36856043D01*
X75894201Y-37082886D01*
X76087114Y-37275799D01*
X76313957Y-37427371D01*
X76566011Y-37531775D01*
X76833589Y-37585000D01*
X77106411Y-37585000D01*
X77373989Y-37531775D01*
X77626043Y-37427371D01*
X77852886Y-37275799D01*
X78045799Y-37082886D01*
X78197371Y-36856043D01*
X78240000Y-36753127D01*
X78282629Y-36856043D01*
X78434201Y-37082886D01*
X78627114Y-37275799D01*
X78853957Y-37427371D01*
X79106011Y-37531775D01*
X79373589Y-37585000D01*
X79646411Y-37585000D01*
X79913989Y-37531775D01*
X80166043Y-37427371D01*
X80392886Y-37275799D01*
X80585799Y-37082886D01*
X80737371Y-36856043D01*
X80841775Y-36603989D01*
X80895000Y-36336411D01*
X80895000Y-36063589D01*
X80841775Y-35796011D01*
X80737371Y-35543957D01*
X80585799Y-35317114D01*
X80392886Y-35124201D01*
X80166043Y-34972629D01*
X79913989Y-34868225D01*
X79646411Y-34815000D01*
X79373589Y-34815000D01*
X79106011Y-34868225D01*
X78853957Y-34972629D01*
X78627114Y-35124201D01*
X78434201Y-35317114D01*
X78282629Y-35543957D01*
X78240000Y-35646873D01*
X78197371Y-35543957D01*
X78045799Y-35317114D01*
X77852886Y-35124201D01*
X77626043Y-34972629D01*
X77373989Y-34868225D01*
X77106411Y-34815000D01*
X76833589Y-34815000D01*
X76566011Y-34868225D01*
X76313957Y-34972629D01*
X76087114Y-35124201D01*
X75894201Y-35317114D01*
X75742629Y-35543957D01*
X75700000Y-35646873D01*
X75657371Y-35543957D01*
X75505799Y-35317114D01*
X75312886Y-35124201D01*
X75086043Y-34972629D01*
X74833989Y-34868225D01*
X74566411Y-34815000D01*
X74293589Y-34815000D01*
X74026011Y-34868225D01*
X73773957Y-34972629D01*
X73547114Y-35124201D01*
X73481708Y-35189607D01*
X72890003Y-34597902D01*
X72866201Y-34568899D01*
X72750476Y-34473926D01*
X72618447Y-34403354D01*
X72475186Y-34359897D01*
X72363533Y-34348900D01*
X72363522Y-34348900D01*
X72326200Y-34345224D01*
X72288878Y-34348900D01*
X67938422Y-34348900D01*
X67901099Y-34345224D01*
X67863776Y-34348900D01*
X67863767Y-34348900D01*
X67752114Y-34359897D01*
X67608853Y-34403354D01*
X67476824Y-34473926D01*
X67476822Y-34473927D01*
X67476823Y-34473927D01*
X67390096Y-34545101D01*
X67390092Y-34545105D01*
X67361099Y-34568899D01*
X67337305Y-34597892D01*
X67091364Y-34843833D01*
X66946411Y-34815000D01*
X66673589Y-34815000D01*
X66406011Y-34868225D01*
X66153957Y-34972629D01*
X65927114Y-35124201D01*
X65734201Y-35317114D01*
X65582629Y-35543957D01*
X65478225Y-35796011D01*
X65425000Y-36063589D01*
X65425000Y-36336411D01*
X65478225Y-36603989D01*
X65582629Y-36856043D01*
X65734201Y-37082886D01*
X65927114Y-37275799D01*
X66153957Y-37427371D01*
X66406011Y-37531775D01*
X66673589Y-37585000D01*
X66890199Y-37585000D01*
X65213998Y-39261201D01*
X65185000Y-39284999D01*
X65161202Y-39313997D01*
X65161201Y-39313998D01*
X65090026Y-39400724D01*
X65019454Y-39532754D01*
X65009279Y-39566299D01*
X64975998Y-39676014D01*
X64967290Y-39764428D01*
X64961324Y-39825000D01*
X64965001Y-39862332D01*
X64965000Y-47693098D01*
X51412104Y-34140203D01*
X51388301Y-34111199D01*
X51272576Y-34016226D01*
X51140547Y-33945654D01*
X50997286Y-33902197D01*
X50885633Y-33891200D01*
X50885622Y-33891200D01*
X50848300Y-33887524D01*
X50810978Y-33891200D01*
X39086123Y-33891200D01*
X39048800Y-33887524D01*
X39011477Y-33891200D01*
X39011467Y-33891200D01*
X38899814Y-33902197D01*
X38756553Y-33945654D01*
X38624523Y-34016226D01*
X38540883Y-34084868D01*
X38508799Y-34111199D01*
X38485001Y-34140197D01*
X37781365Y-34843833D01*
X37636411Y-34815000D01*
X37363589Y-34815000D01*
X37096011Y-34868225D01*
X36843957Y-34972629D01*
X36617114Y-35124201D01*
X36424201Y-35317114D01*
X36272629Y-35543957D01*
X36168225Y-35796011D01*
X36115000Y-36063589D01*
X36115000Y-36336411D01*
X36168225Y-36603989D01*
X36272629Y-36856043D01*
X36424201Y-37082886D01*
X36617114Y-37275799D01*
X36843957Y-37427371D01*
X37096011Y-37531775D01*
X37363589Y-37585000D01*
X37636411Y-37585000D01*
X37903989Y-37531775D01*
X38156043Y-37427371D01*
X38382886Y-37275799D01*
X38575799Y-37082886D01*
X38727371Y-36856043D01*
X38770000Y-36753127D01*
X38812629Y-36856043D01*
X38964201Y-37082886D01*
X39157114Y-37275799D01*
X39383957Y-37427371D01*
X39636011Y-37531775D01*
X39903589Y-37585000D01*
X40176411Y-37585000D01*
X40443989Y-37531775D01*
X40696043Y-37427371D01*
X40922886Y-37275799D01*
X41115799Y-37082886D01*
X41267371Y-36856043D01*
X41310000Y-36753127D01*
X41352629Y-36856043D01*
X41504201Y-37082886D01*
X41697114Y-37275799D01*
X41923957Y-37427371D01*
X42176011Y-37531775D01*
X42443589Y-37585000D01*
X42716411Y-37585000D01*
X42983989Y-37531775D01*
X43236043Y-37427371D01*
X43462886Y-37275799D01*
X43655799Y-37082886D01*
X43807371Y-36856043D01*
X43850000Y-36753127D01*
X43892629Y-36856043D01*
X44044201Y-37082886D01*
X44237114Y-37275799D01*
X44463957Y-37427371D01*
X44716011Y-37531775D01*
X44983589Y-37585000D01*
X45256411Y-37585000D01*
X45523989Y-37531775D01*
X45776043Y-37427371D01*
X46002886Y-37275799D01*
X46195799Y-37082886D01*
X46347371Y-36856043D01*
X46390000Y-36753127D01*
X46432629Y-36856043D01*
X46584201Y-37082886D01*
X46777114Y-37275799D01*
X47003957Y-37427371D01*
X47256011Y-37531775D01*
X47523589Y-37585000D01*
X47796411Y-37585000D01*
X47941365Y-37556167D01*
X50152699Y-39767500D01*
X50052509Y-39767500D01*
X49763195Y-39825048D01*
X49490668Y-39937933D01*
X49245399Y-40101816D01*
X49036816Y-40310399D01*
X48930000Y-40470261D01*
X48823184Y-40310399D01*
X48614601Y-40101816D01*
X48369332Y-39937933D01*
X48096805Y-39825048D01*
X47807491Y-39767500D01*
X47512509Y-39767500D01*
X47223195Y-39825048D01*
X46950668Y-39937933D01*
X46705399Y-40101816D01*
X46679031Y-40128184D01*
X46136858Y-39586012D01*
X46113838Y-39557962D01*
X46001920Y-39466113D01*
X45874233Y-39397863D01*
X45735685Y-39355835D01*
X45627705Y-39345200D01*
X45591600Y-39341644D01*
X45555495Y-39345200D01*
X39592994Y-39345200D01*
X39556899Y-39341645D01*
X39520804Y-39345200D01*
X39520795Y-39345200D01*
X39412815Y-39355835D01*
X39274267Y-39397863D01*
X39146580Y-39466113D01*
X39034662Y-39557962D01*
X39011646Y-39586007D01*
X38721770Y-39875883D01*
X38716994Y-39871963D01*
X38606680Y-39812998D01*
X38486982Y-39776688D01*
X38362500Y-39764428D01*
X36637500Y-39764428D01*
X36513018Y-39776688D01*
X36393320Y-39812998D01*
X36283006Y-39871963D01*
X36186315Y-39951315D01*
X36106963Y-40048006D01*
X36047998Y-40158320D01*
X36011688Y-40278018D01*
X35999428Y-40402500D01*
X35999428Y-42127500D01*
X36011688Y-42251982D01*
X36047998Y-42371680D01*
X36106963Y-42481994D01*
X36186315Y-42578685D01*
X36283006Y-42658037D01*
X36393320Y-42717002D01*
X36513018Y-42753312D01*
X36637500Y-42765572D01*
X38362500Y-42765572D01*
X38486982Y-42753312D01*
X38606680Y-42717002D01*
X38716994Y-42658037D01*
X38813685Y-42578685D01*
X38893037Y-42481994D01*
X38952002Y-42371680D01*
X38969898Y-42312683D01*
X39085399Y-42428184D01*
X39330668Y-42592067D01*
X39603195Y-42704952D01*
X39892509Y-42762500D01*
X40187491Y-42762500D01*
X40417039Y-42716840D01*
X40550001Y-42849803D01*
X40550001Y-45072136D01*
X40443989Y-45028225D01*
X40176411Y-44975000D01*
X39903589Y-44975000D01*
X39636011Y-45028225D01*
X39383957Y-45132629D01*
X39157114Y-45284201D01*
X38964201Y-45477114D01*
X38886445Y-45593483D01*
X38875812Y-45485518D01*
X38839502Y-45365820D01*
X38780537Y-45255506D01*
X38701185Y-45158815D01*
X38604494Y-45079463D01*
X38494180Y-45020498D01*
X38374482Y-44984188D01*
X38250000Y-44971928D01*
X36750000Y-44971928D01*
X36625518Y-44984188D01*
X36505820Y-45020498D01*
X36395506Y-45079463D01*
X36298815Y-45158815D01*
X36219463Y-45255506D01*
X36160498Y-45365820D01*
X36124188Y-45485518D01*
X36111928Y-45610000D01*
X36111928Y-47110000D01*
X36124188Y-47234482D01*
X36160498Y-47354180D01*
X36219463Y-47464494D01*
X36298815Y-47561185D01*
X36395506Y-47640537D01*
X36505820Y-47699502D01*
X36625518Y-47735812D01*
X36750000Y-47748072D01*
X38250000Y-47748072D01*
X38374482Y-47735812D01*
X38494180Y-47699502D01*
X38604494Y-47640537D01*
X38701185Y-47561185D01*
X38780537Y-47464494D01*
X38839502Y-47354180D01*
X38875812Y-47234482D01*
X38886445Y-47126517D01*
X38964201Y-47242886D01*
X39157114Y-47435799D01*
X39383957Y-47587371D01*
X39636011Y-47691775D01*
X39903589Y-47745000D01*
X40176411Y-47745000D01*
X40443989Y-47691775D01*
X40550001Y-47647864D01*
X40550000Y-56434978D01*
X40546324Y-56472300D01*
X40550000Y-56509622D01*
X40550000Y-56509632D01*
X40560997Y-56621285D01*
X40589174Y-56714174D01*
X40604454Y-56764546D01*
X40675026Y-56896576D01*
X40714871Y-56945126D01*
X40769999Y-57012301D01*
X40799003Y-57036104D01*
X41856599Y-58093700D01*
X41631039Y-58093700D01*
X41382779Y-58143081D01*
X41148924Y-58239947D01*
X40938460Y-58380575D01*
X40759475Y-58559560D01*
X40618847Y-58770024D01*
X40521981Y-59003879D01*
X40472600Y-59252139D01*
X40472600Y-59505261D01*
X40521981Y-59753521D01*
X40618847Y-59987376D01*
X40759475Y-60197840D01*
X40938460Y-60376825D01*
X41148924Y-60517453D01*
X41382779Y-60614319D01*
X41631039Y-60663700D01*
X41884161Y-60663700D01*
X42132421Y-60614319D01*
X42366276Y-60517453D01*
X42576740Y-60376825D01*
X42755725Y-60197840D01*
X42896353Y-59987376D01*
X42993219Y-59753521D01*
X43042600Y-59505261D01*
X43042600Y-59279701D01*
X45255801Y-61492903D01*
X45255801Y-62776149D01*
X45207035Y-62755950D01*
X44905647Y-62696000D01*
X44598353Y-62696000D01*
X44296965Y-62755950D01*
X44013063Y-62873546D01*
X43757558Y-63044269D01*
X43540269Y-63261558D01*
X43369546Y-63517063D01*
X43251950Y-63800965D01*
X43192000Y-64102353D01*
X43192000Y-64409647D01*
X43251950Y-64711035D01*
X43253581Y-64714972D01*
X40823972Y-67144582D01*
X40823972Y-66225200D01*
X40811712Y-66100718D01*
X40775402Y-65981020D01*
X40716437Y-65870706D01*
X40637085Y-65774015D01*
X40540394Y-65694663D01*
X40430080Y-65635698D01*
X40310382Y-65599388D01*
X40185900Y-65587128D01*
X39135900Y-65587128D01*
X39011418Y-65599388D01*
X38891720Y-65635698D01*
X38820900Y-65673553D01*
X38750080Y-65635698D01*
X38630382Y-65599388D01*
X38505900Y-65587128D01*
X38266650Y-65590200D01*
X38107900Y-65748950D01*
X38107900Y-66833200D01*
X38127900Y-66833200D01*
X38127900Y-67087200D01*
X38107900Y-67087200D01*
X38107900Y-67107200D01*
X37853900Y-67107200D01*
X37853900Y-67087200D01*
X36979650Y-67087200D01*
X36820900Y-67245950D01*
X36818615Y-67580138D01*
X36484016Y-67914738D01*
X36416900Y-67908128D01*
X35416900Y-67908128D01*
X35292418Y-67920388D01*
X35172720Y-67956698D01*
X35062406Y-68015663D01*
X34965715Y-68095015D01*
X34886363Y-68191706D01*
X34827398Y-68302020D01*
X34791088Y-68421718D01*
X34778828Y-68546200D01*
X33797849Y-68546200D01*
X33775292Y-68386152D01*
X33673868Y-68096079D01*
X33590653Y-67940393D01*
X33333917Y-67853688D01*
X32431605Y-68756000D01*
X32072395Y-68756000D01*
X31170083Y-67853688D01*
X30913347Y-67940393D01*
X30779952Y-68217223D01*
X30703127Y-68514757D01*
X30685824Y-68821562D01*
X26710000Y-68821562D01*
X26710000Y-67674083D01*
X31349688Y-67674083D01*
X32252000Y-68576395D01*
X33154312Y-67674083D01*
X33067607Y-67417347D01*
X32790777Y-67283952D01*
X32493243Y-67207127D01*
X32186438Y-67189824D01*
X31882152Y-67232708D01*
X31592079Y-67334132D01*
X31436393Y-67417347D01*
X31349688Y-67674083D01*
X26710000Y-67674083D01*
X26710000Y-66225200D01*
X36817828Y-66225200D01*
X36820900Y-66674450D01*
X36979650Y-66833200D01*
X37853900Y-66833200D01*
X37853900Y-65748950D01*
X37695150Y-65590200D01*
X37455900Y-65587128D01*
X37331418Y-65599388D01*
X37211720Y-65635698D01*
X37101406Y-65694663D01*
X37004715Y-65774015D01*
X36925363Y-65870706D01*
X36866398Y-65981020D01*
X36830088Y-66100718D01*
X36817828Y-66225200D01*
X26710000Y-66225200D01*
X26710000Y-64102353D01*
X30692000Y-64102353D01*
X30692000Y-64409647D01*
X30751950Y-64711035D01*
X30869546Y-64994937D01*
X31040269Y-65250442D01*
X31257558Y-65467731D01*
X31513063Y-65638454D01*
X31796965Y-65756050D01*
X32098353Y-65816000D01*
X32405647Y-65816000D01*
X32707035Y-65756050D01*
X32990937Y-65638454D01*
X33246442Y-65467731D01*
X33463731Y-65250442D01*
X33634454Y-64994937D01*
X33752050Y-64711035D01*
X33812000Y-64409647D01*
X33812000Y-64102353D01*
X33752050Y-63800965D01*
X33634454Y-63517063D01*
X33463731Y-63261558D01*
X33246442Y-63044269D01*
X32990937Y-62873546D01*
X32707035Y-62755950D01*
X32405647Y-62696000D01*
X32098353Y-62696000D01*
X31796965Y-62755950D01*
X31513063Y-62873546D01*
X31257558Y-63044269D01*
X31040269Y-63261558D01*
X30869546Y-63517063D01*
X30751950Y-63800965D01*
X30692000Y-64102353D01*
X26710000Y-64102353D01*
X26710000Y-60264227D01*
X33451678Y-60264227D01*
X33505066Y-60492901D01*
X33734974Y-60598795D01*
X33981124Y-60657802D01*
X34234055Y-60667652D01*
X34484049Y-60627970D01*
X34721496Y-60540278D01*
X34810134Y-60492901D01*
X34863522Y-60264227D01*
X34157600Y-59558305D01*
X33451678Y-60264227D01*
X26710000Y-60264227D01*
X26710000Y-59455155D01*
X32868648Y-59455155D01*
X32908330Y-59705149D01*
X32996022Y-59942596D01*
X33043399Y-60031234D01*
X33272073Y-60084622D01*
X33977995Y-59378700D01*
X34337205Y-59378700D01*
X35043127Y-60084622D01*
X35271801Y-60031234D01*
X35377695Y-59801326D01*
X35436702Y-59555176D01*
X35446552Y-59302245D01*
X35406870Y-59052251D01*
X35319178Y-58814804D01*
X35271801Y-58726166D01*
X35043127Y-58672778D01*
X34337205Y-59378700D01*
X33977995Y-59378700D01*
X33272073Y-58672778D01*
X33043399Y-58726166D01*
X32937505Y-58956074D01*
X32878498Y-59202224D01*
X32868648Y-59455155D01*
X26710000Y-59455155D01*
X26710000Y-58493173D01*
X33451678Y-58493173D01*
X34157600Y-59199095D01*
X34863522Y-58493173D01*
X34810134Y-58264499D01*
X34580226Y-58158605D01*
X34334076Y-58099598D01*
X34081145Y-58089748D01*
X33831151Y-58129430D01*
X33593704Y-58217122D01*
X33505066Y-58264499D01*
X33451678Y-58493173D01*
X26710000Y-58493173D01*
X26710000Y-33034721D01*
X26737907Y-32750101D01*
X26810484Y-32509715D01*
X26928368Y-32288009D01*
X27087068Y-32093423D01*
X27280545Y-31933365D01*
X27501424Y-31813936D01*
X27741297Y-31739683D01*
X28023716Y-31710000D01*
X88965279Y-31710000D01*
X89249899Y-31737907D01*
G37*
%TD.AperFunction*%
D25*
X43892629Y-47016043D02*
X44044201Y-47242886D01*
X44237114Y-47435799D01*
X44463957Y-47587371D01*
X44716011Y-47691775D01*
X44983589Y-47745000D01*
X45256411Y-47745000D01*
X45523989Y-47691775D01*
X45564100Y-47675160D01*
X45564101Y-53580585D01*
X45560544Y-53616700D01*
X45574735Y-53760785D01*
X45606566Y-53865714D01*
X45616764Y-53899333D01*
X45685014Y-54027020D01*
X45776863Y-54138938D01*
X45804908Y-54161954D01*
X49552146Y-57909193D01*
X49551133Y-57909544D01*
X49383266Y-57999271D01*
X49290521Y-58261116D01*
X50228500Y-59199095D01*
X50242643Y-59184953D01*
X50422248Y-59364558D01*
X50408105Y-59378700D01*
X50422248Y-59392843D01*
X50242643Y-59572448D01*
X50228500Y-59558305D01*
X49290521Y-60496284D01*
X49383266Y-60758129D01*
X49668620Y-60896520D01*
X49975490Y-60976583D01*
X50292084Y-60995240D01*
X50606233Y-60951774D01*
X50769700Y-60895081D01*
X50769701Y-69511600D01*
X46119568Y-69511600D01*
X46224048Y-69294777D01*
X46300873Y-68997243D01*
X46318176Y-68690438D01*
X46275292Y-68386152D01*
X46173868Y-68096079D01*
X46090653Y-67940393D01*
X45833919Y-67853689D01*
X45942803Y-67744805D01*
X46454400Y-68256402D01*
X46454400Y-68318539D01*
X46494174Y-68518498D01*
X46572195Y-68706856D01*
X46685463Y-68876374D01*
X46829626Y-69020537D01*
X46999144Y-69133805D01*
X47187502Y-69211826D01*
X47387461Y-69251600D01*
X47591339Y-69251600D01*
X47791298Y-69211826D01*
X47979656Y-69133805D01*
X48149174Y-69020537D01*
X48293337Y-68876374D01*
X48406605Y-68706856D01*
X48484626Y-68518498D01*
X48524400Y-68318539D01*
X48524400Y-68114661D01*
X48484626Y-67914702D01*
X48406605Y-67726344D01*
X48293337Y-67556826D01*
X48149174Y-67412663D01*
X47979656Y-67299395D01*
X47791298Y-67221374D01*
X47591339Y-67181600D01*
X47529202Y-67181600D01*
X46562292Y-66214691D01*
X46627774Y-66134902D01*
X46650774Y-66106877D01*
X46721346Y-65974847D01*
X46737815Y-65920554D01*
X46764803Y-65831586D01*
X46775800Y-65719933D01*
X46775800Y-65719924D01*
X46779476Y-65682601D01*
X46775800Y-65645278D01*
X46775800Y-61215422D01*
X46779476Y-61178099D01*
X46775800Y-61140776D01*
X46775800Y-61140767D01*
X46764803Y-61029114D01*
X46721346Y-60885853D01*
X46650774Y-60753824D01*
X46555801Y-60638099D01*
X46526803Y-60614301D01*
X45354786Y-59442284D01*
X48611960Y-59442284D01*
X48655426Y-59756433D01*
X48759344Y-60056067D01*
X48849071Y-60223934D01*
X49110916Y-60316679D01*
X50048895Y-59378700D01*
X49110916Y-58440721D01*
X48849071Y-58533466D01*
X48710680Y-58818820D01*
X48630617Y-59125690D01*
X48611960Y-59442284D01*
X45354786Y-59442284D01*
X42070000Y-56157499D01*
X42070000Y-53339201D01*
X46862600Y-58131802D01*
X46862600Y-58193939D01*
X46902374Y-58393898D01*
X46980395Y-58582256D01*
X47093663Y-58751774D01*
X47237826Y-58895937D01*
X47407344Y-59009205D01*
X47595702Y-59087226D01*
X47795661Y-59127000D01*
X47999539Y-59127000D01*
X48199498Y-59087226D01*
X48387856Y-59009205D01*
X48557374Y-58895937D01*
X48701537Y-58751774D01*
X48814805Y-58582256D01*
X48892826Y-58393898D01*
X48932600Y-58193939D01*
X48932600Y-57990061D01*
X48892826Y-57790102D01*
X48814805Y-57601744D01*
X48701537Y-57432226D01*
X48557374Y-57288063D01*
X48387856Y-57174795D01*
X48199498Y-57096774D01*
X47999539Y-57057000D01*
X47937402Y-57057000D01*
X43340000Y-52459599D01*
X43340000Y-47517909D01*
X43462886Y-47435799D01*
X43655799Y-47242886D01*
X43807371Y-47016043D01*
X43850000Y-46913127D01*
X43892629Y-47016043D01*
%TA.AperFunction,Conductor*%
D26*
G36*
X43892629Y-47016043D02*
G01*
X44044201Y-47242886D01*
X44237114Y-47435799D01*
X44463957Y-47587371D01*
X44716011Y-47691775D01*
X44983589Y-47745000D01*
X45256411Y-47745000D01*
X45523989Y-47691775D01*
X45564100Y-47675160D01*
X45564101Y-53580585D01*
X45560544Y-53616700D01*
X45574735Y-53760785D01*
X45606566Y-53865714D01*
X45616764Y-53899333D01*
X45685014Y-54027020D01*
X45776863Y-54138938D01*
X45804908Y-54161954D01*
X49552146Y-57909193D01*
X49551133Y-57909544D01*
X49383266Y-57999271D01*
X49290521Y-58261116D01*
X50228500Y-59199095D01*
X50242643Y-59184953D01*
X50422248Y-59364558D01*
X50408105Y-59378700D01*
X50422248Y-59392843D01*
X50242643Y-59572448D01*
X50228500Y-59558305D01*
X49290521Y-60496284D01*
X49383266Y-60758129D01*
X49668620Y-60896520D01*
X49975490Y-60976583D01*
X50292084Y-60995240D01*
X50606233Y-60951774D01*
X50769700Y-60895081D01*
X50769701Y-69511600D01*
X46119568Y-69511600D01*
X46224048Y-69294777D01*
X46300873Y-68997243D01*
X46318176Y-68690438D01*
X46275292Y-68386152D01*
X46173868Y-68096079D01*
X46090653Y-67940393D01*
X45833919Y-67853689D01*
X45942803Y-67744805D01*
X46454400Y-68256402D01*
X46454400Y-68318539D01*
X46494174Y-68518498D01*
X46572195Y-68706856D01*
X46685463Y-68876374D01*
X46829626Y-69020537D01*
X46999144Y-69133805D01*
X47187502Y-69211826D01*
X47387461Y-69251600D01*
X47591339Y-69251600D01*
X47791298Y-69211826D01*
X47979656Y-69133805D01*
X48149174Y-69020537D01*
X48293337Y-68876374D01*
X48406605Y-68706856D01*
X48484626Y-68518498D01*
X48524400Y-68318539D01*
X48524400Y-68114661D01*
X48484626Y-67914702D01*
X48406605Y-67726344D01*
X48293337Y-67556826D01*
X48149174Y-67412663D01*
X47979656Y-67299395D01*
X47791298Y-67221374D01*
X47591339Y-67181600D01*
X47529202Y-67181600D01*
X46562292Y-66214691D01*
X46627774Y-66134902D01*
X46650774Y-66106877D01*
X46721346Y-65974847D01*
X46737815Y-65920554D01*
X46764803Y-65831586D01*
X46775800Y-65719933D01*
X46775800Y-65719924D01*
X46779476Y-65682601D01*
X46775800Y-65645278D01*
X46775800Y-61215422D01*
X46779476Y-61178099D01*
X46775800Y-61140776D01*
X46775800Y-61140767D01*
X46764803Y-61029114D01*
X46721346Y-60885853D01*
X46650774Y-60753824D01*
X46555801Y-60638099D01*
X46526803Y-60614301D01*
X45354786Y-59442284D01*
X48611960Y-59442284D01*
X48655426Y-59756433D01*
X48759344Y-60056067D01*
X48849071Y-60223934D01*
X49110916Y-60316679D01*
X50048895Y-59378700D01*
X49110916Y-58440721D01*
X48849071Y-58533466D01*
X48710680Y-58818820D01*
X48630617Y-59125690D01*
X48611960Y-59442284D01*
X45354786Y-59442284D01*
X42070000Y-56157499D01*
X42070000Y-53339201D01*
X46862600Y-58131802D01*
X46862600Y-58193939D01*
X46902374Y-58393898D01*
X46980395Y-58582256D01*
X47093663Y-58751774D01*
X47237826Y-58895937D01*
X47407344Y-59009205D01*
X47595702Y-59087226D01*
X47795661Y-59127000D01*
X47999539Y-59127000D01*
X48199498Y-59087226D01*
X48387856Y-59009205D01*
X48557374Y-58895937D01*
X48701537Y-58751774D01*
X48814805Y-58582256D01*
X48892826Y-58393898D01*
X48932600Y-58193939D01*
X48932600Y-57990061D01*
X48892826Y-57790102D01*
X48814805Y-57601744D01*
X48701537Y-57432226D01*
X48557374Y-57288063D01*
X48387856Y-57174795D01*
X48199498Y-57096774D01*
X47999539Y-57057000D01*
X47937402Y-57057000D01*
X43340000Y-52459599D01*
X43340000Y-47517909D01*
X43462886Y-47435799D01*
X43655799Y-47242886D01*
X43807371Y-47016043D01*
X43850000Y-46913127D01*
X43892629Y-47016043D01*
G37*
%TD.AperFunction*%
D25*
X44945748Y-68741858D02*
X44931605Y-68756000D01*
X44945748Y-68770143D01*
X44766143Y-68949748D01*
X44752000Y-68935605D01*
X44737858Y-68949748D01*
X44558253Y-68770143D01*
X44572395Y-68756000D01*
X44558253Y-68741858D01*
X44737858Y-68562253D01*
X44752000Y-68576395D01*
X44766143Y-68562253D01*
X44945748Y-68741858D01*
%TA.AperFunction,Conductor*%
D26*
G36*
X44945748Y-68741858D02*
G01*
X44931605Y-68756000D01*
X44945748Y-68770143D01*
X44766143Y-68949748D01*
X44752000Y-68935605D01*
X44737858Y-68949748D01*
X44558253Y-68770143D01*
X44572395Y-68756000D01*
X44558253Y-68741858D01*
X44737858Y-68562253D01*
X44752000Y-68576395D01*
X44766143Y-68562253D01*
X44945748Y-68741858D01*
G37*
%TD.AperFunction*%
D25*
X42773748Y-41250858D02*
X42759605Y-41265000D01*
X43617319Y-42122714D01*
X43844160Y-42050999D01*
X43956816Y-42219601D01*
X44165399Y-42428184D01*
X44410668Y-42592067D01*
X44683195Y-42704952D01*
X44972509Y-42762500D01*
X45267491Y-42762500D01*
X45526528Y-42710975D01*
X45564100Y-42748547D01*
X45564100Y-45044840D01*
X45523989Y-45028225D01*
X45256411Y-44975000D01*
X44983589Y-44975000D01*
X44716011Y-45028225D01*
X44463957Y-45132629D01*
X44237114Y-45284201D01*
X44044201Y-45477114D01*
X43892629Y-45703957D01*
X43850000Y-45806873D01*
X43807371Y-45703957D01*
X43655799Y-45477114D01*
X43462886Y-45284201D01*
X43236043Y-45132629D01*
X42983989Y-45028225D01*
X42716411Y-44975000D01*
X42443589Y-44975000D01*
X42176011Y-45028225D01*
X42070000Y-45072136D01*
X42070000Y-42680429D01*
X42353468Y-42752597D01*
X42648037Y-42768208D01*
X42939991Y-42726051D01*
X43218111Y-42627747D01*
X43358566Y-42552670D01*
X43437714Y-42302319D01*
X42580000Y-41444605D01*
X42565858Y-41458748D01*
X42386253Y-41279143D01*
X42400395Y-41265000D01*
X42386253Y-41250858D01*
X42565858Y-41071253D01*
X42580000Y-41085395D01*
X42594143Y-41071253D01*
X42773748Y-41250858D01*
%TA.AperFunction,Conductor*%
D26*
G36*
X42773748Y-41250858D02*
G01*
X42759605Y-41265000D01*
X43617319Y-42122714D01*
X43844160Y-42050999D01*
X43956816Y-42219601D01*
X44165399Y-42428184D01*
X44410668Y-42592067D01*
X44683195Y-42704952D01*
X44972509Y-42762500D01*
X45267491Y-42762500D01*
X45526528Y-42710975D01*
X45564100Y-42748547D01*
X45564100Y-45044840D01*
X45523989Y-45028225D01*
X45256411Y-44975000D01*
X44983589Y-44975000D01*
X44716011Y-45028225D01*
X44463957Y-45132629D01*
X44237114Y-45284201D01*
X44044201Y-45477114D01*
X43892629Y-45703957D01*
X43850000Y-45806873D01*
X43807371Y-45703957D01*
X43655799Y-45477114D01*
X43462886Y-45284201D01*
X43236043Y-45132629D01*
X42983989Y-45028225D01*
X42716411Y-44975000D01*
X42443589Y-44975000D01*
X42176011Y-45028225D01*
X42070000Y-45072136D01*
X42070000Y-42680429D01*
X42353468Y-42752597D01*
X42648037Y-42768208D01*
X42939991Y-42726051D01*
X43218111Y-42627747D01*
X43358566Y-42552670D01*
X43437714Y-42302319D01*
X42580000Y-41444605D01*
X42565858Y-41458748D01*
X42386253Y-41279143D01*
X42400395Y-41265000D01*
X42386253Y-41250858D01*
X42565858Y-41071253D01*
X42580000Y-41085395D01*
X42594143Y-41071253D01*
X42773748Y-41250858D01*
G37*
%TD.AperFunction*%
%TD*%
M02*
