%TF.GenerationSoftware,KiCad,Pcbnew,(5.1.10)-1*%
%TF.CreationDate,2021-07-06T17:58:10+02:00*%
%TF.ProjectId,StopWatch,53746f70-5761-4746-9368-2e6b69636164,rev?*%
%TF.SameCoordinates,Original*%
%TF.FileFunction,Paste,Top*%
%TF.FilePolarity,Positive*%
%FSLAX46Y46*%
G04 Gerber Fmt 4.6, Leading zero omitted, Abs format (unit mm)*
G04 Created by KiCad (PCBNEW (5.1.10)-1) date 2021-07-06 17:58:10*
%MOMM*%
%LPD*%
G01*
G04 APERTURE LIST*
%ADD10R,1.400000X1.000000*%
%ADD11R,1.000000X1.400000*%
%ADD12R,0.600000X1.250000*%
%ADD13R,1.050000X0.400000*%
%ADD14R,1.400000X0.950000*%
%ADD15R,0.650000X1.850000*%
%ADD16R,1.470000X1.050000*%
G04 APERTURE END LIST*
D10*
%TO.C,R27*%
X52681800Y-73568500D03*
X52681800Y-71668500D03*
%TD*%
D11*
%TO.C,R26*%
X82780000Y-50240000D03*
X84680000Y-50240000D03*
%TD*%
%TO.C,R25*%
X79073700Y-50230000D03*
X77173700Y-50230000D03*
%TD*%
%TO.C,R24*%
X34223400Y-56960000D03*
X32323400Y-56960000D03*
%TD*%
%TO.C,R23*%
X34223400Y-50221000D03*
X32323400Y-50221000D03*
%TD*%
%TO.C,R22*%
X37927200Y-56960000D03*
X39827200Y-56960000D03*
%TD*%
%TO.C,R21*%
X37929700Y-50221000D03*
X39829700Y-50221000D03*
%TD*%
%TO.C,R20*%
X43531000Y-56960000D03*
X45431000Y-56960000D03*
%TD*%
%TO.C,R19*%
X45436000Y-50221000D03*
X43536000Y-50221000D03*
%TD*%
%TO.C,R18*%
X73450000Y-56960000D03*
X71550000Y-56960000D03*
%TD*%
%TO.C,R17*%
X71567400Y-50221000D03*
X73467400Y-50221000D03*
%TD*%
D12*
%TO.C,Q11*%
X83730000Y-54772600D03*
X82775000Y-52672600D03*
X84685000Y-52672600D03*
%TD*%
%TO.C,Q10*%
X78123700Y-54771800D03*
X77168700Y-52671800D03*
X79078700Y-52671800D03*
%TD*%
%TO.C,Q9*%
X33273400Y-54776200D03*
X32318400Y-52676200D03*
X34228400Y-52676200D03*
%TD*%
%TO.C,Q8*%
X38879700Y-54776200D03*
X37924700Y-52676200D03*
X39834700Y-52676200D03*
%TD*%
%TO.C,Q7*%
X44486000Y-54776200D03*
X43531000Y-52676200D03*
X45441000Y-52676200D03*
%TD*%
%TO.C,Q6*%
X72517400Y-54776200D03*
X71562400Y-52676200D03*
X73472400Y-52676200D03*
%TD*%
D13*
%TO.C,IC2*%
X49497100Y-72040000D03*
X49497100Y-73340000D03*
X47597100Y-73340000D03*
X47597100Y-72690000D03*
X47597100Y-72040000D03*
%TD*%
D11*
%TO.C,R14*%
X49546000Y-69936000D03*
X47646000Y-69936000D03*
%TD*%
%TO.C,R13*%
X49450000Y-63500000D03*
X47550000Y-63500000D03*
%TD*%
%TO.C,R10*%
X51034800Y-56960000D03*
X49134800Y-56960000D03*
%TD*%
%TO.C,R9*%
X51042300Y-50221000D03*
X49142300Y-50221000D03*
%TD*%
%TO.C,R8*%
X56638600Y-56960000D03*
X54738600Y-56960000D03*
%TD*%
%TO.C,R7*%
X56648600Y-50221000D03*
X54748600Y-50221000D03*
%TD*%
%TO.C,R6*%
X62242400Y-56960000D03*
X60342400Y-56960000D03*
%TD*%
%TO.C,R5*%
X62254800Y-50221000D03*
X60354800Y-50221000D03*
%TD*%
%TO.C,R4*%
X67846200Y-56960000D03*
X65946200Y-56960000D03*
%TD*%
D10*
%TO.C,R3*%
X52656000Y-65799000D03*
X52656000Y-63899000D03*
%TD*%
%TO.C,R2*%
X68370000Y-64154000D03*
X68370000Y-66054000D03*
%TD*%
D11*
%TO.C,R1*%
X67861100Y-50221000D03*
X65961100Y-50221000D03*
%TD*%
D12*
%TO.C,Q5*%
X48596000Y-67684000D03*
X47641000Y-65584000D03*
X49551000Y-65584000D03*
%TD*%
%TO.C,Q4*%
X50092300Y-54776200D03*
X49137300Y-52676200D03*
X51047300Y-52676200D03*
%TD*%
%TO.C,Q3*%
X55698600Y-54776200D03*
X54743600Y-52676200D03*
X56653600Y-52676200D03*
%TD*%
%TO.C,Q2*%
X61304800Y-54776200D03*
X60349800Y-52676200D03*
X62259800Y-52676200D03*
%TD*%
%TO.C,Q1*%
X66911100Y-54776200D03*
X65956100Y-52676200D03*
X67866100Y-52676200D03*
%TD*%
D14*
%TO.C,LED1*%
X52622000Y-67832000D03*
X52622000Y-69732000D03*
%TD*%
D15*
%TO.C,IC1*%
X66211000Y-71491000D03*
X64941000Y-71491000D03*
X63671000Y-71491000D03*
X62401000Y-71491000D03*
X61131000Y-71491000D03*
X59861000Y-71491000D03*
X58591000Y-71491000D03*
X57321000Y-71491000D03*
X56051000Y-71491000D03*
X54781000Y-71491000D03*
X54781000Y-62141000D03*
X56051000Y-62141000D03*
X57321000Y-62141000D03*
X58591000Y-62141000D03*
X59861000Y-62141000D03*
X61131000Y-62141000D03*
X62401000Y-62141000D03*
X63671000Y-62141000D03*
X64941000Y-62141000D03*
X66211000Y-62141000D03*
%TD*%
D16*
%TO.C,C1*%
X68370000Y-69434000D03*
X68370000Y-67754000D03*
%TD*%
M02*
