M48
; DRILL file {KiCad (5.1.10)-1} date 07/06/21 17:58:16
; FORMAT={-:-/ absolute / metric / decimal}
; #@! TF.CreationDate,2021-07-06T17:58:16+02:00
; #@! TF.GenerationSoftware,Kicad,Pcbnew,(5.1.10)-1
FMAT,2
METRIC
T1C0.400
T2C0.800
T3C1.000
T4C1.150
T5C1.250
T6C1.300
T7C2.500
%
G90
G05
T1
X47.489Y-68.217
X47.898Y-58.092
X51.117Y-54.483
X51.38Y-55.654
X53.647Y-50.221
X54.442Y-69.93
X55.693Y-51.852
X55.732Y-69.701
X57.12Y-54.387
X58.094Y-56.079
X59.646Y-68.054
X59.861Y-69.549
X61.514Y-60.61
X61.636Y-69.61
X61.816Y-59.537
X62.242Y-55.644
X62.327Y-66.437
X62.554Y-58.787
X63.592Y-63.673
X63.671Y-69.964
X64.727Y-50.293
X64.819Y-54.254
X65.169Y-69.943
X73.847Y-55.645
X74.782Y-50.23
T2
X34.158Y-59.379
X41.758Y-59.379
T3
X37.5Y-36.2
X37.5Y-46.36
X40.04Y-36.2
X40.04Y-46.36
X42.58Y-36.2
X42.58Y-46.36
X45.12Y-36.2
X45.12Y-46.36
X47.66Y-36.2
X47.66Y-46.36
X50.2Y-36.2
X50.2Y-46.36
X66.81Y-36.2
X66.81Y-46.36
X69.35Y-36.2
X69.35Y-46.36
X71.89Y-36.2
X71.89Y-46.36
X74.43Y-36.2
X74.43Y-46.36
X76.97Y-36.2
X76.97Y-46.36
X79.51Y-36.2
X79.51Y-46.36
T4
X37.5Y-41.265
X40.04Y-41.265
X42.58Y-41.265
X45.12Y-41.265
X47.66Y-41.265
X50.2Y-41.265
T5
X32.252Y-64.256
X32.252Y-68.756
X44.752Y-64.256
X44.752Y-68.756
X72.252Y-64.256
X72.252Y-68.756
X84.752Y-64.256
X84.752Y-68.756
T6
X50.228Y-59.379
X70.228Y-59.379
T7
X28.5Y-33.5
X28.5Y-73.5
X88.5Y-33.5
X88.5Y-73.5
T0
M30
