M48
; DRILL file {KiCad (5.1.10)-1} date 09/21/21 22:06:59
; FORMAT={-:-/ absolute / metric / decimal}
; #@! TF.CreationDate,2021-09-21T22:06:59+02:00
; #@! TF.GenerationSoftware,Kicad,Pcbnew,(5.1.10)-1
FMAT,2
METRIC
T1C0.400
T2C0.800
T3C1.000
T4C1.067
T5C1.250
T6C1.300
T7C2.500
%
G90
G05
T1
X30.5Y-51.0
X31.25Y-51.75
X31.25Y-58.25
X35.75Y-58.25
X36.0Y-50.0
X36.175Y-51.75
X36.5Y-57.0
X41.75Y-51.75
X42.5Y-49.25
X46.0Y-61.25
X47.75Y-51.0
X48.25Y-43.5
X48.25Y-52.5
X49.5Y-42.25
X50.5Y-72.25
X50.75Y-65.5
X50.75Y-66.75
X50.75Y-69.25
X52.25Y-45.5
X53.0Y-50.0
X53.25Y-52.5
X55.25Y-61.0
X55.5Y-67.0
X57.5Y-58.5
X58.0Y-52.0
X58.0Y-60.0
X58.62Y-61.63
X58.737Y-70.763
X58.75Y-59.0
X59.0Y-66.0
X60.25Y-49.0
X60.25Y-66.25
X60.95Y-65.418
X61.25Y-70.75
X61.5Y-74.75
X61.744Y-58.744
X62.0Y-62.5
X62.5Y-55.75
X62.75Y-74.5
X62.755Y-64.505
X63.5Y-62.5
X63.5Y-70.75
X64.5Y-62.5
X64.605Y-45.605
X64.75Y-66.0
X64.874Y-56.0
X65.5Y-65.0
X65.75Y-62.675
X66.0Y-69.25
X68.23Y-41.98
X68.25Y-55.225
X69.25Y-65.25
X69.75Y-49.25
X70.0Y-50.75
X71.25Y-42.25
X73.75Y-40.5
X74.55Y-52.88
X74.75Y-58.0
X75.0Y-49.5
X75.25Y-55.75
X75.25Y-64.25
X76.0Y-50.5
X76.0Y-52.0
X77.5Y-60.75
X81.25Y-52.75
X81.5Y-50.25
X82.5Y-55.25
T2
X34.158Y-59.379
X41.758Y-59.379
T3
X37.35Y-36.2
X37.35Y-46.36
X39.89Y-36.2
X39.89Y-46.36
X42.43Y-36.2
X42.43Y-46.36
X44.97Y-36.2
X44.97Y-46.36
X47.51Y-36.2
X47.51Y-46.36
X50.05Y-36.2
X50.05Y-46.36
X66.96Y-36.2
X66.96Y-46.36
X69.5Y-36.2
X69.5Y-46.36
X72.04Y-36.2
X72.04Y-46.36
X74.58Y-36.2
X74.58Y-46.36
X77.12Y-36.2
X77.12Y-46.36
X79.66Y-36.2
X79.66Y-46.36
T4
X59.71Y-72.885
X64.79Y-71.869
X64.79Y-73.901
T5
X32.252Y-64.256
X32.252Y-68.756
X44.752Y-64.256
X44.752Y-68.756
X72.252Y-64.256
X72.252Y-68.756
X84.752Y-64.256
X84.752Y-68.756
T6
X50.228Y-59.379
X70.228Y-59.379
T7
X28.5Y-33.5
X28.5Y-73.5
X88.5Y-33.5
X88.5Y-73.5
T0
M30
