%TF.GenerationSoftware,KiCad,Pcbnew,(5.1.10)-1*%
%TF.CreationDate,2021-09-21T22:06:55+02:00*%
%TF.ProjectId,StopWatch,53746f70-5761-4746-9368-2e6b69636164,rev?*%
%TF.SameCoordinates,Original*%
%TF.FileFunction,Copper,L3,Inr*%
%TF.FilePolarity,Positive*%
%FSLAX46Y46*%
G04 Gerber Fmt 4.6, Leading zero omitted, Abs format (unit mm)*
G04 Created by KiCad (PCBNEW (5.1.10)-1) date 2021-09-21 22:06:55*
%MOMM*%
%LPD*%
G01*
G04 APERTURE LIST*
%TA.AperFunction,ComponentPad*%
%ADD10C,1.850000*%
%TD*%
%TA.AperFunction,ComponentPad*%
%ADD11C,1.550000*%
%TD*%
%TA.AperFunction,ComponentPad*%
%ADD12C,1.500000*%
%TD*%
%TA.AperFunction,ComponentPad*%
%ADD13R,1.500000X1.500000*%
%TD*%
%TA.AperFunction,ComponentPad*%
%ADD14C,2.100000*%
%TD*%
%TA.AperFunction,ViaPad*%
%ADD15C,3.750000*%
%TD*%
%TA.AperFunction,ViaPad*%
%ADD16C,0.800000*%
%TD*%
%TA.AperFunction,Conductor*%
%ADD17C,0.250000*%
%TD*%
%TA.AperFunction,Conductor*%
%ADD18C,0.200000*%
%TD*%
%TA.AperFunction,Conductor*%
%ADD19C,0.254000*%
%TD*%
%TA.AperFunction,Conductor*%
%ADD20C,0.100000*%
%TD*%
G04 APERTURE END LIST*
D10*
%TO.N,Net-(R15-Pad1)*%
%TO.C,S2*%
X32252000Y-64256000D03*
X44752000Y-64256000D03*
%TO.N,gnd*%
X32252000Y-68756000D03*
X44752000Y-68756000D03*
%TD*%
D11*
%TO.N,N/C*%
%TO.C,J1*%
X64790000Y-73901000D03*
X64790000Y-71869000D03*
X59710000Y-72885000D03*
%TD*%
D12*
%TO.N,/D_g*%
%TO.C,U3*%
X77120000Y-46360000D03*
%TO.N,/D_a*%
X69500000Y-36200000D03*
%TO.N,/CC_5*%
X66960000Y-36200000D03*
%TO.N,/D_f*%
X72040000Y-36200000D03*
%TO.N,/CC_6*%
X74580000Y-36200000D03*
%TO.N,/CC_7*%
X77120000Y-36200000D03*
%TO.N,/CC_8*%
X79660000Y-46360000D03*
%TO.N,/D_b*%
X79660000Y-36200000D03*
%TO.N,/D_dp*%
X72040000Y-46360000D03*
%TO.N,/D_c*%
X74580000Y-46360000D03*
D13*
%TO.N,/D_e*%
X66960000Y-46360000D03*
D12*
%TO.N,/D_d*%
X69500000Y-46360000D03*
%TD*%
%TO.N,/CC_1*%
%TO.C,U1*%
X37350000Y-36200000D03*
%TO.N,/D_a*%
X39890000Y-36200000D03*
%TO.N,/D_f*%
X42430000Y-36200000D03*
%TO.N,/CC_2*%
X44970000Y-36200000D03*
%TO.N,/CC_3*%
X47510000Y-36200000D03*
%TO.N,/D_b*%
X50050000Y-36200000D03*
%TO.N,/CC_4*%
X50050000Y-46360000D03*
%TO.N,/D_g*%
X47510000Y-46360000D03*
%TO.N,/D_c*%
X44970000Y-46360000D03*
%TO.N,/D_dp*%
X42430000Y-46360000D03*
%TO.N,/D_d*%
X39890000Y-46360000D03*
D13*
%TO.N,/D_e*%
X37350000Y-46360000D03*
%TD*%
D10*
%TO.N,Net-(R11-Pad1)*%
%TO.C,S1*%
X72252000Y-64256000D03*
X84752000Y-64256000D03*
%TO.N,gnd*%
X72252000Y-68756000D03*
X84752000Y-68756000D03*
%TD*%
D14*
%TO.N,gnd*%
%TO.C,U2*%
X50228500Y-59378700D03*
%TO.N,+3V*%
X70228500Y-59378700D03*
%TD*%
D12*
%TO.N,gnd*%
%TO.C,LS1*%
X34157600Y-59378700D03*
%TO.N,Net-(LS1-Pad1)*%
X41757600Y-59378700D03*
%TD*%
D15*
%TO.N,gnd*%
X28500000Y-33500000D03*
X88500000Y-33500000D03*
X28500000Y-73500000D03*
X88500000Y-73500000D03*
D16*
X62750000Y-74500000D03*
X66000000Y-69250000D03*
X69250000Y-65250000D03*
X55500000Y-67000000D03*
X50750000Y-66750000D03*
X76000000Y-52000000D03*
X81250000Y-52750000D03*
X77500000Y-60750000D03*
%TO.N,+3V*%
X61250000Y-70750000D03*
X50750000Y-65500000D03*
X46000000Y-61250000D03*
%TO.N,/B_1*%
X63500000Y-70750000D03*
X64750000Y-66000000D03*
X50500000Y-72250000D03*
%TO.N,/D_a*%
X65500000Y-65000000D03*
X75000000Y-49500000D03*
X73750000Y-40500000D03*
%TO.N,/D_b*%
X62755025Y-64505025D03*
X58000000Y-52000000D03*
%TO.N,/D_c*%
X58619975Y-61630025D03*
X55250000Y-61000000D03*
%TO.N,/C_1*%
X60950000Y-65417948D03*
X69750000Y-49250000D03*
%TO.N,/C_2*%
X60250000Y-66250000D03*
X60250000Y-49000000D03*
X42500000Y-49250000D03*
%TO.N,/C_3*%
X59000000Y-66000000D03*
X36000000Y-50000000D03*
X53000000Y-50000000D03*
%TO.N,/C_4*%
X58750000Y-59000000D03*
X30500000Y-51000000D03*
X47750000Y-51000000D03*
%TO.N,/D_dp*%
X62000000Y-62500000D03*
%TO.N,/D_g*%
X48250000Y-43500000D03*
X68229846Y-41979846D03*
%TO.N,/D_d*%
X61743615Y-58743615D03*
%TO.N,/D_e*%
X64604846Y-45604846D03*
%TO.N,/C_Buzzer*%
X65750000Y-62675000D03*
X58000000Y-60000000D03*
%TO.N,/CC_1*%
X68249847Y-55224847D03*
X49500000Y-42250000D03*
%TO.N,/CC_2*%
X62500000Y-55750000D03*
X52250000Y-45500000D03*
%TO.N,Net-(R11-Pad1)*%
X75250000Y-64250000D03*
%TO.N,/MCLR*%
X61500000Y-74750000D03*
X63500000Y-62500000D03*
%TO.N,/C_U13*%
X50750000Y-69250000D03*
X64500000Y-62500000D03*
X76000000Y-50500000D03*
%TO.N,/C_display*%
X58737347Y-70762653D03*
X81500000Y-50250000D03*
%TO.N,/U3*%
X48250000Y-52500000D03*
X53250000Y-52500000D03*
X57500000Y-58500000D03*
X64873946Y-56000000D03*
X74550000Y-52880025D03*
X82500000Y-55250000D03*
%TO.N,/U1*%
X31250000Y-51750000D03*
X41750000Y-51750000D03*
X36174999Y-51750000D03*
X70000000Y-50750000D03*
X74750000Y-58000000D03*
%TO.N,/CC_5*%
X75250000Y-55750000D03*
X71250000Y-42250000D03*
%TO.N,/CC_6*%
X35750000Y-58250000D03*
%TO.N,/CC_7*%
X36500000Y-57000000D03*
%TO.N,/CC_8*%
X31250000Y-58250000D03*
%TD*%
D17*
%TO.N,+3V*%
X70228500Y-59378700D02*
X70228500Y-61771500D01*
X70228500Y-61771500D02*
X61250000Y-70750000D01*
X46500000Y-61250000D02*
X46000000Y-61250000D01*
X50750000Y-65500000D02*
X46500000Y-61250000D01*
D18*
%TO.N,/B_1*%
X62799999Y-71450001D02*
X59299999Y-71450001D01*
X63500000Y-70750000D02*
X62799999Y-71450001D01*
X59299999Y-71450001D02*
X58500000Y-72250000D01*
X58500000Y-72250000D02*
X50500000Y-72250000D01*
D17*
%TO.N,/D_a*%
X69500000Y-36200000D02*
X65800000Y-32500000D01*
X65800000Y-32500000D02*
X41750000Y-32500000D01*
X39890000Y-34360000D02*
X39890000Y-36200000D01*
X41750000Y-32500000D02*
X39890000Y-34360000D01*
%TO.N,/D_b*%
X62755025Y-64505025D02*
X61250000Y-63000000D01*
X61250000Y-63000000D02*
X60000000Y-61750000D01*
X60000000Y-61750000D02*
X60000000Y-54000000D01*
X60000000Y-54000000D02*
X58000000Y-52000000D01*
%TO.N,/D_c*%
X74580000Y-46360000D02*
X74580000Y-47670000D01*
X74580000Y-47670000D02*
X74000000Y-48250000D01*
X46860000Y-48250000D02*
X44970000Y-46360000D01*
X74000000Y-48250000D02*
X46860000Y-48250000D01*
X57307023Y-61630025D02*
X58619975Y-61630025D01*
X57307023Y-61630025D02*
X55880025Y-61630025D01*
X55880025Y-61630025D02*
X55250000Y-61000000D01*
%TO.N,/D_dp*%
X44290000Y-44500000D02*
X42430000Y-46360000D01*
X70180000Y-44500000D02*
X44290000Y-44500000D01*
X72040000Y-46360000D02*
X70180000Y-44500000D01*
%TO.N,/D_g*%
X77120000Y-46360000D02*
X74260000Y-43500000D01*
X74260000Y-43500000D02*
X48250000Y-43500000D01*
D18*
%TO.N,/C_U13*%
X50750000Y-69250000D02*
X59000000Y-69250000D01*
X64500000Y-63750000D02*
X64500000Y-62500000D01*
X59000000Y-69250000D02*
X64500000Y-63750000D01*
X64500000Y-62500000D02*
X64500000Y-61750000D01*
X64500000Y-61750000D02*
X71750000Y-54500000D01*
X74000000Y-54500000D02*
X75250000Y-53250000D01*
X71750000Y-54500000D02*
X74000000Y-54500000D01*
X75250000Y-53250000D02*
X75250000Y-51250000D01*
X75250000Y-51250000D02*
X76000000Y-50500000D01*
%TO.N,/C_display*%
X58737347Y-70762653D02*
X68000000Y-61500000D01*
X68000000Y-61500000D02*
X68000000Y-59000000D01*
X68000000Y-59000000D02*
X70000000Y-57000000D01*
X75963998Y-57000000D02*
X81213998Y-51750000D01*
X70000000Y-57000000D02*
X75963998Y-57000000D01*
X81213998Y-50536002D02*
X81500000Y-50250000D01*
X81213998Y-51750000D02*
X81213998Y-50536002D01*
%TO.N,/U3*%
X64873946Y-56000000D02*
X69500000Y-56000000D01*
X70434302Y-55250000D02*
X71684302Y-54000000D01*
X70250000Y-55250000D02*
X70434302Y-55250000D01*
X69500000Y-56000000D02*
X70250000Y-55250000D01*
X73430025Y-54000000D02*
X74550000Y-52880025D01*
X71684302Y-54000000D02*
X73430025Y-54000000D01*
%TO.N,/U1*%
X41750000Y-51750000D02*
X52250000Y-51750000D01*
X52250000Y-51750000D02*
X53250000Y-50750000D01*
X53250000Y-50750000D02*
X70000000Y-50750000D01*
%TD*%
D19*
%TO.N,gnd*%
X89249899Y-31737907D02*
X89490285Y-31810484D01*
X89711991Y-31928368D01*
X89906577Y-32087068D01*
X90066635Y-32280545D01*
X90186064Y-32501424D01*
X90260317Y-32741297D01*
X90290000Y-33023716D01*
X90290001Y-73965269D01*
X90262093Y-74249899D01*
X90189517Y-74490282D01*
X90071633Y-74711989D01*
X89912929Y-74906580D01*
X89719455Y-75066635D01*
X89498576Y-75186064D01*
X89258701Y-75260317D01*
X88976291Y-75290000D01*
X65034446Y-75290000D01*
X65201282Y-75256814D01*
X65457885Y-75150525D01*
X65688822Y-74996218D01*
X65885218Y-74799822D01*
X66039525Y-74568885D01*
X66145814Y-74312282D01*
X66200000Y-74039873D01*
X66200000Y-73762127D01*
X66145814Y-73489718D01*
X66039525Y-73233115D01*
X65885218Y-73002178D01*
X65768040Y-72885000D01*
X65885218Y-72767822D01*
X66039525Y-72536885D01*
X66145814Y-72280282D01*
X66200000Y-72007873D01*
X66200000Y-71730127D01*
X66145814Y-71457718D01*
X66039525Y-71201115D01*
X65885218Y-70970178D01*
X65688822Y-70773782D01*
X65457885Y-70619475D01*
X65201282Y-70513186D01*
X64928873Y-70459000D01*
X64651127Y-70459000D01*
X64503245Y-70488416D01*
X64495226Y-70448102D01*
X64417205Y-70259744D01*
X64303937Y-70090226D01*
X64159774Y-69946063D01*
X63997922Y-69837917D01*
X71349688Y-69837917D01*
X71436393Y-70094653D01*
X71713223Y-70228048D01*
X72010757Y-70304873D01*
X72317562Y-70322176D01*
X72621848Y-70279292D01*
X72911921Y-70177868D01*
X73067607Y-70094653D01*
X73154312Y-69837917D01*
X83849688Y-69837917D01*
X83936393Y-70094653D01*
X84213223Y-70228048D01*
X84510757Y-70304873D01*
X84817562Y-70322176D01*
X85121848Y-70279292D01*
X85411921Y-70177868D01*
X85567607Y-70094653D01*
X85654312Y-69837917D01*
X84752000Y-68935605D01*
X83849688Y-69837917D01*
X73154312Y-69837917D01*
X72252000Y-68935605D01*
X71349688Y-69837917D01*
X63997922Y-69837917D01*
X63990256Y-69832795D01*
X63801898Y-69754774D01*
X63601939Y-69715000D01*
X63398061Y-69715000D01*
X63350301Y-69724500D01*
X64253239Y-68821562D01*
X70685824Y-68821562D01*
X70728708Y-69125848D01*
X70830132Y-69415921D01*
X70913347Y-69571607D01*
X71170083Y-69658312D01*
X72072395Y-68756000D01*
X72431605Y-68756000D01*
X73333917Y-69658312D01*
X73590653Y-69571607D01*
X73724048Y-69294777D01*
X73800873Y-68997243D01*
X73810780Y-68821562D01*
X83185824Y-68821562D01*
X83228708Y-69125848D01*
X83330132Y-69415921D01*
X83413347Y-69571607D01*
X83670083Y-69658312D01*
X84572395Y-68756000D01*
X84931605Y-68756000D01*
X85833917Y-69658312D01*
X86090653Y-69571607D01*
X86224048Y-69294777D01*
X86300873Y-68997243D01*
X86318176Y-68690438D01*
X86275292Y-68386152D01*
X86173868Y-68096079D01*
X86090653Y-67940393D01*
X85833917Y-67853688D01*
X84931605Y-68756000D01*
X84572395Y-68756000D01*
X83670083Y-67853688D01*
X83413347Y-67940393D01*
X83279952Y-68217223D01*
X83203127Y-68514757D01*
X83185824Y-68821562D01*
X73810780Y-68821562D01*
X73818176Y-68690438D01*
X73775292Y-68386152D01*
X73673868Y-68096079D01*
X73590653Y-67940393D01*
X73333917Y-67853688D01*
X72431605Y-68756000D01*
X72072395Y-68756000D01*
X71170083Y-67853688D01*
X70913347Y-67940393D01*
X70779952Y-68217223D01*
X70703127Y-68514757D01*
X70685824Y-68821562D01*
X64253239Y-68821562D01*
X65400718Y-67674083D01*
X71349688Y-67674083D01*
X72252000Y-68576395D01*
X73154312Y-67674083D01*
X83849688Y-67674083D01*
X84752000Y-68576395D01*
X85654312Y-67674083D01*
X85567607Y-67417347D01*
X85290777Y-67283952D01*
X84993243Y-67207127D01*
X84686438Y-67189824D01*
X84382152Y-67232708D01*
X84092079Y-67334132D01*
X83936393Y-67417347D01*
X83849688Y-67674083D01*
X73154312Y-67674083D01*
X73067607Y-67417347D01*
X72790777Y-67283952D01*
X72493243Y-67207127D01*
X72186438Y-67189824D01*
X71882152Y-67232708D01*
X71592079Y-67334132D01*
X71436393Y-67417347D01*
X71349688Y-67674083D01*
X65400718Y-67674083D01*
X68972449Y-64102353D01*
X70692000Y-64102353D01*
X70692000Y-64409647D01*
X70751950Y-64711035D01*
X70869546Y-64994937D01*
X71040269Y-65250442D01*
X71257558Y-65467731D01*
X71513063Y-65638454D01*
X71796965Y-65756050D01*
X72098353Y-65816000D01*
X72405647Y-65816000D01*
X72707035Y-65756050D01*
X72990937Y-65638454D01*
X73246442Y-65467731D01*
X73463731Y-65250442D01*
X73634454Y-64994937D01*
X73752050Y-64711035D01*
X73812000Y-64409647D01*
X73812000Y-64148061D01*
X74215000Y-64148061D01*
X74215000Y-64351939D01*
X74254774Y-64551898D01*
X74332795Y-64740256D01*
X74446063Y-64909774D01*
X74590226Y-65053937D01*
X74759744Y-65167205D01*
X74948102Y-65245226D01*
X75148061Y-65285000D01*
X75351939Y-65285000D01*
X75551898Y-65245226D01*
X75740256Y-65167205D01*
X75909774Y-65053937D01*
X76053937Y-64909774D01*
X76167205Y-64740256D01*
X76245226Y-64551898D01*
X76285000Y-64351939D01*
X76285000Y-64148061D01*
X76275909Y-64102353D01*
X83192000Y-64102353D01*
X83192000Y-64409647D01*
X83251950Y-64711035D01*
X83369546Y-64994937D01*
X83540269Y-65250442D01*
X83757558Y-65467731D01*
X84013063Y-65638454D01*
X84296965Y-65756050D01*
X84598353Y-65816000D01*
X84905647Y-65816000D01*
X85207035Y-65756050D01*
X85490937Y-65638454D01*
X85746442Y-65467731D01*
X85963731Y-65250442D01*
X86134454Y-64994937D01*
X86252050Y-64711035D01*
X86312000Y-64409647D01*
X86312000Y-64102353D01*
X86252050Y-63800965D01*
X86134454Y-63517063D01*
X85963731Y-63261558D01*
X85746442Y-63044269D01*
X85490937Y-62873546D01*
X85207035Y-62755950D01*
X84905647Y-62696000D01*
X84598353Y-62696000D01*
X84296965Y-62755950D01*
X84013063Y-62873546D01*
X83757558Y-63044269D01*
X83540269Y-63261558D01*
X83369546Y-63517063D01*
X83251950Y-63800965D01*
X83192000Y-64102353D01*
X76275909Y-64102353D01*
X76245226Y-63948102D01*
X76167205Y-63759744D01*
X76053937Y-63590226D01*
X75909774Y-63446063D01*
X75740256Y-63332795D01*
X75551898Y-63254774D01*
X75351939Y-63215000D01*
X75148061Y-63215000D01*
X74948102Y-63254774D01*
X74759744Y-63332795D01*
X74590226Y-63446063D01*
X74446063Y-63590226D01*
X74332795Y-63759744D01*
X74254774Y-63948102D01*
X74215000Y-64148061D01*
X73812000Y-64148061D01*
X73812000Y-64102353D01*
X73752050Y-63800965D01*
X73634454Y-63517063D01*
X73463731Y-63261558D01*
X73246442Y-63044269D01*
X72990937Y-62873546D01*
X72707035Y-62755950D01*
X72405647Y-62696000D01*
X72098353Y-62696000D01*
X71796965Y-62755950D01*
X71513063Y-62873546D01*
X71257558Y-63044269D01*
X71040269Y-63261558D01*
X70869546Y-63517063D01*
X70751950Y-63800965D01*
X70692000Y-64102353D01*
X68972449Y-64102353D01*
X70739508Y-62335295D01*
X70768501Y-62311501D01*
X70792295Y-62282508D01*
X70792299Y-62282504D01*
X70863473Y-62195777D01*
X70864517Y-62193824D01*
X70934046Y-62063747D01*
X70977503Y-61920486D01*
X70988500Y-61808833D01*
X70988500Y-61808824D01*
X70992176Y-61771501D01*
X70988500Y-61734178D01*
X70988500Y-60887729D01*
X71026647Y-60871928D01*
X71302625Y-60687525D01*
X71537325Y-60452825D01*
X71721728Y-60176847D01*
X71848746Y-59870196D01*
X71913500Y-59544658D01*
X71913500Y-59212742D01*
X71848746Y-58887204D01*
X71721728Y-58580553D01*
X71537325Y-58304575D01*
X71302625Y-58069875D01*
X71026647Y-57885472D01*
X70719996Y-57758454D01*
X70602086Y-57735000D01*
X73747435Y-57735000D01*
X73715000Y-57898061D01*
X73715000Y-58101939D01*
X73754774Y-58301898D01*
X73832795Y-58490256D01*
X73946063Y-58659774D01*
X74090226Y-58803937D01*
X74259744Y-58917205D01*
X74448102Y-58995226D01*
X74648061Y-59035000D01*
X74851939Y-59035000D01*
X75051898Y-58995226D01*
X75240256Y-58917205D01*
X75409774Y-58803937D01*
X75553937Y-58659774D01*
X75667205Y-58490256D01*
X75745226Y-58301898D01*
X75785000Y-58101939D01*
X75785000Y-57898061D01*
X75752565Y-57735000D01*
X75927893Y-57735000D01*
X75963998Y-57738556D01*
X76000103Y-57735000D01*
X76108083Y-57724365D01*
X76246631Y-57682337D01*
X76374318Y-57614087D01*
X76486236Y-57522238D01*
X76509257Y-57494187D01*
X78855383Y-55148061D01*
X81465000Y-55148061D01*
X81465000Y-55351939D01*
X81504774Y-55551898D01*
X81582795Y-55740256D01*
X81696063Y-55909774D01*
X81840226Y-56053937D01*
X82009744Y-56167205D01*
X82198102Y-56245226D01*
X82398061Y-56285000D01*
X82601939Y-56285000D01*
X82801898Y-56245226D01*
X82990256Y-56167205D01*
X83159774Y-56053937D01*
X83303937Y-55909774D01*
X83417205Y-55740256D01*
X83495226Y-55551898D01*
X83535000Y-55351939D01*
X83535000Y-55148061D01*
X83495226Y-54948102D01*
X83417205Y-54759744D01*
X83303937Y-54590226D01*
X83159774Y-54446063D01*
X82990256Y-54332795D01*
X82801898Y-54254774D01*
X82601939Y-54215000D01*
X82398061Y-54215000D01*
X82198102Y-54254774D01*
X82009744Y-54332795D01*
X81840226Y-54446063D01*
X81696063Y-54590226D01*
X81582795Y-54759744D01*
X81504774Y-54948102D01*
X81465000Y-55148061D01*
X78855383Y-55148061D01*
X81708195Y-52295249D01*
X81736235Y-52272238D01*
X81759248Y-52244197D01*
X81759251Y-52244194D01*
X81828084Y-52160321D01*
X81828085Y-52160320D01*
X81896335Y-52032633D01*
X81938363Y-51894085D01*
X81948998Y-51786105D01*
X81948998Y-51786096D01*
X81952553Y-51750001D01*
X81948998Y-51713906D01*
X81948998Y-51184295D01*
X81990256Y-51167205D01*
X82159774Y-51053937D01*
X82303937Y-50909774D01*
X82417205Y-50740256D01*
X82495226Y-50551898D01*
X82535000Y-50351939D01*
X82535000Y-50148061D01*
X82495226Y-49948102D01*
X82417205Y-49759744D01*
X82303937Y-49590226D01*
X82159774Y-49446063D01*
X81990256Y-49332795D01*
X81801898Y-49254774D01*
X81601939Y-49215000D01*
X81398061Y-49215000D01*
X81198102Y-49254774D01*
X81009744Y-49332795D01*
X80840226Y-49446063D01*
X80696063Y-49590226D01*
X80582795Y-49759744D01*
X80504774Y-49948102D01*
X80465000Y-50148061D01*
X80465000Y-50351939D01*
X80484109Y-50448006D01*
X80475442Y-50536002D01*
X80478999Y-50572117D01*
X80478998Y-51445553D01*
X76283588Y-55640964D01*
X76245226Y-55448102D01*
X76167205Y-55259744D01*
X76053937Y-55090226D01*
X75909774Y-54946063D01*
X75740256Y-54832795D01*
X75551898Y-54754774D01*
X75351939Y-54715000D01*
X75148061Y-54715000D01*
X74948102Y-54754774D01*
X74759744Y-54832795D01*
X74599740Y-54939706D01*
X75744197Y-53795250D01*
X75772237Y-53772238D01*
X75795250Y-53744197D01*
X75795253Y-53744194D01*
X75844684Y-53683962D01*
X75864087Y-53660320D01*
X75932337Y-53532633D01*
X75974365Y-53394085D01*
X75985000Y-53286105D01*
X75985000Y-53286104D01*
X75988556Y-53250000D01*
X75985000Y-53213895D01*
X75985000Y-51554446D01*
X76004446Y-51535000D01*
X76101939Y-51535000D01*
X76301898Y-51495226D01*
X76490256Y-51417205D01*
X76659774Y-51303937D01*
X76803937Y-51159774D01*
X76917205Y-50990256D01*
X76995226Y-50801898D01*
X77035000Y-50601939D01*
X77035000Y-50398061D01*
X76995226Y-50198102D01*
X76917205Y-50009744D01*
X76803937Y-49840226D01*
X76659774Y-49696063D01*
X76490256Y-49582795D01*
X76301898Y-49504774D01*
X76101939Y-49465000D01*
X76035000Y-49465000D01*
X76035000Y-49398061D01*
X75995226Y-49198102D01*
X75917205Y-49009744D01*
X75803937Y-48840226D01*
X75659774Y-48696063D01*
X75490256Y-48582795D01*
X75301898Y-48504774D01*
X75101939Y-48465000D01*
X74898061Y-48465000D01*
X74850302Y-48474500D01*
X75091002Y-48233800D01*
X75120001Y-48210001D01*
X75214974Y-48094276D01*
X75285546Y-47962247D01*
X75329003Y-47818986D01*
X75340000Y-47707333D01*
X75340000Y-47707323D01*
X75343676Y-47670000D01*
X75340000Y-47632677D01*
X75340000Y-47517909D01*
X75462886Y-47435799D01*
X75655799Y-47242886D01*
X75807371Y-47016043D01*
X75850000Y-46913127D01*
X75892629Y-47016043D01*
X76044201Y-47242886D01*
X76237114Y-47435799D01*
X76463957Y-47587371D01*
X76716011Y-47691775D01*
X76983589Y-47745000D01*
X77256411Y-47745000D01*
X77523989Y-47691775D01*
X77776043Y-47587371D01*
X78002886Y-47435799D01*
X78195799Y-47242886D01*
X78347371Y-47016043D01*
X78390000Y-46913127D01*
X78432629Y-47016043D01*
X78584201Y-47242886D01*
X78777114Y-47435799D01*
X79003957Y-47587371D01*
X79256011Y-47691775D01*
X79523589Y-47745000D01*
X79796411Y-47745000D01*
X80063989Y-47691775D01*
X80316043Y-47587371D01*
X80542886Y-47435799D01*
X80735799Y-47242886D01*
X80887371Y-47016043D01*
X80991775Y-46763989D01*
X81045000Y-46496411D01*
X81045000Y-46223589D01*
X80991775Y-45956011D01*
X80887371Y-45703957D01*
X80735799Y-45477114D01*
X80542886Y-45284201D01*
X80316043Y-45132629D01*
X80063989Y-45028225D01*
X79796411Y-44975000D01*
X79523589Y-44975000D01*
X79256011Y-45028225D01*
X79003957Y-45132629D01*
X78777114Y-45284201D01*
X78584201Y-45477114D01*
X78432629Y-45703957D01*
X78390000Y-45806873D01*
X78347371Y-45703957D01*
X78195799Y-45477114D01*
X78002886Y-45284201D01*
X77776043Y-45132629D01*
X77523989Y-45028225D01*
X77256411Y-44975000D01*
X76983589Y-44975000D01*
X76838635Y-45003833D01*
X74823804Y-42989003D01*
X74800001Y-42959999D01*
X74684276Y-42865026D01*
X74552247Y-42794454D01*
X74408986Y-42750997D01*
X74297333Y-42740000D01*
X74297322Y-42740000D01*
X74260000Y-42736324D01*
X74222678Y-42740000D01*
X72167311Y-42740000D01*
X72245226Y-42551898D01*
X72285000Y-42351939D01*
X72285000Y-42148061D01*
X72245226Y-41948102D01*
X72167205Y-41759744D01*
X72053937Y-41590226D01*
X71909774Y-41446063D01*
X71740256Y-41332795D01*
X71551898Y-41254774D01*
X71351939Y-41215000D01*
X71148061Y-41215000D01*
X70948102Y-41254774D01*
X70759744Y-41332795D01*
X70590226Y-41446063D01*
X70446063Y-41590226D01*
X70332795Y-41759744D01*
X70254774Y-41948102D01*
X70215000Y-42148061D01*
X70215000Y-42351939D01*
X70254774Y-42551898D01*
X70332689Y-42740000D01*
X68933403Y-42740000D01*
X69033783Y-42639620D01*
X69147051Y-42470102D01*
X69225072Y-42281744D01*
X69264846Y-42081785D01*
X69264846Y-41877907D01*
X69225072Y-41677948D01*
X69147051Y-41489590D01*
X69033783Y-41320072D01*
X68889620Y-41175909D01*
X68720102Y-41062641D01*
X68531744Y-40984620D01*
X68331785Y-40944846D01*
X68127907Y-40944846D01*
X67927948Y-40984620D01*
X67739590Y-41062641D01*
X67570072Y-41175909D01*
X67425909Y-41320072D01*
X67312641Y-41489590D01*
X67234620Y-41677948D01*
X67194846Y-41877907D01*
X67194846Y-42081785D01*
X67234620Y-42281744D01*
X67312641Y-42470102D01*
X67425909Y-42639620D01*
X67526289Y-42740000D01*
X50417311Y-42740000D01*
X50495226Y-42551898D01*
X50535000Y-42351939D01*
X50535000Y-42148061D01*
X50495226Y-41948102D01*
X50417205Y-41759744D01*
X50303937Y-41590226D01*
X50159774Y-41446063D01*
X49990256Y-41332795D01*
X49801898Y-41254774D01*
X49601939Y-41215000D01*
X49398061Y-41215000D01*
X49198102Y-41254774D01*
X49009744Y-41332795D01*
X48840226Y-41446063D01*
X48696063Y-41590226D01*
X48582795Y-41759744D01*
X48504774Y-41948102D01*
X48465000Y-42148061D01*
X48465000Y-42351939D01*
X48493073Y-42493073D01*
X48351939Y-42465000D01*
X48148061Y-42465000D01*
X47948102Y-42504774D01*
X47759744Y-42582795D01*
X47590226Y-42696063D01*
X47446063Y-42840226D01*
X47332795Y-43009744D01*
X47254774Y-43198102D01*
X47215000Y-43398061D01*
X47215000Y-43601939D01*
X47242462Y-43740000D01*
X44327322Y-43740000D01*
X44289999Y-43736324D01*
X44252676Y-43740000D01*
X44252667Y-43740000D01*
X44141014Y-43750997D01*
X43997753Y-43794454D01*
X43865724Y-43865026D01*
X43749999Y-43959999D01*
X43726201Y-43988997D01*
X42711365Y-45003833D01*
X42566411Y-44975000D01*
X42293589Y-44975000D01*
X42026011Y-45028225D01*
X41773957Y-45132629D01*
X41547114Y-45284201D01*
X41354201Y-45477114D01*
X41202629Y-45703957D01*
X41160000Y-45806873D01*
X41117371Y-45703957D01*
X40965799Y-45477114D01*
X40772886Y-45284201D01*
X40546043Y-45132629D01*
X40293989Y-45028225D01*
X40026411Y-44975000D01*
X39753589Y-44975000D01*
X39486011Y-45028225D01*
X39233957Y-45132629D01*
X39007114Y-45284201D01*
X38814201Y-45477114D01*
X38736445Y-45593483D01*
X38725812Y-45485518D01*
X38689502Y-45365820D01*
X38630537Y-45255506D01*
X38551185Y-45158815D01*
X38454494Y-45079463D01*
X38344180Y-45020498D01*
X38224482Y-44984188D01*
X38100000Y-44971928D01*
X36600000Y-44971928D01*
X36475518Y-44984188D01*
X36355820Y-45020498D01*
X36245506Y-45079463D01*
X36148815Y-45158815D01*
X36069463Y-45255506D01*
X36010498Y-45365820D01*
X35974188Y-45485518D01*
X35961928Y-45610000D01*
X35961928Y-47110000D01*
X35974188Y-47234482D01*
X36010498Y-47354180D01*
X36069463Y-47464494D01*
X36148815Y-47561185D01*
X36245506Y-47640537D01*
X36355820Y-47699502D01*
X36475518Y-47735812D01*
X36600000Y-47748072D01*
X38100000Y-47748072D01*
X38224482Y-47735812D01*
X38344180Y-47699502D01*
X38454494Y-47640537D01*
X38551185Y-47561185D01*
X38630537Y-47464494D01*
X38689502Y-47354180D01*
X38725812Y-47234482D01*
X38736445Y-47126517D01*
X38814201Y-47242886D01*
X39007114Y-47435799D01*
X39233957Y-47587371D01*
X39486011Y-47691775D01*
X39753589Y-47745000D01*
X40026411Y-47745000D01*
X40293989Y-47691775D01*
X40546043Y-47587371D01*
X40772886Y-47435799D01*
X40965799Y-47242886D01*
X41117371Y-47016043D01*
X41160000Y-46913127D01*
X41202629Y-47016043D01*
X41354201Y-47242886D01*
X41547114Y-47435799D01*
X41773957Y-47587371D01*
X42026011Y-47691775D01*
X42293589Y-47745000D01*
X42566411Y-47745000D01*
X42833989Y-47691775D01*
X43086043Y-47587371D01*
X43312886Y-47435799D01*
X43505799Y-47242886D01*
X43657371Y-47016043D01*
X43700000Y-46913127D01*
X43742629Y-47016043D01*
X43894201Y-47242886D01*
X44087114Y-47435799D01*
X44313957Y-47587371D01*
X44566011Y-47691775D01*
X44833589Y-47745000D01*
X45106411Y-47745000D01*
X45251365Y-47716167D01*
X46296201Y-48761003D01*
X46319999Y-48790001D01*
X46435724Y-48884974D01*
X46567753Y-48955546D01*
X46711014Y-48999003D01*
X46822667Y-49010000D01*
X46822675Y-49010000D01*
X46860000Y-49013676D01*
X46897325Y-49010000D01*
X52685485Y-49010000D01*
X52509744Y-49082795D01*
X52340226Y-49196063D01*
X52196063Y-49340226D01*
X52082795Y-49509744D01*
X52004774Y-49698102D01*
X51965000Y-49898061D01*
X51965000Y-50101939D01*
X52004774Y-50301898D01*
X52082795Y-50490256D01*
X52196063Y-50659774D01*
X52248421Y-50712132D01*
X51945554Y-51015000D01*
X48785000Y-51015000D01*
X48785000Y-50898061D01*
X48745226Y-50698102D01*
X48667205Y-50509744D01*
X48553937Y-50340226D01*
X48409774Y-50196063D01*
X48240256Y-50082795D01*
X48051898Y-50004774D01*
X47851939Y-49965000D01*
X47648061Y-49965000D01*
X47448102Y-50004774D01*
X47259744Y-50082795D01*
X47090226Y-50196063D01*
X46946063Y-50340226D01*
X46832795Y-50509744D01*
X46754774Y-50698102D01*
X46715000Y-50898061D01*
X46715000Y-51015000D01*
X42478711Y-51015000D01*
X42409774Y-50946063D01*
X42240256Y-50832795D01*
X42051898Y-50754774D01*
X41851939Y-50715000D01*
X41648061Y-50715000D01*
X41448102Y-50754774D01*
X41259744Y-50832795D01*
X41090226Y-50946063D01*
X40946063Y-51090226D01*
X40832795Y-51259744D01*
X40754774Y-51448102D01*
X40715000Y-51648061D01*
X40715000Y-51851939D01*
X40754774Y-52051898D01*
X40832795Y-52240256D01*
X40946063Y-52409774D01*
X41090226Y-52553937D01*
X41259744Y-52667205D01*
X41448102Y-52745226D01*
X41648061Y-52785000D01*
X41851939Y-52785000D01*
X42051898Y-52745226D01*
X42240256Y-52667205D01*
X42409774Y-52553937D01*
X42478711Y-52485000D01*
X47215000Y-52485000D01*
X47215000Y-52601939D01*
X47254774Y-52801898D01*
X47332795Y-52990256D01*
X47446063Y-53159774D01*
X47590226Y-53303937D01*
X47759744Y-53417205D01*
X47948102Y-53495226D01*
X48148061Y-53535000D01*
X48351939Y-53535000D01*
X48551898Y-53495226D01*
X48740256Y-53417205D01*
X48909774Y-53303937D01*
X49053937Y-53159774D01*
X49167205Y-52990256D01*
X49245226Y-52801898D01*
X49285000Y-52601939D01*
X49285000Y-52485000D01*
X52213895Y-52485000D01*
X52215000Y-52485109D01*
X52215000Y-52601939D01*
X52254774Y-52801898D01*
X52332795Y-52990256D01*
X52446063Y-53159774D01*
X52590226Y-53303937D01*
X52759744Y-53417205D01*
X52948102Y-53495226D01*
X53148061Y-53535000D01*
X53351939Y-53535000D01*
X53551898Y-53495226D01*
X53740256Y-53417205D01*
X53909774Y-53303937D01*
X54053937Y-53159774D01*
X54167205Y-52990256D01*
X54245226Y-52801898D01*
X54285000Y-52601939D01*
X54285000Y-52398061D01*
X54245226Y-52198102D01*
X54167205Y-52009744D01*
X54053937Y-51840226D01*
X53909774Y-51696063D01*
X53740256Y-51582795D01*
X53551898Y-51504774D01*
X53537531Y-51501916D01*
X53554447Y-51485000D01*
X57099328Y-51485000D01*
X57082795Y-51509744D01*
X57004774Y-51698102D01*
X56965000Y-51898061D01*
X56965000Y-52101939D01*
X57004774Y-52301898D01*
X57082795Y-52490256D01*
X57196063Y-52659774D01*
X57340226Y-52803937D01*
X57509744Y-52917205D01*
X57698102Y-52995226D01*
X57898061Y-53035000D01*
X57960199Y-53035000D01*
X59240001Y-54314803D01*
X59240000Y-58082689D01*
X59051898Y-58004774D01*
X58851939Y-57965000D01*
X58648061Y-57965000D01*
X58448102Y-58004774D01*
X58419973Y-58016426D01*
X58417205Y-58009744D01*
X58303937Y-57840226D01*
X58159774Y-57696063D01*
X57990256Y-57582795D01*
X57801898Y-57504774D01*
X57601939Y-57465000D01*
X57398061Y-57465000D01*
X57198102Y-57504774D01*
X57009744Y-57582795D01*
X56840226Y-57696063D01*
X56696063Y-57840226D01*
X56582795Y-58009744D01*
X56504774Y-58198102D01*
X56465000Y-58398061D01*
X56465000Y-58601939D01*
X56504774Y-58801898D01*
X56582795Y-58990256D01*
X56696063Y-59159774D01*
X56840226Y-59303937D01*
X57009744Y-59417205D01*
X57115388Y-59460965D01*
X57082795Y-59509744D01*
X57004774Y-59698102D01*
X56965000Y-59898061D01*
X56965000Y-60101939D01*
X57004774Y-60301898D01*
X57082795Y-60490256D01*
X57196063Y-60659774D01*
X57340226Y-60803937D01*
X57439134Y-60870025D01*
X56279423Y-60870025D01*
X56245226Y-60698102D01*
X56167205Y-60509744D01*
X56053937Y-60340226D01*
X55909774Y-60196063D01*
X55740256Y-60082795D01*
X55551898Y-60004774D01*
X55351939Y-59965000D01*
X55148061Y-59965000D01*
X54948102Y-60004774D01*
X54759744Y-60082795D01*
X54590226Y-60196063D01*
X54446063Y-60340226D01*
X54332795Y-60509744D01*
X54254774Y-60698102D01*
X54215000Y-60898061D01*
X54215000Y-61101939D01*
X54254774Y-61301898D01*
X54332795Y-61490256D01*
X54446063Y-61659774D01*
X54590226Y-61803937D01*
X54759744Y-61917205D01*
X54948102Y-61995226D01*
X55148061Y-62035000D01*
X55210198Y-62035000D01*
X55316225Y-62141027D01*
X55340024Y-62170026D01*
X55369022Y-62193824D01*
X55455748Y-62264999D01*
X55512349Y-62295253D01*
X55587778Y-62335571D01*
X55731039Y-62379028D01*
X55842692Y-62390025D01*
X55842702Y-62390025D01*
X55880025Y-62393701D01*
X55917348Y-62390025D01*
X57916264Y-62390025D01*
X57960201Y-62433962D01*
X58129719Y-62547230D01*
X58318077Y-62625251D01*
X58518036Y-62665025D01*
X58721914Y-62665025D01*
X58921873Y-62625251D01*
X59110231Y-62547230D01*
X59279749Y-62433962D01*
X59423912Y-62289799D01*
X59440033Y-62265672D01*
X59459999Y-62290001D01*
X59489003Y-62313804D01*
X60738997Y-63563799D01*
X60739002Y-63563803D01*
X61720025Y-64544827D01*
X61720025Y-64606964D01*
X61749150Y-64753387D01*
X61609774Y-64614011D01*
X61440256Y-64500743D01*
X61251898Y-64422722D01*
X61051939Y-64382948D01*
X60848061Y-64382948D01*
X60648102Y-64422722D01*
X60459744Y-64500743D01*
X60290226Y-64614011D01*
X60146063Y-64758174D01*
X60032795Y-64927692D01*
X59954774Y-65116050D01*
X59925302Y-65264218D01*
X59785739Y-65322028D01*
X59659774Y-65196063D01*
X59490256Y-65082795D01*
X59301898Y-65004774D01*
X59101939Y-64965000D01*
X58898061Y-64965000D01*
X58698102Y-65004774D01*
X58509744Y-65082795D01*
X58340226Y-65196063D01*
X58196063Y-65340226D01*
X58082795Y-65509744D01*
X58004774Y-65698102D01*
X57965000Y-65898061D01*
X57965000Y-66101939D01*
X58004774Y-66301898D01*
X58082795Y-66490256D01*
X58196063Y-66659774D01*
X58340226Y-66803937D01*
X58509744Y-66917205D01*
X58698102Y-66995226D01*
X58898061Y-67035000D01*
X59101939Y-67035000D01*
X59301898Y-66995226D01*
X59464261Y-66927972D01*
X59590226Y-67053937D01*
X59759744Y-67167205D01*
X59948102Y-67245226D01*
X59962470Y-67248084D01*
X58695554Y-68515000D01*
X51478711Y-68515000D01*
X51409774Y-68446063D01*
X51240256Y-68332795D01*
X51051898Y-68254774D01*
X50851939Y-68215000D01*
X50648061Y-68215000D01*
X50448102Y-68254774D01*
X50259744Y-68332795D01*
X50090226Y-68446063D01*
X49946063Y-68590226D01*
X49832795Y-68759744D01*
X49754774Y-68948102D01*
X49715000Y-69148061D01*
X49715000Y-69351939D01*
X49754774Y-69551898D01*
X49832795Y-69740256D01*
X49946063Y-69909774D01*
X50090226Y-70053937D01*
X50259744Y-70167205D01*
X50448102Y-70245226D01*
X50648061Y-70285000D01*
X50851939Y-70285000D01*
X51051898Y-70245226D01*
X51240256Y-70167205D01*
X51409774Y-70053937D01*
X51478711Y-69985000D01*
X58051289Y-69985000D01*
X57933410Y-70102879D01*
X57820142Y-70272397D01*
X57742121Y-70460755D01*
X57702347Y-70660714D01*
X57702347Y-70864592D01*
X57742121Y-71064551D01*
X57820142Y-71252909D01*
X57933410Y-71422427D01*
X58025983Y-71515000D01*
X51228711Y-71515000D01*
X51159774Y-71446063D01*
X50990256Y-71332795D01*
X50801898Y-71254774D01*
X50601939Y-71215000D01*
X50398061Y-71215000D01*
X50198102Y-71254774D01*
X50009744Y-71332795D01*
X49840226Y-71446063D01*
X49696063Y-71590226D01*
X49582795Y-71759744D01*
X49504774Y-71948102D01*
X49465000Y-72148061D01*
X49465000Y-72351939D01*
X49504774Y-72551898D01*
X49582795Y-72740256D01*
X49696063Y-72909774D01*
X49840226Y-73053937D01*
X50009744Y-73167205D01*
X50198102Y-73245226D01*
X50398061Y-73285000D01*
X50601939Y-73285000D01*
X50801898Y-73245226D01*
X50990256Y-73167205D01*
X51159774Y-73053937D01*
X51228711Y-72985000D01*
X58300000Y-72985000D01*
X58300000Y-73023873D01*
X58354186Y-73296282D01*
X58460475Y-73552885D01*
X58614782Y-73783822D01*
X58811178Y-73980218D01*
X59042115Y-74134525D01*
X59298718Y-74240814D01*
X59571127Y-74295000D01*
X59848873Y-74295000D01*
X60121282Y-74240814D01*
X60377885Y-74134525D01*
X60608822Y-73980218D01*
X60805218Y-73783822D01*
X60959525Y-73552885D01*
X61065814Y-73296282D01*
X61120000Y-73023873D01*
X61120000Y-72746127D01*
X61065814Y-72473718D01*
X60959525Y-72217115D01*
X60938067Y-72185001D01*
X62763894Y-72185001D01*
X62799999Y-72188557D01*
X62836104Y-72185001D01*
X62944084Y-72174366D01*
X63082632Y-72132338D01*
X63210319Y-72064088D01*
X63322237Y-71972239D01*
X63345257Y-71944189D01*
X63380000Y-71909446D01*
X63380000Y-72007873D01*
X63434186Y-72280282D01*
X63540475Y-72536885D01*
X63694782Y-72767822D01*
X63811960Y-72885000D01*
X63694782Y-73002178D01*
X63540475Y-73233115D01*
X63434186Y-73489718D01*
X63380000Y-73762127D01*
X63380000Y-74039873D01*
X63434186Y-74312282D01*
X63540475Y-74568885D01*
X63694782Y-74799822D01*
X63891178Y-74996218D01*
X64122115Y-75150525D01*
X64378718Y-75256814D01*
X64545554Y-75290000D01*
X62383967Y-75290000D01*
X62417205Y-75240256D01*
X62495226Y-75051898D01*
X62535000Y-74851939D01*
X62535000Y-74648061D01*
X62495226Y-74448102D01*
X62417205Y-74259744D01*
X62303937Y-74090226D01*
X62159774Y-73946063D01*
X61990256Y-73832795D01*
X61801898Y-73754774D01*
X61601939Y-73715000D01*
X61398061Y-73715000D01*
X61198102Y-73754774D01*
X61009744Y-73832795D01*
X60840226Y-73946063D01*
X60696063Y-74090226D01*
X60582795Y-74259744D01*
X60504774Y-74448102D01*
X60465000Y-74648061D01*
X60465000Y-74851939D01*
X60504774Y-75051898D01*
X60582795Y-75240256D01*
X60616033Y-75290000D01*
X28034721Y-75290000D01*
X27750101Y-75262093D01*
X27509718Y-75189517D01*
X27288011Y-75071633D01*
X27093420Y-74912929D01*
X26933365Y-74719455D01*
X26813936Y-74498576D01*
X26739683Y-74258701D01*
X26710000Y-73976291D01*
X26710000Y-69837917D01*
X31349688Y-69837917D01*
X31436393Y-70094653D01*
X31713223Y-70228048D01*
X32010757Y-70304873D01*
X32317562Y-70322176D01*
X32621848Y-70279292D01*
X32911921Y-70177868D01*
X33067607Y-70094653D01*
X33154312Y-69837917D01*
X43849688Y-69837917D01*
X43936393Y-70094653D01*
X44213223Y-70228048D01*
X44510757Y-70304873D01*
X44817562Y-70322176D01*
X45121848Y-70279292D01*
X45411921Y-70177868D01*
X45567607Y-70094653D01*
X45654312Y-69837917D01*
X44752000Y-68935605D01*
X43849688Y-69837917D01*
X33154312Y-69837917D01*
X32252000Y-68935605D01*
X31349688Y-69837917D01*
X26710000Y-69837917D01*
X26710000Y-68821562D01*
X30685824Y-68821562D01*
X30728708Y-69125848D01*
X30830132Y-69415921D01*
X30913347Y-69571607D01*
X31170083Y-69658312D01*
X32072395Y-68756000D01*
X32431605Y-68756000D01*
X33333917Y-69658312D01*
X33590653Y-69571607D01*
X33724048Y-69294777D01*
X33800873Y-68997243D01*
X33810780Y-68821562D01*
X43185824Y-68821562D01*
X43228708Y-69125848D01*
X43330132Y-69415921D01*
X43413347Y-69571607D01*
X43670083Y-69658312D01*
X44572395Y-68756000D01*
X44931605Y-68756000D01*
X45833917Y-69658312D01*
X46090653Y-69571607D01*
X46224048Y-69294777D01*
X46300873Y-68997243D01*
X46318176Y-68690438D01*
X46275292Y-68386152D01*
X46173868Y-68096079D01*
X46090653Y-67940393D01*
X45833917Y-67853688D01*
X44931605Y-68756000D01*
X44572395Y-68756000D01*
X43670083Y-67853688D01*
X43413347Y-67940393D01*
X43279952Y-68217223D01*
X43203127Y-68514757D01*
X43185824Y-68821562D01*
X33810780Y-68821562D01*
X33818176Y-68690438D01*
X33775292Y-68386152D01*
X33673868Y-68096079D01*
X33590653Y-67940393D01*
X33333917Y-67853688D01*
X32431605Y-68756000D01*
X32072395Y-68756000D01*
X31170083Y-67853688D01*
X30913347Y-67940393D01*
X30779952Y-68217223D01*
X30703127Y-68514757D01*
X30685824Y-68821562D01*
X26710000Y-68821562D01*
X26710000Y-67674083D01*
X31349688Y-67674083D01*
X32252000Y-68576395D01*
X33154312Y-67674083D01*
X43849688Y-67674083D01*
X44752000Y-68576395D01*
X45654312Y-67674083D01*
X45567607Y-67417347D01*
X45290777Y-67283952D01*
X44993243Y-67207127D01*
X44686438Y-67189824D01*
X44382152Y-67232708D01*
X44092079Y-67334132D01*
X43936393Y-67417347D01*
X43849688Y-67674083D01*
X33154312Y-67674083D01*
X33067607Y-67417347D01*
X32790777Y-67283952D01*
X32493243Y-67207127D01*
X32186438Y-67189824D01*
X31882152Y-67232708D01*
X31592079Y-67334132D01*
X31436393Y-67417347D01*
X31349688Y-67674083D01*
X26710000Y-67674083D01*
X26710000Y-64102353D01*
X30692000Y-64102353D01*
X30692000Y-64409647D01*
X30751950Y-64711035D01*
X30869546Y-64994937D01*
X31040269Y-65250442D01*
X31257558Y-65467731D01*
X31513063Y-65638454D01*
X31796965Y-65756050D01*
X32098353Y-65816000D01*
X32405647Y-65816000D01*
X32707035Y-65756050D01*
X32990937Y-65638454D01*
X33246442Y-65467731D01*
X33463731Y-65250442D01*
X33634454Y-64994937D01*
X33752050Y-64711035D01*
X33812000Y-64409647D01*
X33812000Y-64102353D01*
X43192000Y-64102353D01*
X43192000Y-64409647D01*
X43251950Y-64711035D01*
X43369546Y-64994937D01*
X43540269Y-65250442D01*
X43757558Y-65467731D01*
X44013063Y-65638454D01*
X44296965Y-65756050D01*
X44598353Y-65816000D01*
X44905647Y-65816000D01*
X45207035Y-65756050D01*
X45490937Y-65638454D01*
X45746442Y-65467731D01*
X45963731Y-65250442D01*
X46134454Y-64994937D01*
X46252050Y-64711035D01*
X46312000Y-64409647D01*
X46312000Y-64102353D01*
X46252050Y-63800965D01*
X46134454Y-63517063D01*
X45963731Y-63261558D01*
X45746442Y-63044269D01*
X45490937Y-62873546D01*
X45207035Y-62755950D01*
X44905647Y-62696000D01*
X44598353Y-62696000D01*
X44296965Y-62755950D01*
X44013063Y-62873546D01*
X43757558Y-63044269D01*
X43540269Y-63261558D01*
X43369546Y-63517063D01*
X43251950Y-63800965D01*
X43192000Y-64102353D01*
X33812000Y-64102353D01*
X33752050Y-63800965D01*
X33634454Y-63517063D01*
X33463731Y-63261558D01*
X33246442Y-63044269D01*
X32990937Y-62873546D01*
X32707035Y-62755950D01*
X32405647Y-62696000D01*
X32098353Y-62696000D01*
X31796965Y-62755950D01*
X31513063Y-62873546D01*
X31257558Y-63044269D01*
X31040269Y-63261558D01*
X30869546Y-63517063D01*
X30751950Y-63800965D01*
X30692000Y-64102353D01*
X26710000Y-64102353D01*
X26710000Y-61148061D01*
X44965000Y-61148061D01*
X44965000Y-61351939D01*
X45004774Y-61551898D01*
X45082795Y-61740256D01*
X45196063Y-61909774D01*
X45340226Y-62053937D01*
X45509744Y-62167205D01*
X45698102Y-62245226D01*
X45898061Y-62285000D01*
X46101939Y-62285000D01*
X46301898Y-62245226D01*
X46385709Y-62210510D01*
X49715000Y-65539802D01*
X49715000Y-65601939D01*
X49754774Y-65801898D01*
X49832795Y-65990256D01*
X49946063Y-66159774D01*
X50090226Y-66303937D01*
X50259744Y-66417205D01*
X50448102Y-66495226D01*
X50648061Y-66535000D01*
X50851939Y-66535000D01*
X51051898Y-66495226D01*
X51240256Y-66417205D01*
X51409774Y-66303937D01*
X51553937Y-66159774D01*
X51667205Y-65990256D01*
X51745226Y-65801898D01*
X51785000Y-65601939D01*
X51785000Y-65398061D01*
X51745226Y-65198102D01*
X51667205Y-65009744D01*
X51553937Y-64840226D01*
X51409774Y-64696063D01*
X51240256Y-64582795D01*
X51051898Y-64504774D01*
X50851939Y-64465000D01*
X50789802Y-64465000D01*
X47063804Y-60739003D01*
X47040001Y-60709999D01*
X46924276Y-60615026D01*
X46802185Y-60549766D01*
X49237039Y-60549766D01*
X49338839Y-60819279D01*
X49636977Y-60965163D01*
X49957846Y-61050080D01*
X50289117Y-61070766D01*
X50618057Y-61026428D01*
X50932027Y-60918769D01*
X51118161Y-60819279D01*
X51219961Y-60549766D01*
X50228500Y-59558305D01*
X49237039Y-60549766D01*
X46802185Y-60549766D01*
X46792247Y-60544454D01*
X46743325Y-60529614D01*
X46659774Y-60446063D01*
X46490256Y-60332795D01*
X46301898Y-60254774D01*
X46101939Y-60215000D01*
X45898061Y-60215000D01*
X45698102Y-60254774D01*
X45509744Y-60332795D01*
X45340226Y-60446063D01*
X45196063Y-60590226D01*
X45082795Y-60759744D01*
X45004774Y-60948102D01*
X44965000Y-61148061D01*
X26710000Y-61148061D01*
X26710000Y-60335693D01*
X33380212Y-60335693D01*
X33445737Y-60574560D01*
X33692716Y-60690460D01*
X33957560Y-60755950D01*
X34230092Y-60768512D01*
X34499838Y-60727665D01*
X34756432Y-60634977D01*
X34869463Y-60574560D01*
X34934988Y-60335693D01*
X34157600Y-59558305D01*
X33380212Y-60335693D01*
X26710000Y-60335693D01*
X26710000Y-59451192D01*
X32767788Y-59451192D01*
X32808635Y-59720938D01*
X32901323Y-59977532D01*
X32961740Y-60090563D01*
X33200607Y-60156088D01*
X33977995Y-59378700D01*
X33200607Y-58601312D01*
X32961740Y-58666837D01*
X32845840Y-58913816D01*
X32780350Y-59178660D01*
X32767788Y-59451192D01*
X26710000Y-59451192D01*
X26710000Y-58148061D01*
X30215000Y-58148061D01*
X30215000Y-58351939D01*
X30254774Y-58551898D01*
X30332795Y-58740256D01*
X30446063Y-58909774D01*
X30590226Y-59053937D01*
X30759744Y-59167205D01*
X30948102Y-59245226D01*
X31148061Y-59285000D01*
X31351939Y-59285000D01*
X31551898Y-59245226D01*
X31740256Y-59167205D01*
X31909774Y-59053937D01*
X32053937Y-58909774D01*
X32167205Y-58740256D01*
X32245226Y-58551898D01*
X32271122Y-58421707D01*
X33380212Y-58421707D01*
X34157600Y-59199095D01*
X34171743Y-59184953D01*
X34351348Y-59364558D01*
X34337205Y-59378700D01*
X35114593Y-60156088D01*
X35353460Y-60090563D01*
X35469360Y-59843584D01*
X35534850Y-59578740D01*
X35547412Y-59306208D01*
X35540975Y-59263699D01*
X35648061Y-59285000D01*
X35851939Y-59285000D01*
X36051898Y-59245226D01*
X36058988Y-59242289D01*
X40372600Y-59242289D01*
X40372600Y-59515111D01*
X40425825Y-59782689D01*
X40530229Y-60034743D01*
X40681801Y-60261586D01*
X40874714Y-60454499D01*
X41101557Y-60606071D01*
X41353611Y-60710475D01*
X41621189Y-60763700D01*
X41894011Y-60763700D01*
X42161589Y-60710475D01*
X42413643Y-60606071D01*
X42640486Y-60454499D01*
X42833399Y-60261586D01*
X42984971Y-60034743D01*
X43089375Y-59782689D01*
X43142600Y-59515111D01*
X43142600Y-59439317D01*
X48536434Y-59439317D01*
X48580772Y-59768257D01*
X48688431Y-60082227D01*
X48787921Y-60268361D01*
X49057434Y-60370161D01*
X50048895Y-59378700D01*
X50408105Y-59378700D01*
X51399566Y-60370161D01*
X51669079Y-60268361D01*
X51814963Y-59970223D01*
X51899880Y-59649354D01*
X51920566Y-59318083D01*
X51876228Y-58989143D01*
X51768569Y-58675173D01*
X51669079Y-58489039D01*
X51399566Y-58387239D01*
X50408105Y-59378700D01*
X50048895Y-59378700D01*
X49057434Y-58387239D01*
X48787921Y-58489039D01*
X48642037Y-58787177D01*
X48557120Y-59108046D01*
X48536434Y-59439317D01*
X43142600Y-59439317D01*
X43142600Y-59242289D01*
X43089375Y-58974711D01*
X42984971Y-58722657D01*
X42833399Y-58495814D01*
X42640486Y-58302901D01*
X42497910Y-58207634D01*
X49237039Y-58207634D01*
X50228500Y-59199095D01*
X51219961Y-58207634D01*
X51118161Y-57938121D01*
X50820023Y-57792237D01*
X50499154Y-57707320D01*
X50167883Y-57686634D01*
X49838943Y-57730972D01*
X49524973Y-57838631D01*
X49338839Y-57938121D01*
X49237039Y-58207634D01*
X42497910Y-58207634D01*
X42413643Y-58151329D01*
X42161589Y-58046925D01*
X41894011Y-57993700D01*
X41621189Y-57993700D01*
X41353611Y-58046925D01*
X41101557Y-58151329D01*
X40874714Y-58302901D01*
X40681801Y-58495814D01*
X40530229Y-58722657D01*
X40425825Y-58974711D01*
X40372600Y-59242289D01*
X36058988Y-59242289D01*
X36240256Y-59167205D01*
X36409774Y-59053937D01*
X36553937Y-58909774D01*
X36667205Y-58740256D01*
X36745226Y-58551898D01*
X36785000Y-58351939D01*
X36785000Y-58148061D01*
X36756400Y-58004276D01*
X36801898Y-57995226D01*
X36990256Y-57917205D01*
X37159774Y-57803937D01*
X37303937Y-57659774D01*
X37417205Y-57490256D01*
X37495226Y-57301898D01*
X37535000Y-57101939D01*
X37535000Y-56898061D01*
X37495226Y-56698102D01*
X37417205Y-56509744D01*
X37303937Y-56340226D01*
X37159774Y-56196063D01*
X36990256Y-56082795D01*
X36801898Y-56004774D01*
X36601939Y-55965000D01*
X36398061Y-55965000D01*
X36198102Y-56004774D01*
X36009744Y-56082795D01*
X35840226Y-56196063D01*
X35696063Y-56340226D01*
X35582795Y-56509744D01*
X35504774Y-56698102D01*
X35465000Y-56898061D01*
X35465000Y-57101939D01*
X35493600Y-57245724D01*
X35448102Y-57254774D01*
X35259744Y-57332795D01*
X35090226Y-57446063D01*
X34946063Y-57590226D01*
X34832795Y-57759744D01*
X34754774Y-57948102D01*
X34721860Y-58113574D01*
X34622484Y-58066940D01*
X34357640Y-58001450D01*
X34085108Y-57988888D01*
X33815362Y-58029735D01*
X33558768Y-58122423D01*
X33445737Y-58182840D01*
X33380212Y-58421707D01*
X32271122Y-58421707D01*
X32285000Y-58351939D01*
X32285000Y-58148061D01*
X32245226Y-57948102D01*
X32167205Y-57759744D01*
X32053937Y-57590226D01*
X31909774Y-57446063D01*
X31740256Y-57332795D01*
X31551898Y-57254774D01*
X31351939Y-57215000D01*
X31148061Y-57215000D01*
X30948102Y-57254774D01*
X30759744Y-57332795D01*
X30590226Y-57446063D01*
X30446063Y-57590226D01*
X30332795Y-57759744D01*
X30254774Y-57948102D01*
X30215000Y-58148061D01*
X26710000Y-58148061D01*
X26710000Y-50898061D01*
X29465000Y-50898061D01*
X29465000Y-51101939D01*
X29504774Y-51301898D01*
X29582795Y-51490256D01*
X29696063Y-51659774D01*
X29840226Y-51803937D01*
X30009744Y-51917205D01*
X30198102Y-51995226D01*
X30245372Y-52004628D01*
X30254774Y-52051898D01*
X30332795Y-52240256D01*
X30446063Y-52409774D01*
X30590226Y-52553937D01*
X30759744Y-52667205D01*
X30948102Y-52745226D01*
X31148061Y-52785000D01*
X31351939Y-52785000D01*
X31551898Y-52745226D01*
X31740256Y-52667205D01*
X31909774Y-52553937D01*
X32053937Y-52409774D01*
X32167205Y-52240256D01*
X32245226Y-52051898D01*
X32285000Y-51851939D01*
X32285000Y-51648061D01*
X32245226Y-51448102D01*
X32167205Y-51259744D01*
X32053937Y-51090226D01*
X31909774Y-50946063D01*
X31740256Y-50832795D01*
X31551898Y-50754774D01*
X31504628Y-50745372D01*
X31495226Y-50698102D01*
X31417205Y-50509744D01*
X31303937Y-50340226D01*
X31159774Y-50196063D01*
X30990256Y-50082795D01*
X30801898Y-50004774D01*
X30601939Y-49965000D01*
X30398061Y-49965000D01*
X30198102Y-50004774D01*
X30009744Y-50082795D01*
X29840226Y-50196063D01*
X29696063Y-50340226D01*
X29582795Y-50509744D01*
X29504774Y-50698102D01*
X29465000Y-50898061D01*
X26710000Y-50898061D01*
X26710000Y-49898061D01*
X34965000Y-49898061D01*
X34965000Y-50101939D01*
X35004774Y-50301898D01*
X35082795Y-50490256D01*
X35196063Y-50659774D01*
X35340226Y-50803937D01*
X35509744Y-50917205D01*
X35539789Y-50929650D01*
X35515225Y-50946063D01*
X35371062Y-51090226D01*
X35257794Y-51259744D01*
X35179773Y-51448102D01*
X35139999Y-51648061D01*
X35139999Y-51851939D01*
X35179773Y-52051898D01*
X35257794Y-52240256D01*
X35371062Y-52409774D01*
X35515225Y-52553937D01*
X35684743Y-52667205D01*
X35873101Y-52745226D01*
X36073060Y-52785000D01*
X36276938Y-52785000D01*
X36476897Y-52745226D01*
X36665255Y-52667205D01*
X36834773Y-52553937D01*
X36978936Y-52409774D01*
X37092204Y-52240256D01*
X37170225Y-52051898D01*
X37209999Y-51851939D01*
X37209999Y-51648061D01*
X37170225Y-51448102D01*
X37092204Y-51259744D01*
X36978936Y-51090226D01*
X36834773Y-50946063D01*
X36665255Y-50832795D01*
X36635210Y-50820350D01*
X36659774Y-50803937D01*
X36803937Y-50659774D01*
X36917205Y-50490256D01*
X36995226Y-50301898D01*
X37035000Y-50101939D01*
X37035000Y-49898061D01*
X36995226Y-49698102D01*
X36917205Y-49509744D01*
X36803937Y-49340226D01*
X36659774Y-49196063D01*
X36587934Y-49148061D01*
X41465000Y-49148061D01*
X41465000Y-49351939D01*
X41504774Y-49551898D01*
X41582795Y-49740256D01*
X41696063Y-49909774D01*
X41840226Y-50053937D01*
X42009744Y-50167205D01*
X42198102Y-50245226D01*
X42398061Y-50285000D01*
X42601939Y-50285000D01*
X42801898Y-50245226D01*
X42990256Y-50167205D01*
X43159774Y-50053937D01*
X43303937Y-49909774D01*
X43417205Y-49740256D01*
X43495226Y-49551898D01*
X43535000Y-49351939D01*
X43535000Y-49148061D01*
X43495226Y-48948102D01*
X43417205Y-48759744D01*
X43303937Y-48590226D01*
X43159774Y-48446063D01*
X42990256Y-48332795D01*
X42801898Y-48254774D01*
X42601939Y-48215000D01*
X42398061Y-48215000D01*
X42198102Y-48254774D01*
X42009744Y-48332795D01*
X41840226Y-48446063D01*
X41696063Y-48590226D01*
X41582795Y-48759744D01*
X41504774Y-48948102D01*
X41465000Y-49148061D01*
X36587934Y-49148061D01*
X36490256Y-49082795D01*
X36301898Y-49004774D01*
X36101939Y-48965000D01*
X35898061Y-48965000D01*
X35698102Y-49004774D01*
X35509744Y-49082795D01*
X35340226Y-49196063D01*
X35196063Y-49340226D01*
X35082795Y-49509744D01*
X35004774Y-49698102D01*
X34965000Y-49898061D01*
X26710000Y-49898061D01*
X26710000Y-40398061D01*
X72715000Y-40398061D01*
X72715000Y-40601939D01*
X72754774Y-40801898D01*
X72832795Y-40990256D01*
X72946063Y-41159774D01*
X73090226Y-41303937D01*
X73259744Y-41417205D01*
X73448102Y-41495226D01*
X73648061Y-41535000D01*
X73851939Y-41535000D01*
X74051898Y-41495226D01*
X74240256Y-41417205D01*
X74409774Y-41303937D01*
X74553937Y-41159774D01*
X74667205Y-40990256D01*
X74745226Y-40801898D01*
X74785000Y-40601939D01*
X74785000Y-40398061D01*
X74745226Y-40198102D01*
X74667205Y-40009744D01*
X74553937Y-39840226D01*
X74409774Y-39696063D01*
X74240256Y-39582795D01*
X74051898Y-39504774D01*
X73851939Y-39465000D01*
X73648061Y-39465000D01*
X73448102Y-39504774D01*
X73259744Y-39582795D01*
X73090226Y-39696063D01*
X72946063Y-39840226D01*
X72832795Y-40009744D01*
X72754774Y-40198102D01*
X72715000Y-40398061D01*
X26710000Y-40398061D01*
X26710000Y-36063589D01*
X35965000Y-36063589D01*
X35965000Y-36336411D01*
X36018225Y-36603989D01*
X36122629Y-36856043D01*
X36274201Y-37082886D01*
X36467114Y-37275799D01*
X36693957Y-37427371D01*
X36946011Y-37531775D01*
X37213589Y-37585000D01*
X37486411Y-37585000D01*
X37753989Y-37531775D01*
X38006043Y-37427371D01*
X38232886Y-37275799D01*
X38425799Y-37082886D01*
X38577371Y-36856043D01*
X38620000Y-36753127D01*
X38662629Y-36856043D01*
X38814201Y-37082886D01*
X39007114Y-37275799D01*
X39233957Y-37427371D01*
X39486011Y-37531775D01*
X39753589Y-37585000D01*
X40026411Y-37585000D01*
X40293989Y-37531775D01*
X40546043Y-37427371D01*
X40772886Y-37275799D01*
X40965799Y-37082886D01*
X41117371Y-36856043D01*
X41160000Y-36753127D01*
X41202629Y-36856043D01*
X41354201Y-37082886D01*
X41547114Y-37275799D01*
X41773957Y-37427371D01*
X42026011Y-37531775D01*
X42293589Y-37585000D01*
X42566411Y-37585000D01*
X42833989Y-37531775D01*
X43086043Y-37427371D01*
X43312886Y-37275799D01*
X43505799Y-37082886D01*
X43657371Y-36856043D01*
X43700000Y-36753127D01*
X43742629Y-36856043D01*
X43894201Y-37082886D01*
X44087114Y-37275799D01*
X44313957Y-37427371D01*
X44566011Y-37531775D01*
X44833589Y-37585000D01*
X45106411Y-37585000D01*
X45373989Y-37531775D01*
X45626043Y-37427371D01*
X45852886Y-37275799D01*
X46045799Y-37082886D01*
X46197371Y-36856043D01*
X46240000Y-36753127D01*
X46282629Y-36856043D01*
X46434201Y-37082886D01*
X46627114Y-37275799D01*
X46853957Y-37427371D01*
X47106011Y-37531775D01*
X47373589Y-37585000D01*
X47646411Y-37585000D01*
X47913989Y-37531775D01*
X48166043Y-37427371D01*
X48392886Y-37275799D01*
X48585799Y-37082886D01*
X48737371Y-36856043D01*
X48780000Y-36753127D01*
X48822629Y-36856043D01*
X48974201Y-37082886D01*
X49167114Y-37275799D01*
X49393957Y-37427371D01*
X49646011Y-37531775D01*
X49913589Y-37585000D01*
X50186411Y-37585000D01*
X50453989Y-37531775D01*
X50706043Y-37427371D01*
X50932886Y-37275799D01*
X51125799Y-37082886D01*
X51277371Y-36856043D01*
X51381775Y-36603989D01*
X51435000Y-36336411D01*
X51435000Y-36063589D01*
X51381775Y-35796011D01*
X51277371Y-35543957D01*
X51125799Y-35317114D01*
X50932886Y-35124201D01*
X50706043Y-34972629D01*
X50453989Y-34868225D01*
X50186411Y-34815000D01*
X49913589Y-34815000D01*
X49646011Y-34868225D01*
X49393957Y-34972629D01*
X49167114Y-35124201D01*
X48974201Y-35317114D01*
X48822629Y-35543957D01*
X48780000Y-35646873D01*
X48737371Y-35543957D01*
X48585799Y-35317114D01*
X48392886Y-35124201D01*
X48166043Y-34972629D01*
X47913989Y-34868225D01*
X47646411Y-34815000D01*
X47373589Y-34815000D01*
X47106011Y-34868225D01*
X46853957Y-34972629D01*
X46627114Y-35124201D01*
X46434201Y-35317114D01*
X46282629Y-35543957D01*
X46240000Y-35646873D01*
X46197371Y-35543957D01*
X46045799Y-35317114D01*
X45852886Y-35124201D01*
X45626043Y-34972629D01*
X45373989Y-34868225D01*
X45106411Y-34815000D01*
X44833589Y-34815000D01*
X44566011Y-34868225D01*
X44313957Y-34972629D01*
X44087114Y-35124201D01*
X43894201Y-35317114D01*
X43742629Y-35543957D01*
X43700000Y-35646873D01*
X43657371Y-35543957D01*
X43505799Y-35317114D01*
X43312886Y-35124201D01*
X43086043Y-34972629D01*
X42833989Y-34868225D01*
X42566411Y-34815000D01*
X42293589Y-34815000D01*
X42026011Y-34868225D01*
X41773957Y-34972629D01*
X41547114Y-35124201D01*
X41354201Y-35317114D01*
X41202629Y-35543957D01*
X41160000Y-35646873D01*
X41117371Y-35543957D01*
X40965799Y-35317114D01*
X40772886Y-35124201D01*
X40650000Y-35042091D01*
X40650000Y-34674801D01*
X42064802Y-33260000D01*
X65485199Y-33260000D01*
X67040199Y-34815000D01*
X66823589Y-34815000D01*
X66556011Y-34868225D01*
X66303957Y-34972629D01*
X66077114Y-35124201D01*
X65884201Y-35317114D01*
X65732629Y-35543957D01*
X65628225Y-35796011D01*
X65575000Y-36063589D01*
X65575000Y-36336411D01*
X65628225Y-36603989D01*
X65732629Y-36856043D01*
X65884201Y-37082886D01*
X66077114Y-37275799D01*
X66303957Y-37427371D01*
X66556011Y-37531775D01*
X66823589Y-37585000D01*
X67096411Y-37585000D01*
X67363989Y-37531775D01*
X67616043Y-37427371D01*
X67842886Y-37275799D01*
X68035799Y-37082886D01*
X68187371Y-36856043D01*
X68230000Y-36753127D01*
X68272629Y-36856043D01*
X68424201Y-37082886D01*
X68617114Y-37275799D01*
X68843957Y-37427371D01*
X69096011Y-37531775D01*
X69363589Y-37585000D01*
X69636411Y-37585000D01*
X69903989Y-37531775D01*
X70156043Y-37427371D01*
X70382886Y-37275799D01*
X70575799Y-37082886D01*
X70727371Y-36856043D01*
X70770000Y-36753127D01*
X70812629Y-36856043D01*
X70964201Y-37082886D01*
X71157114Y-37275799D01*
X71383957Y-37427371D01*
X71636011Y-37531775D01*
X71903589Y-37585000D01*
X72176411Y-37585000D01*
X72443989Y-37531775D01*
X72696043Y-37427371D01*
X72922886Y-37275799D01*
X73115799Y-37082886D01*
X73267371Y-36856043D01*
X73310000Y-36753127D01*
X73352629Y-36856043D01*
X73504201Y-37082886D01*
X73697114Y-37275799D01*
X73923957Y-37427371D01*
X74176011Y-37531775D01*
X74443589Y-37585000D01*
X74716411Y-37585000D01*
X74983989Y-37531775D01*
X75236043Y-37427371D01*
X75462886Y-37275799D01*
X75655799Y-37082886D01*
X75807371Y-36856043D01*
X75850000Y-36753127D01*
X75892629Y-36856043D01*
X76044201Y-37082886D01*
X76237114Y-37275799D01*
X76463957Y-37427371D01*
X76716011Y-37531775D01*
X76983589Y-37585000D01*
X77256411Y-37585000D01*
X77523989Y-37531775D01*
X77776043Y-37427371D01*
X78002886Y-37275799D01*
X78195799Y-37082886D01*
X78347371Y-36856043D01*
X78390000Y-36753127D01*
X78432629Y-36856043D01*
X78584201Y-37082886D01*
X78777114Y-37275799D01*
X79003957Y-37427371D01*
X79256011Y-37531775D01*
X79523589Y-37585000D01*
X79796411Y-37585000D01*
X80063989Y-37531775D01*
X80316043Y-37427371D01*
X80542886Y-37275799D01*
X80735799Y-37082886D01*
X80887371Y-36856043D01*
X80991775Y-36603989D01*
X81045000Y-36336411D01*
X81045000Y-36063589D01*
X80991775Y-35796011D01*
X80887371Y-35543957D01*
X80735799Y-35317114D01*
X80542886Y-35124201D01*
X80316043Y-34972629D01*
X80063989Y-34868225D01*
X79796411Y-34815000D01*
X79523589Y-34815000D01*
X79256011Y-34868225D01*
X79003957Y-34972629D01*
X78777114Y-35124201D01*
X78584201Y-35317114D01*
X78432629Y-35543957D01*
X78390000Y-35646873D01*
X78347371Y-35543957D01*
X78195799Y-35317114D01*
X78002886Y-35124201D01*
X77776043Y-34972629D01*
X77523989Y-34868225D01*
X77256411Y-34815000D01*
X76983589Y-34815000D01*
X76716011Y-34868225D01*
X76463957Y-34972629D01*
X76237114Y-35124201D01*
X76044201Y-35317114D01*
X75892629Y-35543957D01*
X75850000Y-35646873D01*
X75807371Y-35543957D01*
X75655799Y-35317114D01*
X75462886Y-35124201D01*
X75236043Y-34972629D01*
X74983989Y-34868225D01*
X74716411Y-34815000D01*
X74443589Y-34815000D01*
X74176011Y-34868225D01*
X73923957Y-34972629D01*
X73697114Y-35124201D01*
X73504201Y-35317114D01*
X73352629Y-35543957D01*
X73310000Y-35646873D01*
X73267371Y-35543957D01*
X73115799Y-35317114D01*
X72922886Y-35124201D01*
X72696043Y-34972629D01*
X72443989Y-34868225D01*
X72176411Y-34815000D01*
X71903589Y-34815000D01*
X71636011Y-34868225D01*
X71383957Y-34972629D01*
X71157114Y-35124201D01*
X70964201Y-35317114D01*
X70812629Y-35543957D01*
X70770000Y-35646873D01*
X70727371Y-35543957D01*
X70575799Y-35317114D01*
X70382886Y-35124201D01*
X70156043Y-34972629D01*
X69903989Y-34868225D01*
X69636411Y-34815000D01*
X69363589Y-34815000D01*
X69218635Y-34843833D01*
X66363804Y-31989003D01*
X66340001Y-31959999D01*
X66224276Y-31865026D01*
X66092247Y-31794454D01*
X65948986Y-31750997D01*
X65837333Y-31740000D01*
X65837322Y-31740000D01*
X65800000Y-31736324D01*
X65762678Y-31740000D01*
X41787322Y-31740000D01*
X41749999Y-31736324D01*
X41712676Y-31740000D01*
X41712667Y-31740000D01*
X41601014Y-31750997D01*
X41457753Y-31794454D01*
X41325724Y-31865026D01*
X41209999Y-31959999D01*
X41186201Y-31988997D01*
X39379003Y-33796196D01*
X39349999Y-33819999D01*
X39294871Y-33887174D01*
X39255026Y-33935724D01*
X39184455Y-34067753D01*
X39184454Y-34067754D01*
X39140997Y-34211015D01*
X39130000Y-34322668D01*
X39130000Y-34322678D01*
X39126324Y-34360000D01*
X39130000Y-34397323D01*
X39130000Y-35042091D01*
X39007114Y-35124201D01*
X38814201Y-35317114D01*
X38662629Y-35543957D01*
X38620000Y-35646873D01*
X38577371Y-35543957D01*
X38425799Y-35317114D01*
X38232886Y-35124201D01*
X38006043Y-34972629D01*
X37753989Y-34868225D01*
X37486411Y-34815000D01*
X37213589Y-34815000D01*
X36946011Y-34868225D01*
X36693957Y-34972629D01*
X36467114Y-35124201D01*
X36274201Y-35317114D01*
X36122629Y-35543957D01*
X36018225Y-35796011D01*
X35965000Y-36063589D01*
X26710000Y-36063589D01*
X26710000Y-33034721D01*
X26737907Y-32750101D01*
X26810484Y-32509715D01*
X26928368Y-32288009D01*
X27087068Y-32093423D01*
X27280545Y-31933365D01*
X27501424Y-31813936D01*
X27741297Y-31739683D01*
X28023716Y-31710000D01*
X88965279Y-31710000D01*
X89249899Y-31737907D01*
%TA.AperFunction,Conductor*%
D20*
G36*
X89249899Y-31737907D02*
G01*
X89490285Y-31810484D01*
X89711991Y-31928368D01*
X89906577Y-32087068D01*
X90066635Y-32280545D01*
X90186064Y-32501424D01*
X90260317Y-32741297D01*
X90290000Y-33023716D01*
X90290001Y-73965269D01*
X90262093Y-74249899D01*
X90189517Y-74490282D01*
X90071633Y-74711989D01*
X89912929Y-74906580D01*
X89719455Y-75066635D01*
X89498576Y-75186064D01*
X89258701Y-75260317D01*
X88976291Y-75290000D01*
X65034446Y-75290000D01*
X65201282Y-75256814D01*
X65457885Y-75150525D01*
X65688822Y-74996218D01*
X65885218Y-74799822D01*
X66039525Y-74568885D01*
X66145814Y-74312282D01*
X66200000Y-74039873D01*
X66200000Y-73762127D01*
X66145814Y-73489718D01*
X66039525Y-73233115D01*
X65885218Y-73002178D01*
X65768040Y-72885000D01*
X65885218Y-72767822D01*
X66039525Y-72536885D01*
X66145814Y-72280282D01*
X66200000Y-72007873D01*
X66200000Y-71730127D01*
X66145814Y-71457718D01*
X66039525Y-71201115D01*
X65885218Y-70970178D01*
X65688822Y-70773782D01*
X65457885Y-70619475D01*
X65201282Y-70513186D01*
X64928873Y-70459000D01*
X64651127Y-70459000D01*
X64503245Y-70488416D01*
X64495226Y-70448102D01*
X64417205Y-70259744D01*
X64303937Y-70090226D01*
X64159774Y-69946063D01*
X63997922Y-69837917D01*
X71349688Y-69837917D01*
X71436393Y-70094653D01*
X71713223Y-70228048D01*
X72010757Y-70304873D01*
X72317562Y-70322176D01*
X72621848Y-70279292D01*
X72911921Y-70177868D01*
X73067607Y-70094653D01*
X73154312Y-69837917D01*
X83849688Y-69837917D01*
X83936393Y-70094653D01*
X84213223Y-70228048D01*
X84510757Y-70304873D01*
X84817562Y-70322176D01*
X85121848Y-70279292D01*
X85411921Y-70177868D01*
X85567607Y-70094653D01*
X85654312Y-69837917D01*
X84752000Y-68935605D01*
X83849688Y-69837917D01*
X73154312Y-69837917D01*
X72252000Y-68935605D01*
X71349688Y-69837917D01*
X63997922Y-69837917D01*
X63990256Y-69832795D01*
X63801898Y-69754774D01*
X63601939Y-69715000D01*
X63398061Y-69715000D01*
X63350301Y-69724500D01*
X64253239Y-68821562D01*
X70685824Y-68821562D01*
X70728708Y-69125848D01*
X70830132Y-69415921D01*
X70913347Y-69571607D01*
X71170083Y-69658312D01*
X72072395Y-68756000D01*
X72431605Y-68756000D01*
X73333917Y-69658312D01*
X73590653Y-69571607D01*
X73724048Y-69294777D01*
X73800873Y-68997243D01*
X73810780Y-68821562D01*
X83185824Y-68821562D01*
X83228708Y-69125848D01*
X83330132Y-69415921D01*
X83413347Y-69571607D01*
X83670083Y-69658312D01*
X84572395Y-68756000D01*
X84931605Y-68756000D01*
X85833917Y-69658312D01*
X86090653Y-69571607D01*
X86224048Y-69294777D01*
X86300873Y-68997243D01*
X86318176Y-68690438D01*
X86275292Y-68386152D01*
X86173868Y-68096079D01*
X86090653Y-67940393D01*
X85833917Y-67853688D01*
X84931605Y-68756000D01*
X84572395Y-68756000D01*
X83670083Y-67853688D01*
X83413347Y-67940393D01*
X83279952Y-68217223D01*
X83203127Y-68514757D01*
X83185824Y-68821562D01*
X73810780Y-68821562D01*
X73818176Y-68690438D01*
X73775292Y-68386152D01*
X73673868Y-68096079D01*
X73590653Y-67940393D01*
X73333917Y-67853688D01*
X72431605Y-68756000D01*
X72072395Y-68756000D01*
X71170083Y-67853688D01*
X70913347Y-67940393D01*
X70779952Y-68217223D01*
X70703127Y-68514757D01*
X70685824Y-68821562D01*
X64253239Y-68821562D01*
X65400718Y-67674083D01*
X71349688Y-67674083D01*
X72252000Y-68576395D01*
X73154312Y-67674083D01*
X83849688Y-67674083D01*
X84752000Y-68576395D01*
X85654312Y-67674083D01*
X85567607Y-67417347D01*
X85290777Y-67283952D01*
X84993243Y-67207127D01*
X84686438Y-67189824D01*
X84382152Y-67232708D01*
X84092079Y-67334132D01*
X83936393Y-67417347D01*
X83849688Y-67674083D01*
X73154312Y-67674083D01*
X73067607Y-67417347D01*
X72790777Y-67283952D01*
X72493243Y-67207127D01*
X72186438Y-67189824D01*
X71882152Y-67232708D01*
X71592079Y-67334132D01*
X71436393Y-67417347D01*
X71349688Y-67674083D01*
X65400718Y-67674083D01*
X68972449Y-64102353D01*
X70692000Y-64102353D01*
X70692000Y-64409647D01*
X70751950Y-64711035D01*
X70869546Y-64994937D01*
X71040269Y-65250442D01*
X71257558Y-65467731D01*
X71513063Y-65638454D01*
X71796965Y-65756050D01*
X72098353Y-65816000D01*
X72405647Y-65816000D01*
X72707035Y-65756050D01*
X72990937Y-65638454D01*
X73246442Y-65467731D01*
X73463731Y-65250442D01*
X73634454Y-64994937D01*
X73752050Y-64711035D01*
X73812000Y-64409647D01*
X73812000Y-64148061D01*
X74215000Y-64148061D01*
X74215000Y-64351939D01*
X74254774Y-64551898D01*
X74332795Y-64740256D01*
X74446063Y-64909774D01*
X74590226Y-65053937D01*
X74759744Y-65167205D01*
X74948102Y-65245226D01*
X75148061Y-65285000D01*
X75351939Y-65285000D01*
X75551898Y-65245226D01*
X75740256Y-65167205D01*
X75909774Y-65053937D01*
X76053937Y-64909774D01*
X76167205Y-64740256D01*
X76245226Y-64551898D01*
X76285000Y-64351939D01*
X76285000Y-64148061D01*
X76275909Y-64102353D01*
X83192000Y-64102353D01*
X83192000Y-64409647D01*
X83251950Y-64711035D01*
X83369546Y-64994937D01*
X83540269Y-65250442D01*
X83757558Y-65467731D01*
X84013063Y-65638454D01*
X84296965Y-65756050D01*
X84598353Y-65816000D01*
X84905647Y-65816000D01*
X85207035Y-65756050D01*
X85490937Y-65638454D01*
X85746442Y-65467731D01*
X85963731Y-65250442D01*
X86134454Y-64994937D01*
X86252050Y-64711035D01*
X86312000Y-64409647D01*
X86312000Y-64102353D01*
X86252050Y-63800965D01*
X86134454Y-63517063D01*
X85963731Y-63261558D01*
X85746442Y-63044269D01*
X85490937Y-62873546D01*
X85207035Y-62755950D01*
X84905647Y-62696000D01*
X84598353Y-62696000D01*
X84296965Y-62755950D01*
X84013063Y-62873546D01*
X83757558Y-63044269D01*
X83540269Y-63261558D01*
X83369546Y-63517063D01*
X83251950Y-63800965D01*
X83192000Y-64102353D01*
X76275909Y-64102353D01*
X76245226Y-63948102D01*
X76167205Y-63759744D01*
X76053937Y-63590226D01*
X75909774Y-63446063D01*
X75740256Y-63332795D01*
X75551898Y-63254774D01*
X75351939Y-63215000D01*
X75148061Y-63215000D01*
X74948102Y-63254774D01*
X74759744Y-63332795D01*
X74590226Y-63446063D01*
X74446063Y-63590226D01*
X74332795Y-63759744D01*
X74254774Y-63948102D01*
X74215000Y-64148061D01*
X73812000Y-64148061D01*
X73812000Y-64102353D01*
X73752050Y-63800965D01*
X73634454Y-63517063D01*
X73463731Y-63261558D01*
X73246442Y-63044269D01*
X72990937Y-62873546D01*
X72707035Y-62755950D01*
X72405647Y-62696000D01*
X72098353Y-62696000D01*
X71796965Y-62755950D01*
X71513063Y-62873546D01*
X71257558Y-63044269D01*
X71040269Y-63261558D01*
X70869546Y-63517063D01*
X70751950Y-63800965D01*
X70692000Y-64102353D01*
X68972449Y-64102353D01*
X70739508Y-62335295D01*
X70768501Y-62311501D01*
X70792295Y-62282508D01*
X70792299Y-62282504D01*
X70863473Y-62195777D01*
X70864517Y-62193824D01*
X70934046Y-62063747D01*
X70977503Y-61920486D01*
X70988500Y-61808833D01*
X70988500Y-61808824D01*
X70992176Y-61771501D01*
X70988500Y-61734178D01*
X70988500Y-60887729D01*
X71026647Y-60871928D01*
X71302625Y-60687525D01*
X71537325Y-60452825D01*
X71721728Y-60176847D01*
X71848746Y-59870196D01*
X71913500Y-59544658D01*
X71913500Y-59212742D01*
X71848746Y-58887204D01*
X71721728Y-58580553D01*
X71537325Y-58304575D01*
X71302625Y-58069875D01*
X71026647Y-57885472D01*
X70719996Y-57758454D01*
X70602086Y-57735000D01*
X73747435Y-57735000D01*
X73715000Y-57898061D01*
X73715000Y-58101939D01*
X73754774Y-58301898D01*
X73832795Y-58490256D01*
X73946063Y-58659774D01*
X74090226Y-58803937D01*
X74259744Y-58917205D01*
X74448102Y-58995226D01*
X74648061Y-59035000D01*
X74851939Y-59035000D01*
X75051898Y-58995226D01*
X75240256Y-58917205D01*
X75409774Y-58803937D01*
X75553937Y-58659774D01*
X75667205Y-58490256D01*
X75745226Y-58301898D01*
X75785000Y-58101939D01*
X75785000Y-57898061D01*
X75752565Y-57735000D01*
X75927893Y-57735000D01*
X75963998Y-57738556D01*
X76000103Y-57735000D01*
X76108083Y-57724365D01*
X76246631Y-57682337D01*
X76374318Y-57614087D01*
X76486236Y-57522238D01*
X76509257Y-57494187D01*
X78855383Y-55148061D01*
X81465000Y-55148061D01*
X81465000Y-55351939D01*
X81504774Y-55551898D01*
X81582795Y-55740256D01*
X81696063Y-55909774D01*
X81840226Y-56053937D01*
X82009744Y-56167205D01*
X82198102Y-56245226D01*
X82398061Y-56285000D01*
X82601939Y-56285000D01*
X82801898Y-56245226D01*
X82990256Y-56167205D01*
X83159774Y-56053937D01*
X83303937Y-55909774D01*
X83417205Y-55740256D01*
X83495226Y-55551898D01*
X83535000Y-55351939D01*
X83535000Y-55148061D01*
X83495226Y-54948102D01*
X83417205Y-54759744D01*
X83303937Y-54590226D01*
X83159774Y-54446063D01*
X82990256Y-54332795D01*
X82801898Y-54254774D01*
X82601939Y-54215000D01*
X82398061Y-54215000D01*
X82198102Y-54254774D01*
X82009744Y-54332795D01*
X81840226Y-54446063D01*
X81696063Y-54590226D01*
X81582795Y-54759744D01*
X81504774Y-54948102D01*
X81465000Y-55148061D01*
X78855383Y-55148061D01*
X81708195Y-52295249D01*
X81736235Y-52272238D01*
X81759248Y-52244197D01*
X81759251Y-52244194D01*
X81828084Y-52160321D01*
X81828085Y-52160320D01*
X81896335Y-52032633D01*
X81938363Y-51894085D01*
X81948998Y-51786105D01*
X81948998Y-51786096D01*
X81952553Y-51750001D01*
X81948998Y-51713906D01*
X81948998Y-51184295D01*
X81990256Y-51167205D01*
X82159774Y-51053937D01*
X82303937Y-50909774D01*
X82417205Y-50740256D01*
X82495226Y-50551898D01*
X82535000Y-50351939D01*
X82535000Y-50148061D01*
X82495226Y-49948102D01*
X82417205Y-49759744D01*
X82303937Y-49590226D01*
X82159774Y-49446063D01*
X81990256Y-49332795D01*
X81801898Y-49254774D01*
X81601939Y-49215000D01*
X81398061Y-49215000D01*
X81198102Y-49254774D01*
X81009744Y-49332795D01*
X80840226Y-49446063D01*
X80696063Y-49590226D01*
X80582795Y-49759744D01*
X80504774Y-49948102D01*
X80465000Y-50148061D01*
X80465000Y-50351939D01*
X80484109Y-50448006D01*
X80475442Y-50536002D01*
X80478999Y-50572117D01*
X80478998Y-51445553D01*
X76283588Y-55640964D01*
X76245226Y-55448102D01*
X76167205Y-55259744D01*
X76053937Y-55090226D01*
X75909774Y-54946063D01*
X75740256Y-54832795D01*
X75551898Y-54754774D01*
X75351939Y-54715000D01*
X75148061Y-54715000D01*
X74948102Y-54754774D01*
X74759744Y-54832795D01*
X74599740Y-54939706D01*
X75744197Y-53795250D01*
X75772237Y-53772238D01*
X75795250Y-53744197D01*
X75795253Y-53744194D01*
X75844684Y-53683962D01*
X75864087Y-53660320D01*
X75932337Y-53532633D01*
X75974365Y-53394085D01*
X75985000Y-53286105D01*
X75985000Y-53286104D01*
X75988556Y-53250000D01*
X75985000Y-53213895D01*
X75985000Y-51554446D01*
X76004446Y-51535000D01*
X76101939Y-51535000D01*
X76301898Y-51495226D01*
X76490256Y-51417205D01*
X76659774Y-51303937D01*
X76803937Y-51159774D01*
X76917205Y-50990256D01*
X76995226Y-50801898D01*
X77035000Y-50601939D01*
X77035000Y-50398061D01*
X76995226Y-50198102D01*
X76917205Y-50009744D01*
X76803937Y-49840226D01*
X76659774Y-49696063D01*
X76490256Y-49582795D01*
X76301898Y-49504774D01*
X76101939Y-49465000D01*
X76035000Y-49465000D01*
X76035000Y-49398061D01*
X75995226Y-49198102D01*
X75917205Y-49009744D01*
X75803937Y-48840226D01*
X75659774Y-48696063D01*
X75490256Y-48582795D01*
X75301898Y-48504774D01*
X75101939Y-48465000D01*
X74898061Y-48465000D01*
X74850302Y-48474500D01*
X75091002Y-48233800D01*
X75120001Y-48210001D01*
X75214974Y-48094276D01*
X75285546Y-47962247D01*
X75329003Y-47818986D01*
X75340000Y-47707333D01*
X75340000Y-47707323D01*
X75343676Y-47670000D01*
X75340000Y-47632677D01*
X75340000Y-47517909D01*
X75462886Y-47435799D01*
X75655799Y-47242886D01*
X75807371Y-47016043D01*
X75850000Y-46913127D01*
X75892629Y-47016043D01*
X76044201Y-47242886D01*
X76237114Y-47435799D01*
X76463957Y-47587371D01*
X76716011Y-47691775D01*
X76983589Y-47745000D01*
X77256411Y-47745000D01*
X77523989Y-47691775D01*
X77776043Y-47587371D01*
X78002886Y-47435799D01*
X78195799Y-47242886D01*
X78347371Y-47016043D01*
X78390000Y-46913127D01*
X78432629Y-47016043D01*
X78584201Y-47242886D01*
X78777114Y-47435799D01*
X79003957Y-47587371D01*
X79256011Y-47691775D01*
X79523589Y-47745000D01*
X79796411Y-47745000D01*
X80063989Y-47691775D01*
X80316043Y-47587371D01*
X80542886Y-47435799D01*
X80735799Y-47242886D01*
X80887371Y-47016043D01*
X80991775Y-46763989D01*
X81045000Y-46496411D01*
X81045000Y-46223589D01*
X80991775Y-45956011D01*
X80887371Y-45703957D01*
X80735799Y-45477114D01*
X80542886Y-45284201D01*
X80316043Y-45132629D01*
X80063989Y-45028225D01*
X79796411Y-44975000D01*
X79523589Y-44975000D01*
X79256011Y-45028225D01*
X79003957Y-45132629D01*
X78777114Y-45284201D01*
X78584201Y-45477114D01*
X78432629Y-45703957D01*
X78390000Y-45806873D01*
X78347371Y-45703957D01*
X78195799Y-45477114D01*
X78002886Y-45284201D01*
X77776043Y-45132629D01*
X77523989Y-45028225D01*
X77256411Y-44975000D01*
X76983589Y-44975000D01*
X76838635Y-45003833D01*
X74823804Y-42989003D01*
X74800001Y-42959999D01*
X74684276Y-42865026D01*
X74552247Y-42794454D01*
X74408986Y-42750997D01*
X74297333Y-42740000D01*
X74297322Y-42740000D01*
X74260000Y-42736324D01*
X74222678Y-42740000D01*
X72167311Y-42740000D01*
X72245226Y-42551898D01*
X72285000Y-42351939D01*
X72285000Y-42148061D01*
X72245226Y-41948102D01*
X72167205Y-41759744D01*
X72053937Y-41590226D01*
X71909774Y-41446063D01*
X71740256Y-41332795D01*
X71551898Y-41254774D01*
X71351939Y-41215000D01*
X71148061Y-41215000D01*
X70948102Y-41254774D01*
X70759744Y-41332795D01*
X70590226Y-41446063D01*
X70446063Y-41590226D01*
X70332795Y-41759744D01*
X70254774Y-41948102D01*
X70215000Y-42148061D01*
X70215000Y-42351939D01*
X70254774Y-42551898D01*
X70332689Y-42740000D01*
X68933403Y-42740000D01*
X69033783Y-42639620D01*
X69147051Y-42470102D01*
X69225072Y-42281744D01*
X69264846Y-42081785D01*
X69264846Y-41877907D01*
X69225072Y-41677948D01*
X69147051Y-41489590D01*
X69033783Y-41320072D01*
X68889620Y-41175909D01*
X68720102Y-41062641D01*
X68531744Y-40984620D01*
X68331785Y-40944846D01*
X68127907Y-40944846D01*
X67927948Y-40984620D01*
X67739590Y-41062641D01*
X67570072Y-41175909D01*
X67425909Y-41320072D01*
X67312641Y-41489590D01*
X67234620Y-41677948D01*
X67194846Y-41877907D01*
X67194846Y-42081785D01*
X67234620Y-42281744D01*
X67312641Y-42470102D01*
X67425909Y-42639620D01*
X67526289Y-42740000D01*
X50417311Y-42740000D01*
X50495226Y-42551898D01*
X50535000Y-42351939D01*
X50535000Y-42148061D01*
X50495226Y-41948102D01*
X50417205Y-41759744D01*
X50303937Y-41590226D01*
X50159774Y-41446063D01*
X49990256Y-41332795D01*
X49801898Y-41254774D01*
X49601939Y-41215000D01*
X49398061Y-41215000D01*
X49198102Y-41254774D01*
X49009744Y-41332795D01*
X48840226Y-41446063D01*
X48696063Y-41590226D01*
X48582795Y-41759744D01*
X48504774Y-41948102D01*
X48465000Y-42148061D01*
X48465000Y-42351939D01*
X48493073Y-42493073D01*
X48351939Y-42465000D01*
X48148061Y-42465000D01*
X47948102Y-42504774D01*
X47759744Y-42582795D01*
X47590226Y-42696063D01*
X47446063Y-42840226D01*
X47332795Y-43009744D01*
X47254774Y-43198102D01*
X47215000Y-43398061D01*
X47215000Y-43601939D01*
X47242462Y-43740000D01*
X44327322Y-43740000D01*
X44289999Y-43736324D01*
X44252676Y-43740000D01*
X44252667Y-43740000D01*
X44141014Y-43750997D01*
X43997753Y-43794454D01*
X43865724Y-43865026D01*
X43749999Y-43959999D01*
X43726201Y-43988997D01*
X42711365Y-45003833D01*
X42566411Y-44975000D01*
X42293589Y-44975000D01*
X42026011Y-45028225D01*
X41773957Y-45132629D01*
X41547114Y-45284201D01*
X41354201Y-45477114D01*
X41202629Y-45703957D01*
X41160000Y-45806873D01*
X41117371Y-45703957D01*
X40965799Y-45477114D01*
X40772886Y-45284201D01*
X40546043Y-45132629D01*
X40293989Y-45028225D01*
X40026411Y-44975000D01*
X39753589Y-44975000D01*
X39486011Y-45028225D01*
X39233957Y-45132629D01*
X39007114Y-45284201D01*
X38814201Y-45477114D01*
X38736445Y-45593483D01*
X38725812Y-45485518D01*
X38689502Y-45365820D01*
X38630537Y-45255506D01*
X38551185Y-45158815D01*
X38454494Y-45079463D01*
X38344180Y-45020498D01*
X38224482Y-44984188D01*
X38100000Y-44971928D01*
X36600000Y-44971928D01*
X36475518Y-44984188D01*
X36355820Y-45020498D01*
X36245506Y-45079463D01*
X36148815Y-45158815D01*
X36069463Y-45255506D01*
X36010498Y-45365820D01*
X35974188Y-45485518D01*
X35961928Y-45610000D01*
X35961928Y-47110000D01*
X35974188Y-47234482D01*
X36010498Y-47354180D01*
X36069463Y-47464494D01*
X36148815Y-47561185D01*
X36245506Y-47640537D01*
X36355820Y-47699502D01*
X36475518Y-47735812D01*
X36600000Y-47748072D01*
X38100000Y-47748072D01*
X38224482Y-47735812D01*
X38344180Y-47699502D01*
X38454494Y-47640537D01*
X38551185Y-47561185D01*
X38630537Y-47464494D01*
X38689502Y-47354180D01*
X38725812Y-47234482D01*
X38736445Y-47126517D01*
X38814201Y-47242886D01*
X39007114Y-47435799D01*
X39233957Y-47587371D01*
X39486011Y-47691775D01*
X39753589Y-47745000D01*
X40026411Y-47745000D01*
X40293989Y-47691775D01*
X40546043Y-47587371D01*
X40772886Y-47435799D01*
X40965799Y-47242886D01*
X41117371Y-47016043D01*
X41160000Y-46913127D01*
X41202629Y-47016043D01*
X41354201Y-47242886D01*
X41547114Y-47435799D01*
X41773957Y-47587371D01*
X42026011Y-47691775D01*
X42293589Y-47745000D01*
X42566411Y-47745000D01*
X42833989Y-47691775D01*
X43086043Y-47587371D01*
X43312886Y-47435799D01*
X43505799Y-47242886D01*
X43657371Y-47016043D01*
X43700000Y-46913127D01*
X43742629Y-47016043D01*
X43894201Y-47242886D01*
X44087114Y-47435799D01*
X44313957Y-47587371D01*
X44566011Y-47691775D01*
X44833589Y-47745000D01*
X45106411Y-47745000D01*
X45251365Y-47716167D01*
X46296201Y-48761003D01*
X46319999Y-48790001D01*
X46435724Y-48884974D01*
X46567753Y-48955546D01*
X46711014Y-48999003D01*
X46822667Y-49010000D01*
X46822675Y-49010000D01*
X46860000Y-49013676D01*
X46897325Y-49010000D01*
X52685485Y-49010000D01*
X52509744Y-49082795D01*
X52340226Y-49196063D01*
X52196063Y-49340226D01*
X52082795Y-49509744D01*
X52004774Y-49698102D01*
X51965000Y-49898061D01*
X51965000Y-50101939D01*
X52004774Y-50301898D01*
X52082795Y-50490256D01*
X52196063Y-50659774D01*
X52248421Y-50712132D01*
X51945554Y-51015000D01*
X48785000Y-51015000D01*
X48785000Y-50898061D01*
X48745226Y-50698102D01*
X48667205Y-50509744D01*
X48553937Y-50340226D01*
X48409774Y-50196063D01*
X48240256Y-50082795D01*
X48051898Y-50004774D01*
X47851939Y-49965000D01*
X47648061Y-49965000D01*
X47448102Y-50004774D01*
X47259744Y-50082795D01*
X47090226Y-50196063D01*
X46946063Y-50340226D01*
X46832795Y-50509744D01*
X46754774Y-50698102D01*
X46715000Y-50898061D01*
X46715000Y-51015000D01*
X42478711Y-51015000D01*
X42409774Y-50946063D01*
X42240256Y-50832795D01*
X42051898Y-50754774D01*
X41851939Y-50715000D01*
X41648061Y-50715000D01*
X41448102Y-50754774D01*
X41259744Y-50832795D01*
X41090226Y-50946063D01*
X40946063Y-51090226D01*
X40832795Y-51259744D01*
X40754774Y-51448102D01*
X40715000Y-51648061D01*
X40715000Y-51851939D01*
X40754774Y-52051898D01*
X40832795Y-52240256D01*
X40946063Y-52409774D01*
X41090226Y-52553937D01*
X41259744Y-52667205D01*
X41448102Y-52745226D01*
X41648061Y-52785000D01*
X41851939Y-52785000D01*
X42051898Y-52745226D01*
X42240256Y-52667205D01*
X42409774Y-52553937D01*
X42478711Y-52485000D01*
X47215000Y-52485000D01*
X47215000Y-52601939D01*
X47254774Y-52801898D01*
X47332795Y-52990256D01*
X47446063Y-53159774D01*
X47590226Y-53303937D01*
X47759744Y-53417205D01*
X47948102Y-53495226D01*
X48148061Y-53535000D01*
X48351939Y-53535000D01*
X48551898Y-53495226D01*
X48740256Y-53417205D01*
X48909774Y-53303937D01*
X49053937Y-53159774D01*
X49167205Y-52990256D01*
X49245226Y-52801898D01*
X49285000Y-52601939D01*
X49285000Y-52485000D01*
X52213895Y-52485000D01*
X52215000Y-52485109D01*
X52215000Y-52601939D01*
X52254774Y-52801898D01*
X52332795Y-52990256D01*
X52446063Y-53159774D01*
X52590226Y-53303937D01*
X52759744Y-53417205D01*
X52948102Y-53495226D01*
X53148061Y-53535000D01*
X53351939Y-53535000D01*
X53551898Y-53495226D01*
X53740256Y-53417205D01*
X53909774Y-53303937D01*
X54053937Y-53159774D01*
X54167205Y-52990256D01*
X54245226Y-52801898D01*
X54285000Y-52601939D01*
X54285000Y-52398061D01*
X54245226Y-52198102D01*
X54167205Y-52009744D01*
X54053937Y-51840226D01*
X53909774Y-51696063D01*
X53740256Y-51582795D01*
X53551898Y-51504774D01*
X53537531Y-51501916D01*
X53554447Y-51485000D01*
X57099328Y-51485000D01*
X57082795Y-51509744D01*
X57004774Y-51698102D01*
X56965000Y-51898061D01*
X56965000Y-52101939D01*
X57004774Y-52301898D01*
X57082795Y-52490256D01*
X57196063Y-52659774D01*
X57340226Y-52803937D01*
X57509744Y-52917205D01*
X57698102Y-52995226D01*
X57898061Y-53035000D01*
X57960199Y-53035000D01*
X59240001Y-54314803D01*
X59240000Y-58082689D01*
X59051898Y-58004774D01*
X58851939Y-57965000D01*
X58648061Y-57965000D01*
X58448102Y-58004774D01*
X58419973Y-58016426D01*
X58417205Y-58009744D01*
X58303937Y-57840226D01*
X58159774Y-57696063D01*
X57990256Y-57582795D01*
X57801898Y-57504774D01*
X57601939Y-57465000D01*
X57398061Y-57465000D01*
X57198102Y-57504774D01*
X57009744Y-57582795D01*
X56840226Y-57696063D01*
X56696063Y-57840226D01*
X56582795Y-58009744D01*
X56504774Y-58198102D01*
X56465000Y-58398061D01*
X56465000Y-58601939D01*
X56504774Y-58801898D01*
X56582795Y-58990256D01*
X56696063Y-59159774D01*
X56840226Y-59303937D01*
X57009744Y-59417205D01*
X57115388Y-59460965D01*
X57082795Y-59509744D01*
X57004774Y-59698102D01*
X56965000Y-59898061D01*
X56965000Y-60101939D01*
X57004774Y-60301898D01*
X57082795Y-60490256D01*
X57196063Y-60659774D01*
X57340226Y-60803937D01*
X57439134Y-60870025D01*
X56279423Y-60870025D01*
X56245226Y-60698102D01*
X56167205Y-60509744D01*
X56053937Y-60340226D01*
X55909774Y-60196063D01*
X55740256Y-60082795D01*
X55551898Y-60004774D01*
X55351939Y-59965000D01*
X55148061Y-59965000D01*
X54948102Y-60004774D01*
X54759744Y-60082795D01*
X54590226Y-60196063D01*
X54446063Y-60340226D01*
X54332795Y-60509744D01*
X54254774Y-60698102D01*
X54215000Y-60898061D01*
X54215000Y-61101939D01*
X54254774Y-61301898D01*
X54332795Y-61490256D01*
X54446063Y-61659774D01*
X54590226Y-61803937D01*
X54759744Y-61917205D01*
X54948102Y-61995226D01*
X55148061Y-62035000D01*
X55210198Y-62035000D01*
X55316225Y-62141027D01*
X55340024Y-62170026D01*
X55369022Y-62193824D01*
X55455748Y-62264999D01*
X55512349Y-62295253D01*
X55587778Y-62335571D01*
X55731039Y-62379028D01*
X55842692Y-62390025D01*
X55842702Y-62390025D01*
X55880025Y-62393701D01*
X55917348Y-62390025D01*
X57916264Y-62390025D01*
X57960201Y-62433962D01*
X58129719Y-62547230D01*
X58318077Y-62625251D01*
X58518036Y-62665025D01*
X58721914Y-62665025D01*
X58921873Y-62625251D01*
X59110231Y-62547230D01*
X59279749Y-62433962D01*
X59423912Y-62289799D01*
X59440033Y-62265672D01*
X59459999Y-62290001D01*
X59489003Y-62313804D01*
X60738997Y-63563799D01*
X60739002Y-63563803D01*
X61720025Y-64544827D01*
X61720025Y-64606964D01*
X61749150Y-64753387D01*
X61609774Y-64614011D01*
X61440256Y-64500743D01*
X61251898Y-64422722D01*
X61051939Y-64382948D01*
X60848061Y-64382948D01*
X60648102Y-64422722D01*
X60459744Y-64500743D01*
X60290226Y-64614011D01*
X60146063Y-64758174D01*
X60032795Y-64927692D01*
X59954774Y-65116050D01*
X59925302Y-65264218D01*
X59785739Y-65322028D01*
X59659774Y-65196063D01*
X59490256Y-65082795D01*
X59301898Y-65004774D01*
X59101939Y-64965000D01*
X58898061Y-64965000D01*
X58698102Y-65004774D01*
X58509744Y-65082795D01*
X58340226Y-65196063D01*
X58196063Y-65340226D01*
X58082795Y-65509744D01*
X58004774Y-65698102D01*
X57965000Y-65898061D01*
X57965000Y-66101939D01*
X58004774Y-66301898D01*
X58082795Y-66490256D01*
X58196063Y-66659774D01*
X58340226Y-66803937D01*
X58509744Y-66917205D01*
X58698102Y-66995226D01*
X58898061Y-67035000D01*
X59101939Y-67035000D01*
X59301898Y-66995226D01*
X59464261Y-66927972D01*
X59590226Y-67053937D01*
X59759744Y-67167205D01*
X59948102Y-67245226D01*
X59962470Y-67248084D01*
X58695554Y-68515000D01*
X51478711Y-68515000D01*
X51409774Y-68446063D01*
X51240256Y-68332795D01*
X51051898Y-68254774D01*
X50851939Y-68215000D01*
X50648061Y-68215000D01*
X50448102Y-68254774D01*
X50259744Y-68332795D01*
X50090226Y-68446063D01*
X49946063Y-68590226D01*
X49832795Y-68759744D01*
X49754774Y-68948102D01*
X49715000Y-69148061D01*
X49715000Y-69351939D01*
X49754774Y-69551898D01*
X49832795Y-69740256D01*
X49946063Y-69909774D01*
X50090226Y-70053937D01*
X50259744Y-70167205D01*
X50448102Y-70245226D01*
X50648061Y-70285000D01*
X50851939Y-70285000D01*
X51051898Y-70245226D01*
X51240256Y-70167205D01*
X51409774Y-70053937D01*
X51478711Y-69985000D01*
X58051289Y-69985000D01*
X57933410Y-70102879D01*
X57820142Y-70272397D01*
X57742121Y-70460755D01*
X57702347Y-70660714D01*
X57702347Y-70864592D01*
X57742121Y-71064551D01*
X57820142Y-71252909D01*
X57933410Y-71422427D01*
X58025983Y-71515000D01*
X51228711Y-71515000D01*
X51159774Y-71446063D01*
X50990256Y-71332795D01*
X50801898Y-71254774D01*
X50601939Y-71215000D01*
X50398061Y-71215000D01*
X50198102Y-71254774D01*
X50009744Y-71332795D01*
X49840226Y-71446063D01*
X49696063Y-71590226D01*
X49582795Y-71759744D01*
X49504774Y-71948102D01*
X49465000Y-72148061D01*
X49465000Y-72351939D01*
X49504774Y-72551898D01*
X49582795Y-72740256D01*
X49696063Y-72909774D01*
X49840226Y-73053937D01*
X50009744Y-73167205D01*
X50198102Y-73245226D01*
X50398061Y-73285000D01*
X50601939Y-73285000D01*
X50801898Y-73245226D01*
X50990256Y-73167205D01*
X51159774Y-73053937D01*
X51228711Y-72985000D01*
X58300000Y-72985000D01*
X58300000Y-73023873D01*
X58354186Y-73296282D01*
X58460475Y-73552885D01*
X58614782Y-73783822D01*
X58811178Y-73980218D01*
X59042115Y-74134525D01*
X59298718Y-74240814D01*
X59571127Y-74295000D01*
X59848873Y-74295000D01*
X60121282Y-74240814D01*
X60377885Y-74134525D01*
X60608822Y-73980218D01*
X60805218Y-73783822D01*
X60959525Y-73552885D01*
X61065814Y-73296282D01*
X61120000Y-73023873D01*
X61120000Y-72746127D01*
X61065814Y-72473718D01*
X60959525Y-72217115D01*
X60938067Y-72185001D01*
X62763894Y-72185001D01*
X62799999Y-72188557D01*
X62836104Y-72185001D01*
X62944084Y-72174366D01*
X63082632Y-72132338D01*
X63210319Y-72064088D01*
X63322237Y-71972239D01*
X63345257Y-71944189D01*
X63380000Y-71909446D01*
X63380000Y-72007873D01*
X63434186Y-72280282D01*
X63540475Y-72536885D01*
X63694782Y-72767822D01*
X63811960Y-72885000D01*
X63694782Y-73002178D01*
X63540475Y-73233115D01*
X63434186Y-73489718D01*
X63380000Y-73762127D01*
X63380000Y-74039873D01*
X63434186Y-74312282D01*
X63540475Y-74568885D01*
X63694782Y-74799822D01*
X63891178Y-74996218D01*
X64122115Y-75150525D01*
X64378718Y-75256814D01*
X64545554Y-75290000D01*
X62383967Y-75290000D01*
X62417205Y-75240256D01*
X62495226Y-75051898D01*
X62535000Y-74851939D01*
X62535000Y-74648061D01*
X62495226Y-74448102D01*
X62417205Y-74259744D01*
X62303937Y-74090226D01*
X62159774Y-73946063D01*
X61990256Y-73832795D01*
X61801898Y-73754774D01*
X61601939Y-73715000D01*
X61398061Y-73715000D01*
X61198102Y-73754774D01*
X61009744Y-73832795D01*
X60840226Y-73946063D01*
X60696063Y-74090226D01*
X60582795Y-74259744D01*
X60504774Y-74448102D01*
X60465000Y-74648061D01*
X60465000Y-74851939D01*
X60504774Y-75051898D01*
X60582795Y-75240256D01*
X60616033Y-75290000D01*
X28034721Y-75290000D01*
X27750101Y-75262093D01*
X27509718Y-75189517D01*
X27288011Y-75071633D01*
X27093420Y-74912929D01*
X26933365Y-74719455D01*
X26813936Y-74498576D01*
X26739683Y-74258701D01*
X26710000Y-73976291D01*
X26710000Y-69837917D01*
X31349688Y-69837917D01*
X31436393Y-70094653D01*
X31713223Y-70228048D01*
X32010757Y-70304873D01*
X32317562Y-70322176D01*
X32621848Y-70279292D01*
X32911921Y-70177868D01*
X33067607Y-70094653D01*
X33154312Y-69837917D01*
X43849688Y-69837917D01*
X43936393Y-70094653D01*
X44213223Y-70228048D01*
X44510757Y-70304873D01*
X44817562Y-70322176D01*
X45121848Y-70279292D01*
X45411921Y-70177868D01*
X45567607Y-70094653D01*
X45654312Y-69837917D01*
X44752000Y-68935605D01*
X43849688Y-69837917D01*
X33154312Y-69837917D01*
X32252000Y-68935605D01*
X31349688Y-69837917D01*
X26710000Y-69837917D01*
X26710000Y-68821562D01*
X30685824Y-68821562D01*
X30728708Y-69125848D01*
X30830132Y-69415921D01*
X30913347Y-69571607D01*
X31170083Y-69658312D01*
X32072395Y-68756000D01*
X32431605Y-68756000D01*
X33333917Y-69658312D01*
X33590653Y-69571607D01*
X33724048Y-69294777D01*
X33800873Y-68997243D01*
X33810780Y-68821562D01*
X43185824Y-68821562D01*
X43228708Y-69125848D01*
X43330132Y-69415921D01*
X43413347Y-69571607D01*
X43670083Y-69658312D01*
X44572395Y-68756000D01*
X44931605Y-68756000D01*
X45833917Y-69658312D01*
X46090653Y-69571607D01*
X46224048Y-69294777D01*
X46300873Y-68997243D01*
X46318176Y-68690438D01*
X46275292Y-68386152D01*
X46173868Y-68096079D01*
X46090653Y-67940393D01*
X45833917Y-67853688D01*
X44931605Y-68756000D01*
X44572395Y-68756000D01*
X43670083Y-67853688D01*
X43413347Y-67940393D01*
X43279952Y-68217223D01*
X43203127Y-68514757D01*
X43185824Y-68821562D01*
X33810780Y-68821562D01*
X33818176Y-68690438D01*
X33775292Y-68386152D01*
X33673868Y-68096079D01*
X33590653Y-67940393D01*
X33333917Y-67853688D01*
X32431605Y-68756000D01*
X32072395Y-68756000D01*
X31170083Y-67853688D01*
X30913347Y-67940393D01*
X30779952Y-68217223D01*
X30703127Y-68514757D01*
X30685824Y-68821562D01*
X26710000Y-68821562D01*
X26710000Y-67674083D01*
X31349688Y-67674083D01*
X32252000Y-68576395D01*
X33154312Y-67674083D01*
X43849688Y-67674083D01*
X44752000Y-68576395D01*
X45654312Y-67674083D01*
X45567607Y-67417347D01*
X45290777Y-67283952D01*
X44993243Y-67207127D01*
X44686438Y-67189824D01*
X44382152Y-67232708D01*
X44092079Y-67334132D01*
X43936393Y-67417347D01*
X43849688Y-67674083D01*
X33154312Y-67674083D01*
X33067607Y-67417347D01*
X32790777Y-67283952D01*
X32493243Y-67207127D01*
X32186438Y-67189824D01*
X31882152Y-67232708D01*
X31592079Y-67334132D01*
X31436393Y-67417347D01*
X31349688Y-67674083D01*
X26710000Y-67674083D01*
X26710000Y-64102353D01*
X30692000Y-64102353D01*
X30692000Y-64409647D01*
X30751950Y-64711035D01*
X30869546Y-64994937D01*
X31040269Y-65250442D01*
X31257558Y-65467731D01*
X31513063Y-65638454D01*
X31796965Y-65756050D01*
X32098353Y-65816000D01*
X32405647Y-65816000D01*
X32707035Y-65756050D01*
X32990937Y-65638454D01*
X33246442Y-65467731D01*
X33463731Y-65250442D01*
X33634454Y-64994937D01*
X33752050Y-64711035D01*
X33812000Y-64409647D01*
X33812000Y-64102353D01*
X43192000Y-64102353D01*
X43192000Y-64409647D01*
X43251950Y-64711035D01*
X43369546Y-64994937D01*
X43540269Y-65250442D01*
X43757558Y-65467731D01*
X44013063Y-65638454D01*
X44296965Y-65756050D01*
X44598353Y-65816000D01*
X44905647Y-65816000D01*
X45207035Y-65756050D01*
X45490937Y-65638454D01*
X45746442Y-65467731D01*
X45963731Y-65250442D01*
X46134454Y-64994937D01*
X46252050Y-64711035D01*
X46312000Y-64409647D01*
X46312000Y-64102353D01*
X46252050Y-63800965D01*
X46134454Y-63517063D01*
X45963731Y-63261558D01*
X45746442Y-63044269D01*
X45490937Y-62873546D01*
X45207035Y-62755950D01*
X44905647Y-62696000D01*
X44598353Y-62696000D01*
X44296965Y-62755950D01*
X44013063Y-62873546D01*
X43757558Y-63044269D01*
X43540269Y-63261558D01*
X43369546Y-63517063D01*
X43251950Y-63800965D01*
X43192000Y-64102353D01*
X33812000Y-64102353D01*
X33752050Y-63800965D01*
X33634454Y-63517063D01*
X33463731Y-63261558D01*
X33246442Y-63044269D01*
X32990937Y-62873546D01*
X32707035Y-62755950D01*
X32405647Y-62696000D01*
X32098353Y-62696000D01*
X31796965Y-62755950D01*
X31513063Y-62873546D01*
X31257558Y-63044269D01*
X31040269Y-63261558D01*
X30869546Y-63517063D01*
X30751950Y-63800965D01*
X30692000Y-64102353D01*
X26710000Y-64102353D01*
X26710000Y-61148061D01*
X44965000Y-61148061D01*
X44965000Y-61351939D01*
X45004774Y-61551898D01*
X45082795Y-61740256D01*
X45196063Y-61909774D01*
X45340226Y-62053937D01*
X45509744Y-62167205D01*
X45698102Y-62245226D01*
X45898061Y-62285000D01*
X46101939Y-62285000D01*
X46301898Y-62245226D01*
X46385709Y-62210510D01*
X49715000Y-65539802D01*
X49715000Y-65601939D01*
X49754774Y-65801898D01*
X49832795Y-65990256D01*
X49946063Y-66159774D01*
X50090226Y-66303937D01*
X50259744Y-66417205D01*
X50448102Y-66495226D01*
X50648061Y-66535000D01*
X50851939Y-66535000D01*
X51051898Y-66495226D01*
X51240256Y-66417205D01*
X51409774Y-66303937D01*
X51553937Y-66159774D01*
X51667205Y-65990256D01*
X51745226Y-65801898D01*
X51785000Y-65601939D01*
X51785000Y-65398061D01*
X51745226Y-65198102D01*
X51667205Y-65009744D01*
X51553937Y-64840226D01*
X51409774Y-64696063D01*
X51240256Y-64582795D01*
X51051898Y-64504774D01*
X50851939Y-64465000D01*
X50789802Y-64465000D01*
X47063804Y-60739003D01*
X47040001Y-60709999D01*
X46924276Y-60615026D01*
X46802185Y-60549766D01*
X49237039Y-60549766D01*
X49338839Y-60819279D01*
X49636977Y-60965163D01*
X49957846Y-61050080D01*
X50289117Y-61070766D01*
X50618057Y-61026428D01*
X50932027Y-60918769D01*
X51118161Y-60819279D01*
X51219961Y-60549766D01*
X50228500Y-59558305D01*
X49237039Y-60549766D01*
X46802185Y-60549766D01*
X46792247Y-60544454D01*
X46743325Y-60529614D01*
X46659774Y-60446063D01*
X46490256Y-60332795D01*
X46301898Y-60254774D01*
X46101939Y-60215000D01*
X45898061Y-60215000D01*
X45698102Y-60254774D01*
X45509744Y-60332795D01*
X45340226Y-60446063D01*
X45196063Y-60590226D01*
X45082795Y-60759744D01*
X45004774Y-60948102D01*
X44965000Y-61148061D01*
X26710000Y-61148061D01*
X26710000Y-60335693D01*
X33380212Y-60335693D01*
X33445737Y-60574560D01*
X33692716Y-60690460D01*
X33957560Y-60755950D01*
X34230092Y-60768512D01*
X34499838Y-60727665D01*
X34756432Y-60634977D01*
X34869463Y-60574560D01*
X34934988Y-60335693D01*
X34157600Y-59558305D01*
X33380212Y-60335693D01*
X26710000Y-60335693D01*
X26710000Y-59451192D01*
X32767788Y-59451192D01*
X32808635Y-59720938D01*
X32901323Y-59977532D01*
X32961740Y-60090563D01*
X33200607Y-60156088D01*
X33977995Y-59378700D01*
X33200607Y-58601312D01*
X32961740Y-58666837D01*
X32845840Y-58913816D01*
X32780350Y-59178660D01*
X32767788Y-59451192D01*
X26710000Y-59451192D01*
X26710000Y-58148061D01*
X30215000Y-58148061D01*
X30215000Y-58351939D01*
X30254774Y-58551898D01*
X30332795Y-58740256D01*
X30446063Y-58909774D01*
X30590226Y-59053937D01*
X30759744Y-59167205D01*
X30948102Y-59245226D01*
X31148061Y-59285000D01*
X31351939Y-59285000D01*
X31551898Y-59245226D01*
X31740256Y-59167205D01*
X31909774Y-59053937D01*
X32053937Y-58909774D01*
X32167205Y-58740256D01*
X32245226Y-58551898D01*
X32271122Y-58421707D01*
X33380212Y-58421707D01*
X34157600Y-59199095D01*
X34171743Y-59184953D01*
X34351348Y-59364558D01*
X34337205Y-59378700D01*
X35114593Y-60156088D01*
X35353460Y-60090563D01*
X35469360Y-59843584D01*
X35534850Y-59578740D01*
X35547412Y-59306208D01*
X35540975Y-59263699D01*
X35648061Y-59285000D01*
X35851939Y-59285000D01*
X36051898Y-59245226D01*
X36058988Y-59242289D01*
X40372600Y-59242289D01*
X40372600Y-59515111D01*
X40425825Y-59782689D01*
X40530229Y-60034743D01*
X40681801Y-60261586D01*
X40874714Y-60454499D01*
X41101557Y-60606071D01*
X41353611Y-60710475D01*
X41621189Y-60763700D01*
X41894011Y-60763700D01*
X42161589Y-60710475D01*
X42413643Y-60606071D01*
X42640486Y-60454499D01*
X42833399Y-60261586D01*
X42984971Y-60034743D01*
X43089375Y-59782689D01*
X43142600Y-59515111D01*
X43142600Y-59439317D01*
X48536434Y-59439317D01*
X48580772Y-59768257D01*
X48688431Y-60082227D01*
X48787921Y-60268361D01*
X49057434Y-60370161D01*
X50048895Y-59378700D01*
X50408105Y-59378700D01*
X51399566Y-60370161D01*
X51669079Y-60268361D01*
X51814963Y-59970223D01*
X51899880Y-59649354D01*
X51920566Y-59318083D01*
X51876228Y-58989143D01*
X51768569Y-58675173D01*
X51669079Y-58489039D01*
X51399566Y-58387239D01*
X50408105Y-59378700D01*
X50048895Y-59378700D01*
X49057434Y-58387239D01*
X48787921Y-58489039D01*
X48642037Y-58787177D01*
X48557120Y-59108046D01*
X48536434Y-59439317D01*
X43142600Y-59439317D01*
X43142600Y-59242289D01*
X43089375Y-58974711D01*
X42984971Y-58722657D01*
X42833399Y-58495814D01*
X42640486Y-58302901D01*
X42497910Y-58207634D01*
X49237039Y-58207634D01*
X50228500Y-59199095D01*
X51219961Y-58207634D01*
X51118161Y-57938121D01*
X50820023Y-57792237D01*
X50499154Y-57707320D01*
X50167883Y-57686634D01*
X49838943Y-57730972D01*
X49524973Y-57838631D01*
X49338839Y-57938121D01*
X49237039Y-58207634D01*
X42497910Y-58207634D01*
X42413643Y-58151329D01*
X42161589Y-58046925D01*
X41894011Y-57993700D01*
X41621189Y-57993700D01*
X41353611Y-58046925D01*
X41101557Y-58151329D01*
X40874714Y-58302901D01*
X40681801Y-58495814D01*
X40530229Y-58722657D01*
X40425825Y-58974711D01*
X40372600Y-59242289D01*
X36058988Y-59242289D01*
X36240256Y-59167205D01*
X36409774Y-59053937D01*
X36553937Y-58909774D01*
X36667205Y-58740256D01*
X36745226Y-58551898D01*
X36785000Y-58351939D01*
X36785000Y-58148061D01*
X36756400Y-58004276D01*
X36801898Y-57995226D01*
X36990256Y-57917205D01*
X37159774Y-57803937D01*
X37303937Y-57659774D01*
X37417205Y-57490256D01*
X37495226Y-57301898D01*
X37535000Y-57101939D01*
X37535000Y-56898061D01*
X37495226Y-56698102D01*
X37417205Y-56509744D01*
X37303937Y-56340226D01*
X37159774Y-56196063D01*
X36990256Y-56082795D01*
X36801898Y-56004774D01*
X36601939Y-55965000D01*
X36398061Y-55965000D01*
X36198102Y-56004774D01*
X36009744Y-56082795D01*
X35840226Y-56196063D01*
X35696063Y-56340226D01*
X35582795Y-56509744D01*
X35504774Y-56698102D01*
X35465000Y-56898061D01*
X35465000Y-57101939D01*
X35493600Y-57245724D01*
X35448102Y-57254774D01*
X35259744Y-57332795D01*
X35090226Y-57446063D01*
X34946063Y-57590226D01*
X34832795Y-57759744D01*
X34754774Y-57948102D01*
X34721860Y-58113574D01*
X34622484Y-58066940D01*
X34357640Y-58001450D01*
X34085108Y-57988888D01*
X33815362Y-58029735D01*
X33558768Y-58122423D01*
X33445737Y-58182840D01*
X33380212Y-58421707D01*
X32271122Y-58421707D01*
X32285000Y-58351939D01*
X32285000Y-58148061D01*
X32245226Y-57948102D01*
X32167205Y-57759744D01*
X32053937Y-57590226D01*
X31909774Y-57446063D01*
X31740256Y-57332795D01*
X31551898Y-57254774D01*
X31351939Y-57215000D01*
X31148061Y-57215000D01*
X30948102Y-57254774D01*
X30759744Y-57332795D01*
X30590226Y-57446063D01*
X30446063Y-57590226D01*
X30332795Y-57759744D01*
X30254774Y-57948102D01*
X30215000Y-58148061D01*
X26710000Y-58148061D01*
X26710000Y-50898061D01*
X29465000Y-50898061D01*
X29465000Y-51101939D01*
X29504774Y-51301898D01*
X29582795Y-51490256D01*
X29696063Y-51659774D01*
X29840226Y-51803937D01*
X30009744Y-51917205D01*
X30198102Y-51995226D01*
X30245372Y-52004628D01*
X30254774Y-52051898D01*
X30332795Y-52240256D01*
X30446063Y-52409774D01*
X30590226Y-52553937D01*
X30759744Y-52667205D01*
X30948102Y-52745226D01*
X31148061Y-52785000D01*
X31351939Y-52785000D01*
X31551898Y-52745226D01*
X31740256Y-52667205D01*
X31909774Y-52553937D01*
X32053937Y-52409774D01*
X32167205Y-52240256D01*
X32245226Y-52051898D01*
X32285000Y-51851939D01*
X32285000Y-51648061D01*
X32245226Y-51448102D01*
X32167205Y-51259744D01*
X32053937Y-51090226D01*
X31909774Y-50946063D01*
X31740256Y-50832795D01*
X31551898Y-50754774D01*
X31504628Y-50745372D01*
X31495226Y-50698102D01*
X31417205Y-50509744D01*
X31303937Y-50340226D01*
X31159774Y-50196063D01*
X30990256Y-50082795D01*
X30801898Y-50004774D01*
X30601939Y-49965000D01*
X30398061Y-49965000D01*
X30198102Y-50004774D01*
X30009744Y-50082795D01*
X29840226Y-50196063D01*
X29696063Y-50340226D01*
X29582795Y-50509744D01*
X29504774Y-50698102D01*
X29465000Y-50898061D01*
X26710000Y-50898061D01*
X26710000Y-49898061D01*
X34965000Y-49898061D01*
X34965000Y-50101939D01*
X35004774Y-50301898D01*
X35082795Y-50490256D01*
X35196063Y-50659774D01*
X35340226Y-50803937D01*
X35509744Y-50917205D01*
X35539789Y-50929650D01*
X35515225Y-50946063D01*
X35371062Y-51090226D01*
X35257794Y-51259744D01*
X35179773Y-51448102D01*
X35139999Y-51648061D01*
X35139999Y-51851939D01*
X35179773Y-52051898D01*
X35257794Y-52240256D01*
X35371062Y-52409774D01*
X35515225Y-52553937D01*
X35684743Y-52667205D01*
X35873101Y-52745226D01*
X36073060Y-52785000D01*
X36276938Y-52785000D01*
X36476897Y-52745226D01*
X36665255Y-52667205D01*
X36834773Y-52553937D01*
X36978936Y-52409774D01*
X37092204Y-52240256D01*
X37170225Y-52051898D01*
X37209999Y-51851939D01*
X37209999Y-51648061D01*
X37170225Y-51448102D01*
X37092204Y-51259744D01*
X36978936Y-51090226D01*
X36834773Y-50946063D01*
X36665255Y-50832795D01*
X36635210Y-50820350D01*
X36659774Y-50803937D01*
X36803937Y-50659774D01*
X36917205Y-50490256D01*
X36995226Y-50301898D01*
X37035000Y-50101939D01*
X37035000Y-49898061D01*
X36995226Y-49698102D01*
X36917205Y-49509744D01*
X36803937Y-49340226D01*
X36659774Y-49196063D01*
X36587934Y-49148061D01*
X41465000Y-49148061D01*
X41465000Y-49351939D01*
X41504774Y-49551898D01*
X41582795Y-49740256D01*
X41696063Y-49909774D01*
X41840226Y-50053937D01*
X42009744Y-50167205D01*
X42198102Y-50245226D01*
X42398061Y-50285000D01*
X42601939Y-50285000D01*
X42801898Y-50245226D01*
X42990256Y-50167205D01*
X43159774Y-50053937D01*
X43303937Y-49909774D01*
X43417205Y-49740256D01*
X43495226Y-49551898D01*
X43535000Y-49351939D01*
X43535000Y-49148061D01*
X43495226Y-48948102D01*
X43417205Y-48759744D01*
X43303937Y-48590226D01*
X43159774Y-48446063D01*
X42990256Y-48332795D01*
X42801898Y-48254774D01*
X42601939Y-48215000D01*
X42398061Y-48215000D01*
X42198102Y-48254774D01*
X42009744Y-48332795D01*
X41840226Y-48446063D01*
X41696063Y-48590226D01*
X41582795Y-48759744D01*
X41504774Y-48948102D01*
X41465000Y-49148061D01*
X36587934Y-49148061D01*
X36490256Y-49082795D01*
X36301898Y-49004774D01*
X36101939Y-48965000D01*
X35898061Y-48965000D01*
X35698102Y-49004774D01*
X35509744Y-49082795D01*
X35340226Y-49196063D01*
X35196063Y-49340226D01*
X35082795Y-49509744D01*
X35004774Y-49698102D01*
X34965000Y-49898061D01*
X26710000Y-49898061D01*
X26710000Y-40398061D01*
X72715000Y-40398061D01*
X72715000Y-40601939D01*
X72754774Y-40801898D01*
X72832795Y-40990256D01*
X72946063Y-41159774D01*
X73090226Y-41303937D01*
X73259744Y-41417205D01*
X73448102Y-41495226D01*
X73648061Y-41535000D01*
X73851939Y-41535000D01*
X74051898Y-41495226D01*
X74240256Y-41417205D01*
X74409774Y-41303937D01*
X74553937Y-41159774D01*
X74667205Y-40990256D01*
X74745226Y-40801898D01*
X74785000Y-40601939D01*
X74785000Y-40398061D01*
X74745226Y-40198102D01*
X74667205Y-40009744D01*
X74553937Y-39840226D01*
X74409774Y-39696063D01*
X74240256Y-39582795D01*
X74051898Y-39504774D01*
X73851939Y-39465000D01*
X73648061Y-39465000D01*
X73448102Y-39504774D01*
X73259744Y-39582795D01*
X73090226Y-39696063D01*
X72946063Y-39840226D01*
X72832795Y-40009744D01*
X72754774Y-40198102D01*
X72715000Y-40398061D01*
X26710000Y-40398061D01*
X26710000Y-36063589D01*
X35965000Y-36063589D01*
X35965000Y-36336411D01*
X36018225Y-36603989D01*
X36122629Y-36856043D01*
X36274201Y-37082886D01*
X36467114Y-37275799D01*
X36693957Y-37427371D01*
X36946011Y-37531775D01*
X37213589Y-37585000D01*
X37486411Y-37585000D01*
X37753989Y-37531775D01*
X38006043Y-37427371D01*
X38232886Y-37275799D01*
X38425799Y-37082886D01*
X38577371Y-36856043D01*
X38620000Y-36753127D01*
X38662629Y-36856043D01*
X38814201Y-37082886D01*
X39007114Y-37275799D01*
X39233957Y-37427371D01*
X39486011Y-37531775D01*
X39753589Y-37585000D01*
X40026411Y-37585000D01*
X40293989Y-37531775D01*
X40546043Y-37427371D01*
X40772886Y-37275799D01*
X40965799Y-37082886D01*
X41117371Y-36856043D01*
X41160000Y-36753127D01*
X41202629Y-36856043D01*
X41354201Y-37082886D01*
X41547114Y-37275799D01*
X41773957Y-37427371D01*
X42026011Y-37531775D01*
X42293589Y-37585000D01*
X42566411Y-37585000D01*
X42833989Y-37531775D01*
X43086043Y-37427371D01*
X43312886Y-37275799D01*
X43505799Y-37082886D01*
X43657371Y-36856043D01*
X43700000Y-36753127D01*
X43742629Y-36856043D01*
X43894201Y-37082886D01*
X44087114Y-37275799D01*
X44313957Y-37427371D01*
X44566011Y-37531775D01*
X44833589Y-37585000D01*
X45106411Y-37585000D01*
X45373989Y-37531775D01*
X45626043Y-37427371D01*
X45852886Y-37275799D01*
X46045799Y-37082886D01*
X46197371Y-36856043D01*
X46240000Y-36753127D01*
X46282629Y-36856043D01*
X46434201Y-37082886D01*
X46627114Y-37275799D01*
X46853957Y-37427371D01*
X47106011Y-37531775D01*
X47373589Y-37585000D01*
X47646411Y-37585000D01*
X47913989Y-37531775D01*
X48166043Y-37427371D01*
X48392886Y-37275799D01*
X48585799Y-37082886D01*
X48737371Y-36856043D01*
X48780000Y-36753127D01*
X48822629Y-36856043D01*
X48974201Y-37082886D01*
X49167114Y-37275799D01*
X49393957Y-37427371D01*
X49646011Y-37531775D01*
X49913589Y-37585000D01*
X50186411Y-37585000D01*
X50453989Y-37531775D01*
X50706043Y-37427371D01*
X50932886Y-37275799D01*
X51125799Y-37082886D01*
X51277371Y-36856043D01*
X51381775Y-36603989D01*
X51435000Y-36336411D01*
X51435000Y-36063589D01*
X51381775Y-35796011D01*
X51277371Y-35543957D01*
X51125799Y-35317114D01*
X50932886Y-35124201D01*
X50706043Y-34972629D01*
X50453989Y-34868225D01*
X50186411Y-34815000D01*
X49913589Y-34815000D01*
X49646011Y-34868225D01*
X49393957Y-34972629D01*
X49167114Y-35124201D01*
X48974201Y-35317114D01*
X48822629Y-35543957D01*
X48780000Y-35646873D01*
X48737371Y-35543957D01*
X48585799Y-35317114D01*
X48392886Y-35124201D01*
X48166043Y-34972629D01*
X47913989Y-34868225D01*
X47646411Y-34815000D01*
X47373589Y-34815000D01*
X47106011Y-34868225D01*
X46853957Y-34972629D01*
X46627114Y-35124201D01*
X46434201Y-35317114D01*
X46282629Y-35543957D01*
X46240000Y-35646873D01*
X46197371Y-35543957D01*
X46045799Y-35317114D01*
X45852886Y-35124201D01*
X45626043Y-34972629D01*
X45373989Y-34868225D01*
X45106411Y-34815000D01*
X44833589Y-34815000D01*
X44566011Y-34868225D01*
X44313957Y-34972629D01*
X44087114Y-35124201D01*
X43894201Y-35317114D01*
X43742629Y-35543957D01*
X43700000Y-35646873D01*
X43657371Y-35543957D01*
X43505799Y-35317114D01*
X43312886Y-35124201D01*
X43086043Y-34972629D01*
X42833989Y-34868225D01*
X42566411Y-34815000D01*
X42293589Y-34815000D01*
X42026011Y-34868225D01*
X41773957Y-34972629D01*
X41547114Y-35124201D01*
X41354201Y-35317114D01*
X41202629Y-35543957D01*
X41160000Y-35646873D01*
X41117371Y-35543957D01*
X40965799Y-35317114D01*
X40772886Y-35124201D01*
X40650000Y-35042091D01*
X40650000Y-34674801D01*
X42064802Y-33260000D01*
X65485199Y-33260000D01*
X67040199Y-34815000D01*
X66823589Y-34815000D01*
X66556011Y-34868225D01*
X66303957Y-34972629D01*
X66077114Y-35124201D01*
X65884201Y-35317114D01*
X65732629Y-35543957D01*
X65628225Y-35796011D01*
X65575000Y-36063589D01*
X65575000Y-36336411D01*
X65628225Y-36603989D01*
X65732629Y-36856043D01*
X65884201Y-37082886D01*
X66077114Y-37275799D01*
X66303957Y-37427371D01*
X66556011Y-37531775D01*
X66823589Y-37585000D01*
X67096411Y-37585000D01*
X67363989Y-37531775D01*
X67616043Y-37427371D01*
X67842886Y-37275799D01*
X68035799Y-37082886D01*
X68187371Y-36856043D01*
X68230000Y-36753127D01*
X68272629Y-36856043D01*
X68424201Y-37082886D01*
X68617114Y-37275799D01*
X68843957Y-37427371D01*
X69096011Y-37531775D01*
X69363589Y-37585000D01*
X69636411Y-37585000D01*
X69903989Y-37531775D01*
X70156043Y-37427371D01*
X70382886Y-37275799D01*
X70575799Y-37082886D01*
X70727371Y-36856043D01*
X70770000Y-36753127D01*
X70812629Y-36856043D01*
X70964201Y-37082886D01*
X71157114Y-37275799D01*
X71383957Y-37427371D01*
X71636011Y-37531775D01*
X71903589Y-37585000D01*
X72176411Y-37585000D01*
X72443989Y-37531775D01*
X72696043Y-37427371D01*
X72922886Y-37275799D01*
X73115799Y-37082886D01*
X73267371Y-36856043D01*
X73310000Y-36753127D01*
X73352629Y-36856043D01*
X73504201Y-37082886D01*
X73697114Y-37275799D01*
X73923957Y-37427371D01*
X74176011Y-37531775D01*
X74443589Y-37585000D01*
X74716411Y-37585000D01*
X74983989Y-37531775D01*
X75236043Y-37427371D01*
X75462886Y-37275799D01*
X75655799Y-37082886D01*
X75807371Y-36856043D01*
X75850000Y-36753127D01*
X75892629Y-36856043D01*
X76044201Y-37082886D01*
X76237114Y-37275799D01*
X76463957Y-37427371D01*
X76716011Y-37531775D01*
X76983589Y-37585000D01*
X77256411Y-37585000D01*
X77523989Y-37531775D01*
X77776043Y-37427371D01*
X78002886Y-37275799D01*
X78195799Y-37082886D01*
X78347371Y-36856043D01*
X78390000Y-36753127D01*
X78432629Y-36856043D01*
X78584201Y-37082886D01*
X78777114Y-37275799D01*
X79003957Y-37427371D01*
X79256011Y-37531775D01*
X79523589Y-37585000D01*
X79796411Y-37585000D01*
X80063989Y-37531775D01*
X80316043Y-37427371D01*
X80542886Y-37275799D01*
X80735799Y-37082886D01*
X80887371Y-36856043D01*
X80991775Y-36603989D01*
X81045000Y-36336411D01*
X81045000Y-36063589D01*
X80991775Y-35796011D01*
X80887371Y-35543957D01*
X80735799Y-35317114D01*
X80542886Y-35124201D01*
X80316043Y-34972629D01*
X80063989Y-34868225D01*
X79796411Y-34815000D01*
X79523589Y-34815000D01*
X79256011Y-34868225D01*
X79003957Y-34972629D01*
X78777114Y-35124201D01*
X78584201Y-35317114D01*
X78432629Y-35543957D01*
X78390000Y-35646873D01*
X78347371Y-35543957D01*
X78195799Y-35317114D01*
X78002886Y-35124201D01*
X77776043Y-34972629D01*
X77523989Y-34868225D01*
X77256411Y-34815000D01*
X76983589Y-34815000D01*
X76716011Y-34868225D01*
X76463957Y-34972629D01*
X76237114Y-35124201D01*
X76044201Y-35317114D01*
X75892629Y-35543957D01*
X75850000Y-35646873D01*
X75807371Y-35543957D01*
X75655799Y-35317114D01*
X75462886Y-35124201D01*
X75236043Y-34972629D01*
X74983989Y-34868225D01*
X74716411Y-34815000D01*
X74443589Y-34815000D01*
X74176011Y-34868225D01*
X73923957Y-34972629D01*
X73697114Y-35124201D01*
X73504201Y-35317114D01*
X73352629Y-35543957D01*
X73310000Y-35646873D01*
X73267371Y-35543957D01*
X73115799Y-35317114D01*
X72922886Y-35124201D01*
X72696043Y-34972629D01*
X72443989Y-34868225D01*
X72176411Y-34815000D01*
X71903589Y-34815000D01*
X71636011Y-34868225D01*
X71383957Y-34972629D01*
X71157114Y-35124201D01*
X70964201Y-35317114D01*
X70812629Y-35543957D01*
X70770000Y-35646873D01*
X70727371Y-35543957D01*
X70575799Y-35317114D01*
X70382886Y-35124201D01*
X70156043Y-34972629D01*
X69903989Y-34868225D01*
X69636411Y-34815000D01*
X69363589Y-34815000D01*
X69218635Y-34843833D01*
X66363804Y-31989003D01*
X66340001Y-31959999D01*
X66224276Y-31865026D01*
X66092247Y-31794454D01*
X65948986Y-31750997D01*
X65837333Y-31740000D01*
X65837322Y-31740000D01*
X65800000Y-31736324D01*
X65762678Y-31740000D01*
X41787322Y-31740000D01*
X41749999Y-31736324D01*
X41712676Y-31740000D01*
X41712667Y-31740000D01*
X41601014Y-31750997D01*
X41457753Y-31794454D01*
X41325724Y-31865026D01*
X41209999Y-31959999D01*
X41186201Y-31988997D01*
X39379003Y-33796196D01*
X39349999Y-33819999D01*
X39294871Y-33887174D01*
X39255026Y-33935724D01*
X39184455Y-34067753D01*
X39184454Y-34067754D01*
X39140997Y-34211015D01*
X39130000Y-34322668D01*
X39130000Y-34322678D01*
X39126324Y-34360000D01*
X39130000Y-34397323D01*
X39130000Y-35042091D01*
X39007114Y-35124201D01*
X38814201Y-35317114D01*
X38662629Y-35543957D01*
X38620000Y-35646873D01*
X38577371Y-35543957D01*
X38425799Y-35317114D01*
X38232886Y-35124201D01*
X38006043Y-34972629D01*
X37753989Y-34868225D01*
X37486411Y-34815000D01*
X37213589Y-34815000D01*
X36946011Y-34868225D01*
X36693957Y-34972629D01*
X36467114Y-35124201D01*
X36274201Y-35317114D01*
X36122629Y-35543957D01*
X36018225Y-35796011D01*
X35965000Y-36063589D01*
X26710000Y-36063589D01*
X26710000Y-33034721D01*
X26737907Y-32750101D01*
X26810484Y-32509715D01*
X26928368Y-32288009D01*
X27087068Y-32093423D01*
X27280545Y-31933365D01*
X27501424Y-31813936D01*
X27741297Y-31739683D01*
X28023716Y-31710000D01*
X88965279Y-31710000D01*
X89249899Y-31737907D01*
G37*
%TD.AperFunction*%
%TD*%
M02*
