%TF.GenerationSoftware,KiCad,Pcbnew,(5.1.10)-1*%
%TF.CreationDate,2021-09-21T22:06:55+02:00*%
%TF.ProjectId,StopWatch,53746f70-5761-4746-9368-2e6b69636164,rev?*%
%TF.SameCoordinates,Original*%
%TF.FileFunction,Copper,L2,Inr*%
%TF.FilePolarity,Positive*%
%FSLAX46Y46*%
G04 Gerber Fmt 4.6, Leading zero omitted, Abs format (unit mm)*
G04 Created by KiCad (PCBNEW (5.1.10)-1) date 2021-09-21 22:06:55*
%MOMM*%
%LPD*%
G01*
G04 APERTURE LIST*
%TA.AperFunction,ComponentPad*%
%ADD10C,1.850000*%
%TD*%
%TA.AperFunction,ComponentPad*%
%ADD11C,1.550000*%
%TD*%
%TA.AperFunction,ComponentPad*%
%ADD12C,1.500000*%
%TD*%
%TA.AperFunction,ComponentPad*%
%ADD13R,1.500000X1.500000*%
%TD*%
%TA.AperFunction,ComponentPad*%
%ADD14C,2.100000*%
%TD*%
%TA.AperFunction,ViaPad*%
%ADD15C,3.750000*%
%TD*%
%TA.AperFunction,ViaPad*%
%ADD16C,0.800000*%
%TD*%
%TA.AperFunction,Conductor*%
%ADD17C,0.250000*%
%TD*%
%TA.AperFunction,Conductor*%
%ADD18C,0.200000*%
%TD*%
%TA.AperFunction,Conductor*%
%ADD19C,0.254000*%
%TD*%
%TA.AperFunction,Conductor*%
%ADD20C,0.100000*%
%TD*%
G04 APERTURE END LIST*
D10*
%TO.N,Net-(R15-Pad1)*%
%TO.C,S2*%
X32252000Y-64256000D03*
X44752000Y-64256000D03*
%TO.N,gnd*%
X32252000Y-68756000D03*
X44752000Y-68756000D03*
%TD*%
D11*
%TO.N,N/C*%
%TO.C,J1*%
X64790000Y-73901000D03*
X64790000Y-71869000D03*
X59710000Y-72885000D03*
%TD*%
D12*
%TO.N,/D_g*%
%TO.C,U3*%
X77120000Y-46360000D03*
%TO.N,/D_a*%
X69500000Y-36200000D03*
%TO.N,/CC_5*%
X66960000Y-36200000D03*
%TO.N,/D_f*%
X72040000Y-36200000D03*
%TO.N,/CC_6*%
X74580000Y-36200000D03*
%TO.N,/CC_7*%
X77120000Y-36200000D03*
%TO.N,/CC_8*%
X79660000Y-46360000D03*
%TO.N,/D_b*%
X79660000Y-36200000D03*
%TO.N,/D_dp*%
X72040000Y-46360000D03*
%TO.N,/D_c*%
X74580000Y-46360000D03*
D13*
%TO.N,/D_e*%
X66960000Y-46360000D03*
D12*
%TO.N,/D_d*%
X69500000Y-46360000D03*
%TD*%
%TO.N,/CC_1*%
%TO.C,U1*%
X37350000Y-36200000D03*
%TO.N,/D_a*%
X39890000Y-36200000D03*
%TO.N,/D_f*%
X42430000Y-36200000D03*
%TO.N,/CC_2*%
X44970000Y-36200000D03*
%TO.N,/CC_3*%
X47510000Y-36200000D03*
%TO.N,/D_b*%
X50050000Y-36200000D03*
%TO.N,/CC_4*%
X50050000Y-46360000D03*
%TO.N,/D_g*%
X47510000Y-46360000D03*
%TO.N,/D_c*%
X44970000Y-46360000D03*
%TO.N,/D_dp*%
X42430000Y-46360000D03*
%TO.N,/D_d*%
X39890000Y-46360000D03*
D13*
%TO.N,/D_e*%
X37350000Y-46360000D03*
%TD*%
D10*
%TO.N,Net-(R11-Pad1)*%
%TO.C,S1*%
X72252000Y-64256000D03*
X84752000Y-64256000D03*
%TO.N,gnd*%
X72252000Y-68756000D03*
X84752000Y-68756000D03*
%TD*%
D14*
%TO.N,gnd*%
%TO.C,U2*%
X50228500Y-59378700D03*
%TO.N,+3V*%
X70228500Y-59378700D03*
%TD*%
D12*
%TO.N,gnd*%
%TO.C,LS1*%
X34157600Y-59378700D03*
%TO.N,Net-(LS1-Pad1)*%
X41757600Y-59378700D03*
%TD*%
D15*
%TO.N,gnd*%
X28500000Y-33500000D03*
X88500000Y-33500000D03*
X28500000Y-73500000D03*
X88500000Y-73500000D03*
D16*
X62750000Y-74500000D03*
X66000000Y-69250000D03*
X69250000Y-65250000D03*
X55500000Y-67000000D03*
X50750000Y-66750000D03*
X76000000Y-52000000D03*
X81250000Y-52750000D03*
X77500000Y-60750000D03*
%TO.N,+3V*%
X61250000Y-70750000D03*
X50750000Y-65500000D03*
X46000000Y-61250000D03*
%TO.N,/B_1*%
X63500000Y-70750000D03*
X64750000Y-66000000D03*
X50500000Y-72250000D03*
%TO.N,/D_a*%
X65500000Y-65000000D03*
X75000000Y-49500000D03*
X73750000Y-40500000D03*
%TO.N,/D_b*%
X62755025Y-64505025D03*
X58000000Y-52000000D03*
%TO.N,/D_c*%
X58619975Y-61630025D03*
X55250000Y-61000000D03*
%TO.N,/C_1*%
X60950000Y-65417948D03*
X69750000Y-49250000D03*
%TO.N,/C_2*%
X60250000Y-66250000D03*
X60250000Y-49000000D03*
X42500000Y-49250000D03*
%TO.N,/C_3*%
X59000000Y-66000000D03*
X36000000Y-50000000D03*
X53000000Y-50000000D03*
%TO.N,/C_4*%
X58750000Y-59000000D03*
X30500000Y-51000000D03*
X47750000Y-51000000D03*
%TO.N,/D_dp*%
X62000000Y-62500000D03*
%TO.N,/D_g*%
X48250000Y-43500000D03*
X68229846Y-41979846D03*
%TO.N,/D_d*%
X61743615Y-58743615D03*
%TO.N,/D_e*%
X64604846Y-45604846D03*
%TO.N,/C_Buzzer*%
X65750000Y-62675000D03*
X58000000Y-60000000D03*
%TO.N,/CC_1*%
X68249847Y-55224847D03*
X49500000Y-42250000D03*
%TO.N,/CC_2*%
X62500000Y-55750000D03*
X52250000Y-45500000D03*
%TO.N,Net-(R11-Pad1)*%
X75250000Y-64250000D03*
%TO.N,/MCLR*%
X61500000Y-74750000D03*
X63500000Y-62500000D03*
%TO.N,/C_U13*%
X50750000Y-69250000D03*
X64500000Y-62500000D03*
X76000000Y-50500000D03*
%TO.N,/C_display*%
X58737347Y-70762653D03*
X81500000Y-50250000D03*
%TO.N,/U3*%
X48250000Y-52500000D03*
X53250000Y-52500000D03*
X57500000Y-58500000D03*
X64873946Y-56000000D03*
X74550000Y-52880025D03*
X82500000Y-55250000D03*
%TO.N,/U1*%
X31250000Y-51750000D03*
X41750000Y-51750000D03*
X36174999Y-51750000D03*
X70000000Y-50750000D03*
X74750000Y-58000000D03*
%TO.N,/CC_5*%
X75250000Y-55750000D03*
X71250000Y-42250000D03*
%TO.N,/CC_6*%
X35750000Y-58250000D03*
%TO.N,/CC_7*%
X36500000Y-57000000D03*
%TO.N,/CC_8*%
X31250000Y-58250000D03*
%TD*%
D17*
%TO.N,gnd*%
X72252000Y-68756000D02*
X84752000Y-68756000D01*
X32252000Y-68756000D02*
X44752000Y-68756000D01*
X63251001Y-75001001D02*
X66248999Y-75001001D01*
X62750000Y-74500000D02*
X63251001Y-75001001D01*
X72252000Y-68998000D02*
X72252000Y-68756000D01*
X66248999Y-75001001D02*
X72252000Y-68998000D01*
X72252000Y-68756000D02*
X66494000Y-68756000D01*
X66494000Y-68756000D02*
X66000000Y-69250000D01*
X72252000Y-68756000D02*
X69250000Y-65754000D01*
X69250000Y-65754000D02*
X69250000Y-65250000D01*
X62750000Y-74500000D02*
X62750000Y-73750000D01*
X62750000Y-73750000D02*
X56000000Y-67000000D01*
X56000000Y-67000000D02*
X55500000Y-67000000D01*
X55500000Y-64650200D02*
X50228500Y-59378700D01*
X55500000Y-67000000D02*
X55500000Y-64650200D01*
X50228500Y-63279500D02*
X50228500Y-59378700D01*
X44752000Y-68756000D02*
X50228500Y-63279500D01*
X31001999Y-62534301D02*
X34157600Y-59378700D01*
X31001999Y-67505999D02*
X31001999Y-62534301D01*
X32252000Y-68756000D02*
X31001999Y-67505999D01*
X44752000Y-68756000D02*
X48744000Y-68756000D01*
X48744000Y-68756000D02*
X50750000Y-66750000D01*
X86002001Y-67505999D02*
X86002001Y-67497999D01*
X84752000Y-68756000D02*
X86002001Y-67505999D01*
X86002001Y-67497999D02*
X86250000Y-67250000D01*
X86250000Y-67250000D02*
X86250000Y-56000000D01*
X83000000Y-52750000D02*
X81250000Y-52750000D01*
X86250000Y-56000000D02*
X83000000Y-52750000D01*
X84752000Y-68756000D02*
X77500000Y-61504000D01*
X77500000Y-61504000D02*
X77500000Y-60750000D01*
%TO.N,/D_b*%
X79660000Y-36200000D02*
X79660000Y-34160000D01*
X79660000Y-34160000D02*
X78000000Y-32500000D01*
X78000000Y-32500000D02*
X52750000Y-32500000D01*
X50050000Y-35200000D02*
X50050000Y-36200000D01*
X52750000Y-32500000D02*
X50050000Y-35200000D01*
%TO.N,/D_c*%
X44970000Y-50720000D02*
X44970000Y-46360000D01*
X55250000Y-61000000D02*
X44970000Y-50720000D01*
%TO.N,/D_g*%
X47510000Y-44240000D02*
X48250000Y-43500000D01*
X47510000Y-46360000D02*
X47510000Y-44240000D01*
%TO.N,/D_d*%
X69500000Y-46360000D02*
X69500000Y-47750000D01*
X69500000Y-47750000D02*
X69000000Y-48250000D01*
X61743615Y-58743615D02*
X67256385Y-58743615D01*
X69000000Y-57000000D02*
X69000000Y-48250000D01*
X67256385Y-58743615D02*
X69000000Y-57000000D01*
%TO.N,/D_e*%
X66960000Y-46360000D02*
X66960000Y-43710000D01*
X66960000Y-43710000D02*
X64750000Y-41500000D01*
X42210000Y-41500000D02*
X37350000Y-46360000D01*
X64750000Y-41500000D02*
X42210000Y-41500000D01*
%TO.N,/D_f*%
X72040000Y-36200000D02*
X72040000Y-37960000D01*
X72040000Y-37960000D02*
X70750000Y-39250000D01*
X45480000Y-39250000D02*
X42430000Y-36200000D01*
X70750000Y-39250000D02*
X45480000Y-39250000D01*
D18*
%TO.N,/C_Buzzer*%
X65750000Y-62675000D02*
X64925000Y-63500000D01*
X64925000Y-63500000D02*
X59500000Y-63500000D01*
X59500000Y-63500000D02*
X57250000Y-61250000D01*
X57250000Y-61250000D02*
X57250000Y-60750000D01*
X57250000Y-60750000D02*
X58000000Y-60000000D01*
D17*
%TO.N,/CC_1*%
X65401845Y-55224847D02*
X53000000Y-42823002D01*
X68249847Y-55224847D02*
X65401845Y-55224847D01*
X50073002Y-42823002D02*
X49500000Y-42250000D01*
X53000000Y-42823002D02*
X50073002Y-42823002D01*
%TO.N,/CC_2*%
X62500000Y-55750000D02*
X59000000Y-55750000D01*
X59000000Y-54926998D02*
X52250000Y-48176998D01*
X59000000Y-55750000D02*
X59000000Y-54926998D01*
X52250000Y-48176998D02*
X52250000Y-45500000D01*
D18*
%TO.N,/U3*%
X53250000Y-54250000D02*
X57500000Y-58500000D01*
X53250000Y-52500000D02*
X53250000Y-54250000D01*
X62830332Y-58043614D02*
X64873946Y-56000000D01*
X57956386Y-58043614D02*
X62830332Y-58043614D01*
X57500000Y-58500000D02*
X57956386Y-58043614D01*
%TO.N,/U1*%
X70000000Y-53250000D02*
X70000000Y-50750000D01*
X74750000Y-58000000D02*
X70000000Y-53250000D01*
D17*
%TO.N,/CC_5*%
X70964999Y-51464999D02*
X70964999Y-42535001D01*
X75250000Y-55750000D02*
X70964999Y-51464999D01*
X70964999Y-42535001D02*
X71250000Y-42250000D01*
%TO.N,/CC_6*%
X70280000Y-40500000D02*
X74580000Y-36200000D01*
X40488588Y-40500000D02*
X70280000Y-40500000D01*
X35274999Y-45713589D02*
X40488588Y-40500000D01*
X35274999Y-57774999D02*
X35274999Y-45713589D01*
X35750000Y-58250000D02*
X35274999Y-57774999D01*
%TO.N,/CC_7*%
X77120000Y-37630000D02*
X77120000Y-36200000D01*
X72000000Y-41000000D02*
X73250000Y-39750000D01*
X73250000Y-39750000D02*
X75000000Y-39750000D01*
X40624998Y-41000000D02*
X72000000Y-41000000D01*
X36899999Y-49399999D02*
X36274999Y-48774999D01*
X36274999Y-48774999D02*
X36274999Y-45349999D01*
X36899999Y-56600001D02*
X36899999Y-49399999D01*
X75000000Y-39750000D02*
X77120000Y-37630000D01*
X36274999Y-45349999D02*
X40624998Y-41000000D01*
X36500000Y-57000000D02*
X36899999Y-56600001D01*
%TD*%
D19*
%TO.N,gnd*%
X89249899Y-31737907D02*
X89490285Y-31810484D01*
X89711991Y-31928368D01*
X89906577Y-32087068D01*
X90066635Y-32280545D01*
X90186064Y-32501424D01*
X90260317Y-32741297D01*
X90290000Y-33023716D01*
X90290001Y-73965269D01*
X90262093Y-74249899D01*
X90189517Y-74490282D01*
X90071633Y-74711989D01*
X89912929Y-74906580D01*
X89719455Y-75066635D01*
X89498576Y-75186064D01*
X89258701Y-75260317D01*
X88976291Y-75290000D01*
X65034446Y-75290000D01*
X65201282Y-75256814D01*
X65457885Y-75150525D01*
X65688822Y-74996218D01*
X65885218Y-74799822D01*
X66039525Y-74568885D01*
X66145814Y-74312282D01*
X66200000Y-74039873D01*
X66200000Y-73762127D01*
X66145814Y-73489718D01*
X66039525Y-73233115D01*
X65885218Y-73002178D01*
X65768040Y-72885000D01*
X65885218Y-72767822D01*
X66039525Y-72536885D01*
X66145814Y-72280282D01*
X66200000Y-72007873D01*
X66200000Y-71730127D01*
X66145814Y-71457718D01*
X66039525Y-71201115D01*
X65885218Y-70970178D01*
X65688822Y-70773782D01*
X65457885Y-70619475D01*
X65201282Y-70513186D01*
X64928873Y-70459000D01*
X64651127Y-70459000D01*
X64503245Y-70488416D01*
X64495226Y-70448102D01*
X64417205Y-70259744D01*
X64303937Y-70090226D01*
X64159774Y-69946063D01*
X63997922Y-69837917D01*
X71349688Y-69837917D01*
X71436393Y-70094653D01*
X71713223Y-70228048D01*
X72010757Y-70304873D01*
X72317562Y-70322176D01*
X72621848Y-70279292D01*
X72911921Y-70177868D01*
X73067607Y-70094653D01*
X73154312Y-69837917D01*
X83849688Y-69837917D01*
X83936393Y-70094653D01*
X84213223Y-70228048D01*
X84510757Y-70304873D01*
X84817562Y-70322176D01*
X85121848Y-70279292D01*
X85411921Y-70177868D01*
X85567607Y-70094653D01*
X85654312Y-69837917D01*
X84752000Y-68935605D01*
X83849688Y-69837917D01*
X73154312Y-69837917D01*
X72252000Y-68935605D01*
X71349688Y-69837917D01*
X63997922Y-69837917D01*
X63990256Y-69832795D01*
X63801898Y-69754774D01*
X63601939Y-69715000D01*
X63398061Y-69715000D01*
X63198102Y-69754774D01*
X63009744Y-69832795D01*
X62840226Y-69946063D01*
X62696063Y-70090226D01*
X62582795Y-70259744D01*
X62504774Y-70448102D01*
X62465000Y-70648061D01*
X62465000Y-70851939D01*
X62504774Y-71051898D01*
X62582795Y-71240256D01*
X62696063Y-71409774D01*
X62840226Y-71553937D01*
X63009744Y-71667205D01*
X63198102Y-71745226D01*
X63380000Y-71781407D01*
X63380000Y-72007873D01*
X63434186Y-72280282D01*
X63540475Y-72536885D01*
X63694782Y-72767822D01*
X63811960Y-72885000D01*
X63694782Y-73002178D01*
X63540475Y-73233115D01*
X63434186Y-73489718D01*
X63380000Y-73762127D01*
X63380000Y-74039873D01*
X63434186Y-74312282D01*
X63540475Y-74568885D01*
X63694782Y-74799822D01*
X63891178Y-74996218D01*
X64122115Y-75150525D01*
X64378718Y-75256814D01*
X64545554Y-75290000D01*
X62383967Y-75290000D01*
X62417205Y-75240256D01*
X62495226Y-75051898D01*
X62535000Y-74851939D01*
X62535000Y-74648061D01*
X62495226Y-74448102D01*
X62417205Y-74259744D01*
X62303937Y-74090226D01*
X62159774Y-73946063D01*
X61990256Y-73832795D01*
X61801898Y-73754774D01*
X61601939Y-73715000D01*
X61398061Y-73715000D01*
X61198102Y-73754774D01*
X61009744Y-73832795D01*
X60840226Y-73946063D01*
X60696063Y-74090226D01*
X60582795Y-74259744D01*
X60504774Y-74448102D01*
X60465000Y-74648061D01*
X60465000Y-74851939D01*
X60504774Y-75051898D01*
X60582795Y-75240256D01*
X60616033Y-75290000D01*
X28034721Y-75290000D01*
X27750101Y-75262093D01*
X27509718Y-75189517D01*
X27288011Y-75071633D01*
X27093420Y-74912929D01*
X26933365Y-74719455D01*
X26813936Y-74498576D01*
X26739683Y-74258701D01*
X26710000Y-73976291D01*
X26710000Y-72148061D01*
X49465000Y-72148061D01*
X49465000Y-72351939D01*
X49504774Y-72551898D01*
X49582795Y-72740256D01*
X49696063Y-72909774D01*
X49840226Y-73053937D01*
X50009744Y-73167205D01*
X50198102Y-73245226D01*
X50398061Y-73285000D01*
X50601939Y-73285000D01*
X50801898Y-73245226D01*
X50990256Y-73167205D01*
X51159774Y-73053937D01*
X51303937Y-72909774D01*
X51417205Y-72740256D01*
X51495226Y-72551898D01*
X51535000Y-72351939D01*
X51535000Y-72148061D01*
X51495226Y-71948102D01*
X51417205Y-71759744D01*
X51303937Y-71590226D01*
X51159774Y-71446063D01*
X50990256Y-71332795D01*
X50801898Y-71254774D01*
X50601939Y-71215000D01*
X50398061Y-71215000D01*
X50198102Y-71254774D01*
X50009744Y-71332795D01*
X49840226Y-71446063D01*
X49696063Y-71590226D01*
X49582795Y-71759744D01*
X49504774Y-71948102D01*
X49465000Y-72148061D01*
X26710000Y-72148061D01*
X26710000Y-70660714D01*
X57702347Y-70660714D01*
X57702347Y-70864592D01*
X57742121Y-71064551D01*
X57820142Y-71252909D01*
X57933410Y-71422427D01*
X58077573Y-71566590D01*
X58247091Y-71679858D01*
X58435449Y-71757879D01*
X58635408Y-71797653D01*
X58803307Y-71797653D01*
X58614782Y-71986178D01*
X58460475Y-72217115D01*
X58354186Y-72473718D01*
X58300000Y-72746127D01*
X58300000Y-73023873D01*
X58354186Y-73296282D01*
X58460475Y-73552885D01*
X58614782Y-73783822D01*
X58811178Y-73980218D01*
X59042115Y-74134525D01*
X59298718Y-74240814D01*
X59571127Y-74295000D01*
X59848873Y-74295000D01*
X60121282Y-74240814D01*
X60377885Y-74134525D01*
X60608822Y-73980218D01*
X60805218Y-73783822D01*
X60959525Y-73552885D01*
X61065814Y-73296282D01*
X61120000Y-73023873D01*
X61120000Y-72746127D01*
X61065814Y-72473718D01*
X60959525Y-72217115D01*
X60805218Y-71986178D01*
X60608822Y-71789782D01*
X60377885Y-71635475D01*
X60121282Y-71529186D01*
X59848873Y-71475000D01*
X59571127Y-71475000D01*
X59468247Y-71495464D01*
X59541284Y-71422427D01*
X59654552Y-71252909D01*
X59732573Y-71064551D01*
X59772347Y-70864592D01*
X59772347Y-70660714D01*
X59769831Y-70648061D01*
X60215000Y-70648061D01*
X60215000Y-70851939D01*
X60254774Y-71051898D01*
X60332795Y-71240256D01*
X60446063Y-71409774D01*
X60590226Y-71553937D01*
X60759744Y-71667205D01*
X60948102Y-71745226D01*
X61148061Y-71785000D01*
X61351939Y-71785000D01*
X61551898Y-71745226D01*
X61740256Y-71667205D01*
X61909774Y-71553937D01*
X62053937Y-71409774D01*
X62167205Y-71240256D01*
X62245226Y-71051898D01*
X62285000Y-70851939D01*
X62285000Y-70648061D01*
X62245226Y-70448102D01*
X62167205Y-70259744D01*
X62053937Y-70090226D01*
X61909774Y-69946063D01*
X61740256Y-69832795D01*
X61551898Y-69754774D01*
X61351939Y-69715000D01*
X61148061Y-69715000D01*
X60948102Y-69754774D01*
X60759744Y-69832795D01*
X60590226Y-69946063D01*
X60446063Y-70090226D01*
X60332795Y-70259744D01*
X60254774Y-70448102D01*
X60215000Y-70648061D01*
X59769831Y-70648061D01*
X59732573Y-70460755D01*
X59654552Y-70272397D01*
X59541284Y-70102879D01*
X59397121Y-69958716D01*
X59227603Y-69845448D01*
X59039245Y-69767427D01*
X58839286Y-69727653D01*
X58635408Y-69727653D01*
X58435449Y-69767427D01*
X58247091Y-69845448D01*
X58077573Y-69958716D01*
X57933410Y-70102879D01*
X57820142Y-70272397D01*
X57742121Y-70460755D01*
X57702347Y-70660714D01*
X26710000Y-70660714D01*
X26710000Y-69837917D01*
X31349688Y-69837917D01*
X31436393Y-70094653D01*
X31713223Y-70228048D01*
X32010757Y-70304873D01*
X32317562Y-70322176D01*
X32621848Y-70279292D01*
X32911921Y-70177868D01*
X33067607Y-70094653D01*
X33154312Y-69837917D01*
X43849688Y-69837917D01*
X43936393Y-70094653D01*
X44213223Y-70228048D01*
X44510757Y-70304873D01*
X44817562Y-70322176D01*
X45121848Y-70279292D01*
X45411921Y-70177868D01*
X45567607Y-70094653D01*
X45654312Y-69837917D01*
X44752000Y-68935605D01*
X43849688Y-69837917D01*
X33154312Y-69837917D01*
X32252000Y-68935605D01*
X31349688Y-69837917D01*
X26710000Y-69837917D01*
X26710000Y-68821562D01*
X30685824Y-68821562D01*
X30728708Y-69125848D01*
X30830132Y-69415921D01*
X30913347Y-69571607D01*
X31170083Y-69658312D01*
X32072395Y-68756000D01*
X32431605Y-68756000D01*
X33333917Y-69658312D01*
X33590653Y-69571607D01*
X33724048Y-69294777D01*
X33800873Y-68997243D01*
X33810780Y-68821562D01*
X43185824Y-68821562D01*
X43228708Y-69125848D01*
X43330132Y-69415921D01*
X43413347Y-69571607D01*
X43670083Y-69658312D01*
X44572395Y-68756000D01*
X44931605Y-68756000D01*
X45833917Y-69658312D01*
X46090653Y-69571607D01*
X46224048Y-69294777D01*
X46261930Y-69148061D01*
X49715000Y-69148061D01*
X49715000Y-69351939D01*
X49754774Y-69551898D01*
X49832795Y-69740256D01*
X49946063Y-69909774D01*
X50090226Y-70053937D01*
X50259744Y-70167205D01*
X50448102Y-70245226D01*
X50648061Y-70285000D01*
X50851939Y-70285000D01*
X51051898Y-70245226D01*
X51240256Y-70167205D01*
X51409774Y-70053937D01*
X51553937Y-69909774D01*
X51667205Y-69740256D01*
X51745226Y-69551898D01*
X51785000Y-69351939D01*
X51785000Y-69148061D01*
X51745226Y-68948102D01*
X51692812Y-68821562D01*
X70685824Y-68821562D01*
X70728708Y-69125848D01*
X70830132Y-69415921D01*
X70913347Y-69571607D01*
X71170083Y-69658312D01*
X72072395Y-68756000D01*
X72431605Y-68756000D01*
X73333917Y-69658312D01*
X73590653Y-69571607D01*
X73724048Y-69294777D01*
X73800873Y-68997243D01*
X73810780Y-68821562D01*
X83185824Y-68821562D01*
X83228708Y-69125848D01*
X83330132Y-69415921D01*
X83413347Y-69571607D01*
X83670083Y-69658312D01*
X84572395Y-68756000D01*
X84931605Y-68756000D01*
X85833917Y-69658312D01*
X86090653Y-69571607D01*
X86224048Y-69294777D01*
X86300873Y-68997243D01*
X86318176Y-68690438D01*
X86275292Y-68386152D01*
X86173868Y-68096079D01*
X86090653Y-67940393D01*
X85833917Y-67853688D01*
X84931605Y-68756000D01*
X84572395Y-68756000D01*
X83670083Y-67853688D01*
X83413347Y-67940393D01*
X83279952Y-68217223D01*
X83203127Y-68514757D01*
X83185824Y-68821562D01*
X73810780Y-68821562D01*
X73818176Y-68690438D01*
X73775292Y-68386152D01*
X73673868Y-68096079D01*
X73590653Y-67940393D01*
X73333917Y-67853688D01*
X72431605Y-68756000D01*
X72072395Y-68756000D01*
X71170083Y-67853688D01*
X70913347Y-67940393D01*
X70779952Y-68217223D01*
X70703127Y-68514757D01*
X70685824Y-68821562D01*
X51692812Y-68821562D01*
X51667205Y-68759744D01*
X51553937Y-68590226D01*
X51409774Y-68446063D01*
X51240256Y-68332795D01*
X51051898Y-68254774D01*
X50851939Y-68215000D01*
X50648061Y-68215000D01*
X50448102Y-68254774D01*
X50259744Y-68332795D01*
X50090226Y-68446063D01*
X49946063Y-68590226D01*
X49832795Y-68759744D01*
X49754774Y-68948102D01*
X49715000Y-69148061D01*
X46261930Y-69148061D01*
X46300873Y-68997243D01*
X46318176Y-68690438D01*
X46275292Y-68386152D01*
X46173868Y-68096079D01*
X46090653Y-67940393D01*
X45833917Y-67853688D01*
X44931605Y-68756000D01*
X44572395Y-68756000D01*
X43670083Y-67853688D01*
X43413347Y-67940393D01*
X43279952Y-68217223D01*
X43203127Y-68514757D01*
X43185824Y-68821562D01*
X33810780Y-68821562D01*
X33818176Y-68690438D01*
X33775292Y-68386152D01*
X33673868Y-68096079D01*
X33590653Y-67940393D01*
X33333917Y-67853688D01*
X32431605Y-68756000D01*
X32072395Y-68756000D01*
X31170083Y-67853688D01*
X30913347Y-67940393D01*
X30779952Y-68217223D01*
X30703127Y-68514757D01*
X30685824Y-68821562D01*
X26710000Y-68821562D01*
X26710000Y-67674083D01*
X31349688Y-67674083D01*
X32252000Y-68576395D01*
X33154312Y-67674083D01*
X43849688Y-67674083D01*
X44752000Y-68576395D01*
X45654312Y-67674083D01*
X71349688Y-67674083D01*
X72252000Y-68576395D01*
X73154312Y-67674083D01*
X83849688Y-67674083D01*
X84752000Y-68576395D01*
X85654312Y-67674083D01*
X85567607Y-67417347D01*
X85290777Y-67283952D01*
X84993243Y-67207127D01*
X84686438Y-67189824D01*
X84382152Y-67232708D01*
X84092079Y-67334132D01*
X83936393Y-67417347D01*
X83849688Y-67674083D01*
X73154312Y-67674083D01*
X73067607Y-67417347D01*
X72790777Y-67283952D01*
X72493243Y-67207127D01*
X72186438Y-67189824D01*
X71882152Y-67232708D01*
X71592079Y-67334132D01*
X71436393Y-67417347D01*
X71349688Y-67674083D01*
X45654312Y-67674083D01*
X45567607Y-67417347D01*
X45290777Y-67283952D01*
X44993243Y-67207127D01*
X44686438Y-67189824D01*
X44382152Y-67232708D01*
X44092079Y-67334132D01*
X43936393Y-67417347D01*
X43849688Y-67674083D01*
X33154312Y-67674083D01*
X33067607Y-67417347D01*
X32790777Y-67283952D01*
X32493243Y-67207127D01*
X32186438Y-67189824D01*
X31882152Y-67232708D01*
X31592079Y-67334132D01*
X31436393Y-67417347D01*
X31349688Y-67674083D01*
X26710000Y-67674083D01*
X26710000Y-64102353D01*
X30692000Y-64102353D01*
X30692000Y-64409647D01*
X30751950Y-64711035D01*
X30869546Y-64994937D01*
X31040269Y-65250442D01*
X31257558Y-65467731D01*
X31513063Y-65638454D01*
X31796965Y-65756050D01*
X32098353Y-65816000D01*
X32405647Y-65816000D01*
X32707035Y-65756050D01*
X32990937Y-65638454D01*
X33246442Y-65467731D01*
X33463731Y-65250442D01*
X33634454Y-64994937D01*
X33752050Y-64711035D01*
X33812000Y-64409647D01*
X33812000Y-64102353D01*
X43192000Y-64102353D01*
X43192000Y-64409647D01*
X43251950Y-64711035D01*
X43369546Y-64994937D01*
X43540269Y-65250442D01*
X43757558Y-65467731D01*
X44013063Y-65638454D01*
X44296965Y-65756050D01*
X44598353Y-65816000D01*
X44905647Y-65816000D01*
X45207035Y-65756050D01*
X45490937Y-65638454D01*
X45746442Y-65467731D01*
X45816112Y-65398061D01*
X49715000Y-65398061D01*
X49715000Y-65601939D01*
X49754774Y-65801898D01*
X49832795Y-65990256D01*
X49946063Y-66159774D01*
X50090226Y-66303937D01*
X50259744Y-66417205D01*
X50448102Y-66495226D01*
X50648061Y-66535000D01*
X50851939Y-66535000D01*
X51051898Y-66495226D01*
X51240256Y-66417205D01*
X51409774Y-66303937D01*
X51553937Y-66159774D01*
X51667205Y-65990256D01*
X51745226Y-65801898D01*
X51785000Y-65601939D01*
X51785000Y-65398061D01*
X51745226Y-65198102D01*
X51667205Y-65009744D01*
X51553937Y-64840226D01*
X51409774Y-64696063D01*
X51240256Y-64582795D01*
X51051898Y-64504774D01*
X50851939Y-64465000D01*
X50648061Y-64465000D01*
X50448102Y-64504774D01*
X50259744Y-64582795D01*
X50090226Y-64696063D01*
X49946063Y-64840226D01*
X49832795Y-65009744D01*
X49754774Y-65198102D01*
X49715000Y-65398061D01*
X45816112Y-65398061D01*
X45963731Y-65250442D01*
X46134454Y-64994937D01*
X46252050Y-64711035D01*
X46312000Y-64409647D01*
X46312000Y-64102353D01*
X46252050Y-63800965D01*
X46134454Y-63517063D01*
X45963731Y-63261558D01*
X45746442Y-63044269D01*
X45490937Y-62873546D01*
X45207035Y-62755950D01*
X44905647Y-62696000D01*
X44598353Y-62696000D01*
X44296965Y-62755950D01*
X44013063Y-62873546D01*
X43757558Y-63044269D01*
X43540269Y-63261558D01*
X43369546Y-63517063D01*
X43251950Y-63800965D01*
X43192000Y-64102353D01*
X33812000Y-64102353D01*
X33752050Y-63800965D01*
X33634454Y-63517063D01*
X33463731Y-63261558D01*
X33246442Y-63044269D01*
X32990937Y-62873546D01*
X32707035Y-62755950D01*
X32405647Y-62696000D01*
X32098353Y-62696000D01*
X31796965Y-62755950D01*
X31513063Y-62873546D01*
X31257558Y-63044269D01*
X31040269Y-63261558D01*
X30869546Y-63517063D01*
X30751950Y-63800965D01*
X30692000Y-64102353D01*
X26710000Y-64102353D01*
X26710000Y-61148061D01*
X44965000Y-61148061D01*
X44965000Y-61351939D01*
X45004774Y-61551898D01*
X45082795Y-61740256D01*
X45196063Y-61909774D01*
X45340226Y-62053937D01*
X45509744Y-62167205D01*
X45698102Y-62245226D01*
X45898061Y-62285000D01*
X46101939Y-62285000D01*
X46301898Y-62245226D01*
X46490256Y-62167205D01*
X46659774Y-62053937D01*
X46803937Y-61909774D01*
X46917205Y-61740256D01*
X46995226Y-61551898D01*
X47035000Y-61351939D01*
X47035000Y-61148061D01*
X46995226Y-60948102D01*
X46917205Y-60759744D01*
X46803937Y-60590226D01*
X46763477Y-60549766D01*
X49237039Y-60549766D01*
X49338839Y-60819279D01*
X49636977Y-60965163D01*
X49957846Y-61050080D01*
X50289117Y-61070766D01*
X50618057Y-61026428D01*
X50932027Y-60918769D01*
X51118161Y-60819279D01*
X51219961Y-60549766D01*
X50228500Y-59558305D01*
X49237039Y-60549766D01*
X46763477Y-60549766D01*
X46659774Y-60446063D01*
X46490256Y-60332795D01*
X46301898Y-60254774D01*
X46101939Y-60215000D01*
X45898061Y-60215000D01*
X45698102Y-60254774D01*
X45509744Y-60332795D01*
X45340226Y-60446063D01*
X45196063Y-60590226D01*
X45082795Y-60759744D01*
X45004774Y-60948102D01*
X44965000Y-61148061D01*
X26710000Y-61148061D01*
X26710000Y-60335693D01*
X33380212Y-60335693D01*
X33445737Y-60574560D01*
X33692716Y-60690460D01*
X33957560Y-60755950D01*
X34230092Y-60768512D01*
X34499838Y-60727665D01*
X34756432Y-60634977D01*
X34869463Y-60574560D01*
X34934988Y-60335693D01*
X34157600Y-59558305D01*
X33380212Y-60335693D01*
X26710000Y-60335693D01*
X26710000Y-59451192D01*
X32767788Y-59451192D01*
X32808635Y-59720938D01*
X32901323Y-59977532D01*
X32961740Y-60090563D01*
X33200607Y-60156088D01*
X33977995Y-59378700D01*
X33200607Y-58601312D01*
X32961740Y-58666837D01*
X32845840Y-58913816D01*
X32780350Y-59178660D01*
X32767788Y-59451192D01*
X26710000Y-59451192D01*
X26710000Y-58148061D01*
X30215000Y-58148061D01*
X30215000Y-58351939D01*
X30254774Y-58551898D01*
X30332795Y-58740256D01*
X30446063Y-58909774D01*
X30590226Y-59053937D01*
X30759744Y-59167205D01*
X30948102Y-59245226D01*
X31148061Y-59285000D01*
X31351939Y-59285000D01*
X31551898Y-59245226D01*
X31740256Y-59167205D01*
X31909774Y-59053937D01*
X32053937Y-58909774D01*
X32167205Y-58740256D01*
X32245226Y-58551898D01*
X32271122Y-58421707D01*
X33380212Y-58421707D01*
X34157600Y-59199095D01*
X34171743Y-59184953D01*
X34351348Y-59364558D01*
X34337205Y-59378700D01*
X35114593Y-60156088D01*
X35353460Y-60090563D01*
X35469360Y-59843584D01*
X35534850Y-59578740D01*
X35547412Y-59306208D01*
X35540975Y-59263699D01*
X35648061Y-59285000D01*
X35851939Y-59285000D01*
X36051898Y-59245226D01*
X36058988Y-59242289D01*
X40372600Y-59242289D01*
X40372600Y-59515111D01*
X40425825Y-59782689D01*
X40530229Y-60034743D01*
X40681801Y-60261586D01*
X40874714Y-60454499D01*
X41101557Y-60606071D01*
X41353611Y-60710475D01*
X41621189Y-60763700D01*
X41894011Y-60763700D01*
X42161589Y-60710475D01*
X42413643Y-60606071D01*
X42640486Y-60454499D01*
X42833399Y-60261586D01*
X42984971Y-60034743D01*
X43089375Y-59782689D01*
X43142600Y-59515111D01*
X43142600Y-59439317D01*
X48536434Y-59439317D01*
X48580772Y-59768257D01*
X48688431Y-60082227D01*
X48787921Y-60268361D01*
X49057434Y-60370161D01*
X50048895Y-59378700D01*
X49057434Y-58387239D01*
X48787921Y-58489039D01*
X48642037Y-58787177D01*
X48557120Y-59108046D01*
X48536434Y-59439317D01*
X43142600Y-59439317D01*
X43142600Y-59242289D01*
X43089375Y-58974711D01*
X42984971Y-58722657D01*
X42833399Y-58495814D01*
X42640486Y-58302901D01*
X42413643Y-58151329D01*
X42161589Y-58046925D01*
X41894011Y-57993700D01*
X41621189Y-57993700D01*
X41353611Y-58046925D01*
X41101557Y-58151329D01*
X40874714Y-58302901D01*
X40681801Y-58495814D01*
X40530229Y-58722657D01*
X40425825Y-58974711D01*
X40372600Y-59242289D01*
X36058988Y-59242289D01*
X36240256Y-59167205D01*
X36409774Y-59053937D01*
X36553937Y-58909774D01*
X36667205Y-58740256D01*
X36745226Y-58551898D01*
X36785000Y-58351939D01*
X36785000Y-58148061D01*
X36756400Y-58004276D01*
X36801898Y-57995226D01*
X36990256Y-57917205D01*
X37159774Y-57803937D01*
X37303937Y-57659774D01*
X37417205Y-57490256D01*
X37495226Y-57301898D01*
X37535000Y-57101939D01*
X37535000Y-57024226D01*
X37605545Y-56892248D01*
X37649002Y-56748987D01*
X37659999Y-56637334D01*
X37659999Y-56637324D01*
X37663675Y-56600002D01*
X37659999Y-56562679D01*
X37659999Y-51648061D01*
X40715000Y-51648061D01*
X40715000Y-51851939D01*
X40754774Y-52051898D01*
X40832795Y-52240256D01*
X40946063Y-52409774D01*
X41090226Y-52553937D01*
X41259744Y-52667205D01*
X41448102Y-52745226D01*
X41648061Y-52785000D01*
X41851939Y-52785000D01*
X42051898Y-52745226D01*
X42240256Y-52667205D01*
X42409774Y-52553937D01*
X42553937Y-52409774D01*
X42667205Y-52240256D01*
X42745226Y-52051898D01*
X42785000Y-51851939D01*
X42785000Y-51648061D01*
X42745226Y-51448102D01*
X42667205Y-51259744D01*
X42553937Y-51090226D01*
X42409774Y-50946063D01*
X42240256Y-50832795D01*
X42051898Y-50754774D01*
X41851939Y-50715000D01*
X41648061Y-50715000D01*
X41448102Y-50754774D01*
X41259744Y-50832795D01*
X41090226Y-50946063D01*
X40946063Y-51090226D01*
X40832795Y-51259744D01*
X40754774Y-51448102D01*
X40715000Y-51648061D01*
X37659999Y-51648061D01*
X37659999Y-49437321D01*
X37663675Y-49399998D01*
X37659999Y-49362675D01*
X37659999Y-49362666D01*
X37649002Y-49251013D01*
X37617773Y-49148061D01*
X41465000Y-49148061D01*
X41465000Y-49351939D01*
X41504774Y-49551898D01*
X41582795Y-49740256D01*
X41696063Y-49909774D01*
X41840226Y-50053937D01*
X42009744Y-50167205D01*
X42198102Y-50245226D01*
X42398061Y-50285000D01*
X42601939Y-50285000D01*
X42801898Y-50245226D01*
X42990256Y-50167205D01*
X43159774Y-50053937D01*
X43303937Y-49909774D01*
X43417205Y-49740256D01*
X43495226Y-49551898D01*
X43535000Y-49351939D01*
X43535000Y-49148061D01*
X43495226Y-48948102D01*
X43417205Y-48759744D01*
X43303937Y-48590226D01*
X43159774Y-48446063D01*
X42990256Y-48332795D01*
X42801898Y-48254774D01*
X42601939Y-48215000D01*
X42398061Y-48215000D01*
X42198102Y-48254774D01*
X42009744Y-48332795D01*
X41840226Y-48446063D01*
X41696063Y-48590226D01*
X41582795Y-48759744D01*
X41504774Y-48948102D01*
X41465000Y-49148061D01*
X37617773Y-49148061D01*
X37605545Y-49107752D01*
X37534973Y-48975723D01*
X37506210Y-48940675D01*
X37463798Y-48888995D01*
X37463794Y-48888991D01*
X37440000Y-48859998D01*
X37411007Y-48836204D01*
X37034999Y-48460197D01*
X37034999Y-47748072D01*
X38100000Y-47748072D01*
X38224482Y-47735812D01*
X38344180Y-47699502D01*
X38454494Y-47640537D01*
X38551185Y-47561185D01*
X38630537Y-47464494D01*
X38689502Y-47354180D01*
X38725812Y-47234482D01*
X38736445Y-47126517D01*
X38814201Y-47242886D01*
X39007114Y-47435799D01*
X39233957Y-47587371D01*
X39486011Y-47691775D01*
X39753589Y-47745000D01*
X40026411Y-47745000D01*
X40293989Y-47691775D01*
X40546043Y-47587371D01*
X40772886Y-47435799D01*
X40965799Y-47242886D01*
X41117371Y-47016043D01*
X41160000Y-46913127D01*
X41202629Y-47016043D01*
X41354201Y-47242886D01*
X41547114Y-47435799D01*
X41773957Y-47587371D01*
X42026011Y-47691775D01*
X42293589Y-47745000D01*
X42566411Y-47745000D01*
X42833989Y-47691775D01*
X43086043Y-47587371D01*
X43312886Y-47435799D01*
X43505799Y-47242886D01*
X43657371Y-47016043D01*
X43700000Y-46913127D01*
X43742629Y-47016043D01*
X43894201Y-47242886D01*
X44087114Y-47435799D01*
X44210001Y-47517909D01*
X44210000Y-50682677D01*
X44206324Y-50720000D01*
X44210000Y-50757322D01*
X44210000Y-50757332D01*
X44220997Y-50868985D01*
X44257784Y-50990256D01*
X44264454Y-51012246D01*
X44335026Y-51144276D01*
X44353844Y-51167205D01*
X44429999Y-51260001D01*
X44459003Y-51283804D01*
X51108679Y-57933481D01*
X50820023Y-57792237D01*
X50499154Y-57707320D01*
X50167883Y-57686634D01*
X49838943Y-57730972D01*
X49524973Y-57838631D01*
X49338839Y-57938121D01*
X49237039Y-58207634D01*
X50228500Y-59199095D01*
X50242643Y-59184953D01*
X50422248Y-59364558D01*
X50408105Y-59378700D01*
X51399566Y-60370161D01*
X51669079Y-60268361D01*
X51814963Y-59970223D01*
X51899880Y-59649354D01*
X51920566Y-59318083D01*
X51876228Y-58989143D01*
X51768569Y-58675173D01*
X51674639Y-58499442D01*
X54215000Y-61039803D01*
X54215000Y-61101939D01*
X54254774Y-61301898D01*
X54332795Y-61490256D01*
X54446063Y-61659774D01*
X54590226Y-61803937D01*
X54759744Y-61917205D01*
X54948102Y-61995226D01*
X55148061Y-62035000D01*
X55351939Y-62035000D01*
X55551898Y-61995226D01*
X55740256Y-61917205D01*
X55909774Y-61803937D01*
X56053937Y-61659774D01*
X56167205Y-61490256D01*
X56245226Y-61301898D01*
X56285000Y-61101939D01*
X56285000Y-60898061D01*
X56245226Y-60698102D01*
X56167205Y-60509744D01*
X56053937Y-60340226D01*
X55909774Y-60196063D01*
X55740256Y-60082795D01*
X55551898Y-60004774D01*
X55351939Y-59965000D01*
X55289803Y-59965000D01*
X48741305Y-53416504D01*
X48909774Y-53303937D01*
X49053937Y-53159774D01*
X49167205Y-52990256D01*
X49245226Y-52801898D01*
X49285000Y-52601939D01*
X49285000Y-52398061D01*
X49245226Y-52198102D01*
X49167205Y-52009744D01*
X49053937Y-51840226D01*
X48909774Y-51696063D01*
X48740256Y-51582795D01*
X48634612Y-51539035D01*
X48667205Y-51490256D01*
X48745226Y-51301898D01*
X48785000Y-51101939D01*
X48785000Y-50898061D01*
X48745226Y-50698102D01*
X48667205Y-50509744D01*
X48553937Y-50340226D01*
X48409774Y-50196063D01*
X48240256Y-50082795D01*
X48051898Y-50004774D01*
X47851939Y-49965000D01*
X47648061Y-49965000D01*
X47448102Y-50004774D01*
X47259744Y-50082795D01*
X47090226Y-50196063D01*
X46946063Y-50340226D01*
X46832795Y-50509744D01*
X46754774Y-50698102D01*
X46715000Y-50898061D01*
X46715000Y-51101939D01*
X46754774Y-51301898D01*
X46832795Y-51490256D01*
X46868513Y-51543711D01*
X45730000Y-50405199D01*
X45730000Y-47517909D01*
X45852886Y-47435799D01*
X46045799Y-47242886D01*
X46197371Y-47016043D01*
X46240000Y-46913127D01*
X46282629Y-47016043D01*
X46434201Y-47242886D01*
X46627114Y-47435799D01*
X46853957Y-47587371D01*
X47106011Y-47691775D01*
X47373589Y-47745000D01*
X47646411Y-47745000D01*
X47913989Y-47691775D01*
X48166043Y-47587371D01*
X48392886Y-47435799D01*
X48585799Y-47242886D01*
X48737371Y-47016043D01*
X48780000Y-46913127D01*
X48822629Y-47016043D01*
X48974201Y-47242886D01*
X49167114Y-47435799D01*
X49393957Y-47587371D01*
X49646011Y-47691775D01*
X49913589Y-47745000D01*
X50186411Y-47745000D01*
X50453989Y-47691775D01*
X50706043Y-47587371D01*
X50932886Y-47435799D01*
X51125799Y-47242886D01*
X51277371Y-47016043D01*
X51381775Y-46763989D01*
X51435000Y-46496411D01*
X51435000Y-46223589D01*
X51412236Y-46109148D01*
X51446063Y-46159774D01*
X51490001Y-46203712D01*
X51490000Y-48139675D01*
X51486324Y-48176998D01*
X51490000Y-48214320D01*
X51490000Y-48214330D01*
X51500997Y-48325983D01*
X51523142Y-48398985D01*
X51544454Y-48469244D01*
X51615026Y-48601274D01*
X51654871Y-48649824D01*
X51709999Y-48716999D01*
X51739003Y-48740802D01*
X52267245Y-49269044D01*
X52196063Y-49340226D01*
X52082795Y-49509744D01*
X52004774Y-49698102D01*
X51965000Y-49898061D01*
X51965000Y-50101939D01*
X52004774Y-50301898D01*
X52082795Y-50490256D01*
X52196063Y-50659774D01*
X52340226Y-50803937D01*
X52509744Y-50917205D01*
X52698102Y-50995226D01*
X52898061Y-51035000D01*
X53101939Y-51035000D01*
X53301898Y-50995226D01*
X53490256Y-50917205D01*
X53659774Y-50803937D01*
X53730956Y-50732755D01*
X58240000Y-55241800D01*
X58240000Y-55712667D01*
X58236323Y-55750000D01*
X58250997Y-55898986D01*
X58294454Y-56042247D01*
X58365026Y-56174276D01*
X58423253Y-56245226D01*
X58459999Y-56290001D01*
X58575724Y-56384974D01*
X58707753Y-56455546D01*
X58851014Y-56499003D01*
X59000000Y-56513677D01*
X59037333Y-56510000D01*
X61796289Y-56510000D01*
X61840226Y-56553937D01*
X62009744Y-56667205D01*
X62198102Y-56745226D01*
X62398061Y-56785000D01*
X62601939Y-56785000D01*
X62801898Y-56745226D01*
X62990256Y-56667205D01*
X63159774Y-56553937D01*
X63303937Y-56409774D01*
X63417205Y-56240256D01*
X63495226Y-56051898D01*
X63535000Y-55851939D01*
X63535000Y-55648061D01*
X63495226Y-55448102D01*
X63417205Y-55259744D01*
X63303937Y-55090226D01*
X63159774Y-54946063D01*
X62990256Y-54832795D01*
X62801898Y-54754774D01*
X62601939Y-54715000D01*
X62398061Y-54715000D01*
X62198102Y-54754774D01*
X62009744Y-54832795D01*
X61840226Y-54946063D01*
X61796289Y-54990000D01*
X59760000Y-54990000D01*
X59760000Y-54964331D01*
X59763677Y-54926998D01*
X59749003Y-54778012D01*
X59705546Y-54634751D01*
X59634974Y-54502722D01*
X59563799Y-54415995D01*
X59540001Y-54386997D01*
X59511003Y-54363199D01*
X58169388Y-53021584D01*
X58301898Y-52995226D01*
X58490256Y-52917205D01*
X58659774Y-52803937D01*
X58803937Y-52659774D01*
X58917205Y-52490256D01*
X58995226Y-52301898D01*
X59035000Y-52101939D01*
X59035000Y-51898061D01*
X58995226Y-51698102D01*
X58917205Y-51509744D01*
X58803937Y-51340226D01*
X58659774Y-51196063D01*
X58490256Y-51082795D01*
X58301898Y-51004774D01*
X58101939Y-50965000D01*
X57898061Y-50965000D01*
X57698102Y-51004774D01*
X57509744Y-51082795D01*
X57340226Y-51196063D01*
X57196063Y-51340226D01*
X57082795Y-51509744D01*
X57004774Y-51698102D01*
X56978416Y-51830613D01*
X53010000Y-47862197D01*
X53010000Y-46203711D01*
X53053937Y-46159774D01*
X53167205Y-45990256D01*
X53245226Y-45801898D01*
X53285000Y-45601939D01*
X53285000Y-45398061D01*
X53245226Y-45198102D01*
X53167205Y-45009744D01*
X53053937Y-44840226D01*
X52909774Y-44696063D01*
X52740256Y-44582795D01*
X52551898Y-44504774D01*
X52351939Y-44465000D01*
X52148061Y-44465000D01*
X51948102Y-44504774D01*
X51759744Y-44582795D01*
X51590226Y-44696063D01*
X51446063Y-44840226D01*
X51332795Y-45009744D01*
X51254774Y-45198102D01*
X51215000Y-45398061D01*
X51215000Y-45601939D01*
X51217457Y-45614289D01*
X51125799Y-45477114D01*
X50932886Y-45284201D01*
X50706043Y-45132629D01*
X50453989Y-45028225D01*
X50186411Y-44975000D01*
X49913589Y-44975000D01*
X49646011Y-45028225D01*
X49393957Y-45132629D01*
X49167114Y-45284201D01*
X48974201Y-45477114D01*
X48822629Y-45703957D01*
X48780000Y-45806873D01*
X48737371Y-45703957D01*
X48585799Y-45477114D01*
X48392886Y-45284201D01*
X48270000Y-45202091D01*
X48270000Y-44554801D01*
X48289801Y-44535000D01*
X48351939Y-44535000D01*
X48551898Y-44495226D01*
X48740256Y-44417205D01*
X48909774Y-44303937D01*
X49053937Y-44159774D01*
X49167205Y-43990256D01*
X49245226Y-43801898D01*
X49285000Y-43601939D01*
X49285000Y-43398061D01*
X49256927Y-43256927D01*
X49398061Y-43285000D01*
X49460198Y-43285000D01*
X49509202Y-43334004D01*
X49533001Y-43363003D01*
X49648726Y-43457976D01*
X49780755Y-43528548D01*
X49924016Y-43572005D01*
X50035669Y-43583002D01*
X50035678Y-43583002D01*
X50073001Y-43586678D01*
X50110324Y-43583002D01*
X52685199Y-43583002D01*
X64264578Y-55162383D01*
X64214172Y-55196063D01*
X64070009Y-55340226D01*
X63956741Y-55509744D01*
X63878720Y-55698102D01*
X63838946Y-55898061D01*
X63838946Y-55995553D01*
X62525886Y-57308614D01*
X57992480Y-57308614D01*
X57956385Y-57305059D01*
X57920290Y-57308614D01*
X57920281Y-57308614D01*
X57812301Y-57319249D01*
X57673753Y-57361277D01*
X57546066Y-57429527D01*
X57503724Y-57464277D01*
X53985000Y-53945554D01*
X53985000Y-53228711D01*
X54053937Y-53159774D01*
X54167205Y-52990256D01*
X54245226Y-52801898D01*
X54285000Y-52601939D01*
X54285000Y-52398061D01*
X54245226Y-52198102D01*
X54167205Y-52009744D01*
X54053937Y-51840226D01*
X53909774Y-51696063D01*
X53740256Y-51582795D01*
X53551898Y-51504774D01*
X53351939Y-51465000D01*
X53148061Y-51465000D01*
X52948102Y-51504774D01*
X52759744Y-51582795D01*
X52590226Y-51696063D01*
X52446063Y-51840226D01*
X52332795Y-52009744D01*
X52254774Y-52198102D01*
X52215000Y-52398061D01*
X52215000Y-52601939D01*
X52254774Y-52801898D01*
X52332795Y-52990256D01*
X52446063Y-53159774D01*
X52515000Y-53228711D01*
X52515001Y-54213885D01*
X52511444Y-54250000D01*
X52525635Y-54394085D01*
X52563620Y-54519301D01*
X52567664Y-54532633D01*
X52635914Y-54660320D01*
X52727763Y-54772238D01*
X52755808Y-54795254D01*
X56465000Y-58504447D01*
X56465000Y-58601939D01*
X56504774Y-58801898D01*
X56582795Y-58990256D01*
X56696063Y-59159774D01*
X56840226Y-59303937D01*
X57009744Y-59417205D01*
X57115388Y-59460965D01*
X57082795Y-59509744D01*
X57004774Y-59698102D01*
X56965000Y-59898061D01*
X56965000Y-59995554D01*
X56755808Y-60204746D01*
X56727763Y-60227762D01*
X56635913Y-60339680D01*
X56567663Y-60467367D01*
X56525635Y-60605915D01*
X56511444Y-60750000D01*
X56515000Y-60786105D01*
X56515000Y-61213895D01*
X56511444Y-61250000D01*
X56519139Y-61328127D01*
X56525635Y-61394084D01*
X56567663Y-61532632D01*
X56635913Y-61660319D01*
X56727762Y-61772237D01*
X56755808Y-61795254D01*
X58954746Y-63994193D01*
X58977762Y-64022238D01*
X59005806Y-64045253D01*
X59089680Y-64114087D01*
X59217366Y-64182337D01*
X59355915Y-64224365D01*
X59500000Y-64238556D01*
X59536105Y-64235000D01*
X61753459Y-64235000D01*
X61720025Y-64403086D01*
X61720025Y-64606964D01*
X61749150Y-64753387D01*
X61609774Y-64614011D01*
X61440256Y-64500743D01*
X61251898Y-64422722D01*
X61051939Y-64382948D01*
X60848061Y-64382948D01*
X60648102Y-64422722D01*
X60459744Y-64500743D01*
X60290226Y-64614011D01*
X60146063Y-64758174D01*
X60032795Y-64927692D01*
X59954774Y-65116050D01*
X59925302Y-65264218D01*
X59785739Y-65322028D01*
X59659774Y-65196063D01*
X59490256Y-65082795D01*
X59301898Y-65004774D01*
X59101939Y-64965000D01*
X58898061Y-64965000D01*
X58698102Y-65004774D01*
X58509744Y-65082795D01*
X58340226Y-65196063D01*
X58196063Y-65340226D01*
X58082795Y-65509744D01*
X58004774Y-65698102D01*
X57965000Y-65898061D01*
X57965000Y-66101939D01*
X58004774Y-66301898D01*
X58082795Y-66490256D01*
X58196063Y-66659774D01*
X58340226Y-66803937D01*
X58509744Y-66917205D01*
X58698102Y-66995226D01*
X58898061Y-67035000D01*
X59101939Y-67035000D01*
X59301898Y-66995226D01*
X59464261Y-66927972D01*
X59590226Y-67053937D01*
X59759744Y-67167205D01*
X59948102Y-67245226D01*
X60148061Y-67285000D01*
X60351939Y-67285000D01*
X60551898Y-67245226D01*
X60740256Y-67167205D01*
X60909774Y-67053937D01*
X61053937Y-66909774D01*
X61167205Y-66740256D01*
X61245226Y-66551898D01*
X61274698Y-66403730D01*
X61440256Y-66335153D01*
X61609774Y-66221885D01*
X61753937Y-66077722D01*
X61867205Y-65908204D01*
X61945226Y-65719846D01*
X61985000Y-65519887D01*
X61985000Y-65316009D01*
X61955875Y-65169586D01*
X62095251Y-65308962D01*
X62264769Y-65422230D01*
X62453127Y-65500251D01*
X62653086Y-65540025D01*
X62856964Y-65540025D01*
X63056923Y-65500251D01*
X63245281Y-65422230D01*
X63414799Y-65308962D01*
X63558962Y-65164799D01*
X63672230Y-64995281D01*
X63750251Y-64806923D01*
X63790025Y-64606964D01*
X63790025Y-64403086D01*
X63756591Y-64235000D01*
X64801289Y-64235000D01*
X64696063Y-64340226D01*
X64582795Y-64509744D01*
X64504774Y-64698102D01*
X64465000Y-64898061D01*
X64465000Y-65001413D01*
X64448102Y-65004774D01*
X64259744Y-65082795D01*
X64090226Y-65196063D01*
X63946063Y-65340226D01*
X63832795Y-65509744D01*
X63754774Y-65698102D01*
X63715000Y-65898061D01*
X63715000Y-66101939D01*
X63754774Y-66301898D01*
X63832795Y-66490256D01*
X63946063Y-66659774D01*
X64090226Y-66803937D01*
X64259744Y-66917205D01*
X64448102Y-66995226D01*
X64648061Y-67035000D01*
X64851939Y-67035000D01*
X65051898Y-66995226D01*
X65240256Y-66917205D01*
X65409774Y-66803937D01*
X65553937Y-66659774D01*
X65667205Y-66490256D01*
X65745226Y-66301898D01*
X65785000Y-66101939D01*
X65785000Y-65998587D01*
X65801898Y-65995226D01*
X65990256Y-65917205D01*
X66159774Y-65803937D01*
X66303937Y-65659774D01*
X66417205Y-65490256D01*
X66495226Y-65301898D01*
X66535000Y-65101939D01*
X66535000Y-64898061D01*
X66495226Y-64698102D01*
X66417205Y-64509744D01*
X66303937Y-64340226D01*
X66159774Y-64196063D01*
X66019527Y-64102353D01*
X70692000Y-64102353D01*
X70692000Y-64409647D01*
X70751950Y-64711035D01*
X70869546Y-64994937D01*
X71040269Y-65250442D01*
X71257558Y-65467731D01*
X71513063Y-65638454D01*
X71796965Y-65756050D01*
X72098353Y-65816000D01*
X72405647Y-65816000D01*
X72707035Y-65756050D01*
X72990937Y-65638454D01*
X73246442Y-65467731D01*
X73463731Y-65250442D01*
X73634454Y-64994937D01*
X73752050Y-64711035D01*
X73812000Y-64409647D01*
X73812000Y-64148061D01*
X74215000Y-64148061D01*
X74215000Y-64351939D01*
X74254774Y-64551898D01*
X74332795Y-64740256D01*
X74446063Y-64909774D01*
X74590226Y-65053937D01*
X74759744Y-65167205D01*
X74948102Y-65245226D01*
X75148061Y-65285000D01*
X75351939Y-65285000D01*
X75551898Y-65245226D01*
X75740256Y-65167205D01*
X75909774Y-65053937D01*
X76053937Y-64909774D01*
X76167205Y-64740256D01*
X76245226Y-64551898D01*
X76285000Y-64351939D01*
X76285000Y-64148061D01*
X76275909Y-64102353D01*
X83192000Y-64102353D01*
X83192000Y-64409647D01*
X83251950Y-64711035D01*
X83369546Y-64994937D01*
X83540269Y-65250442D01*
X83757558Y-65467731D01*
X84013063Y-65638454D01*
X84296965Y-65756050D01*
X84598353Y-65816000D01*
X84905647Y-65816000D01*
X85207035Y-65756050D01*
X85490937Y-65638454D01*
X85746442Y-65467731D01*
X85963731Y-65250442D01*
X86134454Y-64994937D01*
X86252050Y-64711035D01*
X86312000Y-64409647D01*
X86312000Y-64102353D01*
X86252050Y-63800965D01*
X86134454Y-63517063D01*
X85963731Y-63261558D01*
X85746442Y-63044269D01*
X85490937Y-62873546D01*
X85207035Y-62755950D01*
X84905647Y-62696000D01*
X84598353Y-62696000D01*
X84296965Y-62755950D01*
X84013063Y-62873546D01*
X83757558Y-63044269D01*
X83540269Y-63261558D01*
X83369546Y-63517063D01*
X83251950Y-63800965D01*
X83192000Y-64102353D01*
X76275909Y-64102353D01*
X76245226Y-63948102D01*
X76167205Y-63759744D01*
X76053937Y-63590226D01*
X75909774Y-63446063D01*
X75740256Y-63332795D01*
X75551898Y-63254774D01*
X75351939Y-63215000D01*
X75148061Y-63215000D01*
X74948102Y-63254774D01*
X74759744Y-63332795D01*
X74590226Y-63446063D01*
X74446063Y-63590226D01*
X74332795Y-63759744D01*
X74254774Y-63948102D01*
X74215000Y-64148061D01*
X73812000Y-64148061D01*
X73812000Y-64102353D01*
X73752050Y-63800965D01*
X73634454Y-63517063D01*
X73463731Y-63261558D01*
X73246442Y-63044269D01*
X72990937Y-62873546D01*
X72707035Y-62755950D01*
X72405647Y-62696000D01*
X72098353Y-62696000D01*
X71796965Y-62755950D01*
X71513063Y-62873546D01*
X71257558Y-63044269D01*
X71040269Y-63261558D01*
X70869546Y-63517063D01*
X70751950Y-63800965D01*
X70692000Y-64102353D01*
X66019527Y-64102353D01*
X65990256Y-64082795D01*
X65801898Y-64004774D01*
X65601939Y-63965000D01*
X65499446Y-63965000D01*
X65754446Y-63710000D01*
X65851939Y-63710000D01*
X66051898Y-63670226D01*
X66240256Y-63592205D01*
X66409774Y-63478937D01*
X66553937Y-63334774D01*
X66667205Y-63165256D01*
X66745226Y-62976898D01*
X66785000Y-62776939D01*
X66785000Y-62573061D01*
X66745226Y-62373102D01*
X66667205Y-62184744D01*
X66553937Y-62015226D01*
X66409774Y-61871063D01*
X66240256Y-61757795D01*
X66051898Y-61679774D01*
X65851939Y-61640000D01*
X65648061Y-61640000D01*
X65448102Y-61679774D01*
X65259744Y-61757795D01*
X65236822Y-61773111D01*
X65159774Y-61696063D01*
X64990256Y-61582795D01*
X64801898Y-61504774D01*
X64601939Y-61465000D01*
X64398061Y-61465000D01*
X64198102Y-61504774D01*
X64009744Y-61582795D01*
X64000000Y-61589306D01*
X63990256Y-61582795D01*
X63801898Y-61504774D01*
X63601939Y-61465000D01*
X63398061Y-61465000D01*
X63198102Y-61504774D01*
X63009744Y-61582795D01*
X62840226Y-61696063D01*
X62750000Y-61786289D01*
X62659774Y-61696063D01*
X62490256Y-61582795D01*
X62301898Y-61504774D01*
X62101939Y-61465000D01*
X61898061Y-61465000D01*
X61698102Y-61504774D01*
X61509744Y-61582795D01*
X61340226Y-61696063D01*
X61196063Y-61840226D01*
X61082795Y-62009744D01*
X61004774Y-62198102D01*
X60965000Y-62398061D01*
X60965000Y-62601939D01*
X60997435Y-62765000D01*
X59804447Y-62765000D01*
X59376579Y-62337132D01*
X59423912Y-62289799D01*
X59537180Y-62120281D01*
X59615201Y-61931923D01*
X59654975Y-61731964D01*
X59654975Y-61528086D01*
X59615201Y-61328127D01*
X59537180Y-61139769D01*
X59423912Y-60970251D01*
X59279749Y-60826088D01*
X59110231Y-60712820D01*
X58921873Y-60634799D01*
X58832503Y-60617022D01*
X58917205Y-60490256D01*
X58995226Y-60301898D01*
X59035000Y-60101939D01*
X59035000Y-59998587D01*
X59051898Y-59995226D01*
X59240256Y-59917205D01*
X59409774Y-59803937D01*
X59553937Y-59659774D01*
X59667205Y-59490256D01*
X59745226Y-59301898D01*
X59785000Y-59101939D01*
X59785000Y-58898061D01*
X59761241Y-58778614D01*
X60708615Y-58778614D01*
X60708615Y-58845554D01*
X60748389Y-59045513D01*
X60826410Y-59233871D01*
X60939678Y-59403389D01*
X61083841Y-59547552D01*
X61253359Y-59660820D01*
X61441717Y-59738841D01*
X61641676Y-59778615D01*
X61845554Y-59778615D01*
X62045513Y-59738841D01*
X62233871Y-59660820D01*
X62403389Y-59547552D01*
X62447326Y-59503615D01*
X67219063Y-59503615D01*
X67256385Y-59507291D01*
X67293707Y-59503615D01*
X67293718Y-59503615D01*
X67405371Y-59492618D01*
X67548632Y-59449161D01*
X67680661Y-59378589D01*
X67796386Y-59283616D01*
X67820189Y-59254612D01*
X67862059Y-59212742D01*
X68543500Y-59212742D01*
X68543500Y-59544658D01*
X68608254Y-59870196D01*
X68735272Y-60176847D01*
X68919675Y-60452825D01*
X69154375Y-60687525D01*
X69430353Y-60871928D01*
X69737004Y-60998946D01*
X70062542Y-61063700D01*
X70394458Y-61063700D01*
X70719996Y-60998946D01*
X71026647Y-60871928D01*
X71302625Y-60687525D01*
X71537325Y-60452825D01*
X71721728Y-60176847D01*
X71848746Y-59870196D01*
X71913500Y-59544658D01*
X71913500Y-59212742D01*
X71848746Y-58887204D01*
X71721728Y-58580553D01*
X71537325Y-58304575D01*
X71302625Y-58069875D01*
X71026647Y-57885472D01*
X70719996Y-57758454D01*
X70394458Y-57693700D01*
X70062542Y-57693700D01*
X69737004Y-57758454D01*
X69430353Y-57885472D01*
X69154375Y-58069875D01*
X68919675Y-58304575D01*
X68735272Y-58580553D01*
X68608254Y-58887204D01*
X68543500Y-59212742D01*
X67862059Y-59212742D01*
X69511004Y-57563798D01*
X69540001Y-57540001D01*
X69617094Y-57446063D01*
X69634974Y-57424277D01*
X69705546Y-57292247D01*
X69728978Y-57215000D01*
X69749003Y-57148986D01*
X69760000Y-57037333D01*
X69760000Y-57037323D01*
X69763676Y-57000000D01*
X69760000Y-56962678D01*
X69760000Y-54049446D01*
X73715000Y-58004447D01*
X73715000Y-58101939D01*
X73754774Y-58301898D01*
X73832795Y-58490256D01*
X73946063Y-58659774D01*
X74090226Y-58803937D01*
X74259744Y-58917205D01*
X74448102Y-58995226D01*
X74648061Y-59035000D01*
X74851939Y-59035000D01*
X75051898Y-58995226D01*
X75240256Y-58917205D01*
X75409774Y-58803937D01*
X75553937Y-58659774D01*
X75667205Y-58490256D01*
X75745226Y-58301898D01*
X75785000Y-58101939D01*
X75785000Y-57898061D01*
X75745226Y-57698102D01*
X75667205Y-57509744D01*
X75553937Y-57340226D01*
X75409774Y-57196063D01*
X75240256Y-57082795D01*
X75051898Y-57004774D01*
X74851939Y-56965000D01*
X74754447Y-56965000D01*
X70735000Y-52945554D01*
X70735000Y-52309801D01*
X74215000Y-55789802D01*
X74215000Y-55851939D01*
X74254774Y-56051898D01*
X74332795Y-56240256D01*
X74446063Y-56409774D01*
X74590226Y-56553937D01*
X74759744Y-56667205D01*
X74948102Y-56745226D01*
X75148061Y-56785000D01*
X75351939Y-56785000D01*
X75551898Y-56745226D01*
X75740256Y-56667205D01*
X75909774Y-56553937D01*
X76053937Y-56409774D01*
X76167205Y-56240256D01*
X76245226Y-56051898D01*
X76285000Y-55851939D01*
X76285000Y-55648061D01*
X76245226Y-55448102D01*
X76167205Y-55259744D01*
X76092582Y-55148061D01*
X81465000Y-55148061D01*
X81465000Y-55351939D01*
X81504774Y-55551898D01*
X81582795Y-55740256D01*
X81696063Y-55909774D01*
X81840226Y-56053937D01*
X82009744Y-56167205D01*
X82198102Y-56245226D01*
X82398061Y-56285000D01*
X82601939Y-56285000D01*
X82801898Y-56245226D01*
X82990256Y-56167205D01*
X83159774Y-56053937D01*
X83303937Y-55909774D01*
X83417205Y-55740256D01*
X83495226Y-55551898D01*
X83535000Y-55351939D01*
X83535000Y-55148061D01*
X83495226Y-54948102D01*
X83417205Y-54759744D01*
X83303937Y-54590226D01*
X83159774Y-54446063D01*
X82990256Y-54332795D01*
X82801898Y-54254774D01*
X82601939Y-54215000D01*
X82398061Y-54215000D01*
X82198102Y-54254774D01*
X82009744Y-54332795D01*
X81840226Y-54446063D01*
X81696063Y-54590226D01*
X81582795Y-54759744D01*
X81504774Y-54948102D01*
X81465000Y-55148061D01*
X76092582Y-55148061D01*
X76053937Y-55090226D01*
X75909774Y-54946063D01*
X75740256Y-54832795D01*
X75551898Y-54754774D01*
X75351939Y-54715000D01*
X75289802Y-54715000D01*
X74489827Y-53915025D01*
X74651939Y-53915025D01*
X74851898Y-53875251D01*
X75040256Y-53797230D01*
X75209774Y-53683962D01*
X75353937Y-53539799D01*
X75467205Y-53370281D01*
X75545226Y-53181923D01*
X75585000Y-52981964D01*
X75585000Y-52778086D01*
X75545226Y-52578127D01*
X75467205Y-52389769D01*
X75353937Y-52220251D01*
X75209774Y-52076088D01*
X75040256Y-51962820D01*
X74851898Y-51884799D01*
X74651939Y-51845025D01*
X74448061Y-51845025D01*
X74248102Y-51884799D01*
X74059744Y-51962820D01*
X73890226Y-52076088D01*
X73746063Y-52220251D01*
X73632795Y-52389769D01*
X73554774Y-52578127D01*
X73515000Y-52778086D01*
X73515000Y-52940199D01*
X71724999Y-51150198D01*
X71724999Y-49398061D01*
X73965000Y-49398061D01*
X73965000Y-49601939D01*
X74004774Y-49801898D01*
X74082795Y-49990256D01*
X74196063Y-50159774D01*
X74340226Y-50303937D01*
X74509744Y-50417205D01*
X74698102Y-50495226D01*
X74898061Y-50535000D01*
X74965000Y-50535000D01*
X74965000Y-50601939D01*
X75004774Y-50801898D01*
X75082795Y-50990256D01*
X75196063Y-51159774D01*
X75340226Y-51303937D01*
X75509744Y-51417205D01*
X75698102Y-51495226D01*
X75898061Y-51535000D01*
X76101939Y-51535000D01*
X76301898Y-51495226D01*
X76490256Y-51417205D01*
X76659774Y-51303937D01*
X76803937Y-51159774D01*
X76917205Y-50990256D01*
X76995226Y-50801898D01*
X77035000Y-50601939D01*
X77035000Y-50398061D01*
X76995226Y-50198102D01*
X76974499Y-50148061D01*
X80465000Y-50148061D01*
X80465000Y-50351939D01*
X80504774Y-50551898D01*
X80582795Y-50740256D01*
X80696063Y-50909774D01*
X80840226Y-51053937D01*
X81009744Y-51167205D01*
X81198102Y-51245226D01*
X81398061Y-51285000D01*
X81601939Y-51285000D01*
X81801898Y-51245226D01*
X81990256Y-51167205D01*
X82159774Y-51053937D01*
X82303937Y-50909774D01*
X82417205Y-50740256D01*
X82495226Y-50551898D01*
X82535000Y-50351939D01*
X82535000Y-50148061D01*
X82495226Y-49948102D01*
X82417205Y-49759744D01*
X82303937Y-49590226D01*
X82159774Y-49446063D01*
X81990256Y-49332795D01*
X81801898Y-49254774D01*
X81601939Y-49215000D01*
X81398061Y-49215000D01*
X81198102Y-49254774D01*
X81009744Y-49332795D01*
X80840226Y-49446063D01*
X80696063Y-49590226D01*
X80582795Y-49759744D01*
X80504774Y-49948102D01*
X80465000Y-50148061D01*
X76974499Y-50148061D01*
X76917205Y-50009744D01*
X76803937Y-49840226D01*
X76659774Y-49696063D01*
X76490256Y-49582795D01*
X76301898Y-49504774D01*
X76101939Y-49465000D01*
X76035000Y-49465000D01*
X76035000Y-49398061D01*
X75995226Y-49198102D01*
X75917205Y-49009744D01*
X75803937Y-48840226D01*
X75659774Y-48696063D01*
X75490256Y-48582795D01*
X75301898Y-48504774D01*
X75101939Y-48465000D01*
X74898061Y-48465000D01*
X74698102Y-48504774D01*
X74509744Y-48582795D01*
X74340226Y-48696063D01*
X74196063Y-48840226D01*
X74082795Y-49009744D01*
X74004774Y-49198102D01*
X73965000Y-49398061D01*
X71724999Y-49398061D01*
X71724999Y-47709476D01*
X71903589Y-47745000D01*
X72176411Y-47745000D01*
X72443989Y-47691775D01*
X72696043Y-47587371D01*
X72922886Y-47435799D01*
X73115799Y-47242886D01*
X73267371Y-47016043D01*
X73310000Y-46913127D01*
X73352629Y-47016043D01*
X73504201Y-47242886D01*
X73697114Y-47435799D01*
X73923957Y-47587371D01*
X74176011Y-47691775D01*
X74443589Y-47745000D01*
X74716411Y-47745000D01*
X74983989Y-47691775D01*
X75236043Y-47587371D01*
X75462886Y-47435799D01*
X75655799Y-47242886D01*
X75807371Y-47016043D01*
X75850000Y-46913127D01*
X75892629Y-47016043D01*
X76044201Y-47242886D01*
X76237114Y-47435799D01*
X76463957Y-47587371D01*
X76716011Y-47691775D01*
X76983589Y-47745000D01*
X77256411Y-47745000D01*
X77523989Y-47691775D01*
X77776043Y-47587371D01*
X78002886Y-47435799D01*
X78195799Y-47242886D01*
X78347371Y-47016043D01*
X78390000Y-46913127D01*
X78432629Y-47016043D01*
X78584201Y-47242886D01*
X78777114Y-47435799D01*
X79003957Y-47587371D01*
X79256011Y-47691775D01*
X79523589Y-47745000D01*
X79796411Y-47745000D01*
X80063989Y-47691775D01*
X80316043Y-47587371D01*
X80542886Y-47435799D01*
X80735799Y-47242886D01*
X80887371Y-47016043D01*
X80991775Y-46763989D01*
X81045000Y-46496411D01*
X81045000Y-46223589D01*
X80991775Y-45956011D01*
X80887371Y-45703957D01*
X80735799Y-45477114D01*
X80542886Y-45284201D01*
X80316043Y-45132629D01*
X80063989Y-45028225D01*
X79796411Y-44975000D01*
X79523589Y-44975000D01*
X79256011Y-45028225D01*
X79003957Y-45132629D01*
X78777114Y-45284201D01*
X78584201Y-45477114D01*
X78432629Y-45703957D01*
X78390000Y-45806873D01*
X78347371Y-45703957D01*
X78195799Y-45477114D01*
X78002886Y-45284201D01*
X77776043Y-45132629D01*
X77523989Y-45028225D01*
X77256411Y-44975000D01*
X76983589Y-44975000D01*
X76716011Y-45028225D01*
X76463957Y-45132629D01*
X76237114Y-45284201D01*
X76044201Y-45477114D01*
X75892629Y-45703957D01*
X75850000Y-45806873D01*
X75807371Y-45703957D01*
X75655799Y-45477114D01*
X75462886Y-45284201D01*
X75236043Y-45132629D01*
X74983989Y-45028225D01*
X74716411Y-44975000D01*
X74443589Y-44975000D01*
X74176011Y-45028225D01*
X73923957Y-45132629D01*
X73697114Y-45284201D01*
X73504201Y-45477114D01*
X73352629Y-45703957D01*
X73310000Y-45806873D01*
X73267371Y-45703957D01*
X73115799Y-45477114D01*
X72922886Y-45284201D01*
X72696043Y-45132629D01*
X72443989Y-45028225D01*
X72176411Y-44975000D01*
X71903589Y-44975000D01*
X71724999Y-45010524D01*
X71724999Y-43173525D01*
X71740256Y-43167205D01*
X71909774Y-43053937D01*
X72053937Y-42909774D01*
X72167205Y-42740256D01*
X72245226Y-42551898D01*
X72285000Y-42351939D01*
X72285000Y-42148061D01*
X72245226Y-41948102D01*
X72167205Y-41759744D01*
X72158167Y-41746218D01*
X72292247Y-41705546D01*
X72424276Y-41634974D01*
X72540001Y-41540001D01*
X72563804Y-41510997D01*
X72933632Y-41141169D01*
X72946063Y-41159774D01*
X73090226Y-41303937D01*
X73259744Y-41417205D01*
X73448102Y-41495226D01*
X73648061Y-41535000D01*
X73851939Y-41535000D01*
X74051898Y-41495226D01*
X74240256Y-41417205D01*
X74409774Y-41303937D01*
X74553937Y-41159774D01*
X74667205Y-40990256D01*
X74745226Y-40801898D01*
X74785000Y-40601939D01*
X74785000Y-40510000D01*
X74962678Y-40510000D01*
X75000000Y-40513676D01*
X75037322Y-40510000D01*
X75037333Y-40510000D01*
X75148986Y-40499003D01*
X75292247Y-40455546D01*
X75424276Y-40384974D01*
X75540001Y-40290001D01*
X75563804Y-40260997D01*
X77631004Y-38193798D01*
X77660001Y-38170001D01*
X77754974Y-38054276D01*
X77825546Y-37922247D01*
X77869003Y-37778986D01*
X77880000Y-37667333D01*
X77880000Y-37667325D01*
X77883676Y-37630000D01*
X77880000Y-37592675D01*
X77880000Y-37357909D01*
X78002886Y-37275799D01*
X78195799Y-37082886D01*
X78347371Y-36856043D01*
X78390000Y-36753127D01*
X78432629Y-36856043D01*
X78584201Y-37082886D01*
X78777114Y-37275799D01*
X79003957Y-37427371D01*
X79256011Y-37531775D01*
X79523589Y-37585000D01*
X79796411Y-37585000D01*
X80063989Y-37531775D01*
X80316043Y-37427371D01*
X80542886Y-37275799D01*
X80735799Y-37082886D01*
X80887371Y-36856043D01*
X80991775Y-36603989D01*
X81045000Y-36336411D01*
X81045000Y-36063589D01*
X80991775Y-35796011D01*
X80887371Y-35543957D01*
X80735799Y-35317114D01*
X80542886Y-35124201D01*
X80420000Y-35042091D01*
X80420000Y-34197333D01*
X80423677Y-34160000D01*
X80409003Y-34011014D01*
X80365546Y-33867753D01*
X80294974Y-33735724D01*
X80223799Y-33648997D01*
X80200001Y-33619999D01*
X80171003Y-33596201D01*
X78563804Y-31989003D01*
X78540001Y-31959999D01*
X78424276Y-31865026D01*
X78292247Y-31794454D01*
X78148986Y-31750997D01*
X78037333Y-31740000D01*
X78037322Y-31740000D01*
X78000000Y-31736324D01*
X77962678Y-31740000D01*
X52787333Y-31740000D01*
X52750000Y-31736323D01*
X52712667Y-31740000D01*
X52601014Y-31750997D01*
X52457753Y-31794454D01*
X52325724Y-31865026D01*
X52209999Y-31959999D01*
X52186201Y-31988997D01*
X49539003Y-34636196D01*
X49509999Y-34659999D01*
X49477171Y-34700001D01*
X49415026Y-34775724D01*
X49367015Y-34865546D01*
X49344454Y-34907754D01*
X49307188Y-35030606D01*
X49167114Y-35124201D01*
X48974201Y-35317114D01*
X48822629Y-35543957D01*
X48780000Y-35646873D01*
X48737371Y-35543957D01*
X48585799Y-35317114D01*
X48392886Y-35124201D01*
X48166043Y-34972629D01*
X47913989Y-34868225D01*
X47646411Y-34815000D01*
X47373589Y-34815000D01*
X47106011Y-34868225D01*
X46853957Y-34972629D01*
X46627114Y-35124201D01*
X46434201Y-35317114D01*
X46282629Y-35543957D01*
X46240000Y-35646873D01*
X46197371Y-35543957D01*
X46045799Y-35317114D01*
X45852886Y-35124201D01*
X45626043Y-34972629D01*
X45373989Y-34868225D01*
X45106411Y-34815000D01*
X44833589Y-34815000D01*
X44566011Y-34868225D01*
X44313957Y-34972629D01*
X44087114Y-35124201D01*
X43894201Y-35317114D01*
X43742629Y-35543957D01*
X43700000Y-35646873D01*
X43657371Y-35543957D01*
X43505799Y-35317114D01*
X43312886Y-35124201D01*
X43086043Y-34972629D01*
X42833989Y-34868225D01*
X42566411Y-34815000D01*
X42293589Y-34815000D01*
X42026011Y-34868225D01*
X41773957Y-34972629D01*
X41547114Y-35124201D01*
X41354201Y-35317114D01*
X41202629Y-35543957D01*
X41160000Y-35646873D01*
X41117371Y-35543957D01*
X40965799Y-35317114D01*
X40772886Y-35124201D01*
X40546043Y-34972629D01*
X40293989Y-34868225D01*
X40026411Y-34815000D01*
X39753589Y-34815000D01*
X39486011Y-34868225D01*
X39233957Y-34972629D01*
X39007114Y-35124201D01*
X38814201Y-35317114D01*
X38662629Y-35543957D01*
X38620000Y-35646873D01*
X38577371Y-35543957D01*
X38425799Y-35317114D01*
X38232886Y-35124201D01*
X38006043Y-34972629D01*
X37753989Y-34868225D01*
X37486411Y-34815000D01*
X37213589Y-34815000D01*
X36946011Y-34868225D01*
X36693957Y-34972629D01*
X36467114Y-35124201D01*
X36274201Y-35317114D01*
X36122629Y-35543957D01*
X36018225Y-35796011D01*
X35965000Y-36063589D01*
X35965000Y-36336411D01*
X36018225Y-36603989D01*
X36122629Y-36856043D01*
X36274201Y-37082886D01*
X36467114Y-37275799D01*
X36693957Y-37427371D01*
X36946011Y-37531775D01*
X37213589Y-37585000D01*
X37486411Y-37585000D01*
X37753989Y-37531775D01*
X38006043Y-37427371D01*
X38232886Y-37275799D01*
X38425799Y-37082886D01*
X38577371Y-36856043D01*
X38620000Y-36753127D01*
X38662629Y-36856043D01*
X38814201Y-37082886D01*
X39007114Y-37275799D01*
X39233957Y-37427371D01*
X39486011Y-37531775D01*
X39753589Y-37585000D01*
X40026411Y-37585000D01*
X40293989Y-37531775D01*
X40546043Y-37427371D01*
X40772886Y-37275799D01*
X40965799Y-37082886D01*
X41117371Y-36856043D01*
X41160000Y-36753127D01*
X41202629Y-36856043D01*
X41354201Y-37082886D01*
X41547114Y-37275799D01*
X41773957Y-37427371D01*
X42026011Y-37531775D01*
X42293589Y-37585000D01*
X42566411Y-37585000D01*
X42711365Y-37556167D01*
X44895198Y-39740000D01*
X40525910Y-39740000D01*
X40488587Y-39736324D01*
X40451264Y-39740000D01*
X40451255Y-39740000D01*
X40339602Y-39750997D01*
X40196341Y-39794454D01*
X40064312Y-39865026D01*
X39948587Y-39959999D01*
X39924789Y-39988997D01*
X34763997Y-45149790D01*
X34734999Y-45173588D01*
X34711201Y-45202586D01*
X34711200Y-45202587D01*
X34640025Y-45289313D01*
X34569453Y-45421343D01*
X34525997Y-45564604D01*
X34511323Y-45713589D01*
X34515000Y-45750921D01*
X34514999Y-57737677D01*
X34511323Y-57774999D01*
X34514999Y-57812321D01*
X34514999Y-57812331D01*
X34525996Y-57923984D01*
X34552011Y-58009744D01*
X34565053Y-58052739D01*
X34357640Y-58001450D01*
X34085108Y-57988888D01*
X33815362Y-58029735D01*
X33558768Y-58122423D01*
X33445737Y-58182840D01*
X33380212Y-58421707D01*
X32271122Y-58421707D01*
X32285000Y-58351939D01*
X32285000Y-58148061D01*
X32245226Y-57948102D01*
X32167205Y-57759744D01*
X32053937Y-57590226D01*
X31909774Y-57446063D01*
X31740256Y-57332795D01*
X31551898Y-57254774D01*
X31351939Y-57215000D01*
X31148061Y-57215000D01*
X30948102Y-57254774D01*
X30759744Y-57332795D01*
X30590226Y-57446063D01*
X30446063Y-57590226D01*
X30332795Y-57759744D01*
X30254774Y-57948102D01*
X30215000Y-58148061D01*
X26710000Y-58148061D01*
X26710000Y-50898061D01*
X29465000Y-50898061D01*
X29465000Y-51101939D01*
X29504774Y-51301898D01*
X29582795Y-51490256D01*
X29696063Y-51659774D01*
X29840226Y-51803937D01*
X30009744Y-51917205D01*
X30198102Y-51995226D01*
X30245372Y-52004628D01*
X30254774Y-52051898D01*
X30332795Y-52240256D01*
X30446063Y-52409774D01*
X30590226Y-52553937D01*
X30759744Y-52667205D01*
X30948102Y-52745226D01*
X31148061Y-52785000D01*
X31351939Y-52785000D01*
X31551898Y-52745226D01*
X31740256Y-52667205D01*
X31909774Y-52553937D01*
X32053937Y-52409774D01*
X32167205Y-52240256D01*
X32245226Y-52051898D01*
X32285000Y-51851939D01*
X32285000Y-51648061D01*
X32245226Y-51448102D01*
X32167205Y-51259744D01*
X32053937Y-51090226D01*
X31909774Y-50946063D01*
X31740256Y-50832795D01*
X31551898Y-50754774D01*
X31504628Y-50745372D01*
X31495226Y-50698102D01*
X31417205Y-50509744D01*
X31303937Y-50340226D01*
X31159774Y-50196063D01*
X30990256Y-50082795D01*
X30801898Y-50004774D01*
X30601939Y-49965000D01*
X30398061Y-49965000D01*
X30198102Y-50004774D01*
X30009744Y-50082795D01*
X29840226Y-50196063D01*
X29696063Y-50340226D01*
X29582795Y-50509744D01*
X29504774Y-50698102D01*
X29465000Y-50898061D01*
X26710000Y-50898061D01*
X26710000Y-33034721D01*
X26737907Y-32750101D01*
X26810484Y-32509715D01*
X26928368Y-32288009D01*
X27087068Y-32093423D01*
X27280545Y-31933365D01*
X27501424Y-31813936D01*
X27741297Y-31739683D01*
X28023716Y-31710000D01*
X88965279Y-31710000D01*
X89249899Y-31737907D01*
%TA.AperFunction,Conductor*%
D20*
G36*
X89249899Y-31737907D02*
G01*
X89490285Y-31810484D01*
X89711991Y-31928368D01*
X89906577Y-32087068D01*
X90066635Y-32280545D01*
X90186064Y-32501424D01*
X90260317Y-32741297D01*
X90290000Y-33023716D01*
X90290001Y-73965269D01*
X90262093Y-74249899D01*
X90189517Y-74490282D01*
X90071633Y-74711989D01*
X89912929Y-74906580D01*
X89719455Y-75066635D01*
X89498576Y-75186064D01*
X89258701Y-75260317D01*
X88976291Y-75290000D01*
X65034446Y-75290000D01*
X65201282Y-75256814D01*
X65457885Y-75150525D01*
X65688822Y-74996218D01*
X65885218Y-74799822D01*
X66039525Y-74568885D01*
X66145814Y-74312282D01*
X66200000Y-74039873D01*
X66200000Y-73762127D01*
X66145814Y-73489718D01*
X66039525Y-73233115D01*
X65885218Y-73002178D01*
X65768040Y-72885000D01*
X65885218Y-72767822D01*
X66039525Y-72536885D01*
X66145814Y-72280282D01*
X66200000Y-72007873D01*
X66200000Y-71730127D01*
X66145814Y-71457718D01*
X66039525Y-71201115D01*
X65885218Y-70970178D01*
X65688822Y-70773782D01*
X65457885Y-70619475D01*
X65201282Y-70513186D01*
X64928873Y-70459000D01*
X64651127Y-70459000D01*
X64503245Y-70488416D01*
X64495226Y-70448102D01*
X64417205Y-70259744D01*
X64303937Y-70090226D01*
X64159774Y-69946063D01*
X63997922Y-69837917D01*
X71349688Y-69837917D01*
X71436393Y-70094653D01*
X71713223Y-70228048D01*
X72010757Y-70304873D01*
X72317562Y-70322176D01*
X72621848Y-70279292D01*
X72911921Y-70177868D01*
X73067607Y-70094653D01*
X73154312Y-69837917D01*
X83849688Y-69837917D01*
X83936393Y-70094653D01*
X84213223Y-70228048D01*
X84510757Y-70304873D01*
X84817562Y-70322176D01*
X85121848Y-70279292D01*
X85411921Y-70177868D01*
X85567607Y-70094653D01*
X85654312Y-69837917D01*
X84752000Y-68935605D01*
X83849688Y-69837917D01*
X73154312Y-69837917D01*
X72252000Y-68935605D01*
X71349688Y-69837917D01*
X63997922Y-69837917D01*
X63990256Y-69832795D01*
X63801898Y-69754774D01*
X63601939Y-69715000D01*
X63398061Y-69715000D01*
X63198102Y-69754774D01*
X63009744Y-69832795D01*
X62840226Y-69946063D01*
X62696063Y-70090226D01*
X62582795Y-70259744D01*
X62504774Y-70448102D01*
X62465000Y-70648061D01*
X62465000Y-70851939D01*
X62504774Y-71051898D01*
X62582795Y-71240256D01*
X62696063Y-71409774D01*
X62840226Y-71553937D01*
X63009744Y-71667205D01*
X63198102Y-71745226D01*
X63380000Y-71781407D01*
X63380000Y-72007873D01*
X63434186Y-72280282D01*
X63540475Y-72536885D01*
X63694782Y-72767822D01*
X63811960Y-72885000D01*
X63694782Y-73002178D01*
X63540475Y-73233115D01*
X63434186Y-73489718D01*
X63380000Y-73762127D01*
X63380000Y-74039873D01*
X63434186Y-74312282D01*
X63540475Y-74568885D01*
X63694782Y-74799822D01*
X63891178Y-74996218D01*
X64122115Y-75150525D01*
X64378718Y-75256814D01*
X64545554Y-75290000D01*
X62383967Y-75290000D01*
X62417205Y-75240256D01*
X62495226Y-75051898D01*
X62535000Y-74851939D01*
X62535000Y-74648061D01*
X62495226Y-74448102D01*
X62417205Y-74259744D01*
X62303937Y-74090226D01*
X62159774Y-73946063D01*
X61990256Y-73832795D01*
X61801898Y-73754774D01*
X61601939Y-73715000D01*
X61398061Y-73715000D01*
X61198102Y-73754774D01*
X61009744Y-73832795D01*
X60840226Y-73946063D01*
X60696063Y-74090226D01*
X60582795Y-74259744D01*
X60504774Y-74448102D01*
X60465000Y-74648061D01*
X60465000Y-74851939D01*
X60504774Y-75051898D01*
X60582795Y-75240256D01*
X60616033Y-75290000D01*
X28034721Y-75290000D01*
X27750101Y-75262093D01*
X27509718Y-75189517D01*
X27288011Y-75071633D01*
X27093420Y-74912929D01*
X26933365Y-74719455D01*
X26813936Y-74498576D01*
X26739683Y-74258701D01*
X26710000Y-73976291D01*
X26710000Y-72148061D01*
X49465000Y-72148061D01*
X49465000Y-72351939D01*
X49504774Y-72551898D01*
X49582795Y-72740256D01*
X49696063Y-72909774D01*
X49840226Y-73053937D01*
X50009744Y-73167205D01*
X50198102Y-73245226D01*
X50398061Y-73285000D01*
X50601939Y-73285000D01*
X50801898Y-73245226D01*
X50990256Y-73167205D01*
X51159774Y-73053937D01*
X51303937Y-72909774D01*
X51417205Y-72740256D01*
X51495226Y-72551898D01*
X51535000Y-72351939D01*
X51535000Y-72148061D01*
X51495226Y-71948102D01*
X51417205Y-71759744D01*
X51303937Y-71590226D01*
X51159774Y-71446063D01*
X50990256Y-71332795D01*
X50801898Y-71254774D01*
X50601939Y-71215000D01*
X50398061Y-71215000D01*
X50198102Y-71254774D01*
X50009744Y-71332795D01*
X49840226Y-71446063D01*
X49696063Y-71590226D01*
X49582795Y-71759744D01*
X49504774Y-71948102D01*
X49465000Y-72148061D01*
X26710000Y-72148061D01*
X26710000Y-70660714D01*
X57702347Y-70660714D01*
X57702347Y-70864592D01*
X57742121Y-71064551D01*
X57820142Y-71252909D01*
X57933410Y-71422427D01*
X58077573Y-71566590D01*
X58247091Y-71679858D01*
X58435449Y-71757879D01*
X58635408Y-71797653D01*
X58803307Y-71797653D01*
X58614782Y-71986178D01*
X58460475Y-72217115D01*
X58354186Y-72473718D01*
X58300000Y-72746127D01*
X58300000Y-73023873D01*
X58354186Y-73296282D01*
X58460475Y-73552885D01*
X58614782Y-73783822D01*
X58811178Y-73980218D01*
X59042115Y-74134525D01*
X59298718Y-74240814D01*
X59571127Y-74295000D01*
X59848873Y-74295000D01*
X60121282Y-74240814D01*
X60377885Y-74134525D01*
X60608822Y-73980218D01*
X60805218Y-73783822D01*
X60959525Y-73552885D01*
X61065814Y-73296282D01*
X61120000Y-73023873D01*
X61120000Y-72746127D01*
X61065814Y-72473718D01*
X60959525Y-72217115D01*
X60805218Y-71986178D01*
X60608822Y-71789782D01*
X60377885Y-71635475D01*
X60121282Y-71529186D01*
X59848873Y-71475000D01*
X59571127Y-71475000D01*
X59468247Y-71495464D01*
X59541284Y-71422427D01*
X59654552Y-71252909D01*
X59732573Y-71064551D01*
X59772347Y-70864592D01*
X59772347Y-70660714D01*
X59769831Y-70648061D01*
X60215000Y-70648061D01*
X60215000Y-70851939D01*
X60254774Y-71051898D01*
X60332795Y-71240256D01*
X60446063Y-71409774D01*
X60590226Y-71553937D01*
X60759744Y-71667205D01*
X60948102Y-71745226D01*
X61148061Y-71785000D01*
X61351939Y-71785000D01*
X61551898Y-71745226D01*
X61740256Y-71667205D01*
X61909774Y-71553937D01*
X62053937Y-71409774D01*
X62167205Y-71240256D01*
X62245226Y-71051898D01*
X62285000Y-70851939D01*
X62285000Y-70648061D01*
X62245226Y-70448102D01*
X62167205Y-70259744D01*
X62053937Y-70090226D01*
X61909774Y-69946063D01*
X61740256Y-69832795D01*
X61551898Y-69754774D01*
X61351939Y-69715000D01*
X61148061Y-69715000D01*
X60948102Y-69754774D01*
X60759744Y-69832795D01*
X60590226Y-69946063D01*
X60446063Y-70090226D01*
X60332795Y-70259744D01*
X60254774Y-70448102D01*
X60215000Y-70648061D01*
X59769831Y-70648061D01*
X59732573Y-70460755D01*
X59654552Y-70272397D01*
X59541284Y-70102879D01*
X59397121Y-69958716D01*
X59227603Y-69845448D01*
X59039245Y-69767427D01*
X58839286Y-69727653D01*
X58635408Y-69727653D01*
X58435449Y-69767427D01*
X58247091Y-69845448D01*
X58077573Y-69958716D01*
X57933410Y-70102879D01*
X57820142Y-70272397D01*
X57742121Y-70460755D01*
X57702347Y-70660714D01*
X26710000Y-70660714D01*
X26710000Y-69837917D01*
X31349688Y-69837917D01*
X31436393Y-70094653D01*
X31713223Y-70228048D01*
X32010757Y-70304873D01*
X32317562Y-70322176D01*
X32621848Y-70279292D01*
X32911921Y-70177868D01*
X33067607Y-70094653D01*
X33154312Y-69837917D01*
X43849688Y-69837917D01*
X43936393Y-70094653D01*
X44213223Y-70228048D01*
X44510757Y-70304873D01*
X44817562Y-70322176D01*
X45121848Y-70279292D01*
X45411921Y-70177868D01*
X45567607Y-70094653D01*
X45654312Y-69837917D01*
X44752000Y-68935605D01*
X43849688Y-69837917D01*
X33154312Y-69837917D01*
X32252000Y-68935605D01*
X31349688Y-69837917D01*
X26710000Y-69837917D01*
X26710000Y-68821562D01*
X30685824Y-68821562D01*
X30728708Y-69125848D01*
X30830132Y-69415921D01*
X30913347Y-69571607D01*
X31170083Y-69658312D01*
X32072395Y-68756000D01*
X32431605Y-68756000D01*
X33333917Y-69658312D01*
X33590653Y-69571607D01*
X33724048Y-69294777D01*
X33800873Y-68997243D01*
X33810780Y-68821562D01*
X43185824Y-68821562D01*
X43228708Y-69125848D01*
X43330132Y-69415921D01*
X43413347Y-69571607D01*
X43670083Y-69658312D01*
X44572395Y-68756000D01*
X44931605Y-68756000D01*
X45833917Y-69658312D01*
X46090653Y-69571607D01*
X46224048Y-69294777D01*
X46261930Y-69148061D01*
X49715000Y-69148061D01*
X49715000Y-69351939D01*
X49754774Y-69551898D01*
X49832795Y-69740256D01*
X49946063Y-69909774D01*
X50090226Y-70053937D01*
X50259744Y-70167205D01*
X50448102Y-70245226D01*
X50648061Y-70285000D01*
X50851939Y-70285000D01*
X51051898Y-70245226D01*
X51240256Y-70167205D01*
X51409774Y-70053937D01*
X51553937Y-69909774D01*
X51667205Y-69740256D01*
X51745226Y-69551898D01*
X51785000Y-69351939D01*
X51785000Y-69148061D01*
X51745226Y-68948102D01*
X51692812Y-68821562D01*
X70685824Y-68821562D01*
X70728708Y-69125848D01*
X70830132Y-69415921D01*
X70913347Y-69571607D01*
X71170083Y-69658312D01*
X72072395Y-68756000D01*
X72431605Y-68756000D01*
X73333917Y-69658312D01*
X73590653Y-69571607D01*
X73724048Y-69294777D01*
X73800873Y-68997243D01*
X73810780Y-68821562D01*
X83185824Y-68821562D01*
X83228708Y-69125848D01*
X83330132Y-69415921D01*
X83413347Y-69571607D01*
X83670083Y-69658312D01*
X84572395Y-68756000D01*
X84931605Y-68756000D01*
X85833917Y-69658312D01*
X86090653Y-69571607D01*
X86224048Y-69294777D01*
X86300873Y-68997243D01*
X86318176Y-68690438D01*
X86275292Y-68386152D01*
X86173868Y-68096079D01*
X86090653Y-67940393D01*
X85833917Y-67853688D01*
X84931605Y-68756000D01*
X84572395Y-68756000D01*
X83670083Y-67853688D01*
X83413347Y-67940393D01*
X83279952Y-68217223D01*
X83203127Y-68514757D01*
X83185824Y-68821562D01*
X73810780Y-68821562D01*
X73818176Y-68690438D01*
X73775292Y-68386152D01*
X73673868Y-68096079D01*
X73590653Y-67940393D01*
X73333917Y-67853688D01*
X72431605Y-68756000D01*
X72072395Y-68756000D01*
X71170083Y-67853688D01*
X70913347Y-67940393D01*
X70779952Y-68217223D01*
X70703127Y-68514757D01*
X70685824Y-68821562D01*
X51692812Y-68821562D01*
X51667205Y-68759744D01*
X51553937Y-68590226D01*
X51409774Y-68446063D01*
X51240256Y-68332795D01*
X51051898Y-68254774D01*
X50851939Y-68215000D01*
X50648061Y-68215000D01*
X50448102Y-68254774D01*
X50259744Y-68332795D01*
X50090226Y-68446063D01*
X49946063Y-68590226D01*
X49832795Y-68759744D01*
X49754774Y-68948102D01*
X49715000Y-69148061D01*
X46261930Y-69148061D01*
X46300873Y-68997243D01*
X46318176Y-68690438D01*
X46275292Y-68386152D01*
X46173868Y-68096079D01*
X46090653Y-67940393D01*
X45833917Y-67853688D01*
X44931605Y-68756000D01*
X44572395Y-68756000D01*
X43670083Y-67853688D01*
X43413347Y-67940393D01*
X43279952Y-68217223D01*
X43203127Y-68514757D01*
X43185824Y-68821562D01*
X33810780Y-68821562D01*
X33818176Y-68690438D01*
X33775292Y-68386152D01*
X33673868Y-68096079D01*
X33590653Y-67940393D01*
X33333917Y-67853688D01*
X32431605Y-68756000D01*
X32072395Y-68756000D01*
X31170083Y-67853688D01*
X30913347Y-67940393D01*
X30779952Y-68217223D01*
X30703127Y-68514757D01*
X30685824Y-68821562D01*
X26710000Y-68821562D01*
X26710000Y-67674083D01*
X31349688Y-67674083D01*
X32252000Y-68576395D01*
X33154312Y-67674083D01*
X43849688Y-67674083D01*
X44752000Y-68576395D01*
X45654312Y-67674083D01*
X71349688Y-67674083D01*
X72252000Y-68576395D01*
X73154312Y-67674083D01*
X83849688Y-67674083D01*
X84752000Y-68576395D01*
X85654312Y-67674083D01*
X85567607Y-67417347D01*
X85290777Y-67283952D01*
X84993243Y-67207127D01*
X84686438Y-67189824D01*
X84382152Y-67232708D01*
X84092079Y-67334132D01*
X83936393Y-67417347D01*
X83849688Y-67674083D01*
X73154312Y-67674083D01*
X73067607Y-67417347D01*
X72790777Y-67283952D01*
X72493243Y-67207127D01*
X72186438Y-67189824D01*
X71882152Y-67232708D01*
X71592079Y-67334132D01*
X71436393Y-67417347D01*
X71349688Y-67674083D01*
X45654312Y-67674083D01*
X45567607Y-67417347D01*
X45290777Y-67283952D01*
X44993243Y-67207127D01*
X44686438Y-67189824D01*
X44382152Y-67232708D01*
X44092079Y-67334132D01*
X43936393Y-67417347D01*
X43849688Y-67674083D01*
X33154312Y-67674083D01*
X33067607Y-67417347D01*
X32790777Y-67283952D01*
X32493243Y-67207127D01*
X32186438Y-67189824D01*
X31882152Y-67232708D01*
X31592079Y-67334132D01*
X31436393Y-67417347D01*
X31349688Y-67674083D01*
X26710000Y-67674083D01*
X26710000Y-64102353D01*
X30692000Y-64102353D01*
X30692000Y-64409647D01*
X30751950Y-64711035D01*
X30869546Y-64994937D01*
X31040269Y-65250442D01*
X31257558Y-65467731D01*
X31513063Y-65638454D01*
X31796965Y-65756050D01*
X32098353Y-65816000D01*
X32405647Y-65816000D01*
X32707035Y-65756050D01*
X32990937Y-65638454D01*
X33246442Y-65467731D01*
X33463731Y-65250442D01*
X33634454Y-64994937D01*
X33752050Y-64711035D01*
X33812000Y-64409647D01*
X33812000Y-64102353D01*
X43192000Y-64102353D01*
X43192000Y-64409647D01*
X43251950Y-64711035D01*
X43369546Y-64994937D01*
X43540269Y-65250442D01*
X43757558Y-65467731D01*
X44013063Y-65638454D01*
X44296965Y-65756050D01*
X44598353Y-65816000D01*
X44905647Y-65816000D01*
X45207035Y-65756050D01*
X45490937Y-65638454D01*
X45746442Y-65467731D01*
X45816112Y-65398061D01*
X49715000Y-65398061D01*
X49715000Y-65601939D01*
X49754774Y-65801898D01*
X49832795Y-65990256D01*
X49946063Y-66159774D01*
X50090226Y-66303937D01*
X50259744Y-66417205D01*
X50448102Y-66495226D01*
X50648061Y-66535000D01*
X50851939Y-66535000D01*
X51051898Y-66495226D01*
X51240256Y-66417205D01*
X51409774Y-66303937D01*
X51553937Y-66159774D01*
X51667205Y-65990256D01*
X51745226Y-65801898D01*
X51785000Y-65601939D01*
X51785000Y-65398061D01*
X51745226Y-65198102D01*
X51667205Y-65009744D01*
X51553937Y-64840226D01*
X51409774Y-64696063D01*
X51240256Y-64582795D01*
X51051898Y-64504774D01*
X50851939Y-64465000D01*
X50648061Y-64465000D01*
X50448102Y-64504774D01*
X50259744Y-64582795D01*
X50090226Y-64696063D01*
X49946063Y-64840226D01*
X49832795Y-65009744D01*
X49754774Y-65198102D01*
X49715000Y-65398061D01*
X45816112Y-65398061D01*
X45963731Y-65250442D01*
X46134454Y-64994937D01*
X46252050Y-64711035D01*
X46312000Y-64409647D01*
X46312000Y-64102353D01*
X46252050Y-63800965D01*
X46134454Y-63517063D01*
X45963731Y-63261558D01*
X45746442Y-63044269D01*
X45490937Y-62873546D01*
X45207035Y-62755950D01*
X44905647Y-62696000D01*
X44598353Y-62696000D01*
X44296965Y-62755950D01*
X44013063Y-62873546D01*
X43757558Y-63044269D01*
X43540269Y-63261558D01*
X43369546Y-63517063D01*
X43251950Y-63800965D01*
X43192000Y-64102353D01*
X33812000Y-64102353D01*
X33752050Y-63800965D01*
X33634454Y-63517063D01*
X33463731Y-63261558D01*
X33246442Y-63044269D01*
X32990937Y-62873546D01*
X32707035Y-62755950D01*
X32405647Y-62696000D01*
X32098353Y-62696000D01*
X31796965Y-62755950D01*
X31513063Y-62873546D01*
X31257558Y-63044269D01*
X31040269Y-63261558D01*
X30869546Y-63517063D01*
X30751950Y-63800965D01*
X30692000Y-64102353D01*
X26710000Y-64102353D01*
X26710000Y-61148061D01*
X44965000Y-61148061D01*
X44965000Y-61351939D01*
X45004774Y-61551898D01*
X45082795Y-61740256D01*
X45196063Y-61909774D01*
X45340226Y-62053937D01*
X45509744Y-62167205D01*
X45698102Y-62245226D01*
X45898061Y-62285000D01*
X46101939Y-62285000D01*
X46301898Y-62245226D01*
X46490256Y-62167205D01*
X46659774Y-62053937D01*
X46803937Y-61909774D01*
X46917205Y-61740256D01*
X46995226Y-61551898D01*
X47035000Y-61351939D01*
X47035000Y-61148061D01*
X46995226Y-60948102D01*
X46917205Y-60759744D01*
X46803937Y-60590226D01*
X46763477Y-60549766D01*
X49237039Y-60549766D01*
X49338839Y-60819279D01*
X49636977Y-60965163D01*
X49957846Y-61050080D01*
X50289117Y-61070766D01*
X50618057Y-61026428D01*
X50932027Y-60918769D01*
X51118161Y-60819279D01*
X51219961Y-60549766D01*
X50228500Y-59558305D01*
X49237039Y-60549766D01*
X46763477Y-60549766D01*
X46659774Y-60446063D01*
X46490256Y-60332795D01*
X46301898Y-60254774D01*
X46101939Y-60215000D01*
X45898061Y-60215000D01*
X45698102Y-60254774D01*
X45509744Y-60332795D01*
X45340226Y-60446063D01*
X45196063Y-60590226D01*
X45082795Y-60759744D01*
X45004774Y-60948102D01*
X44965000Y-61148061D01*
X26710000Y-61148061D01*
X26710000Y-60335693D01*
X33380212Y-60335693D01*
X33445737Y-60574560D01*
X33692716Y-60690460D01*
X33957560Y-60755950D01*
X34230092Y-60768512D01*
X34499838Y-60727665D01*
X34756432Y-60634977D01*
X34869463Y-60574560D01*
X34934988Y-60335693D01*
X34157600Y-59558305D01*
X33380212Y-60335693D01*
X26710000Y-60335693D01*
X26710000Y-59451192D01*
X32767788Y-59451192D01*
X32808635Y-59720938D01*
X32901323Y-59977532D01*
X32961740Y-60090563D01*
X33200607Y-60156088D01*
X33977995Y-59378700D01*
X33200607Y-58601312D01*
X32961740Y-58666837D01*
X32845840Y-58913816D01*
X32780350Y-59178660D01*
X32767788Y-59451192D01*
X26710000Y-59451192D01*
X26710000Y-58148061D01*
X30215000Y-58148061D01*
X30215000Y-58351939D01*
X30254774Y-58551898D01*
X30332795Y-58740256D01*
X30446063Y-58909774D01*
X30590226Y-59053937D01*
X30759744Y-59167205D01*
X30948102Y-59245226D01*
X31148061Y-59285000D01*
X31351939Y-59285000D01*
X31551898Y-59245226D01*
X31740256Y-59167205D01*
X31909774Y-59053937D01*
X32053937Y-58909774D01*
X32167205Y-58740256D01*
X32245226Y-58551898D01*
X32271122Y-58421707D01*
X33380212Y-58421707D01*
X34157600Y-59199095D01*
X34171743Y-59184953D01*
X34351348Y-59364558D01*
X34337205Y-59378700D01*
X35114593Y-60156088D01*
X35353460Y-60090563D01*
X35469360Y-59843584D01*
X35534850Y-59578740D01*
X35547412Y-59306208D01*
X35540975Y-59263699D01*
X35648061Y-59285000D01*
X35851939Y-59285000D01*
X36051898Y-59245226D01*
X36058988Y-59242289D01*
X40372600Y-59242289D01*
X40372600Y-59515111D01*
X40425825Y-59782689D01*
X40530229Y-60034743D01*
X40681801Y-60261586D01*
X40874714Y-60454499D01*
X41101557Y-60606071D01*
X41353611Y-60710475D01*
X41621189Y-60763700D01*
X41894011Y-60763700D01*
X42161589Y-60710475D01*
X42413643Y-60606071D01*
X42640486Y-60454499D01*
X42833399Y-60261586D01*
X42984971Y-60034743D01*
X43089375Y-59782689D01*
X43142600Y-59515111D01*
X43142600Y-59439317D01*
X48536434Y-59439317D01*
X48580772Y-59768257D01*
X48688431Y-60082227D01*
X48787921Y-60268361D01*
X49057434Y-60370161D01*
X50048895Y-59378700D01*
X49057434Y-58387239D01*
X48787921Y-58489039D01*
X48642037Y-58787177D01*
X48557120Y-59108046D01*
X48536434Y-59439317D01*
X43142600Y-59439317D01*
X43142600Y-59242289D01*
X43089375Y-58974711D01*
X42984971Y-58722657D01*
X42833399Y-58495814D01*
X42640486Y-58302901D01*
X42413643Y-58151329D01*
X42161589Y-58046925D01*
X41894011Y-57993700D01*
X41621189Y-57993700D01*
X41353611Y-58046925D01*
X41101557Y-58151329D01*
X40874714Y-58302901D01*
X40681801Y-58495814D01*
X40530229Y-58722657D01*
X40425825Y-58974711D01*
X40372600Y-59242289D01*
X36058988Y-59242289D01*
X36240256Y-59167205D01*
X36409774Y-59053937D01*
X36553937Y-58909774D01*
X36667205Y-58740256D01*
X36745226Y-58551898D01*
X36785000Y-58351939D01*
X36785000Y-58148061D01*
X36756400Y-58004276D01*
X36801898Y-57995226D01*
X36990256Y-57917205D01*
X37159774Y-57803937D01*
X37303937Y-57659774D01*
X37417205Y-57490256D01*
X37495226Y-57301898D01*
X37535000Y-57101939D01*
X37535000Y-57024226D01*
X37605545Y-56892248D01*
X37649002Y-56748987D01*
X37659999Y-56637334D01*
X37659999Y-56637324D01*
X37663675Y-56600002D01*
X37659999Y-56562679D01*
X37659999Y-51648061D01*
X40715000Y-51648061D01*
X40715000Y-51851939D01*
X40754774Y-52051898D01*
X40832795Y-52240256D01*
X40946063Y-52409774D01*
X41090226Y-52553937D01*
X41259744Y-52667205D01*
X41448102Y-52745226D01*
X41648061Y-52785000D01*
X41851939Y-52785000D01*
X42051898Y-52745226D01*
X42240256Y-52667205D01*
X42409774Y-52553937D01*
X42553937Y-52409774D01*
X42667205Y-52240256D01*
X42745226Y-52051898D01*
X42785000Y-51851939D01*
X42785000Y-51648061D01*
X42745226Y-51448102D01*
X42667205Y-51259744D01*
X42553937Y-51090226D01*
X42409774Y-50946063D01*
X42240256Y-50832795D01*
X42051898Y-50754774D01*
X41851939Y-50715000D01*
X41648061Y-50715000D01*
X41448102Y-50754774D01*
X41259744Y-50832795D01*
X41090226Y-50946063D01*
X40946063Y-51090226D01*
X40832795Y-51259744D01*
X40754774Y-51448102D01*
X40715000Y-51648061D01*
X37659999Y-51648061D01*
X37659999Y-49437321D01*
X37663675Y-49399998D01*
X37659999Y-49362675D01*
X37659999Y-49362666D01*
X37649002Y-49251013D01*
X37617773Y-49148061D01*
X41465000Y-49148061D01*
X41465000Y-49351939D01*
X41504774Y-49551898D01*
X41582795Y-49740256D01*
X41696063Y-49909774D01*
X41840226Y-50053937D01*
X42009744Y-50167205D01*
X42198102Y-50245226D01*
X42398061Y-50285000D01*
X42601939Y-50285000D01*
X42801898Y-50245226D01*
X42990256Y-50167205D01*
X43159774Y-50053937D01*
X43303937Y-49909774D01*
X43417205Y-49740256D01*
X43495226Y-49551898D01*
X43535000Y-49351939D01*
X43535000Y-49148061D01*
X43495226Y-48948102D01*
X43417205Y-48759744D01*
X43303937Y-48590226D01*
X43159774Y-48446063D01*
X42990256Y-48332795D01*
X42801898Y-48254774D01*
X42601939Y-48215000D01*
X42398061Y-48215000D01*
X42198102Y-48254774D01*
X42009744Y-48332795D01*
X41840226Y-48446063D01*
X41696063Y-48590226D01*
X41582795Y-48759744D01*
X41504774Y-48948102D01*
X41465000Y-49148061D01*
X37617773Y-49148061D01*
X37605545Y-49107752D01*
X37534973Y-48975723D01*
X37506210Y-48940675D01*
X37463798Y-48888995D01*
X37463794Y-48888991D01*
X37440000Y-48859998D01*
X37411007Y-48836204D01*
X37034999Y-48460197D01*
X37034999Y-47748072D01*
X38100000Y-47748072D01*
X38224482Y-47735812D01*
X38344180Y-47699502D01*
X38454494Y-47640537D01*
X38551185Y-47561185D01*
X38630537Y-47464494D01*
X38689502Y-47354180D01*
X38725812Y-47234482D01*
X38736445Y-47126517D01*
X38814201Y-47242886D01*
X39007114Y-47435799D01*
X39233957Y-47587371D01*
X39486011Y-47691775D01*
X39753589Y-47745000D01*
X40026411Y-47745000D01*
X40293989Y-47691775D01*
X40546043Y-47587371D01*
X40772886Y-47435799D01*
X40965799Y-47242886D01*
X41117371Y-47016043D01*
X41160000Y-46913127D01*
X41202629Y-47016043D01*
X41354201Y-47242886D01*
X41547114Y-47435799D01*
X41773957Y-47587371D01*
X42026011Y-47691775D01*
X42293589Y-47745000D01*
X42566411Y-47745000D01*
X42833989Y-47691775D01*
X43086043Y-47587371D01*
X43312886Y-47435799D01*
X43505799Y-47242886D01*
X43657371Y-47016043D01*
X43700000Y-46913127D01*
X43742629Y-47016043D01*
X43894201Y-47242886D01*
X44087114Y-47435799D01*
X44210001Y-47517909D01*
X44210000Y-50682677D01*
X44206324Y-50720000D01*
X44210000Y-50757322D01*
X44210000Y-50757332D01*
X44220997Y-50868985D01*
X44257784Y-50990256D01*
X44264454Y-51012246D01*
X44335026Y-51144276D01*
X44353844Y-51167205D01*
X44429999Y-51260001D01*
X44459003Y-51283804D01*
X51108679Y-57933481D01*
X50820023Y-57792237D01*
X50499154Y-57707320D01*
X50167883Y-57686634D01*
X49838943Y-57730972D01*
X49524973Y-57838631D01*
X49338839Y-57938121D01*
X49237039Y-58207634D01*
X50228500Y-59199095D01*
X50242643Y-59184953D01*
X50422248Y-59364558D01*
X50408105Y-59378700D01*
X51399566Y-60370161D01*
X51669079Y-60268361D01*
X51814963Y-59970223D01*
X51899880Y-59649354D01*
X51920566Y-59318083D01*
X51876228Y-58989143D01*
X51768569Y-58675173D01*
X51674639Y-58499442D01*
X54215000Y-61039803D01*
X54215000Y-61101939D01*
X54254774Y-61301898D01*
X54332795Y-61490256D01*
X54446063Y-61659774D01*
X54590226Y-61803937D01*
X54759744Y-61917205D01*
X54948102Y-61995226D01*
X55148061Y-62035000D01*
X55351939Y-62035000D01*
X55551898Y-61995226D01*
X55740256Y-61917205D01*
X55909774Y-61803937D01*
X56053937Y-61659774D01*
X56167205Y-61490256D01*
X56245226Y-61301898D01*
X56285000Y-61101939D01*
X56285000Y-60898061D01*
X56245226Y-60698102D01*
X56167205Y-60509744D01*
X56053937Y-60340226D01*
X55909774Y-60196063D01*
X55740256Y-60082795D01*
X55551898Y-60004774D01*
X55351939Y-59965000D01*
X55289803Y-59965000D01*
X48741305Y-53416504D01*
X48909774Y-53303937D01*
X49053937Y-53159774D01*
X49167205Y-52990256D01*
X49245226Y-52801898D01*
X49285000Y-52601939D01*
X49285000Y-52398061D01*
X49245226Y-52198102D01*
X49167205Y-52009744D01*
X49053937Y-51840226D01*
X48909774Y-51696063D01*
X48740256Y-51582795D01*
X48634612Y-51539035D01*
X48667205Y-51490256D01*
X48745226Y-51301898D01*
X48785000Y-51101939D01*
X48785000Y-50898061D01*
X48745226Y-50698102D01*
X48667205Y-50509744D01*
X48553937Y-50340226D01*
X48409774Y-50196063D01*
X48240256Y-50082795D01*
X48051898Y-50004774D01*
X47851939Y-49965000D01*
X47648061Y-49965000D01*
X47448102Y-50004774D01*
X47259744Y-50082795D01*
X47090226Y-50196063D01*
X46946063Y-50340226D01*
X46832795Y-50509744D01*
X46754774Y-50698102D01*
X46715000Y-50898061D01*
X46715000Y-51101939D01*
X46754774Y-51301898D01*
X46832795Y-51490256D01*
X46868513Y-51543711D01*
X45730000Y-50405199D01*
X45730000Y-47517909D01*
X45852886Y-47435799D01*
X46045799Y-47242886D01*
X46197371Y-47016043D01*
X46240000Y-46913127D01*
X46282629Y-47016043D01*
X46434201Y-47242886D01*
X46627114Y-47435799D01*
X46853957Y-47587371D01*
X47106011Y-47691775D01*
X47373589Y-47745000D01*
X47646411Y-47745000D01*
X47913989Y-47691775D01*
X48166043Y-47587371D01*
X48392886Y-47435799D01*
X48585799Y-47242886D01*
X48737371Y-47016043D01*
X48780000Y-46913127D01*
X48822629Y-47016043D01*
X48974201Y-47242886D01*
X49167114Y-47435799D01*
X49393957Y-47587371D01*
X49646011Y-47691775D01*
X49913589Y-47745000D01*
X50186411Y-47745000D01*
X50453989Y-47691775D01*
X50706043Y-47587371D01*
X50932886Y-47435799D01*
X51125799Y-47242886D01*
X51277371Y-47016043D01*
X51381775Y-46763989D01*
X51435000Y-46496411D01*
X51435000Y-46223589D01*
X51412236Y-46109148D01*
X51446063Y-46159774D01*
X51490001Y-46203712D01*
X51490000Y-48139675D01*
X51486324Y-48176998D01*
X51490000Y-48214320D01*
X51490000Y-48214330D01*
X51500997Y-48325983D01*
X51523142Y-48398985D01*
X51544454Y-48469244D01*
X51615026Y-48601274D01*
X51654871Y-48649824D01*
X51709999Y-48716999D01*
X51739003Y-48740802D01*
X52267245Y-49269044D01*
X52196063Y-49340226D01*
X52082795Y-49509744D01*
X52004774Y-49698102D01*
X51965000Y-49898061D01*
X51965000Y-50101939D01*
X52004774Y-50301898D01*
X52082795Y-50490256D01*
X52196063Y-50659774D01*
X52340226Y-50803937D01*
X52509744Y-50917205D01*
X52698102Y-50995226D01*
X52898061Y-51035000D01*
X53101939Y-51035000D01*
X53301898Y-50995226D01*
X53490256Y-50917205D01*
X53659774Y-50803937D01*
X53730956Y-50732755D01*
X58240000Y-55241800D01*
X58240000Y-55712667D01*
X58236323Y-55750000D01*
X58250997Y-55898986D01*
X58294454Y-56042247D01*
X58365026Y-56174276D01*
X58423253Y-56245226D01*
X58459999Y-56290001D01*
X58575724Y-56384974D01*
X58707753Y-56455546D01*
X58851014Y-56499003D01*
X59000000Y-56513677D01*
X59037333Y-56510000D01*
X61796289Y-56510000D01*
X61840226Y-56553937D01*
X62009744Y-56667205D01*
X62198102Y-56745226D01*
X62398061Y-56785000D01*
X62601939Y-56785000D01*
X62801898Y-56745226D01*
X62990256Y-56667205D01*
X63159774Y-56553937D01*
X63303937Y-56409774D01*
X63417205Y-56240256D01*
X63495226Y-56051898D01*
X63535000Y-55851939D01*
X63535000Y-55648061D01*
X63495226Y-55448102D01*
X63417205Y-55259744D01*
X63303937Y-55090226D01*
X63159774Y-54946063D01*
X62990256Y-54832795D01*
X62801898Y-54754774D01*
X62601939Y-54715000D01*
X62398061Y-54715000D01*
X62198102Y-54754774D01*
X62009744Y-54832795D01*
X61840226Y-54946063D01*
X61796289Y-54990000D01*
X59760000Y-54990000D01*
X59760000Y-54964331D01*
X59763677Y-54926998D01*
X59749003Y-54778012D01*
X59705546Y-54634751D01*
X59634974Y-54502722D01*
X59563799Y-54415995D01*
X59540001Y-54386997D01*
X59511003Y-54363199D01*
X58169388Y-53021584D01*
X58301898Y-52995226D01*
X58490256Y-52917205D01*
X58659774Y-52803937D01*
X58803937Y-52659774D01*
X58917205Y-52490256D01*
X58995226Y-52301898D01*
X59035000Y-52101939D01*
X59035000Y-51898061D01*
X58995226Y-51698102D01*
X58917205Y-51509744D01*
X58803937Y-51340226D01*
X58659774Y-51196063D01*
X58490256Y-51082795D01*
X58301898Y-51004774D01*
X58101939Y-50965000D01*
X57898061Y-50965000D01*
X57698102Y-51004774D01*
X57509744Y-51082795D01*
X57340226Y-51196063D01*
X57196063Y-51340226D01*
X57082795Y-51509744D01*
X57004774Y-51698102D01*
X56978416Y-51830613D01*
X53010000Y-47862197D01*
X53010000Y-46203711D01*
X53053937Y-46159774D01*
X53167205Y-45990256D01*
X53245226Y-45801898D01*
X53285000Y-45601939D01*
X53285000Y-45398061D01*
X53245226Y-45198102D01*
X53167205Y-45009744D01*
X53053937Y-44840226D01*
X52909774Y-44696063D01*
X52740256Y-44582795D01*
X52551898Y-44504774D01*
X52351939Y-44465000D01*
X52148061Y-44465000D01*
X51948102Y-44504774D01*
X51759744Y-44582795D01*
X51590226Y-44696063D01*
X51446063Y-44840226D01*
X51332795Y-45009744D01*
X51254774Y-45198102D01*
X51215000Y-45398061D01*
X51215000Y-45601939D01*
X51217457Y-45614289D01*
X51125799Y-45477114D01*
X50932886Y-45284201D01*
X50706043Y-45132629D01*
X50453989Y-45028225D01*
X50186411Y-44975000D01*
X49913589Y-44975000D01*
X49646011Y-45028225D01*
X49393957Y-45132629D01*
X49167114Y-45284201D01*
X48974201Y-45477114D01*
X48822629Y-45703957D01*
X48780000Y-45806873D01*
X48737371Y-45703957D01*
X48585799Y-45477114D01*
X48392886Y-45284201D01*
X48270000Y-45202091D01*
X48270000Y-44554801D01*
X48289801Y-44535000D01*
X48351939Y-44535000D01*
X48551898Y-44495226D01*
X48740256Y-44417205D01*
X48909774Y-44303937D01*
X49053937Y-44159774D01*
X49167205Y-43990256D01*
X49245226Y-43801898D01*
X49285000Y-43601939D01*
X49285000Y-43398061D01*
X49256927Y-43256927D01*
X49398061Y-43285000D01*
X49460198Y-43285000D01*
X49509202Y-43334004D01*
X49533001Y-43363003D01*
X49648726Y-43457976D01*
X49780755Y-43528548D01*
X49924016Y-43572005D01*
X50035669Y-43583002D01*
X50035678Y-43583002D01*
X50073001Y-43586678D01*
X50110324Y-43583002D01*
X52685199Y-43583002D01*
X64264578Y-55162383D01*
X64214172Y-55196063D01*
X64070009Y-55340226D01*
X63956741Y-55509744D01*
X63878720Y-55698102D01*
X63838946Y-55898061D01*
X63838946Y-55995553D01*
X62525886Y-57308614D01*
X57992480Y-57308614D01*
X57956385Y-57305059D01*
X57920290Y-57308614D01*
X57920281Y-57308614D01*
X57812301Y-57319249D01*
X57673753Y-57361277D01*
X57546066Y-57429527D01*
X57503724Y-57464277D01*
X53985000Y-53945554D01*
X53985000Y-53228711D01*
X54053937Y-53159774D01*
X54167205Y-52990256D01*
X54245226Y-52801898D01*
X54285000Y-52601939D01*
X54285000Y-52398061D01*
X54245226Y-52198102D01*
X54167205Y-52009744D01*
X54053937Y-51840226D01*
X53909774Y-51696063D01*
X53740256Y-51582795D01*
X53551898Y-51504774D01*
X53351939Y-51465000D01*
X53148061Y-51465000D01*
X52948102Y-51504774D01*
X52759744Y-51582795D01*
X52590226Y-51696063D01*
X52446063Y-51840226D01*
X52332795Y-52009744D01*
X52254774Y-52198102D01*
X52215000Y-52398061D01*
X52215000Y-52601939D01*
X52254774Y-52801898D01*
X52332795Y-52990256D01*
X52446063Y-53159774D01*
X52515000Y-53228711D01*
X52515001Y-54213885D01*
X52511444Y-54250000D01*
X52525635Y-54394085D01*
X52563620Y-54519301D01*
X52567664Y-54532633D01*
X52635914Y-54660320D01*
X52727763Y-54772238D01*
X52755808Y-54795254D01*
X56465000Y-58504447D01*
X56465000Y-58601939D01*
X56504774Y-58801898D01*
X56582795Y-58990256D01*
X56696063Y-59159774D01*
X56840226Y-59303937D01*
X57009744Y-59417205D01*
X57115388Y-59460965D01*
X57082795Y-59509744D01*
X57004774Y-59698102D01*
X56965000Y-59898061D01*
X56965000Y-59995554D01*
X56755808Y-60204746D01*
X56727763Y-60227762D01*
X56635913Y-60339680D01*
X56567663Y-60467367D01*
X56525635Y-60605915D01*
X56511444Y-60750000D01*
X56515000Y-60786105D01*
X56515000Y-61213895D01*
X56511444Y-61250000D01*
X56519139Y-61328127D01*
X56525635Y-61394084D01*
X56567663Y-61532632D01*
X56635913Y-61660319D01*
X56727762Y-61772237D01*
X56755808Y-61795254D01*
X58954746Y-63994193D01*
X58977762Y-64022238D01*
X59005806Y-64045253D01*
X59089680Y-64114087D01*
X59217366Y-64182337D01*
X59355915Y-64224365D01*
X59500000Y-64238556D01*
X59536105Y-64235000D01*
X61753459Y-64235000D01*
X61720025Y-64403086D01*
X61720025Y-64606964D01*
X61749150Y-64753387D01*
X61609774Y-64614011D01*
X61440256Y-64500743D01*
X61251898Y-64422722D01*
X61051939Y-64382948D01*
X60848061Y-64382948D01*
X60648102Y-64422722D01*
X60459744Y-64500743D01*
X60290226Y-64614011D01*
X60146063Y-64758174D01*
X60032795Y-64927692D01*
X59954774Y-65116050D01*
X59925302Y-65264218D01*
X59785739Y-65322028D01*
X59659774Y-65196063D01*
X59490256Y-65082795D01*
X59301898Y-65004774D01*
X59101939Y-64965000D01*
X58898061Y-64965000D01*
X58698102Y-65004774D01*
X58509744Y-65082795D01*
X58340226Y-65196063D01*
X58196063Y-65340226D01*
X58082795Y-65509744D01*
X58004774Y-65698102D01*
X57965000Y-65898061D01*
X57965000Y-66101939D01*
X58004774Y-66301898D01*
X58082795Y-66490256D01*
X58196063Y-66659774D01*
X58340226Y-66803937D01*
X58509744Y-66917205D01*
X58698102Y-66995226D01*
X58898061Y-67035000D01*
X59101939Y-67035000D01*
X59301898Y-66995226D01*
X59464261Y-66927972D01*
X59590226Y-67053937D01*
X59759744Y-67167205D01*
X59948102Y-67245226D01*
X60148061Y-67285000D01*
X60351939Y-67285000D01*
X60551898Y-67245226D01*
X60740256Y-67167205D01*
X60909774Y-67053937D01*
X61053937Y-66909774D01*
X61167205Y-66740256D01*
X61245226Y-66551898D01*
X61274698Y-66403730D01*
X61440256Y-66335153D01*
X61609774Y-66221885D01*
X61753937Y-66077722D01*
X61867205Y-65908204D01*
X61945226Y-65719846D01*
X61985000Y-65519887D01*
X61985000Y-65316009D01*
X61955875Y-65169586D01*
X62095251Y-65308962D01*
X62264769Y-65422230D01*
X62453127Y-65500251D01*
X62653086Y-65540025D01*
X62856964Y-65540025D01*
X63056923Y-65500251D01*
X63245281Y-65422230D01*
X63414799Y-65308962D01*
X63558962Y-65164799D01*
X63672230Y-64995281D01*
X63750251Y-64806923D01*
X63790025Y-64606964D01*
X63790025Y-64403086D01*
X63756591Y-64235000D01*
X64801289Y-64235000D01*
X64696063Y-64340226D01*
X64582795Y-64509744D01*
X64504774Y-64698102D01*
X64465000Y-64898061D01*
X64465000Y-65001413D01*
X64448102Y-65004774D01*
X64259744Y-65082795D01*
X64090226Y-65196063D01*
X63946063Y-65340226D01*
X63832795Y-65509744D01*
X63754774Y-65698102D01*
X63715000Y-65898061D01*
X63715000Y-66101939D01*
X63754774Y-66301898D01*
X63832795Y-66490256D01*
X63946063Y-66659774D01*
X64090226Y-66803937D01*
X64259744Y-66917205D01*
X64448102Y-66995226D01*
X64648061Y-67035000D01*
X64851939Y-67035000D01*
X65051898Y-66995226D01*
X65240256Y-66917205D01*
X65409774Y-66803937D01*
X65553937Y-66659774D01*
X65667205Y-66490256D01*
X65745226Y-66301898D01*
X65785000Y-66101939D01*
X65785000Y-65998587D01*
X65801898Y-65995226D01*
X65990256Y-65917205D01*
X66159774Y-65803937D01*
X66303937Y-65659774D01*
X66417205Y-65490256D01*
X66495226Y-65301898D01*
X66535000Y-65101939D01*
X66535000Y-64898061D01*
X66495226Y-64698102D01*
X66417205Y-64509744D01*
X66303937Y-64340226D01*
X66159774Y-64196063D01*
X66019527Y-64102353D01*
X70692000Y-64102353D01*
X70692000Y-64409647D01*
X70751950Y-64711035D01*
X70869546Y-64994937D01*
X71040269Y-65250442D01*
X71257558Y-65467731D01*
X71513063Y-65638454D01*
X71796965Y-65756050D01*
X72098353Y-65816000D01*
X72405647Y-65816000D01*
X72707035Y-65756050D01*
X72990937Y-65638454D01*
X73246442Y-65467731D01*
X73463731Y-65250442D01*
X73634454Y-64994937D01*
X73752050Y-64711035D01*
X73812000Y-64409647D01*
X73812000Y-64148061D01*
X74215000Y-64148061D01*
X74215000Y-64351939D01*
X74254774Y-64551898D01*
X74332795Y-64740256D01*
X74446063Y-64909774D01*
X74590226Y-65053937D01*
X74759744Y-65167205D01*
X74948102Y-65245226D01*
X75148061Y-65285000D01*
X75351939Y-65285000D01*
X75551898Y-65245226D01*
X75740256Y-65167205D01*
X75909774Y-65053937D01*
X76053937Y-64909774D01*
X76167205Y-64740256D01*
X76245226Y-64551898D01*
X76285000Y-64351939D01*
X76285000Y-64148061D01*
X76275909Y-64102353D01*
X83192000Y-64102353D01*
X83192000Y-64409647D01*
X83251950Y-64711035D01*
X83369546Y-64994937D01*
X83540269Y-65250442D01*
X83757558Y-65467731D01*
X84013063Y-65638454D01*
X84296965Y-65756050D01*
X84598353Y-65816000D01*
X84905647Y-65816000D01*
X85207035Y-65756050D01*
X85490937Y-65638454D01*
X85746442Y-65467731D01*
X85963731Y-65250442D01*
X86134454Y-64994937D01*
X86252050Y-64711035D01*
X86312000Y-64409647D01*
X86312000Y-64102353D01*
X86252050Y-63800965D01*
X86134454Y-63517063D01*
X85963731Y-63261558D01*
X85746442Y-63044269D01*
X85490937Y-62873546D01*
X85207035Y-62755950D01*
X84905647Y-62696000D01*
X84598353Y-62696000D01*
X84296965Y-62755950D01*
X84013063Y-62873546D01*
X83757558Y-63044269D01*
X83540269Y-63261558D01*
X83369546Y-63517063D01*
X83251950Y-63800965D01*
X83192000Y-64102353D01*
X76275909Y-64102353D01*
X76245226Y-63948102D01*
X76167205Y-63759744D01*
X76053937Y-63590226D01*
X75909774Y-63446063D01*
X75740256Y-63332795D01*
X75551898Y-63254774D01*
X75351939Y-63215000D01*
X75148061Y-63215000D01*
X74948102Y-63254774D01*
X74759744Y-63332795D01*
X74590226Y-63446063D01*
X74446063Y-63590226D01*
X74332795Y-63759744D01*
X74254774Y-63948102D01*
X74215000Y-64148061D01*
X73812000Y-64148061D01*
X73812000Y-64102353D01*
X73752050Y-63800965D01*
X73634454Y-63517063D01*
X73463731Y-63261558D01*
X73246442Y-63044269D01*
X72990937Y-62873546D01*
X72707035Y-62755950D01*
X72405647Y-62696000D01*
X72098353Y-62696000D01*
X71796965Y-62755950D01*
X71513063Y-62873546D01*
X71257558Y-63044269D01*
X71040269Y-63261558D01*
X70869546Y-63517063D01*
X70751950Y-63800965D01*
X70692000Y-64102353D01*
X66019527Y-64102353D01*
X65990256Y-64082795D01*
X65801898Y-64004774D01*
X65601939Y-63965000D01*
X65499446Y-63965000D01*
X65754446Y-63710000D01*
X65851939Y-63710000D01*
X66051898Y-63670226D01*
X66240256Y-63592205D01*
X66409774Y-63478937D01*
X66553937Y-63334774D01*
X66667205Y-63165256D01*
X66745226Y-62976898D01*
X66785000Y-62776939D01*
X66785000Y-62573061D01*
X66745226Y-62373102D01*
X66667205Y-62184744D01*
X66553937Y-62015226D01*
X66409774Y-61871063D01*
X66240256Y-61757795D01*
X66051898Y-61679774D01*
X65851939Y-61640000D01*
X65648061Y-61640000D01*
X65448102Y-61679774D01*
X65259744Y-61757795D01*
X65236822Y-61773111D01*
X65159774Y-61696063D01*
X64990256Y-61582795D01*
X64801898Y-61504774D01*
X64601939Y-61465000D01*
X64398061Y-61465000D01*
X64198102Y-61504774D01*
X64009744Y-61582795D01*
X64000000Y-61589306D01*
X63990256Y-61582795D01*
X63801898Y-61504774D01*
X63601939Y-61465000D01*
X63398061Y-61465000D01*
X63198102Y-61504774D01*
X63009744Y-61582795D01*
X62840226Y-61696063D01*
X62750000Y-61786289D01*
X62659774Y-61696063D01*
X62490256Y-61582795D01*
X62301898Y-61504774D01*
X62101939Y-61465000D01*
X61898061Y-61465000D01*
X61698102Y-61504774D01*
X61509744Y-61582795D01*
X61340226Y-61696063D01*
X61196063Y-61840226D01*
X61082795Y-62009744D01*
X61004774Y-62198102D01*
X60965000Y-62398061D01*
X60965000Y-62601939D01*
X60997435Y-62765000D01*
X59804447Y-62765000D01*
X59376579Y-62337132D01*
X59423912Y-62289799D01*
X59537180Y-62120281D01*
X59615201Y-61931923D01*
X59654975Y-61731964D01*
X59654975Y-61528086D01*
X59615201Y-61328127D01*
X59537180Y-61139769D01*
X59423912Y-60970251D01*
X59279749Y-60826088D01*
X59110231Y-60712820D01*
X58921873Y-60634799D01*
X58832503Y-60617022D01*
X58917205Y-60490256D01*
X58995226Y-60301898D01*
X59035000Y-60101939D01*
X59035000Y-59998587D01*
X59051898Y-59995226D01*
X59240256Y-59917205D01*
X59409774Y-59803937D01*
X59553937Y-59659774D01*
X59667205Y-59490256D01*
X59745226Y-59301898D01*
X59785000Y-59101939D01*
X59785000Y-58898061D01*
X59761241Y-58778614D01*
X60708615Y-58778614D01*
X60708615Y-58845554D01*
X60748389Y-59045513D01*
X60826410Y-59233871D01*
X60939678Y-59403389D01*
X61083841Y-59547552D01*
X61253359Y-59660820D01*
X61441717Y-59738841D01*
X61641676Y-59778615D01*
X61845554Y-59778615D01*
X62045513Y-59738841D01*
X62233871Y-59660820D01*
X62403389Y-59547552D01*
X62447326Y-59503615D01*
X67219063Y-59503615D01*
X67256385Y-59507291D01*
X67293707Y-59503615D01*
X67293718Y-59503615D01*
X67405371Y-59492618D01*
X67548632Y-59449161D01*
X67680661Y-59378589D01*
X67796386Y-59283616D01*
X67820189Y-59254612D01*
X67862059Y-59212742D01*
X68543500Y-59212742D01*
X68543500Y-59544658D01*
X68608254Y-59870196D01*
X68735272Y-60176847D01*
X68919675Y-60452825D01*
X69154375Y-60687525D01*
X69430353Y-60871928D01*
X69737004Y-60998946D01*
X70062542Y-61063700D01*
X70394458Y-61063700D01*
X70719996Y-60998946D01*
X71026647Y-60871928D01*
X71302625Y-60687525D01*
X71537325Y-60452825D01*
X71721728Y-60176847D01*
X71848746Y-59870196D01*
X71913500Y-59544658D01*
X71913500Y-59212742D01*
X71848746Y-58887204D01*
X71721728Y-58580553D01*
X71537325Y-58304575D01*
X71302625Y-58069875D01*
X71026647Y-57885472D01*
X70719996Y-57758454D01*
X70394458Y-57693700D01*
X70062542Y-57693700D01*
X69737004Y-57758454D01*
X69430353Y-57885472D01*
X69154375Y-58069875D01*
X68919675Y-58304575D01*
X68735272Y-58580553D01*
X68608254Y-58887204D01*
X68543500Y-59212742D01*
X67862059Y-59212742D01*
X69511004Y-57563798D01*
X69540001Y-57540001D01*
X69617094Y-57446063D01*
X69634974Y-57424277D01*
X69705546Y-57292247D01*
X69728978Y-57215000D01*
X69749003Y-57148986D01*
X69760000Y-57037333D01*
X69760000Y-57037323D01*
X69763676Y-57000000D01*
X69760000Y-56962678D01*
X69760000Y-54049446D01*
X73715000Y-58004447D01*
X73715000Y-58101939D01*
X73754774Y-58301898D01*
X73832795Y-58490256D01*
X73946063Y-58659774D01*
X74090226Y-58803937D01*
X74259744Y-58917205D01*
X74448102Y-58995226D01*
X74648061Y-59035000D01*
X74851939Y-59035000D01*
X75051898Y-58995226D01*
X75240256Y-58917205D01*
X75409774Y-58803937D01*
X75553937Y-58659774D01*
X75667205Y-58490256D01*
X75745226Y-58301898D01*
X75785000Y-58101939D01*
X75785000Y-57898061D01*
X75745226Y-57698102D01*
X75667205Y-57509744D01*
X75553937Y-57340226D01*
X75409774Y-57196063D01*
X75240256Y-57082795D01*
X75051898Y-57004774D01*
X74851939Y-56965000D01*
X74754447Y-56965000D01*
X70735000Y-52945554D01*
X70735000Y-52309801D01*
X74215000Y-55789802D01*
X74215000Y-55851939D01*
X74254774Y-56051898D01*
X74332795Y-56240256D01*
X74446063Y-56409774D01*
X74590226Y-56553937D01*
X74759744Y-56667205D01*
X74948102Y-56745226D01*
X75148061Y-56785000D01*
X75351939Y-56785000D01*
X75551898Y-56745226D01*
X75740256Y-56667205D01*
X75909774Y-56553937D01*
X76053937Y-56409774D01*
X76167205Y-56240256D01*
X76245226Y-56051898D01*
X76285000Y-55851939D01*
X76285000Y-55648061D01*
X76245226Y-55448102D01*
X76167205Y-55259744D01*
X76092582Y-55148061D01*
X81465000Y-55148061D01*
X81465000Y-55351939D01*
X81504774Y-55551898D01*
X81582795Y-55740256D01*
X81696063Y-55909774D01*
X81840226Y-56053937D01*
X82009744Y-56167205D01*
X82198102Y-56245226D01*
X82398061Y-56285000D01*
X82601939Y-56285000D01*
X82801898Y-56245226D01*
X82990256Y-56167205D01*
X83159774Y-56053937D01*
X83303937Y-55909774D01*
X83417205Y-55740256D01*
X83495226Y-55551898D01*
X83535000Y-55351939D01*
X83535000Y-55148061D01*
X83495226Y-54948102D01*
X83417205Y-54759744D01*
X83303937Y-54590226D01*
X83159774Y-54446063D01*
X82990256Y-54332795D01*
X82801898Y-54254774D01*
X82601939Y-54215000D01*
X82398061Y-54215000D01*
X82198102Y-54254774D01*
X82009744Y-54332795D01*
X81840226Y-54446063D01*
X81696063Y-54590226D01*
X81582795Y-54759744D01*
X81504774Y-54948102D01*
X81465000Y-55148061D01*
X76092582Y-55148061D01*
X76053937Y-55090226D01*
X75909774Y-54946063D01*
X75740256Y-54832795D01*
X75551898Y-54754774D01*
X75351939Y-54715000D01*
X75289802Y-54715000D01*
X74489827Y-53915025D01*
X74651939Y-53915025D01*
X74851898Y-53875251D01*
X75040256Y-53797230D01*
X75209774Y-53683962D01*
X75353937Y-53539799D01*
X75467205Y-53370281D01*
X75545226Y-53181923D01*
X75585000Y-52981964D01*
X75585000Y-52778086D01*
X75545226Y-52578127D01*
X75467205Y-52389769D01*
X75353937Y-52220251D01*
X75209774Y-52076088D01*
X75040256Y-51962820D01*
X74851898Y-51884799D01*
X74651939Y-51845025D01*
X74448061Y-51845025D01*
X74248102Y-51884799D01*
X74059744Y-51962820D01*
X73890226Y-52076088D01*
X73746063Y-52220251D01*
X73632795Y-52389769D01*
X73554774Y-52578127D01*
X73515000Y-52778086D01*
X73515000Y-52940199D01*
X71724999Y-51150198D01*
X71724999Y-49398061D01*
X73965000Y-49398061D01*
X73965000Y-49601939D01*
X74004774Y-49801898D01*
X74082795Y-49990256D01*
X74196063Y-50159774D01*
X74340226Y-50303937D01*
X74509744Y-50417205D01*
X74698102Y-50495226D01*
X74898061Y-50535000D01*
X74965000Y-50535000D01*
X74965000Y-50601939D01*
X75004774Y-50801898D01*
X75082795Y-50990256D01*
X75196063Y-51159774D01*
X75340226Y-51303937D01*
X75509744Y-51417205D01*
X75698102Y-51495226D01*
X75898061Y-51535000D01*
X76101939Y-51535000D01*
X76301898Y-51495226D01*
X76490256Y-51417205D01*
X76659774Y-51303937D01*
X76803937Y-51159774D01*
X76917205Y-50990256D01*
X76995226Y-50801898D01*
X77035000Y-50601939D01*
X77035000Y-50398061D01*
X76995226Y-50198102D01*
X76974499Y-50148061D01*
X80465000Y-50148061D01*
X80465000Y-50351939D01*
X80504774Y-50551898D01*
X80582795Y-50740256D01*
X80696063Y-50909774D01*
X80840226Y-51053937D01*
X81009744Y-51167205D01*
X81198102Y-51245226D01*
X81398061Y-51285000D01*
X81601939Y-51285000D01*
X81801898Y-51245226D01*
X81990256Y-51167205D01*
X82159774Y-51053937D01*
X82303937Y-50909774D01*
X82417205Y-50740256D01*
X82495226Y-50551898D01*
X82535000Y-50351939D01*
X82535000Y-50148061D01*
X82495226Y-49948102D01*
X82417205Y-49759744D01*
X82303937Y-49590226D01*
X82159774Y-49446063D01*
X81990256Y-49332795D01*
X81801898Y-49254774D01*
X81601939Y-49215000D01*
X81398061Y-49215000D01*
X81198102Y-49254774D01*
X81009744Y-49332795D01*
X80840226Y-49446063D01*
X80696063Y-49590226D01*
X80582795Y-49759744D01*
X80504774Y-49948102D01*
X80465000Y-50148061D01*
X76974499Y-50148061D01*
X76917205Y-50009744D01*
X76803937Y-49840226D01*
X76659774Y-49696063D01*
X76490256Y-49582795D01*
X76301898Y-49504774D01*
X76101939Y-49465000D01*
X76035000Y-49465000D01*
X76035000Y-49398061D01*
X75995226Y-49198102D01*
X75917205Y-49009744D01*
X75803937Y-48840226D01*
X75659774Y-48696063D01*
X75490256Y-48582795D01*
X75301898Y-48504774D01*
X75101939Y-48465000D01*
X74898061Y-48465000D01*
X74698102Y-48504774D01*
X74509744Y-48582795D01*
X74340226Y-48696063D01*
X74196063Y-48840226D01*
X74082795Y-49009744D01*
X74004774Y-49198102D01*
X73965000Y-49398061D01*
X71724999Y-49398061D01*
X71724999Y-47709476D01*
X71903589Y-47745000D01*
X72176411Y-47745000D01*
X72443989Y-47691775D01*
X72696043Y-47587371D01*
X72922886Y-47435799D01*
X73115799Y-47242886D01*
X73267371Y-47016043D01*
X73310000Y-46913127D01*
X73352629Y-47016043D01*
X73504201Y-47242886D01*
X73697114Y-47435799D01*
X73923957Y-47587371D01*
X74176011Y-47691775D01*
X74443589Y-47745000D01*
X74716411Y-47745000D01*
X74983989Y-47691775D01*
X75236043Y-47587371D01*
X75462886Y-47435799D01*
X75655799Y-47242886D01*
X75807371Y-47016043D01*
X75850000Y-46913127D01*
X75892629Y-47016043D01*
X76044201Y-47242886D01*
X76237114Y-47435799D01*
X76463957Y-47587371D01*
X76716011Y-47691775D01*
X76983589Y-47745000D01*
X77256411Y-47745000D01*
X77523989Y-47691775D01*
X77776043Y-47587371D01*
X78002886Y-47435799D01*
X78195799Y-47242886D01*
X78347371Y-47016043D01*
X78390000Y-46913127D01*
X78432629Y-47016043D01*
X78584201Y-47242886D01*
X78777114Y-47435799D01*
X79003957Y-47587371D01*
X79256011Y-47691775D01*
X79523589Y-47745000D01*
X79796411Y-47745000D01*
X80063989Y-47691775D01*
X80316043Y-47587371D01*
X80542886Y-47435799D01*
X80735799Y-47242886D01*
X80887371Y-47016043D01*
X80991775Y-46763989D01*
X81045000Y-46496411D01*
X81045000Y-46223589D01*
X80991775Y-45956011D01*
X80887371Y-45703957D01*
X80735799Y-45477114D01*
X80542886Y-45284201D01*
X80316043Y-45132629D01*
X80063989Y-45028225D01*
X79796411Y-44975000D01*
X79523589Y-44975000D01*
X79256011Y-45028225D01*
X79003957Y-45132629D01*
X78777114Y-45284201D01*
X78584201Y-45477114D01*
X78432629Y-45703957D01*
X78390000Y-45806873D01*
X78347371Y-45703957D01*
X78195799Y-45477114D01*
X78002886Y-45284201D01*
X77776043Y-45132629D01*
X77523989Y-45028225D01*
X77256411Y-44975000D01*
X76983589Y-44975000D01*
X76716011Y-45028225D01*
X76463957Y-45132629D01*
X76237114Y-45284201D01*
X76044201Y-45477114D01*
X75892629Y-45703957D01*
X75850000Y-45806873D01*
X75807371Y-45703957D01*
X75655799Y-45477114D01*
X75462886Y-45284201D01*
X75236043Y-45132629D01*
X74983989Y-45028225D01*
X74716411Y-44975000D01*
X74443589Y-44975000D01*
X74176011Y-45028225D01*
X73923957Y-45132629D01*
X73697114Y-45284201D01*
X73504201Y-45477114D01*
X73352629Y-45703957D01*
X73310000Y-45806873D01*
X73267371Y-45703957D01*
X73115799Y-45477114D01*
X72922886Y-45284201D01*
X72696043Y-45132629D01*
X72443989Y-45028225D01*
X72176411Y-44975000D01*
X71903589Y-44975000D01*
X71724999Y-45010524D01*
X71724999Y-43173525D01*
X71740256Y-43167205D01*
X71909774Y-43053937D01*
X72053937Y-42909774D01*
X72167205Y-42740256D01*
X72245226Y-42551898D01*
X72285000Y-42351939D01*
X72285000Y-42148061D01*
X72245226Y-41948102D01*
X72167205Y-41759744D01*
X72158167Y-41746218D01*
X72292247Y-41705546D01*
X72424276Y-41634974D01*
X72540001Y-41540001D01*
X72563804Y-41510997D01*
X72933632Y-41141169D01*
X72946063Y-41159774D01*
X73090226Y-41303937D01*
X73259744Y-41417205D01*
X73448102Y-41495226D01*
X73648061Y-41535000D01*
X73851939Y-41535000D01*
X74051898Y-41495226D01*
X74240256Y-41417205D01*
X74409774Y-41303937D01*
X74553937Y-41159774D01*
X74667205Y-40990256D01*
X74745226Y-40801898D01*
X74785000Y-40601939D01*
X74785000Y-40510000D01*
X74962678Y-40510000D01*
X75000000Y-40513676D01*
X75037322Y-40510000D01*
X75037333Y-40510000D01*
X75148986Y-40499003D01*
X75292247Y-40455546D01*
X75424276Y-40384974D01*
X75540001Y-40290001D01*
X75563804Y-40260997D01*
X77631004Y-38193798D01*
X77660001Y-38170001D01*
X77754974Y-38054276D01*
X77825546Y-37922247D01*
X77869003Y-37778986D01*
X77880000Y-37667333D01*
X77880000Y-37667325D01*
X77883676Y-37630000D01*
X77880000Y-37592675D01*
X77880000Y-37357909D01*
X78002886Y-37275799D01*
X78195799Y-37082886D01*
X78347371Y-36856043D01*
X78390000Y-36753127D01*
X78432629Y-36856043D01*
X78584201Y-37082886D01*
X78777114Y-37275799D01*
X79003957Y-37427371D01*
X79256011Y-37531775D01*
X79523589Y-37585000D01*
X79796411Y-37585000D01*
X80063989Y-37531775D01*
X80316043Y-37427371D01*
X80542886Y-37275799D01*
X80735799Y-37082886D01*
X80887371Y-36856043D01*
X80991775Y-36603989D01*
X81045000Y-36336411D01*
X81045000Y-36063589D01*
X80991775Y-35796011D01*
X80887371Y-35543957D01*
X80735799Y-35317114D01*
X80542886Y-35124201D01*
X80420000Y-35042091D01*
X80420000Y-34197333D01*
X80423677Y-34160000D01*
X80409003Y-34011014D01*
X80365546Y-33867753D01*
X80294974Y-33735724D01*
X80223799Y-33648997D01*
X80200001Y-33619999D01*
X80171003Y-33596201D01*
X78563804Y-31989003D01*
X78540001Y-31959999D01*
X78424276Y-31865026D01*
X78292247Y-31794454D01*
X78148986Y-31750997D01*
X78037333Y-31740000D01*
X78037322Y-31740000D01*
X78000000Y-31736324D01*
X77962678Y-31740000D01*
X52787333Y-31740000D01*
X52750000Y-31736323D01*
X52712667Y-31740000D01*
X52601014Y-31750997D01*
X52457753Y-31794454D01*
X52325724Y-31865026D01*
X52209999Y-31959999D01*
X52186201Y-31988997D01*
X49539003Y-34636196D01*
X49509999Y-34659999D01*
X49477171Y-34700001D01*
X49415026Y-34775724D01*
X49367015Y-34865546D01*
X49344454Y-34907754D01*
X49307188Y-35030606D01*
X49167114Y-35124201D01*
X48974201Y-35317114D01*
X48822629Y-35543957D01*
X48780000Y-35646873D01*
X48737371Y-35543957D01*
X48585799Y-35317114D01*
X48392886Y-35124201D01*
X48166043Y-34972629D01*
X47913989Y-34868225D01*
X47646411Y-34815000D01*
X47373589Y-34815000D01*
X47106011Y-34868225D01*
X46853957Y-34972629D01*
X46627114Y-35124201D01*
X46434201Y-35317114D01*
X46282629Y-35543957D01*
X46240000Y-35646873D01*
X46197371Y-35543957D01*
X46045799Y-35317114D01*
X45852886Y-35124201D01*
X45626043Y-34972629D01*
X45373989Y-34868225D01*
X45106411Y-34815000D01*
X44833589Y-34815000D01*
X44566011Y-34868225D01*
X44313957Y-34972629D01*
X44087114Y-35124201D01*
X43894201Y-35317114D01*
X43742629Y-35543957D01*
X43700000Y-35646873D01*
X43657371Y-35543957D01*
X43505799Y-35317114D01*
X43312886Y-35124201D01*
X43086043Y-34972629D01*
X42833989Y-34868225D01*
X42566411Y-34815000D01*
X42293589Y-34815000D01*
X42026011Y-34868225D01*
X41773957Y-34972629D01*
X41547114Y-35124201D01*
X41354201Y-35317114D01*
X41202629Y-35543957D01*
X41160000Y-35646873D01*
X41117371Y-35543957D01*
X40965799Y-35317114D01*
X40772886Y-35124201D01*
X40546043Y-34972629D01*
X40293989Y-34868225D01*
X40026411Y-34815000D01*
X39753589Y-34815000D01*
X39486011Y-34868225D01*
X39233957Y-34972629D01*
X39007114Y-35124201D01*
X38814201Y-35317114D01*
X38662629Y-35543957D01*
X38620000Y-35646873D01*
X38577371Y-35543957D01*
X38425799Y-35317114D01*
X38232886Y-35124201D01*
X38006043Y-34972629D01*
X37753989Y-34868225D01*
X37486411Y-34815000D01*
X37213589Y-34815000D01*
X36946011Y-34868225D01*
X36693957Y-34972629D01*
X36467114Y-35124201D01*
X36274201Y-35317114D01*
X36122629Y-35543957D01*
X36018225Y-35796011D01*
X35965000Y-36063589D01*
X35965000Y-36336411D01*
X36018225Y-36603989D01*
X36122629Y-36856043D01*
X36274201Y-37082886D01*
X36467114Y-37275799D01*
X36693957Y-37427371D01*
X36946011Y-37531775D01*
X37213589Y-37585000D01*
X37486411Y-37585000D01*
X37753989Y-37531775D01*
X38006043Y-37427371D01*
X38232886Y-37275799D01*
X38425799Y-37082886D01*
X38577371Y-36856043D01*
X38620000Y-36753127D01*
X38662629Y-36856043D01*
X38814201Y-37082886D01*
X39007114Y-37275799D01*
X39233957Y-37427371D01*
X39486011Y-37531775D01*
X39753589Y-37585000D01*
X40026411Y-37585000D01*
X40293989Y-37531775D01*
X40546043Y-37427371D01*
X40772886Y-37275799D01*
X40965799Y-37082886D01*
X41117371Y-36856043D01*
X41160000Y-36753127D01*
X41202629Y-36856043D01*
X41354201Y-37082886D01*
X41547114Y-37275799D01*
X41773957Y-37427371D01*
X42026011Y-37531775D01*
X42293589Y-37585000D01*
X42566411Y-37585000D01*
X42711365Y-37556167D01*
X44895198Y-39740000D01*
X40525910Y-39740000D01*
X40488587Y-39736324D01*
X40451264Y-39740000D01*
X40451255Y-39740000D01*
X40339602Y-39750997D01*
X40196341Y-39794454D01*
X40064312Y-39865026D01*
X39948587Y-39959999D01*
X39924789Y-39988997D01*
X34763997Y-45149790D01*
X34734999Y-45173588D01*
X34711201Y-45202586D01*
X34711200Y-45202587D01*
X34640025Y-45289313D01*
X34569453Y-45421343D01*
X34525997Y-45564604D01*
X34511323Y-45713589D01*
X34515000Y-45750921D01*
X34514999Y-57737677D01*
X34511323Y-57774999D01*
X34514999Y-57812321D01*
X34514999Y-57812331D01*
X34525996Y-57923984D01*
X34552011Y-58009744D01*
X34565053Y-58052739D01*
X34357640Y-58001450D01*
X34085108Y-57988888D01*
X33815362Y-58029735D01*
X33558768Y-58122423D01*
X33445737Y-58182840D01*
X33380212Y-58421707D01*
X32271122Y-58421707D01*
X32285000Y-58351939D01*
X32285000Y-58148061D01*
X32245226Y-57948102D01*
X32167205Y-57759744D01*
X32053937Y-57590226D01*
X31909774Y-57446063D01*
X31740256Y-57332795D01*
X31551898Y-57254774D01*
X31351939Y-57215000D01*
X31148061Y-57215000D01*
X30948102Y-57254774D01*
X30759744Y-57332795D01*
X30590226Y-57446063D01*
X30446063Y-57590226D01*
X30332795Y-57759744D01*
X30254774Y-57948102D01*
X30215000Y-58148061D01*
X26710000Y-58148061D01*
X26710000Y-50898061D01*
X29465000Y-50898061D01*
X29465000Y-51101939D01*
X29504774Y-51301898D01*
X29582795Y-51490256D01*
X29696063Y-51659774D01*
X29840226Y-51803937D01*
X30009744Y-51917205D01*
X30198102Y-51995226D01*
X30245372Y-52004628D01*
X30254774Y-52051898D01*
X30332795Y-52240256D01*
X30446063Y-52409774D01*
X30590226Y-52553937D01*
X30759744Y-52667205D01*
X30948102Y-52745226D01*
X31148061Y-52785000D01*
X31351939Y-52785000D01*
X31551898Y-52745226D01*
X31740256Y-52667205D01*
X31909774Y-52553937D01*
X32053937Y-52409774D01*
X32167205Y-52240256D01*
X32245226Y-52051898D01*
X32285000Y-51851939D01*
X32285000Y-51648061D01*
X32245226Y-51448102D01*
X32167205Y-51259744D01*
X32053937Y-51090226D01*
X31909774Y-50946063D01*
X31740256Y-50832795D01*
X31551898Y-50754774D01*
X31504628Y-50745372D01*
X31495226Y-50698102D01*
X31417205Y-50509744D01*
X31303937Y-50340226D01*
X31159774Y-50196063D01*
X30990256Y-50082795D01*
X30801898Y-50004774D01*
X30601939Y-49965000D01*
X30398061Y-49965000D01*
X30198102Y-50004774D01*
X30009744Y-50082795D01*
X29840226Y-50196063D01*
X29696063Y-50340226D01*
X29582795Y-50509744D01*
X29504774Y-50698102D01*
X29465000Y-50898061D01*
X26710000Y-50898061D01*
X26710000Y-33034721D01*
X26737907Y-32750101D01*
X26810484Y-32509715D01*
X26928368Y-32288009D01*
X27087068Y-32093423D01*
X27280545Y-31933365D01*
X27501424Y-31813936D01*
X27741297Y-31739683D01*
X28023716Y-31710000D01*
X88965279Y-31710000D01*
X89249899Y-31737907D01*
G37*
%TD.AperFunction*%
%TD*%
M02*
