%TF.GenerationSoftware,KiCad,Pcbnew,(5.1.10)-1*%
%TF.CreationDate,2021-09-21T22:06:55+02:00*%
%TF.ProjectId,StopWatch,53746f70-5761-4746-9368-2e6b69636164,rev?*%
%TF.SameCoordinates,Original*%
%TF.FileFunction,Copper,L1,Top*%
%TF.FilePolarity,Positive*%
%FSLAX46Y46*%
G04 Gerber Fmt 4.6, Leading zero omitted, Abs format (unit mm)*
G04 Created by KiCad (PCBNEW (5.1.10)-1) date 2021-09-21 22:06:55*
%MOMM*%
%LPD*%
G01*
G04 APERTURE LIST*
%TA.AperFunction,ComponentPad*%
%ADD10C,1.850000*%
%TD*%
%TA.AperFunction,ComponentPad*%
%ADD11C,1.550000*%
%TD*%
%TA.AperFunction,SMDPad,CuDef*%
%ADD12C,0.889000*%
%TD*%
%TA.AperFunction,SMDPad,CuDef*%
%ADD13R,1.075000X0.500000*%
%TD*%
%TA.AperFunction,SMDPad,CuDef*%
%ADD14R,0.500000X1.075000*%
%TD*%
%TA.AperFunction,ComponentPad*%
%ADD15C,1.500000*%
%TD*%
%TA.AperFunction,ComponentPad*%
%ADD16R,1.500000X1.500000*%
%TD*%
%TA.AperFunction,SMDPad,CuDef*%
%ADD17R,1.400000X1.000000*%
%TD*%
%TA.AperFunction,SMDPad,CuDef*%
%ADD18R,1.000000X1.400000*%
%TD*%
%TA.AperFunction,SMDPad,CuDef*%
%ADD19R,0.600000X1.250000*%
%TD*%
%TA.AperFunction,SMDPad,CuDef*%
%ADD20R,1.050000X0.400000*%
%TD*%
%TA.AperFunction,ComponentPad*%
%ADD21C,2.100000*%
%TD*%
%TA.AperFunction,SMDPad,CuDef*%
%ADD22R,1.400000X0.950000*%
%TD*%
%TA.AperFunction,SMDPad,CuDef*%
%ADD23R,1.470000X1.050000*%
%TD*%
%TA.AperFunction,SMDPad,CuDef*%
%ADD24R,1.050000X1.470000*%
%TD*%
%TA.AperFunction,ViaPad*%
%ADD25C,3.750000*%
%TD*%
%TA.AperFunction,ViaPad*%
%ADD26C,0.800000*%
%TD*%
%TA.AperFunction,Conductor*%
%ADD27C,0.250000*%
%TD*%
%TA.AperFunction,Conductor*%
%ADD28C,0.200000*%
%TD*%
%TA.AperFunction,Conductor*%
%ADD29C,0.254000*%
%TD*%
%TA.AperFunction,Conductor*%
%ADD30C,0.100000*%
%TD*%
G04 APERTURE END LIST*
D10*
%TO.P,S2,4*%
%TO.N,Net-(R15-Pad1)*%
X32252000Y-64256000D03*
%TO.P,S2,3*%
X44752000Y-64256000D03*
%TO.P,S2,2*%
%TO.N,gnd*%
X32252000Y-68756000D03*
%TO.P,S2,1*%
X44752000Y-68756000D03*
%TD*%
%TO.P,IC1,20*%
%TO.N,gnd*%
%TA.AperFunction,SMDPad,CuDef*%
G36*
G01*
X65300000Y-66800000D02*
X65550000Y-66800000D01*
G75*
G02*
X65675000Y-66925000I0J-125000D01*
G01*
X65675000Y-68575000D01*
G75*
G02*
X65550000Y-68700000I-125000J0D01*
G01*
X65300000Y-68700000D01*
G75*
G02*
X65175000Y-68575000I0J125000D01*
G01*
X65175000Y-66925000D01*
G75*
G02*
X65300000Y-66800000I125000J0D01*
G01*
G37*
%TD.AperFunction*%
%TO.P,IC1,19*%
%TO.N,/B_1*%
%TA.AperFunction,SMDPad,CuDef*%
G36*
G01*
X64650000Y-66800000D02*
X64900000Y-66800000D01*
G75*
G02*
X65025000Y-66925000I0J-125000D01*
G01*
X65025000Y-68575000D01*
G75*
G02*
X64900000Y-68700000I-125000J0D01*
G01*
X64650000Y-68700000D01*
G75*
G02*
X64525000Y-68575000I0J125000D01*
G01*
X64525000Y-66925000D01*
G75*
G02*
X64650000Y-66800000I125000J0D01*
G01*
G37*
%TD.AperFunction*%
%TO.P,IC1,18*%
%TO.N,/B_2*%
%TA.AperFunction,SMDPad,CuDef*%
G36*
G01*
X64000000Y-66800000D02*
X64250000Y-66800000D01*
G75*
G02*
X64375000Y-66925000I0J-125000D01*
G01*
X64375000Y-68575000D01*
G75*
G02*
X64250000Y-68700000I-125000J0D01*
G01*
X64000000Y-68700000D01*
G75*
G02*
X63875000Y-68575000I0J125000D01*
G01*
X63875000Y-66925000D01*
G75*
G02*
X64000000Y-66800000I125000J0D01*
G01*
G37*
%TD.AperFunction*%
%TO.P,IC1,17*%
%TO.N,Net-(IC1-Pad17)*%
%TA.AperFunction,SMDPad,CuDef*%
G36*
G01*
X63350000Y-66800000D02*
X63600000Y-66800000D01*
G75*
G02*
X63725000Y-66925000I0J-125000D01*
G01*
X63725000Y-68575000D01*
G75*
G02*
X63600000Y-68700000I-125000J0D01*
G01*
X63350000Y-68700000D01*
G75*
G02*
X63225000Y-68575000I0J125000D01*
G01*
X63225000Y-66925000D01*
G75*
G02*
X63350000Y-66800000I125000J0D01*
G01*
G37*
%TD.AperFunction*%
%TO.P,IC1,16*%
%TO.N,/D_a*%
%TA.AperFunction,SMDPad,CuDef*%
G36*
G01*
X62700000Y-66800000D02*
X62950000Y-66800000D01*
G75*
G02*
X63075000Y-66925000I0J-125000D01*
G01*
X63075000Y-68575000D01*
G75*
G02*
X62950000Y-68700000I-125000J0D01*
G01*
X62700000Y-68700000D01*
G75*
G02*
X62575000Y-68575000I0J125000D01*
G01*
X62575000Y-66925000D01*
G75*
G02*
X62700000Y-66800000I125000J0D01*
G01*
G37*
%TD.AperFunction*%
%TO.P,IC1,15*%
%TO.N,/D_b*%
%TA.AperFunction,SMDPad,CuDef*%
G36*
G01*
X62050000Y-66800000D02*
X62300000Y-66800000D01*
G75*
G02*
X62425000Y-66925000I0J-125000D01*
G01*
X62425000Y-68575000D01*
G75*
G02*
X62300000Y-68700000I-125000J0D01*
G01*
X62050000Y-68700000D01*
G75*
G02*
X61925000Y-68575000I0J125000D01*
G01*
X61925000Y-66925000D01*
G75*
G02*
X62050000Y-66800000I125000J0D01*
G01*
G37*
%TD.AperFunction*%
%TO.P,IC1,14*%
%TO.N,/D_c*%
%TA.AperFunction,SMDPad,CuDef*%
G36*
G01*
X61400000Y-66800000D02*
X61650000Y-66800000D01*
G75*
G02*
X61775000Y-66925000I0J-125000D01*
G01*
X61775000Y-68575000D01*
G75*
G02*
X61650000Y-68700000I-125000J0D01*
G01*
X61400000Y-68700000D01*
G75*
G02*
X61275000Y-68575000I0J125000D01*
G01*
X61275000Y-66925000D01*
G75*
G02*
X61400000Y-66800000I125000J0D01*
G01*
G37*
%TD.AperFunction*%
%TO.P,IC1,13*%
%TO.N,/C_1*%
%TA.AperFunction,SMDPad,CuDef*%
G36*
G01*
X60750000Y-66800000D02*
X61000000Y-66800000D01*
G75*
G02*
X61125000Y-66925000I0J-125000D01*
G01*
X61125000Y-68575000D01*
G75*
G02*
X61000000Y-68700000I-125000J0D01*
G01*
X60750000Y-68700000D01*
G75*
G02*
X60625000Y-68575000I0J125000D01*
G01*
X60625000Y-66925000D01*
G75*
G02*
X60750000Y-66800000I125000J0D01*
G01*
G37*
%TD.AperFunction*%
%TO.P,IC1,12*%
%TO.N,/C_2*%
%TA.AperFunction,SMDPad,CuDef*%
G36*
G01*
X60100000Y-66800000D02*
X60350000Y-66800000D01*
G75*
G02*
X60475000Y-66925000I0J-125000D01*
G01*
X60475000Y-68575000D01*
G75*
G02*
X60350000Y-68700000I-125000J0D01*
G01*
X60100000Y-68700000D01*
G75*
G02*
X59975000Y-68575000I0J125000D01*
G01*
X59975000Y-66925000D01*
G75*
G02*
X60100000Y-66800000I125000J0D01*
G01*
G37*
%TD.AperFunction*%
%TO.P,IC1,11*%
%TO.N,/C_3*%
%TA.AperFunction,SMDPad,CuDef*%
G36*
G01*
X59450000Y-66800000D02*
X59700000Y-66800000D01*
G75*
G02*
X59825000Y-66925000I0J-125000D01*
G01*
X59825000Y-68575000D01*
G75*
G02*
X59700000Y-68700000I-125000J0D01*
G01*
X59450000Y-68700000D01*
G75*
G02*
X59325000Y-68575000I0J125000D01*
G01*
X59325000Y-66925000D01*
G75*
G02*
X59450000Y-66800000I125000J0D01*
G01*
G37*
%TD.AperFunction*%
%TO.P,IC1,10*%
%TO.N,/C_4*%
%TA.AperFunction,SMDPad,CuDef*%
G36*
G01*
X59450000Y-59800000D02*
X59700000Y-59800000D01*
G75*
G02*
X59825000Y-59925000I0J-125000D01*
G01*
X59825000Y-61575000D01*
G75*
G02*
X59700000Y-61700000I-125000J0D01*
G01*
X59450000Y-61700000D01*
G75*
G02*
X59325000Y-61575000I0J125000D01*
G01*
X59325000Y-59925000D01*
G75*
G02*
X59450000Y-59800000I125000J0D01*
G01*
G37*
%TD.AperFunction*%
%TO.P,IC1,9*%
%TO.N,/D_dp*%
%TA.AperFunction,SMDPad,CuDef*%
G36*
G01*
X60100000Y-59800000D02*
X60350000Y-59800000D01*
G75*
G02*
X60475000Y-59925000I0J-125000D01*
G01*
X60475000Y-61575000D01*
G75*
G02*
X60350000Y-61700000I-125000J0D01*
G01*
X60100000Y-61700000D01*
G75*
G02*
X59975000Y-61575000I0J125000D01*
G01*
X59975000Y-59925000D01*
G75*
G02*
X60100000Y-59800000I125000J0D01*
G01*
G37*
%TD.AperFunction*%
%TO.P,IC1,8*%
%TO.N,/D_g*%
%TA.AperFunction,SMDPad,CuDef*%
G36*
G01*
X60750000Y-59800000D02*
X61000000Y-59800000D01*
G75*
G02*
X61125000Y-59925000I0J-125000D01*
G01*
X61125000Y-61575000D01*
G75*
G02*
X61000000Y-61700000I-125000J0D01*
G01*
X60750000Y-61700000D01*
G75*
G02*
X60625000Y-61575000I0J125000D01*
G01*
X60625000Y-59925000D01*
G75*
G02*
X60750000Y-59800000I125000J0D01*
G01*
G37*
%TD.AperFunction*%
%TO.P,IC1,7*%
%TO.N,/D_d*%
%TA.AperFunction,SMDPad,CuDef*%
G36*
G01*
X61400000Y-59800000D02*
X61650000Y-59800000D01*
G75*
G02*
X61775000Y-59925000I0J-125000D01*
G01*
X61775000Y-61575000D01*
G75*
G02*
X61650000Y-61700000I-125000J0D01*
G01*
X61400000Y-61700000D01*
G75*
G02*
X61275000Y-61575000I0J125000D01*
G01*
X61275000Y-59925000D01*
G75*
G02*
X61400000Y-59800000I125000J0D01*
G01*
G37*
%TD.AperFunction*%
%TO.P,IC1,6*%
%TO.N,/D_e*%
%TA.AperFunction,SMDPad,CuDef*%
G36*
G01*
X62050000Y-59800000D02*
X62300000Y-59800000D01*
G75*
G02*
X62425000Y-59925000I0J-125000D01*
G01*
X62425000Y-61575000D01*
G75*
G02*
X62300000Y-61700000I-125000J0D01*
G01*
X62050000Y-61700000D01*
G75*
G02*
X61925000Y-61575000I0J125000D01*
G01*
X61925000Y-59925000D01*
G75*
G02*
X62050000Y-59800000I125000J0D01*
G01*
G37*
%TD.AperFunction*%
%TO.P,IC1,5*%
%TO.N,/D_f*%
%TA.AperFunction,SMDPad,CuDef*%
G36*
G01*
X62700000Y-59800000D02*
X62950000Y-59800000D01*
G75*
G02*
X63075000Y-59925000I0J-125000D01*
G01*
X63075000Y-61575000D01*
G75*
G02*
X62950000Y-61700000I-125000J0D01*
G01*
X62700000Y-61700000D01*
G75*
G02*
X62575000Y-61575000I0J125000D01*
G01*
X62575000Y-59925000D01*
G75*
G02*
X62700000Y-59800000I125000J0D01*
G01*
G37*
%TD.AperFunction*%
%TO.P,IC1,4*%
%TO.N,/MCLR*%
%TA.AperFunction,SMDPad,CuDef*%
G36*
G01*
X63350000Y-59800000D02*
X63600000Y-59800000D01*
G75*
G02*
X63725000Y-59925000I0J-125000D01*
G01*
X63725000Y-61575000D01*
G75*
G02*
X63600000Y-61700000I-125000J0D01*
G01*
X63350000Y-61700000D01*
G75*
G02*
X63225000Y-61575000I0J125000D01*
G01*
X63225000Y-59925000D01*
G75*
G02*
X63350000Y-59800000I125000J0D01*
G01*
G37*
%TD.AperFunction*%
%TO.P,IC1,3*%
%TO.N,/C_U13*%
%TA.AperFunction,SMDPad,CuDef*%
G36*
G01*
X64000000Y-59800000D02*
X64250000Y-59800000D01*
G75*
G02*
X64375000Y-59925000I0J-125000D01*
G01*
X64375000Y-61575000D01*
G75*
G02*
X64250000Y-61700000I-125000J0D01*
G01*
X64000000Y-61700000D01*
G75*
G02*
X63875000Y-61575000I0J125000D01*
G01*
X63875000Y-59925000D01*
G75*
G02*
X64000000Y-59800000I125000J0D01*
G01*
G37*
%TD.AperFunction*%
%TO.P,IC1,2*%
%TO.N,/C_Buzzer*%
%TA.AperFunction,SMDPad,CuDef*%
G36*
G01*
X64650000Y-59800000D02*
X64900000Y-59800000D01*
G75*
G02*
X65025000Y-59925000I0J-125000D01*
G01*
X65025000Y-61575000D01*
G75*
G02*
X64900000Y-61700000I-125000J0D01*
G01*
X64650000Y-61700000D01*
G75*
G02*
X64525000Y-61575000I0J125000D01*
G01*
X64525000Y-59925000D01*
G75*
G02*
X64650000Y-59800000I125000J0D01*
G01*
G37*
%TD.AperFunction*%
%TO.P,IC1,1*%
%TO.N,+3V*%
%TA.AperFunction,SMDPad,CuDef*%
G36*
G01*
X65300000Y-59800000D02*
X65550000Y-59800000D01*
G75*
G02*
X65675000Y-59925000I0J-125000D01*
G01*
X65675000Y-61575000D01*
G75*
G02*
X65550000Y-61700000I-125000J0D01*
G01*
X65300000Y-61700000D01*
G75*
G02*
X65175000Y-61575000I0J125000D01*
G01*
X65175000Y-59925000D01*
G75*
G02*
X65300000Y-59800000I125000J0D01*
G01*
G37*
%TD.AperFunction*%
%TD*%
D11*
%TO.P,J1,9*%
%TO.N,N/C*%
X64790000Y-73901000D03*
%TO.P,J1,8*%
X64790000Y-71869000D03*
%TO.P,J1,7*%
X59710000Y-72885000D03*
D12*
%TO.P,J1,6*%
%TO.N,Net-(J1-Pad6)*%
X63520000Y-72250000D03*
%TO.P,J1,5*%
%TO.N,/B_2*%
X63520000Y-73520000D03*
%TO.P,J1,4*%
%TO.N,/B_1*%
X62250000Y-72250000D03*
%TO.P,J1,3*%
%TO.N,gnd*%
X62250000Y-73520000D03*
%TO.P,J1,2*%
%TO.N,+3V*%
X60980000Y-72250000D03*
%TO.P,J1,1*%
%TO.N,/MCLR*%
X60980000Y-73520000D03*
%TD*%
D13*
%TO.P,D2,2*%
%TO.N,Net-(C3-Pad1)*%
X46838000Y-71750000D03*
%TO.P,D2,1*%
%TO.N,/B_1*%
X49162000Y-71750000D03*
%TD*%
D14*
%TO.P,D1,2*%
%TO.N,Net-(C2-Pad1)*%
X67870000Y-66838000D03*
%TO.P,D1,1*%
%TO.N,/B_2*%
X67870000Y-69162000D03*
%TD*%
D15*
%TO.P,U3,5*%
%TO.N,/D_g*%
X77120000Y-46360000D03*
%TO.P,U3,11*%
%TO.N,/D_a*%
X69500000Y-36200000D03*
%TO.P,U3,12*%
%TO.N,/CC_5*%
X66960000Y-36200000D03*
%TO.P,U3,10*%
%TO.N,/D_f*%
X72040000Y-36200000D03*
%TO.P,U3,9*%
%TO.N,/CC_6*%
X74580000Y-36200000D03*
%TO.P,U3,8*%
%TO.N,/CC_7*%
X77120000Y-36200000D03*
%TO.P,U3,6*%
%TO.N,/CC_8*%
X79660000Y-46360000D03*
%TO.P,U3,7*%
%TO.N,/D_b*%
X79660000Y-36200000D03*
%TO.P,U3,3*%
%TO.N,/D_dp*%
X72040000Y-46360000D03*
%TO.P,U3,4*%
%TO.N,/D_c*%
X74580000Y-46360000D03*
D16*
%TO.P,U3,1*%
%TO.N,/D_e*%
X66960000Y-46360000D03*
D15*
%TO.P,U3,2*%
%TO.N,/D_d*%
X69500000Y-46360000D03*
%TD*%
%TO.P,U1,12*%
%TO.N,/CC_1*%
X37350000Y-36200000D03*
%TO.P,U1,11*%
%TO.N,/D_a*%
X39890000Y-36200000D03*
%TO.P,U1,10*%
%TO.N,/D_f*%
X42430000Y-36200000D03*
%TO.P,U1,9*%
%TO.N,/CC_2*%
X44970000Y-36200000D03*
%TO.P,U1,8*%
%TO.N,/CC_3*%
X47510000Y-36200000D03*
%TO.P,U1,7*%
%TO.N,/D_b*%
X50050000Y-36200000D03*
%TO.P,U1,6*%
%TO.N,/CC_4*%
X50050000Y-46360000D03*
%TO.P,U1,5*%
%TO.N,/D_g*%
X47510000Y-46360000D03*
%TO.P,U1,4*%
%TO.N,/D_c*%
X44970000Y-46360000D03*
%TO.P,U1,3*%
%TO.N,/D_dp*%
X42430000Y-46360000D03*
%TO.P,U1,2*%
%TO.N,/D_d*%
X39890000Y-46360000D03*
D16*
%TO.P,U1,1*%
%TO.N,/D_e*%
X37350000Y-46360000D03*
%TD*%
D17*
%TO.P,R27,2*%
%TO.N,/C_display*%
X57181800Y-70568500D03*
%TO.P,R27,1*%
%TO.N,+3V*%
X57181800Y-68668500D03*
%TD*%
D18*
%TO.P,R26,2*%
%TO.N,Net-(Q11-Pad1)*%
X84680000Y-50240000D03*
%TO.P,R26,1*%
%TO.N,/C_display*%
X82780000Y-50240000D03*
%TD*%
%TO.P,R25,2*%
%TO.N,Net-(Q10-Pad1)*%
X79073700Y-50230000D03*
%TO.P,R25,1*%
%TO.N,/C_U13*%
X77173700Y-50230000D03*
%TD*%
%TO.P,R24,2*%
%TO.N,/CC_8*%
X34223400Y-56960000D03*
%TO.P,R24,1*%
%TO.N,Net-(Q9-Pad3)*%
X32323400Y-56960000D03*
%TD*%
%TO.P,R23,2*%
%TO.N,Net-(Q9-Pad1)*%
X34223400Y-50221000D03*
%TO.P,R23,1*%
%TO.N,/C_4*%
X32323400Y-50221000D03*
%TD*%
%TO.P,R22,2*%
%TO.N,/CC_7*%
X37927200Y-56960000D03*
%TO.P,R22,1*%
%TO.N,Net-(Q8-Pad3)*%
X39827200Y-56960000D03*
%TD*%
%TO.P,R21,2*%
%TO.N,Net-(Q8-Pad1)*%
X39829700Y-50221000D03*
%TO.P,R21,1*%
%TO.N,/C_3*%
X37929700Y-50221000D03*
%TD*%
%TO.P,R20,2*%
%TO.N,/CC_6*%
X43531000Y-56960000D03*
%TO.P,R20,1*%
%TO.N,Net-(Q7-Pad3)*%
X45431000Y-56960000D03*
%TD*%
%TO.P,R19,2*%
%TO.N,Net-(Q7-Pad1)*%
X45436000Y-50221000D03*
%TO.P,R19,1*%
%TO.N,/C_2*%
X43536000Y-50221000D03*
%TD*%
%TO.P,R18,2*%
%TO.N,/CC_5*%
X73450000Y-56960000D03*
%TO.P,R18,1*%
%TO.N,Net-(Q6-Pad3)*%
X71550000Y-56960000D03*
%TD*%
%TO.P,R17,2*%
%TO.N,Net-(Q6-Pad1)*%
X73467400Y-50221000D03*
%TO.P,R17,1*%
%TO.N,/C_1*%
X71567400Y-50221000D03*
%TD*%
D19*
%TO.P,Q11,3*%
%TO.N,/U3*%
X83730000Y-54772600D03*
%TO.P,Q11,2*%
%TO.N,gnd*%
X82775000Y-52672600D03*
%TO.P,Q11,1*%
%TO.N,Net-(Q11-Pad1)*%
X84685000Y-52672600D03*
%TD*%
%TO.P,Q10,3*%
%TO.N,/U1*%
X78123700Y-54771800D03*
%TO.P,Q10,2*%
%TO.N,gnd*%
X77168700Y-52671800D03*
%TO.P,Q10,1*%
%TO.N,Net-(Q10-Pad1)*%
X79078700Y-52671800D03*
%TD*%
%TO.P,Q9,3*%
%TO.N,Net-(Q9-Pad3)*%
X33273400Y-54776200D03*
%TO.P,Q9,2*%
%TO.N,/U1*%
X32318400Y-52676200D03*
%TO.P,Q9,1*%
%TO.N,Net-(Q9-Pad1)*%
X34228400Y-52676200D03*
%TD*%
%TO.P,Q8,3*%
%TO.N,Net-(Q8-Pad3)*%
X38879700Y-54776200D03*
%TO.P,Q8,2*%
%TO.N,/U1*%
X37924700Y-52676200D03*
%TO.P,Q8,1*%
%TO.N,Net-(Q8-Pad1)*%
X39834700Y-52676200D03*
%TD*%
%TO.P,Q7,3*%
%TO.N,Net-(Q7-Pad3)*%
X44486000Y-54776200D03*
%TO.P,Q7,2*%
%TO.N,/U1*%
X43531000Y-52676200D03*
%TO.P,Q7,1*%
%TO.N,Net-(Q7-Pad1)*%
X45441000Y-52676200D03*
%TD*%
%TO.P,Q6,3*%
%TO.N,Net-(Q6-Pad3)*%
X72517400Y-54776200D03*
%TO.P,Q6,2*%
%TO.N,/U1*%
X71562400Y-52676200D03*
%TO.P,Q6,1*%
%TO.N,Net-(Q6-Pad1)*%
X73472400Y-52676200D03*
%TD*%
D20*
%TO.P,IC2,5*%
%TO.N,+3V*%
X53747100Y-70040000D03*
%TO.P,IC2,4*%
%TO.N,/C_display*%
X53747100Y-71340000D03*
%TO.P,IC2,3*%
%TO.N,gnd*%
X51847100Y-71340000D03*
%TO.P,IC2,2*%
%TO.N,/C_U13*%
X51847100Y-70690000D03*
%TO.P,IC2,1*%
%TO.N,Net-(IC2-Pad1)*%
X51847100Y-70040000D03*
%TD*%
D10*
%TO.P,S1,4*%
%TO.N,Net-(R11-Pad1)*%
X72252000Y-64256000D03*
%TO.P,S1,3*%
X84752000Y-64256000D03*
%TO.P,S1,2*%
%TO.N,gnd*%
X72252000Y-68756000D03*
%TO.P,S1,1*%
X84752000Y-68756000D03*
%TD*%
D21*
%TO.P,U2,2*%
%TO.N,gnd*%
X50228500Y-59378700D03*
%TO.P,U2,1*%
%TO.N,+3V*%
X70228500Y-59378700D03*
%TD*%
D17*
%TO.P,R16,2*%
%TO.N,Net-(C3-Pad1)*%
X47003800Y-68583100D03*
%TO.P,R16,1*%
%TO.N,Net-(R15-Pad1)*%
X47003800Y-66683100D03*
%TD*%
%TO.P,R15,2*%
%TO.N,+3V*%
X47003800Y-62873100D03*
%TO.P,R15,1*%
%TO.N,Net-(R15-Pad1)*%
X47003800Y-64773100D03*
%TD*%
D18*
%TO.P,R14,2*%
%TO.N,Net-(Q5-Pad3)*%
X53796000Y-67936000D03*
%TO.P,R14,1*%
%TO.N,+3V*%
X51896000Y-67936000D03*
%TD*%
%TO.P,R13,2*%
%TO.N,Net-(Q5-Pad1)*%
X53700000Y-61500000D03*
%TO.P,R13,1*%
%TO.N,/C_Buzzer*%
X51800000Y-61500000D03*
%TD*%
%TO.P,R12,2*%
%TO.N,Net-(C2-Pad1)*%
X82722000Y-56982000D03*
%TO.P,R12,1*%
%TO.N,Net-(R11-Pad1)*%
X80822000Y-56982000D03*
%TD*%
%TO.P,R11,2*%
%TO.N,+3V*%
X77012000Y-56982000D03*
%TO.P,R11,1*%
%TO.N,Net-(R11-Pad1)*%
X78912000Y-56982000D03*
%TD*%
%TO.P,R10,2*%
%TO.N,/CC_4*%
X51034800Y-56960000D03*
%TO.P,R10,1*%
%TO.N,Net-(Q4-Pad3)*%
X49134800Y-56960000D03*
%TD*%
%TO.P,R9,2*%
%TO.N,Net-(Q4-Pad1)*%
X51042300Y-50221000D03*
%TO.P,R9,1*%
%TO.N,/C_4*%
X49142300Y-50221000D03*
%TD*%
%TO.P,R8,2*%
%TO.N,/CC_3*%
X56638600Y-56960000D03*
%TO.P,R8,1*%
%TO.N,Net-(Q3-Pad3)*%
X54738600Y-56960000D03*
%TD*%
%TO.P,R7,2*%
%TO.N,Net-(Q3-Pad1)*%
X56648600Y-50221000D03*
%TO.P,R7,1*%
%TO.N,/C_3*%
X54748600Y-50221000D03*
%TD*%
%TO.P,R6,2*%
%TO.N,/CC_2*%
X62242400Y-56960000D03*
%TO.P,R6,1*%
%TO.N,Net-(Q2-Pad3)*%
X60342400Y-56960000D03*
%TD*%
%TO.P,R5,2*%
%TO.N,Net-(Q2-Pad1)*%
X62254800Y-50221000D03*
%TO.P,R5,1*%
%TO.N,/C_2*%
X60354800Y-50221000D03*
%TD*%
%TO.P,R4,2*%
%TO.N,/CC_1*%
X67846200Y-56960000D03*
%TO.P,R4,1*%
%TO.N,Net-(Q1-Pad3)*%
X65946200Y-56960000D03*
%TD*%
D17*
%TO.P,R3,2*%
%TO.N,Net-(LED1-Pad2)*%
X57156000Y-62799000D03*
%TO.P,R3,1*%
%TO.N,/C_Buzzer*%
X57156000Y-60899000D03*
%TD*%
%TO.P,R2,2*%
%TO.N,/MCLR*%
X67870000Y-59654000D03*
%TO.P,R2,1*%
%TO.N,+3V*%
X67870000Y-61554000D03*
%TD*%
D18*
%TO.P,R1,2*%
%TO.N,Net-(Q1-Pad1)*%
X67861100Y-50221000D03*
%TO.P,R1,1*%
%TO.N,/C_1*%
X65961100Y-50221000D03*
%TD*%
D19*
%TO.P,Q5,3*%
%TO.N,Net-(Q5-Pad3)*%
X52846000Y-65684000D03*
%TO.P,Q5,2*%
%TO.N,Net-(LS1-Pad1)*%
X51891000Y-63584000D03*
%TO.P,Q5,1*%
%TO.N,Net-(Q5-Pad1)*%
X53801000Y-63584000D03*
%TD*%
%TO.P,Q4,3*%
%TO.N,Net-(Q4-Pad3)*%
X50092300Y-54776200D03*
%TO.P,Q4,2*%
%TO.N,/U3*%
X49137300Y-52676200D03*
%TO.P,Q4,1*%
%TO.N,Net-(Q4-Pad1)*%
X51047300Y-52676200D03*
%TD*%
%TO.P,Q3,3*%
%TO.N,Net-(Q3-Pad3)*%
X55698600Y-54776200D03*
%TO.P,Q3,2*%
%TO.N,/U3*%
X54743600Y-52676200D03*
%TO.P,Q3,1*%
%TO.N,Net-(Q3-Pad1)*%
X56653600Y-52676200D03*
%TD*%
%TO.P,Q2,3*%
%TO.N,Net-(Q2-Pad3)*%
X61304800Y-54776200D03*
%TO.P,Q2,2*%
%TO.N,/U3*%
X60349800Y-52676200D03*
%TO.P,Q2,1*%
%TO.N,Net-(Q2-Pad1)*%
X62259800Y-52676200D03*
%TD*%
%TO.P,Q1,3*%
%TO.N,Net-(Q1-Pad3)*%
X66911100Y-54776200D03*
%TO.P,Q1,2*%
%TO.N,/U3*%
X65956100Y-52676200D03*
%TO.P,Q1,1*%
%TO.N,Net-(Q1-Pad1)*%
X67866100Y-52676200D03*
%TD*%
D15*
%TO.P,LS1,2*%
%TO.N,gnd*%
X34157600Y-59378700D03*
%TO.P,LS1,1*%
%TO.N,Net-(LS1-Pad1)*%
X41757600Y-59378700D03*
%TD*%
D22*
%TO.P,LED1,2*%
%TO.N,Net-(LED1-Pad2)*%
X57122000Y-64832000D03*
%TO.P,LED1,1*%
%TO.N,gnd*%
X57122000Y-66732000D03*
%TD*%
D23*
%TO.P,C3,2*%
%TO.N,gnd*%
X49289800Y-66519100D03*
%TO.P,C3,1*%
%TO.N,Net-(C3-Pad1)*%
X49289800Y-64839100D03*
%TD*%
D24*
%TO.P,C2,2*%
%TO.N,gnd*%
X78978000Y-59268000D03*
%TO.P,C2,1*%
%TO.N,Net-(C2-Pad1)*%
X80658000Y-59268000D03*
%TD*%
D23*
%TO.P,C1,2*%
%TO.N,gnd*%
X67870000Y-64934000D03*
%TO.P,C1,1*%
%TO.N,+3V*%
X67870000Y-63254000D03*
%TD*%
D25*
%TO.N,gnd*%
X28500000Y-33500000D03*
X88500000Y-33500000D03*
X28500000Y-73500000D03*
X88500000Y-73500000D03*
D26*
X62750000Y-74500000D03*
X66000000Y-69250000D03*
X69250000Y-65250000D03*
X55500000Y-67000000D03*
X50750000Y-66750000D03*
X76000000Y-52000000D03*
X81250000Y-52750000D03*
X77500000Y-60750000D03*
%TO.N,+3V*%
X61250000Y-70750000D03*
X50750000Y-65500000D03*
X46000000Y-61250000D03*
%TO.N,/B_1*%
X63500000Y-70750000D03*
X64750000Y-66000000D03*
X50500000Y-72250000D03*
%TO.N,/D_a*%
X65500000Y-65000000D03*
X75000000Y-49500000D03*
X73750000Y-40500000D03*
%TO.N,/D_b*%
X62755025Y-64505025D03*
X58000000Y-52000000D03*
%TO.N,/D_c*%
X58619975Y-61630025D03*
X55250000Y-61000000D03*
%TO.N,/C_1*%
X60950000Y-65417948D03*
X69750000Y-49250000D03*
%TO.N,/C_2*%
X60250000Y-66250000D03*
X60250000Y-49000000D03*
X42500000Y-49250000D03*
%TO.N,/C_3*%
X59000000Y-66000000D03*
X36000000Y-50000000D03*
X53000000Y-50000000D03*
%TO.N,/C_4*%
X58750000Y-59000000D03*
X30500000Y-51000000D03*
X47750000Y-51000000D03*
%TO.N,/D_dp*%
X62000000Y-62500000D03*
%TO.N,/D_g*%
X48250000Y-43500000D03*
X68229846Y-41979846D03*
%TO.N,/D_d*%
X61743615Y-58743615D03*
%TO.N,/D_e*%
X64604846Y-45604846D03*
%TO.N,/C_Buzzer*%
X65750000Y-62675000D03*
X58000000Y-60000000D03*
%TO.N,/CC_1*%
X68249847Y-55224847D03*
X49500000Y-42250000D03*
%TO.N,/CC_2*%
X62500000Y-55750000D03*
X52250000Y-45500000D03*
%TO.N,Net-(R11-Pad1)*%
X75250000Y-64250000D03*
%TO.N,/MCLR*%
X61500000Y-74750000D03*
X63500000Y-62500000D03*
%TO.N,/C_U13*%
X50750000Y-69250000D03*
X64500000Y-62500000D03*
X76000000Y-50500000D03*
%TO.N,/C_display*%
X58737347Y-70762653D03*
X81500000Y-50250000D03*
%TO.N,/U3*%
X48250000Y-52500000D03*
X53250000Y-52500000D03*
X57500000Y-58500000D03*
X64873946Y-56000000D03*
X74550000Y-52880025D03*
X82500000Y-55250000D03*
%TO.N,/U1*%
X31250000Y-51750000D03*
X41750000Y-51750000D03*
X36174999Y-51750000D03*
X70000000Y-50750000D03*
X74750000Y-58000000D03*
%TO.N,/CC_5*%
X75250000Y-55750000D03*
X71250000Y-42250000D03*
%TO.N,/CC_6*%
X35750000Y-58250000D03*
%TO.N,/CC_7*%
X36500000Y-57000000D03*
%TO.N,/CC_8*%
X31250000Y-58250000D03*
%TD*%
D27*
%TO.N,gnd*%
X62250000Y-74000000D02*
X62750000Y-74500000D01*
X62250000Y-73520000D02*
X62250000Y-74000000D01*
X66000000Y-68325000D02*
X65425000Y-67750000D01*
X66000000Y-69250000D02*
X66000000Y-68325000D01*
X68186000Y-65250000D02*
X67870000Y-64934000D01*
X69250000Y-65250000D02*
X68186000Y-65250000D01*
X56854000Y-67000000D02*
X57122000Y-66732000D01*
X55500000Y-67000000D02*
X56854000Y-67000000D01*
X49289800Y-66519100D02*
X49289800Y-69039800D01*
X49289800Y-69039800D02*
X50250000Y-70000000D01*
X51187098Y-71340000D02*
X51847100Y-71340000D01*
X50250000Y-70402902D02*
X51187098Y-71340000D01*
X50250000Y-70000000D02*
X50250000Y-70402902D01*
X49520700Y-66750000D02*
X49289800Y-66519100D01*
X50750000Y-66750000D02*
X49520700Y-66750000D01*
X77168700Y-52671800D02*
X76496900Y-52000000D01*
X76496900Y-52000000D02*
X76000000Y-52000000D01*
X82697600Y-52750000D02*
X82775000Y-52672600D01*
X81250000Y-52750000D02*
X82697600Y-52750000D01*
X77500000Y-60746000D02*
X78978000Y-59268000D01*
X77500000Y-60750000D02*
X77500000Y-60746000D01*
%TO.N,+3V*%
X60750000Y-72020000D02*
X60980000Y-72250000D01*
X60750000Y-71250000D02*
X60750000Y-72020000D01*
X61250000Y-70750000D02*
X60750000Y-71250000D01*
X68053200Y-61554000D02*
X70228500Y-59378700D01*
X67870000Y-61554000D02*
X68053200Y-61554000D01*
X66229000Y-61554000D02*
X65425000Y-60750000D01*
X67870000Y-61554000D02*
X66229000Y-61554000D01*
X55810300Y-70040000D02*
X57181800Y-68668500D01*
X53747100Y-70040000D02*
X55810300Y-70040000D01*
X53747100Y-70040000D02*
X53747100Y-69997100D01*
X53747100Y-69997100D02*
X53000000Y-69250000D01*
X53000000Y-69250000D02*
X52500000Y-69250000D01*
X51896000Y-68646000D02*
X51896000Y-67936000D01*
X52500000Y-69250000D02*
X51896000Y-68646000D01*
X51896000Y-66646000D02*
X50750000Y-65500000D01*
X51896000Y-67936000D02*
X51896000Y-66646000D01*
X46000000Y-61869300D02*
X47003800Y-62873100D01*
X46000000Y-61250000D02*
X46000000Y-61869300D01*
X61250000Y-70750000D02*
X60500000Y-70000000D01*
X60500000Y-70000000D02*
X59000000Y-70000000D01*
X57668500Y-68668500D02*
X57181800Y-68668500D01*
X59000000Y-70000000D02*
X57668500Y-68668500D01*
X74615300Y-59378700D02*
X77012000Y-56982000D01*
X70228500Y-59378700D02*
X74615300Y-59378700D01*
X67870000Y-61554000D02*
X67870000Y-63254000D01*
D28*
%TO.N,/B_2*%
X64025010Y-67974990D02*
X64025010Y-69275010D01*
X64125000Y-67875000D02*
X64025010Y-67974990D01*
X64125000Y-67750000D02*
X64125000Y-67875000D01*
X64025010Y-69275010D02*
X64750000Y-70000000D01*
X67032000Y-70000000D02*
X67870000Y-69162000D01*
X64750000Y-70000000D02*
X67032000Y-70000000D01*
X63520000Y-73520000D02*
X63520000Y-74520000D01*
X65306001Y-74976001D02*
X67032000Y-73250002D01*
X67032000Y-73250002D02*
X67032000Y-70000000D01*
X63976001Y-74976001D02*
X65306001Y-74976001D01*
X63520000Y-74520000D02*
X63976001Y-74976001D01*
%TO.N,/B_1*%
X62250000Y-72250000D02*
X63500000Y-71000000D01*
X63500000Y-71000000D02*
X63500000Y-70750000D01*
X64750000Y-67725000D02*
X64775000Y-67750000D01*
X64750000Y-66000000D02*
X64750000Y-67725000D01*
X49662000Y-72250000D02*
X49162000Y-71750000D01*
X50500000Y-72250000D02*
X49662000Y-72250000D01*
D27*
%TO.N,/D_a*%
X62825000Y-66800000D02*
X64625000Y-65000000D01*
X62825000Y-67750000D02*
X62825000Y-66800000D01*
X64625000Y-65000000D02*
X65500000Y-65000000D01*
X75655001Y-48844999D02*
X75655001Y-42405001D01*
X75000000Y-49500000D02*
X75655001Y-48844999D01*
X75655001Y-42405001D02*
X73750000Y-40500000D01*
%TO.N,/D_b*%
X62175000Y-65085050D02*
X62755025Y-64505025D01*
X62175000Y-67750000D02*
X62175000Y-65085050D01*
X51950000Y-36200000D02*
X50050000Y-36200000D01*
X58000000Y-42250000D02*
X51950000Y-36200000D01*
X58000000Y-52000000D02*
X58000000Y-42250000D01*
%TO.N,/D_c*%
X61675001Y-64436413D02*
X58750000Y-61511412D01*
X61675001Y-65765949D02*
X61675001Y-64436413D01*
X61525000Y-65915950D02*
X61675001Y-65765949D01*
X61525000Y-67750000D02*
X61525000Y-65915950D01*
X58750000Y-61511412D02*
X58750000Y-61750000D01*
D28*
%TO.N,/C_1*%
X60974990Y-67525010D02*
X60974990Y-65775010D01*
X60875000Y-67625000D02*
X60974990Y-67525010D01*
X60875000Y-67750000D02*
X60875000Y-67625000D01*
X60950000Y-65750020D02*
X60950000Y-65417948D01*
X60974990Y-65775010D02*
X60950000Y-65750020D01*
X70596400Y-49250000D02*
X71567400Y-50221000D01*
X69750000Y-49250000D02*
X70596400Y-49250000D01*
X67332099Y-48850001D02*
X65961100Y-50221000D01*
X69350001Y-48850001D02*
X67332099Y-48850001D01*
X69750000Y-49250000D02*
X69350001Y-48850001D01*
%TO.N,/C_2*%
X60225000Y-67750000D02*
X60225000Y-66275000D01*
X60225000Y-66275000D02*
X60250000Y-66250000D01*
X60250000Y-50116200D02*
X60354800Y-50221000D01*
X60250000Y-49000000D02*
X60250000Y-50116200D01*
X42500000Y-49750000D02*
X42500000Y-49250000D01*
X42971000Y-50221000D02*
X42500000Y-49750000D01*
X43536000Y-50221000D02*
X42971000Y-50221000D01*
%TO.N,/C_3*%
X59575000Y-66575000D02*
X59000000Y-66000000D01*
X59575000Y-67750000D02*
X59575000Y-66575000D01*
X37708700Y-50000000D02*
X37929700Y-50221000D01*
X36000000Y-50000000D02*
X37708700Y-50000000D01*
X53221000Y-50221000D02*
X53000000Y-50000000D01*
X54748600Y-50221000D02*
X53221000Y-50221000D01*
%TO.N,/C_4*%
X59575000Y-60750000D02*
X58750000Y-59925000D01*
X58750000Y-59925000D02*
X58750000Y-59000000D01*
X32323400Y-50221000D02*
X32323400Y-50676600D01*
X32000000Y-51000000D02*
X30500000Y-51000000D01*
X32323400Y-50676600D02*
X32000000Y-51000000D01*
X49142300Y-50221000D02*
X49142300Y-50607700D01*
X48750000Y-51000000D02*
X47750000Y-51000000D01*
X49142300Y-50607700D02*
X48750000Y-51000000D01*
D27*
%TO.N,/D_dp*%
X61025000Y-62500000D02*
X62000000Y-62500000D01*
X60225000Y-61700000D02*
X61025000Y-62500000D01*
X60225000Y-60750000D02*
X60225000Y-61700000D01*
%TO.N,/D_g*%
X61395614Y-58018614D02*
X62857512Y-58018614D01*
X60875000Y-58539228D02*
X61395614Y-58018614D01*
X60875000Y-60750000D02*
X60875000Y-58539228D01*
X62857512Y-58018614D02*
X63248926Y-57627200D01*
X63248926Y-45887764D02*
X67136690Y-42000000D01*
X63248926Y-57627200D02*
X63248926Y-45887764D01*
X68209692Y-42000000D02*
X68229846Y-41979846D01*
X67136690Y-42000000D02*
X68209692Y-42000000D01*
%TO.N,/D_d*%
X61525000Y-60750000D02*
X61525000Y-58975000D01*
X61743615Y-58756385D02*
X61743615Y-58743615D01*
X61525000Y-58975000D02*
X61743615Y-58756385D01*
%TO.N,/D_e*%
X62175000Y-60750000D02*
X62175000Y-59337536D01*
X63698936Y-46510756D02*
X64604846Y-45604846D01*
X63698936Y-57813600D02*
X63698936Y-46510756D01*
X62175000Y-59337536D02*
X63698936Y-57813600D01*
%TO.N,/D_f*%
X62825000Y-59323946D02*
X64148946Y-58000000D01*
X62825000Y-60750000D02*
X62825000Y-59323946D01*
X72040000Y-39194998D02*
X72040000Y-36200000D01*
X64148946Y-47086052D02*
X72040000Y-39194998D01*
X64148946Y-58000000D02*
X64148946Y-47086052D01*
D28*
%TO.N,/C_Buzzer*%
X57156000Y-60899000D02*
X57149000Y-60899000D01*
X57149000Y-60899000D02*
X56250000Y-60000000D01*
X56250000Y-60000000D02*
X52750000Y-60000000D01*
X51800000Y-60950000D02*
X51800000Y-61500000D01*
X52750000Y-60000000D02*
X51800000Y-60950000D01*
X64775000Y-61700000D02*
X65750000Y-62675000D01*
X64775000Y-60750000D02*
X64775000Y-61700000D01*
X58000000Y-60055000D02*
X57156000Y-60899000D01*
X58000000Y-60000000D02*
X58000000Y-60055000D01*
%TO.N,Net-(LED1-Pad2)*%
X57122000Y-62833000D02*
X57156000Y-62799000D01*
X57122000Y-64832000D02*
X57122000Y-62833000D01*
D27*
%TO.N,Net-(LS1-Pad1)*%
X41757600Y-59378700D02*
X45878700Y-59378700D01*
X50084000Y-63584000D02*
X51891000Y-63584000D01*
X45878700Y-59378700D02*
X50084000Y-63584000D01*
%TO.N,Net-(Q1-Pad3)*%
X66911100Y-55995100D02*
X65946200Y-56960000D01*
X66911100Y-54776200D02*
X66911100Y-55995100D01*
D28*
%TO.N,Net-(Q1-Pad1)*%
X67861100Y-52671200D02*
X67866100Y-52676200D01*
X67861100Y-50221000D02*
X67861100Y-52671200D01*
D27*
%TO.N,Net-(Q2-Pad3)*%
X61304800Y-55997600D02*
X60342400Y-56960000D01*
X61304800Y-54776200D02*
X61304800Y-55997600D01*
D28*
%TO.N,Net-(Q2-Pad1)*%
X62254800Y-52671200D02*
X62259800Y-52676200D01*
X62254800Y-50221000D02*
X62254800Y-52671200D01*
D27*
%TO.N,Net-(Q3-Pad3)*%
X55698600Y-56000000D02*
X54738600Y-56960000D01*
X55698600Y-54776200D02*
X55698600Y-56000000D01*
D28*
%TO.N,Net-(Q3-Pad1)*%
X56648600Y-52671200D02*
X56653600Y-52676200D01*
X56648600Y-50221000D02*
X56648600Y-52671200D01*
D27*
%TO.N,Net-(Q4-Pad3)*%
X50092300Y-56002500D02*
X49134800Y-56960000D01*
X50092300Y-54776200D02*
X50092300Y-56002500D01*
D28*
%TO.N,Net-(Q4-Pad1)*%
X51042300Y-52671200D02*
X51047300Y-52676200D01*
X51042300Y-50221000D02*
X51042300Y-52671200D01*
D27*
%TO.N,Net-(Q5-Pad3)*%
X53796000Y-66634000D02*
X52846000Y-65684000D01*
X53796000Y-67936000D02*
X53796000Y-66634000D01*
D28*
%TO.N,Net-(Q5-Pad1)*%
X53801000Y-61601000D02*
X53700000Y-61500000D01*
X53801000Y-63584000D02*
X53801000Y-61601000D01*
D27*
%TO.N,/CC_1*%
X67846200Y-55628494D02*
X68249847Y-55224847D01*
X67846200Y-56960000D02*
X67846200Y-55628494D01*
X43400000Y-42250000D02*
X37350000Y-36200000D01*
X49500000Y-42250000D02*
X43400000Y-42250000D01*
%TO.N,/CC_2*%
X62242400Y-56007600D02*
X62500000Y-55750000D01*
X62242400Y-56960000D02*
X62242400Y-56007600D01*
X52250000Y-43480000D02*
X44970000Y-36200000D01*
X52250000Y-45500000D02*
X52250000Y-43480000D01*
%TO.N,/CC_3*%
X48585001Y-35124999D02*
X47510000Y-36200000D01*
X51511409Y-35124999D02*
X48585001Y-35124999D01*
X58725001Y-42338591D02*
X51511409Y-35124999D01*
X58725001Y-54873599D02*
X58725001Y-42338591D01*
X56638600Y-56960000D02*
X58725001Y-54873599D01*
%TO.N,/CC_4*%
X51034800Y-56960000D02*
X51040000Y-56960000D01*
X51040000Y-56960000D02*
X52250000Y-55750000D01*
X52250000Y-48560000D02*
X50050000Y-46360000D01*
X52250000Y-55750000D02*
X52250000Y-48560000D01*
D28*
%TO.N,Net-(R11-Pad1)*%
X80822000Y-56982000D02*
X78912000Y-56982000D01*
X78912000Y-56982000D02*
X76000000Y-59894000D01*
X76000000Y-60508000D02*
X72252000Y-64256000D01*
X76000000Y-59894000D02*
X76000000Y-60508000D01*
X75244000Y-64256000D02*
X75250000Y-64250000D01*
X72252000Y-64256000D02*
X75244000Y-64256000D01*
%TO.N,Net-(R15-Pad1)*%
X47003800Y-66683100D02*
X47003800Y-64773100D01*
X46486700Y-64256000D02*
X47003800Y-64773100D01*
X44752000Y-64256000D02*
X46486700Y-64256000D01*
X44752000Y-64256000D02*
X32252000Y-64256000D01*
%TO.N,/MCLR*%
X67870000Y-59120000D02*
X67870000Y-59654000D01*
X64000000Y-58750000D02*
X67500000Y-58750000D01*
X67500000Y-58750000D02*
X67870000Y-59120000D01*
X63475000Y-59275000D02*
X64000000Y-58750000D01*
X63475000Y-60750000D02*
X63475000Y-59275000D01*
X60980000Y-73520000D02*
X60980000Y-74230000D01*
X60980000Y-74230000D02*
X61500000Y-74750000D01*
X63500000Y-60775000D02*
X63475000Y-60750000D01*
X63500000Y-62500000D02*
X63500000Y-60775000D01*
%TO.N,/C_U13*%
X51232098Y-70690000D02*
X50750000Y-70207902D01*
X51847100Y-70690000D02*
X51232098Y-70690000D01*
X50750000Y-70207902D02*
X50750000Y-69250000D01*
X64125000Y-62125000D02*
X64125000Y-60750000D01*
X64500000Y-62500000D02*
X64125000Y-62125000D01*
X76903700Y-50500000D02*
X77173700Y-50230000D01*
X76000000Y-50500000D02*
X76903700Y-50500000D01*
%TO.N,/C_display*%
X56410300Y-71340000D02*
X57181800Y-70568500D01*
X53747100Y-71340000D02*
X56410300Y-71340000D01*
X58543194Y-70568500D02*
X58737347Y-70762653D01*
X57181800Y-70568500D02*
X58543194Y-70568500D01*
X82770000Y-50250000D02*
X82780000Y-50240000D01*
X81500000Y-50250000D02*
X82770000Y-50250000D01*
%TO.N,/U3*%
X49137300Y-52676200D02*
X48426200Y-52676200D01*
X48426200Y-52676200D02*
X48250000Y-52500000D01*
X53426200Y-52676200D02*
X53250000Y-52500000D01*
X54743600Y-52676200D02*
X53426200Y-52676200D01*
X59542399Y-53483601D02*
X59542399Y-56457601D01*
X60349800Y-52676200D02*
X59542399Y-53483601D01*
X59542399Y-56457601D02*
X57500000Y-58500000D01*
X65956100Y-54917846D02*
X65956100Y-52676200D01*
X64873946Y-56000000D02*
X65956100Y-54917846D01*
X83252600Y-55250000D02*
X83730000Y-54772600D01*
X82500000Y-55250000D02*
X83252600Y-55250000D01*
D27*
%TO.N,Net-(Q6-Pad3)*%
X72517400Y-55992600D02*
X71550000Y-56960000D01*
X72517400Y-54776200D02*
X72517400Y-55992600D01*
D28*
%TO.N,/U1*%
X32318400Y-52676200D02*
X32176200Y-52676200D01*
X32176200Y-52676200D02*
X31250000Y-51750000D01*
X42676200Y-52676200D02*
X41750000Y-51750000D01*
X43531000Y-52676200D02*
X42676200Y-52676200D01*
X37101199Y-52676200D02*
X36174999Y-51750000D01*
X37924700Y-52676200D02*
X37101199Y-52676200D01*
X71562400Y-52312400D02*
X71562400Y-52676200D01*
X70000000Y-50750000D02*
X71562400Y-52312400D01*
X77264202Y-54771800D02*
X74750000Y-57286002D01*
X78123700Y-54771800D02*
X77264202Y-54771800D01*
X74750000Y-57286002D02*
X74750000Y-58000000D01*
%TO.N,Net-(Q6-Pad1)*%
X73467400Y-52671200D02*
X73472400Y-52676200D01*
X73467400Y-50221000D02*
X73467400Y-52671200D01*
D27*
%TO.N,Net-(Q7-Pad3)*%
X44486000Y-56015000D02*
X45431000Y-56960000D01*
X44486000Y-54776200D02*
X44486000Y-56015000D01*
D28*
%TO.N,Net-(Q7-Pad1)*%
X45436000Y-52671200D02*
X45441000Y-52676200D01*
X45436000Y-50221000D02*
X45436000Y-52671200D01*
D27*
%TO.N,Net-(Q8-Pad3)*%
X38879700Y-56012500D02*
X39827200Y-56960000D01*
X38879700Y-54776200D02*
X38879700Y-56012500D01*
D28*
%TO.N,Net-(Q8-Pad1)*%
X39829700Y-50221000D02*
X39829700Y-52079700D01*
X39834700Y-52084700D02*
X39834700Y-52676200D01*
X39829700Y-52079700D02*
X39834700Y-52084700D01*
D27*
%TO.N,Net-(Q9-Pad3)*%
X33273400Y-56010000D02*
X32323400Y-56960000D01*
X33273400Y-54776200D02*
X33273400Y-56010000D01*
D28*
%TO.N,Net-(Q9-Pad1)*%
X34223400Y-52671200D02*
X34228400Y-52676200D01*
X34223400Y-50221000D02*
X34223400Y-52671200D01*
%TO.N,Net-(Q10-Pad1)*%
X79073700Y-52666800D02*
X79078700Y-52671800D01*
X79073700Y-50230000D02*
X79073700Y-52666800D01*
%TO.N,Net-(Q11-Pad1)*%
X84685000Y-50245000D02*
X84680000Y-50240000D01*
X84685000Y-52672600D02*
X84685000Y-50245000D01*
D27*
%TO.N,/CC_5*%
X73450000Y-56960000D02*
X73790000Y-56960000D01*
X75000000Y-55750000D02*
X75250000Y-55750000D01*
X73790000Y-56960000D02*
X75000000Y-55750000D01*
%TO.N,/CC_6*%
X43531000Y-56960000D02*
X42040000Y-56960000D01*
X42040000Y-56960000D02*
X40750000Y-58250000D01*
X40750000Y-58250000D02*
X35750000Y-58250000D01*
%TO.N,/CC_7*%
X37927200Y-56960000D02*
X36540000Y-56960000D01*
X36540000Y-56960000D02*
X36500000Y-57000000D01*
%TO.N,/CC_8*%
X34223400Y-56960000D02*
X34223400Y-57276600D01*
X34223400Y-57276600D02*
X33250000Y-58250000D01*
X33250000Y-58250000D02*
X31250000Y-58250000D01*
D28*
%TO.N,Net-(C2-Pad1)*%
X80658000Y-60203000D02*
X80658000Y-59268000D01*
X74023000Y-66838000D02*
X80658000Y-60203000D01*
X67870000Y-66838000D02*
X74023000Y-66838000D01*
X80658000Y-59046000D02*
X82722000Y-56982000D01*
X80658000Y-59268000D02*
X80658000Y-59046000D01*
%TO.N,Net-(C3-Pad1)*%
X46838000Y-68748900D02*
X47003800Y-68583100D01*
X46838000Y-71750000D02*
X46838000Y-68748900D01*
X48354800Y-64839100D02*
X49289800Y-64839100D01*
X48003801Y-65190099D02*
X48354800Y-64839100D01*
X48003801Y-67583099D02*
X48003801Y-65190099D01*
X47003800Y-68583100D02*
X48003801Y-67583099D01*
%TD*%
D29*
%TO.N,+3V*%
X86478895Y-31841322D02*
X86194137Y-32267491D01*
X85997993Y-32741025D01*
X85898000Y-33243725D01*
X85898000Y-33756275D01*
X85997993Y-34258975D01*
X86194137Y-34732509D01*
X86478895Y-35158678D01*
X86841322Y-35521105D01*
X87267491Y-35805863D01*
X87741025Y-36002007D01*
X88243725Y-36102000D01*
X88756275Y-36102000D01*
X89258975Y-36002007D01*
X89732509Y-35805863D01*
X90158678Y-35521105D01*
X90198000Y-35481783D01*
X90198001Y-71518218D01*
X90158678Y-71478895D01*
X89732509Y-71194137D01*
X89258975Y-70997993D01*
X88756275Y-70898000D01*
X88243725Y-70898000D01*
X87741025Y-70997993D01*
X87267491Y-71194137D01*
X86841322Y-71478895D01*
X86478895Y-71841322D01*
X86194137Y-72267491D01*
X85997993Y-72741025D01*
X85898000Y-73243725D01*
X85898000Y-73756275D01*
X85997993Y-74258975D01*
X86194137Y-74732509D01*
X86478895Y-75158678D01*
X86518217Y-75198000D01*
X66253555Y-75198000D01*
X67588054Y-73863502D01*
X67619606Y-73837608D01*
X67645502Y-73806054D01*
X67722952Y-73711683D01*
X67787531Y-73590863D01*
X67799745Y-73568012D01*
X67847034Y-73412122D01*
X67859000Y-73290626D01*
X67859000Y-73290617D01*
X67863000Y-73250003D01*
X67859000Y-73209389D01*
X67859000Y-70430017D01*
X68120000Y-70430017D01*
X68262517Y-70415980D01*
X68399557Y-70374410D01*
X68525853Y-70306903D01*
X68636554Y-70216054D01*
X68727403Y-70105353D01*
X68794910Y-69979057D01*
X68836480Y-69842017D01*
X68850517Y-69699500D01*
X68850517Y-68624500D01*
X68836480Y-68481983D01*
X68794910Y-68344943D01*
X68727403Y-68218647D01*
X68636554Y-68107946D01*
X68525853Y-68017097D01*
X68493867Y-68000000D01*
X68525853Y-67982903D01*
X68636554Y-67892054D01*
X68727403Y-67781353D01*
X68789595Y-67665000D01*
X71006720Y-67665000D01*
X70968808Y-67702912D01*
X70788017Y-67973485D01*
X70663486Y-68274129D01*
X70600000Y-68593292D01*
X70600000Y-68918708D01*
X70663486Y-69237871D01*
X70788017Y-69538515D01*
X70968808Y-69809088D01*
X71198912Y-70039192D01*
X71469485Y-70219983D01*
X71770129Y-70344514D01*
X72089292Y-70408000D01*
X72414708Y-70408000D01*
X72733871Y-70344514D01*
X73034515Y-70219983D01*
X73305088Y-70039192D01*
X73535192Y-69809088D01*
X73715983Y-69538515D01*
X73840514Y-69237871D01*
X73904000Y-68918708D01*
X73904000Y-68593292D01*
X83100000Y-68593292D01*
X83100000Y-68918708D01*
X83163486Y-69237871D01*
X83288017Y-69538515D01*
X83468808Y-69809088D01*
X83698912Y-70039192D01*
X83969485Y-70219983D01*
X84270129Y-70344514D01*
X84589292Y-70408000D01*
X84914708Y-70408000D01*
X85233871Y-70344514D01*
X85534515Y-70219983D01*
X85805088Y-70039192D01*
X86035192Y-69809088D01*
X86215983Y-69538515D01*
X86340514Y-69237871D01*
X86404000Y-68918708D01*
X86404000Y-68593292D01*
X86340514Y-68274129D01*
X86215983Y-67973485D01*
X86035192Y-67702912D01*
X85805088Y-67472808D01*
X85534515Y-67292017D01*
X85233871Y-67167486D01*
X84914708Y-67104000D01*
X84589292Y-67104000D01*
X84270129Y-67167486D01*
X83969485Y-67292017D01*
X83698912Y-67472808D01*
X83468808Y-67702912D01*
X83288017Y-67973485D01*
X83163486Y-68274129D01*
X83100000Y-68593292D01*
X73904000Y-68593292D01*
X73840514Y-68274129D01*
X73715983Y-67973485D01*
X73535192Y-67702912D01*
X73497280Y-67665000D01*
X73982386Y-67665000D01*
X74023000Y-67669000D01*
X74063614Y-67665000D01*
X74063624Y-67665000D01*
X74185120Y-67653034D01*
X74341010Y-67605745D01*
X74484679Y-67528952D01*
X74610606Y-67425606D01*
X74636505Y-67394048D01*
X77937261Y-64093292D01*
X83100000Y-64093292D01*
X83100000Y-64418708D01*
X83163486Y-64737871D01*
X83288017Y-65038515D01*
X83468808Y-65309088D01*
X83698912Y-65539192D01*
X83969485Y-65719983D01*
X84270129Y-65844514D01*
X84589292Y-65908000D01*
X84914708Y-65908000D01*
X85233871Y-65844514D01*
X85534515Y-65719983D01*
X85805088Y-65539192D01*
X86035192Y-65309088D01*
X86215983Y-65038515D01*
X86340514Y-64737871D01*
X86404000Y-64418708D01*
X86404000Y-64093292D01*
X86340514Y-63774129D01*
X86215983Y-63473485D01*
X86035192Y-63202912D01*
X85805088Y-62972808D01*
X85534515Y-62792017D01*
X85233871Y-62667486D01*
X84914708Y-62604000D01*
X84589292Y-62604000D01*
X84270129Y-62667486D01*
X83969485Y-62792017D01*
X83698912Y-62972808D01*
X83468808Y-63202912D01*
X83288017Y-63473485D01*
X83163486Y-63774129D01*
X83100000Y-64093292D01*
X77937261Y-64093292D01*
X81214054Y-60816500D01*
X81245606Y-60790606D01*
X81274006Y-60756001D01*
X81302084Y-60721788D01*
X81325517Y-60719480D01*
X81462557Y-60677910D01*
X81588853Y-60610403D01*
X81699554Y-60519554D01*
X81790403Y-60408853D01*
X81857910Y-60282557D01*
X81899480Y-60145517D01*
X81913517Y-60003000D01*
X81913517Y-58960036D01*
X82461037Y-58412517D01*
X83222000Y-58412517D01*
X83364517Y-58398480D01*
X83501557Y-58356910D01*
X83627853Y-58289403D01*
X83738554Y-58198554D01*
X83829403Y-58087853D01*
X83896910Y-57961557D01*
X83938480Y-57824517D01*
X83952517Y-57682000D01*
X83952517Y-56282000D01*
X83938480Y-56139483D01*
X83935032Y-56128117D01*
X84030000Y-56128117D01*
X84172517Y-56114080D01*
X84309557Y-56072510D01*
X84435853Y-56005003D01*
X84546554Y-55914154D01*
X84637403Y-55803453D01*
X84704910Y-55677157D01*
X84746480Y-55540117D01*
X84760517Y-55397600D01*
X84760517Y-54147600D01*
X84748749Y-54028117D01*
X84985000Y-54028117D01*
X85127517Y-54014080D01*
X85264557Y-53972510D01*
X85390853Y-53905003D01*
X85501554Y-53814154D01*
X85592403Y-53703453D01*
X85659910Y-53577157D01*
X85701480Y-53440117D01*
X85715517Y-53297600D01*
X85715517Y-52047600D01*
X85701480Y-51905083D01*
X85659910Y-51768043D01*
X85592403Y-51641747D01*
X85536588Y-51573736D01*
X85585853Y-51547403D01*
X85696554Y-51456554D01*
X85787403Y-51345853D01*
X85854910Y-51219557D01*
X85896480Y-51082517D01*
X85910517Y-50940000D01*
X85910517Y-49540000D01*
X85896480Y-49397483D01*
X85854910Y-49260443D01*
X85787403Y-49134147D01*
X85696554Y-49023446D01*
X85585853Y-48932597D01*
X85459557Y-48865090D01*
X85322517Y-48823520D01*
X85180000Y-48809483D01*
X84180000Y-48809483D01*
X84037483Y-48823520D01*
X83900443Y-48865090D01*
X83774147Y-48932597D01*
X83730000Y-48968827D01*
X83685853Y-48932597D01*
X83559557Y-48865090D01*
X83422517Y-48823520D01*
X83280000Y-48809483D01*
X82280000Y-48809483D01*
X82137483Y-48823520D01*
X82000443Y-48865090D01*
X81874147Y-48932597D01*
X81763446Y-49023446D01*
X81672597Y-49134147D01*
X81672063Y-49135146D01*
X81611000Y-49123000D01*
X81389000Y-49123000D01*
X81171266Y-49166310D01*
X80966165Y-49251266D01*
X80781579Y-49374602D01*
X80624602Y-49531579D01*
X80501266Y-49716165D01*
X80416310Y-49921266D01*
X80373000Y-50139000D01*
X80373000Y-50361000D01*
X80416310Y-50578734D01*
X80501266Y-50783835D01*
X80624602Y-50968421D01*
X80781579Y-51125398D01*
X80966165Y-51248734D01*
X81171266Y-51333690D01*
X81389000Y-51377000D01*
X81611000Y-51377000D01*
X81685927Y-51362096D01*
X81763446Y-51456554D01*
X81874147Y-51547403D01*
X81923412Y-51573736D01*
X81867597Y-51641747D01*
X81802420Y-51763684D01*
X81783835Y-51751266D01*
X81578734Y-51666310D01*
X81361000Y-51623000D01*
X81139000Y-51623000D01*
X80921266Y-51666310D01*
X80716165Y-51751266D01*
X80531579Y-51874602D01*
X80374602Y-52031579D01*
X80251266Y-52216165D01*
X80166310Y-52421266D01*
X80123000Y-52639000D01*
X80123000Y-52861000D01*
X80166310Y-53078734D01*
X80251266Y-53283835D01*
X80374602Y-53468421D01*
X80531579Y-53625398D01*
X80716165Y-53748734D01*
X80921266Y-53833690D01*
X81139000Y-53877000D01*
X81361000Y-53877000D01*
X81578734Y-53833690D01*
X81783835Y-53748734D01*
X81863388Y-53695579D01*
X81867597Y-53703453D01*
X81958446Y-53814154D01*
X82069147Y-53905003D01*
X82195443Y-53972510D01*
X82332483Y-54014080D01*
X82475000Y-54028117D01*
X82711251Y-54028117D01*
X82700159Y-54140735D01*
X82611000Y-54123000D01*
X82389000Y-54123000D01*
X82171266Y-54166310D01*
X81966165Y-54251266D01*
X81781579Y-54374602D01*
X81624602Y-54531579D01*
X81501266Y-54716165D01*
X81416310Y-54921266D01*
X81373000Y-55139000D01*
X81373000Y-55361000D01*
X81412666Y-55560413D01*
X81322000Y-55551483D01*
X80322000Y-55551483D01*
X80179483Y-55565520D01*
X80042443Y-55607090D01*
X79916147Y-55674597D01*
X79867000Y-55714930D01*
X79817853Y-55674597D01*
X79691557Y-55607090D01*
X79554517Y-55565520D01*
X79412000Y-55551483D01*
X79136490Y-55551483D01*
X79140180Y-55539317D01*
X79154217Y-55396800D01*
X79154217Y-54146800D01*
X79142449Y-54027317D01*
X79378700Y-54027317D01*
X79521217Y-54013280D01*
X79658257Y-53971710D01*
X79784553Y-53904203D01*
X79895254Y-53813354D01*
X79986103Y-53702653D01*
X80053610Y-53576357D01*
X80095180Y-53439317D01*
X80109217Y-53296800D01*
X80109217Y-52046800D01*
X80095180Y-51904283D01*
X80053610Y-51767243D01*
X79986103Y-51640947D01*
X79925040Y-51566541D01*
X79979553Y-51537403D01*
X80090254Y-51446554D01*
X80181103Y-51335853D01*
X80248610Y-51209557D01*
X80290180Y-51072517D01*
X80304217Y-50930000D01*
X80304217Y-49530000D01*
X80290180Y-49387483D01*
X80248610Y-49250443D01*
X80181103Y-49124147D01*
X80090254Y-49013446D01*
X79979553Y-48922597D01*
X79853257Y-48855090D01*
X79716217Y-48813520D01*
X79573700Y-48799483D01*
X78573700Y-48799483D01*
X78431183Y-48813520D01*
X78294143Y-48855090D01*
X78167847Y-48922597D01*
X78123700Y-48958827D01*
X78079553Y-48922597D01*
X77953257Y-48855090D01*
X77816217Y-48813520D01*
X77673700Y-48799483D01*
X76673700Y-48799483D01*
X76531183Y-48813520D01*
X76508694Y-48820342D01*
X76507001Y-48803151D01*
X76507001Y-47704781D01*
X76689175Y-47780240D01*
X76974528Y-47837000D01*
X77265472Y-47837000D01*
X77550825Y-47780240D01*
X77819622Y-47668901D01*
X78061533Y-47507261D01*
X78267261Y-47301533D01*
X78390000Y-47117841D01*
X78512739Y-47301533D01*
X78718467Y-47507261D01*
X78960378Y-47668901D01*
X79229175Y-47780240D01*
X79514528Y-47837000D01*
X79805472Y-47837000D01*
X80090825Y-47780240D01*
X80359622Y-47668901D01*
X80601533Y-47507261D01*
X80807261Y-47301533D01*
X80968901Y-47059622D01*
X81080240Y-46790825D01*
X81137000Y-46505472D01*
X81137000Y-46214528D01*
X81080240Y-45929175D01*
X80968901Y-45660378D01*
X80807261Y-45418467D01*
X80601533Y-45212739D01*
X80359622Y-45051099D01*
X80090825Y-44939760D01*
X79805472Y-44883000D01*
X79514528Y-44883000D01*
X79229175Y-44939760D01*
X78960378Y-45051099D01*
X78718467Y-45212739D01*
X78512739Y-45418467D01*
X78390000Y-45602159D01*
X78267261Y-45418467D01*
X78061533Y-45212739D01*
X77819622Y-45051099D01*
X77550825Y-44939760D01*
X77265472Y-44883000D01*
X76974528Y-44883000D01*
X76689175Y-44939760D01*
X76507001Y-45015219D01*
X76507001Y-42446849D01*
X76511123Y-42405000D01*
X76501626Y-42308580D01*
X76494673Y-42237980D01*
X76445955Y-42077377D01*
X76393824Y-41979847D01*
X76366840Y-41929364D01*
X76312339Y-41862955D01*
X76260371Y-41799631D01*
X76227861Y-41772951D01*
X74877000Y-40422091D01*
X74877000Y-40389000D01*
X74833690Y-40171266D01*
X74748734Y-39966165D01*
X74625398Y-39781579D01*
X74468421Y-39624602D01*
X74283835Y-39501266D01*
X74078734Y-39416310D01*
X73861000Y-39373000D01*
X73639000Y-39373000D01*
X73421266Y-39416310D01*
X73216165Y-39501266D01*
X73031579Y-39624602D01*
X72874602Y-39781579D01*
X72751266Y-39966165D01*
X72666310Y-40171266D01*
X72623000Y-40389000D01*
X72623000Y-40611000D01*
X72666310Y-40828734D01*
X72751266Y-41033835D01*
X72874602Y-41218421D01*
X73031579Y-41375398D01*
X73216165Y-41498734D01*
X73421266Y-41583690D01*
X73639000Y-41627000D01*
X73672091Y-41627000D01*
X74803002Y-42757912D01*
X74803002Y-44898422D01*
X74725472Y-44883000D01*
X74434528Y-44883000D01*
X74149175Y-44939760D01*
X73880378Y-45051099D01*
X73638467Y-45212739D01*
X73432739Y-45418467D01*
X73310000Y-45602159D01*
X73187261Y-45418467D01*
X72981533Y-45212739D01*
X72739622Y-45051099D01*
X72470825Y-44939760D01*
X72185472Y-44883000D01*
X71894528Y-44883000D01*
X71609175Y-44939760D01*
X71340378Y-45051099D01*
X71098467Y-45212739D01*
X70892739Y-45418467D01*
X70770000Y-45602159D01*
X70647261Y-45418467D01*
X70441533Y-45212739D01*
X70199622Y-45051099D01*
X69930825Y-44939760D01*
X69645472Y-44883000D01*
X69354528Y-44883000D01*
X69069175Y-44939760D01*
X68800378Y-45051099D01*
X68558467Y-45212739D01*
X68397909Y-45373297D01*
X68384910Y-45330443D01*
X68317403Y-45204147D01*
X68226554Y-45093446D01*
X68115853Y-45002597D01*
X67989557Y-44935090D01*
X67852517Y-44893520D01*
X67710000Y-44879483D01*
X67560424Y-44879483D01*
X70123000Y-42316908D01*
X70123000Y-42361000D01*
X70166310Y-42578734D01*
X70251266Y-42783835D01*
X70374602Y-42968421D01*
X70531579Y-43125398D01*
X70716165Y-43248734D01*
X70921266Y-43333690D01*
X71139000Y-43377000D01*
X71361000Y-43377000D01*
X71578734Y-43333690D01*
X71783835Y-43248734D01*
X71968421Y-43125398D01*
X72125398Y-42968421D01*
X72248734Y-42783835D01*
X72333690Y-42578734D01*
X72377000Y-42361000D01*
X72377000Y-42139000D01*
X72333690Y-41921266D01*
X72248734Y-41716165D01*
X72125398Y-41531579D01*
X71968421Y-41374602D01*
X71783835Y-41251266D01*
X71578734Y-41166310D01*
X71361000Y-41123000D01*
X71316908Y-41123000D01*
X72612861Y-39827047D01*
X72645370Y-39800368D01*
X72751839Y-39670634D01*
X72830954Y-39522622D01*
X72879672Y-39362019D01*
X72892000Y-39236850D01*
X72892000Y-39236847D01*
X72896122Y-39194998D01*
X72892000Y-39153149D01*
X72892000Y-37407085D01*
X72981533Y-37347261D01*
X73187261Y-37141533D01*
X73310000Y-36957841D01*
X73432739Y-37141533D01*
X73638467Y-37347261D01*
X73880378Y-37508901D01*
X74149175Y-37620240D01*
X74434528Y-37677000D01*
X74725472Y-37677000D01*
X75010825Y-37620240D01*
X75279622Y-37508901D01*
X75521533Y-37347261D01*
X75727261Y-37141533D01*
X75850000Y-36957841D01*
X75972739Y-37141533D01*
X76178467Y-37347261D01*
X76420378Y-37508901D01*
X76689175Y-37620240D01*
X76974528Y-37677000D01*
X77265472Y-37677000D01*
X77550825Y-37620240D01*
X77819622Y-37508901D01*
X78061533Y-37347261D01*
X78267261Y-37141533D01*
X78390000Y-36957841D01*
X78512739Y-37141533D01*
X78718467Y-37347261D01*
X78960378Y-37508901D01*
X79229175Y-37620240D01*
X79514528Y-37677000D01*
X79805472Y-37677000D01*
X80090825Y-37620240D01*
X80359622Y-37508901D01*
X80601533Y-37347261D01*
X80807261Y-37141533D01*
X80968901Y-36899622D01*
X81080240Y-36630825D01*
X81137000Y-36345472D01*
X81137000Y-36054528D01*
X81080240Y-35769175D01*
X80968901Y-35500378D01*
X80807261Y-35258467D01*
X80601533Y-35052739D01*
X80359622Y-34891099D01*
X80090825Y-34779760D01*
X79805472Y-34723000D01*
X79514528Y-34723000D01*
X79229175Y-34779760D01*
X78960378Y-34891099D01*
X78718467Y-35052739D01*
X78512739Y-35258467D01*
X78390000Y-35442159D01*
X78267261Y-35258467D01*
X78061533Y-35052739D01*
X77819622Y-34891099D01*
X77550825Y-34779760D01*
X77265472Y-34723000D01*
X76974528Y-34723000D01*
X76689175Y-34779760D01*
X76420378Y-34891099D01*
X76178467Y-35052739D01*
X75972739Y-35258467D01*
X75850000Y-35442159D01*
X75727261Y-35258467D01*
X75521533Y-35052739D01*
X75279622Y-34891099D01*
X75010825Y-34779760D01*
X74725472Y-34723000D01*
X74434528Y-34723000D01*
X74149175Y-34779760D01*
X73880378Y-34891099D01*
X73638467Y-35052739D01*
X73432739Y-35258467D01*
X73310000Y-35442159D01*
X73187261Y-35258467D01*
X72981533Y-35052739D01*
X72739622Y-34891099D01*
X72470825Y-34779760D01*
X72185472Y-34723000D01*
X71894528Y-34723000D01*
X71609175Y-34779760D01*
X71340378Y-34891099D01*
X71098467Y-35052739D01*
X70892739Y-35258467D01*
X70770000Y-35442159D01*
X70647261Y-35258467D01*
X70441533Y-35052739D01*
X70199622Y-34891099D01*
X69930825Y-34779760D01*
X69645472Y-34723000D01*
X69354528Y-34723000D01*
X69069175Y-34779760D01*
X68800378Y-34891099D01*
X68558467Y-35052739D01*
X68352739Y-35258467D01*
X68230000Y-35442159D01*
X68107261Y-35258467D01*
X67901533Y-35052739D01*
X67659622Y-34891099D01*
X67390825Y-34779760D01*
X67105472Y-34723000D01*
X66814528Y-34723000D01*
X66529175Y-34779760D01*
X66260378Y-34891099D01*
X66018467Y-35052739D01*
X65812739Y-35258467D01*
X65651099Y-35500378D01*
X65539760Y-35769175D01*
X65483000Y-36054528D01*
X65483000Y-36345472D01*
X65539760Y-36630825D01*
X65651099Y-36899622D01*
X65812739Y-37141533D01*
X66018467Y-37347261D01*
X66260378Y-37508901D01*
X66529175Y-37620240D01*
X66814528Y-37677000D01*
X67105472Y-37677000D01*
X67390825Y-37620240D01*
X67659622Y-37508901D01*
X67901533Y-37347261D01*
X68107261Y-37141533D01*
X68230000Y-36957841D01*
X68352739Y-37141533D01*
X68558467Y-37347261D01*
X68800378Y-37508901D01*
X69069175Y-37620240D01*
X69354528Y-37677000D01*
X69645472Y-37677000D01*
X69930825Y-37620240D01*
X70199622Y-37508901D01*
X70441533Y-37347261D01*
X70647261Y-37141533D01*
X70770000Y-36957841D01*
X70892739Y-37141533D01*
X71098467Y-37347261D01*
X71188001Y-37407086D01*
X71188000Y-38842088D01*
X68934703Y-41095385D01*
X68763681Y-40981112D01*
X68558580Y-40896156D01*
X68340846Y-40852846D01*
X68118846Y-40852846D01*
X67901112Y-40896156D01*
X67696011Y-40981112D01*
X67511425Y-41104448D01*
X67467873Y-41148000D01*
X67178539Y-41148000D01*
X67136690Y-41143878D01*
X67094841Y-41148000D01*
X67094838Y-41148000D01*
X66969669Y-41160328D01*
X66809066Y-41209046D01*
X66661054Y-41288161D01*
X66531320Y-41394630D01*
X66504641Y-41427139D01*
X62676067Y-45255714D01*
X62643557Y-45282394D01*
X62616878Y-45314903D01*
X62537087Y-45412128D01*
X62457972Y-45560141D01*
X62455271Y-45569046D01*
X62409541Y-45719802D01*
X62409255Y-45720744D01*
X62392804Y-45887764D01*
X62396927Y-45929623D01*
X62396927Y-48790483D01*
X61754800Y-48790483D01*
X61612283Y-48804520D01*
X61475243Y-48846090D01*
X61377000Y-48898602D01*
X61377000Y-48889000D01*
X61333690Y-48671266D01*
X61248734Y-48466165D01*
X61125398Y-48281579D01*
X60968421Y-48124602D01*
X60783835Y-48001266D01*
X60578734Y-47916310D01*
X60361000Y-47873000D01*
X60139000Y-47873000D01*
X59921266Y-47916310D01*
X59716165Y-48001266D01*
X59577001Y-48094252D01*
X59577001Y-42380440D01*
X59581123Y-42338591D01*
X59577001Y-42296739D01*
X59564673Y-42171570D01*
X59515955Y-42010967D01*
X59436840Y-41862955D01*
X59330371Y-41733221D01*
X59297861Y-41706541D01*
X52143464Y-34552145D01*
X52116779Y-34519629D01*
X51987045Y-34413160D01*
X51839033Y-34334045D01*
X51678430Y-34285327D01*
X51553261Y-34272999D01*
X51553258Y-34272999D01*
X51511409Y-34268877D01*
X51469560Y-34272999D01*
X48626850Y-34272999D01*
X48585001Y-34268877D01*
X48543152Y-34272999D01*
X48543149Y-34272999D01*
X48417980Y-34285327D01*
X48257377Y-34334045D01*
X48109364Y-34413160D01*
X48043460Y-34467246D01*
X47979631Y-34519629D01*
X47952951Y-34552139D01*
X47761083Y-34744007D01*
X47655472Y-34723000D01*
X47364528Y-34723000D01*
X47079175Y-34779760D01*
X46810378Y-34891099D01*
X46568467Y-35052739D01*
X46362739Y-35258467D01*
X46240000Y-35442159D01*
X46117261Y-35258467D01*
X45911533Y-35052739D01*
X45669622Y-34891099D01*
X45400825Y-34779760D01*
X45115472Y-34723000D01*
X44824528Y-34723000D01*
X44539175Y-34779760D01*
X44270378Y-34891099D01*
X44028467Y-35052739D01*
X43822739Y-35258467D01*
X43700000Y-35442159D01*
X43577261Y-35258467D01*
X43371533Y-35052739D01*
X43129622Y-34891099D01*
X42860825Y-34779760D01*
X42575472Y-34723000D01*
X42284528Y-34723000D01*
X41999175Y-34779760D01*
X41730378Y-34891099D01*
X41488467Y-35052739D01*
X41282739Y-35258467D01*
X41160000Y-35442159D01*
X41037261Y-35258467D01*
X40831533Y-35052739D01*
X40589622Y-34891099D01*
X40320825Y-34779760D01*
X40035472Y-34723000D01*
X39744528Y-34723000D01*
X39459175Y-34779760D01*
X39190378Y-34891099D01*
X38948467Y-35052739D01*
X38742739Y-35258467D01*
X38620000Y-35442159D01*
X38497261Y-35258467D01*
X38291533Y-35052739D01*
X38049622Y-34891099D01*
X37780825Y-34779760D01*
X37495472Y-34723000D01*
X37204528Y-34723000D01*
X36919175Y-34779760D01*
X36650378Y-34891099D01*
X36408467Y-35052739D01*
X36202739Y-35258467D01*
X36041099Y-35500378D01*
X35929760Y-35769175D01*
X35873000Y-36054528D01*
X35873000Y-36345472D01*
X35929760Y-36630825D01*
X36041099Y-36899622D01*
X36202739Y-37141533D01*
X36408467Y-37347261D01*
X36650378Y-37508901D01*
X36919175Y-37620240D01*
X37204528Y-37677000D01*
X37495472Y-37677000D01*
X37601084Y-37655993D01*
X42767950Y-42822860D01*
X42794630Y-42855370D01*
X42827138Y-42882048D01*
X42924363Y-42961839D01*
X43015158Y-43010370D01*
X43072376Y-43040954D01*
X43232979Y-43089672D01*
X43358148Y-43102000D01*
X43358150Y-43102000D01*
X43399999Y-43106122D01*
X43441848Y-43102000D01*
X47195001Y-43102000D01*
X47166310Y-43171266D01*
X47123000Y-43389000D01*
X47123000Y-43611000D01*
X47166310Y-43828734D01*
X47251266Y-44033835D01*
X47374602Y-44218421D01*
X47531579Y-44375398D01*
X47716165Y-44498734D01*
X47921266Y-44583690D01*
X48139000Y-44627000D01*
X48361000Y-44627000D01*
X48578734Y-44583690D01*
X48783835Y-44498734D01*
X48968421Y-44375398D01*
X49125398Y-44218421D01*
X49248734Y-44033835D01*
X49333690Y-43828734D01*
X49377000Y-43611000D01*
X49377000Y-43389000D01*
X49374020Y-43374020D01*
X49389000Y-43377000D01*
X49611000Y-43377000D01*
X49828734Y-43333690D01*
X50033835Y-43248734D01*
X50218421Y-43125398D01*
X50375398Y-42968421D01*
X50438729Y-42873638D01*
X51398001Y-43832910D01*
X51398000Y-44758181D01*
X51374602Y-44781579D01*
X51251266Y-44966165D01*
X51166310Y-45171266D01*
X51130432Y-45351638D01*
X50991533Y-45212739D01*
X50749622Y-45051099D01*
X50480825Y-44939760D01*
X50195472Y-44883000D01*
X49904528Y-44883000D01*
X49619175Y-44939760D01*
X49350378Y-45051099D01*
X49108467Y-45212739D01*
X48902739Y-45418467D01*
X48780000Y-45602159D01*
X48657261Y-45418467D01*
X48451533Y-45212739D01*
X48209622Y-45051099D01*
X47940825Y-44939760D01*
X47655472Y-44883000D01*
X47364528Y-44883000D01*
X47079175Y-44939760D01*
X46810378Y-45051099D01*
X46568467Y-45212739D01*
X46362739Y-45418467D01*
X46240000Y-45602159D01*
X46117261Y-45418467D01*
X45911533Y-45212739D01*
X45669622Y-45051099D01*
X45400825Y-44939760D01*
X45115472Y-44883000D01*
X44824528Y-44883000D01*
X44539175Y-44939760D01*
X44270378Y-45051099D01*
X44028467Y-45212739D01*
X43822739Y-45418467D01*
X43700000Y-45602159D01*
X43577261Y-45418467D01*
X43371533Y-45212739D01*
X43129622Y-45051099D01*
X42860825Y-44939760D01*
X42575472Y-44883000D01*
X42284528Y-44883000D01*
X41999175Y-44939760D01*
X41730378Y-45051099D01*
X41488467Y-45212739D01*
X41282739Y-45418467D01*
X41160000Y-45602159D01*
X41037261Y-45418467D01*
X40831533Y-45212739D01*
X40589622Y-45051099D01*
X40320825Y-44939760D01*
X40035472Y-44883000D01*
X39744528Y-44883000D01*
X39459175Y-44939760D01*
X39190378Y-45051099D01*
X38948467Y-45212739D01*
X38787909Y-45373297D01*
X38774910Y-45330443D01*
X38707403Y-45204147D01*
X38616554Y-45093446D01*
X38505853Y-45002597D01*
X38379557Y-44935090D01*
X38242517Y-44893520D01*
X38100000Y-44879483D01*
X36600000Y-44879483D01*
X36457483Y-44893520D01*
X36320443Y-44935090D01*
X36194147Y-45002597D01*
X36083446Y-45093446D01*
X35992597Y-45204147D01*
X35925090Y-45330443D01*
X35883520Y-45467483D01*
X35869483Y-45610000D01*
X35869483Y-47110000D01*
X35883520Y-47252517D01*
X35925090Y-47389557D01*
X35992597Y-47515853D01*
X36083446Y-47626554D01*
X36194147Y-47717403D01*
X36320443Y-47784910D01*
X36457483Y-47826480D01*
X36600000Y-47840517D01*
X38100000Y-47840517D01*
X38242517Y-47826480D01*
X38379557Y-47784910D01*
X38505853Y-47717403D01*
X38616554Y-47626554D01*
X38707403Y-47515853D01*
X38774910Y-47389557D01*
X38787909Y-47346703D01*
X38948467Y-47507261D01*
X39190378Y-47668901D01*
X39459175Y-47780240D01*
X39744528Y-47837000D01*
X40035472Y-47837000D01*
X40320825Y-47780240D01*
X40589622Y-47668901D01*
X40831533Y-47507261D01*
X41037261Y-47301533D01*
X41160000Y-47117841D01*
X41282739Y-47301533D01*
X41488467Y-47507261D01*
X41730378Y-47668901D01*
X41999175Y-47780240D01*
X42284528Y-47837000D01*
X42575472Y-47837000D01*
X42860825Y-47780240D01*
X43129622Y-47668901D01*
X43371533Y-47507261D01*
X43577261Y-47301533D01*
X43700000Y-47117841D01*
X43822739Y-47301533D01*
X44028467Y-47507261D01*
X44270378Y-47668901D01*
X44539175Y-47780240D01*
X44824528Y-47837000D01*
X45115472Y-47837000D01*
X45400825Y-47780240D01*
X45669622Y-47668901D01*
X45911533Y-47507261D01*
X46117261Y-47301533D01*
X46240000Y-47117841D01*
X46362739Y-47301533D01*
X46568467Y-47507261D01*
X46810378Y-47668901D01*
X47079175Y-47780240D01*
X47364528Y-47837000D01*
X47655472Y-47837000D01*
X47940825Y-47780240D01*
X48209622Y-47668901D01*
X48451533Y-47507261D01*
X48657261Y-47301533D01*
X48780000Y-47117841D01*
X48902739Y-47301533D01*
X49108467Y-47507261D01*
X49350378Y-47668901D01*
X49619175Y-47780240D01*
X49904528Y-47837000D01*
X50195472Y-47837000D01*
X50301083Y-47815993D01*
X51275573Y-48790483D01*
X50542300Y-48790483D01*
X50399783Y-48804520D01*
X50262743Y-48846090D01*
X50136447Y-48913597D01*
X50092300Y-48949827D01*
X50048153Y-48913597D01*
X49921857Y-48846090D01*
X49784817Y-48804520D01*
X49642300Y-48790483D01*
X48642300Y-48790483D01*
X48499783Y-48804520D01*
X48362743Y-48846090D01*
X48236447Y-48913597D01*
X48125746Y-49004446D01*
X48034897Y-49115147D01*
X47967390Y-49241443D01*
X47925820Y-49378483D01*
X47911783Y-49521000D01*
X47911783Y-49883101D01*
X47861000Y-49873000D01*
X47639000Y-49873000D01*
X47421266Y-49916310D01*
X47216165Y-50001266D01*
X47031579Y-50124602D01*
X46874602Y-50281579D01*
X46751266Y-50466165D01*
X46666517Y-50670766D01*
X46666517Y-49521000D01*
X46652480Y-49378483D01*
X46610910Y-49241443D01*
X46543403Y-49115147D01*
X46452554Y-49004446D01*
X46341853Y-48913597D01*
X46215557Y-48846090D01*
X46078517Y-48804520D01*
X45936000Y-48790483D01*
X44936000Y-48790483D01*
X44793483Y-48804520D01*
X44656443Y-48846090D01*
X44530147Y-48913597D01*
X44486000Y-48949827D01*
X44441853Y-48913597D01*
X44315557Y-48846090D01*
X44178517Y-48804520D01*
X44036000Y-48790483D01*
X43529518Y-48790483D01*
X43498734Y-48716165D01*
X43375398Y-48531579D01*
X43218421Y-48374602D01*
X43033835Y-48251266D01*
X42828734Y-48166310D01*
X42611000Y-48123000D01*
X42389000Y-48123000D01*
X42171266Y-48166310D01*
X41966165Y-48251266D01*
X41781579Y-48374602D01*
X41624602Y-48531579D01*
X41501266Y-48716165D01*
X41416310Y-48921266D01*
X41373000Y-49139000D01*
X41373000Y-49361000D01*
X41416310Y-49578734D01*
X41501266Y-49783835D01*
X41624602Y-49968421D01*
X41741516Y-50085335D01*
X41766485Y-50132048D01*
X41809048Y-50211679D01*
X41839459Y-50248734D01*
X41912394Y-50337606D01*
X41943952Y-50363505D01*
X42305483Y-50725037D01*
X42305483Y-50765731D01*
X42283835Y-50751266D01*
X42078734Y-50666310D01*
X41861000Y-50623000D01*
X41639000Y-50623000D01*
X41421266Y-50666310D01*
X41216165Y-50751266D01*
X41060217Y-50855467D01*
X41060217Y-49521000D01*
X41046180Y-49378483D01*
X41004610Y-49241443D01*
X40937103Y-49115147D01*
X40846254Y-49004446D01*
X40735553Y-48913597D01*
X40609257Y-48846090D01*
X40472217Y-48804520D01*
X40329700Y-48790483D01*
X39329700Y-48790483D01*
X39187183Y-48804520D01*
X39050143Y-48846090D01*
X38923847Y-48913597D01*
X38879700Y-48949827D01*
X38835553Y-48913597D01*
X38709257Y-48846090D01*
X38572217Y-48804520D01*
X38429700Y-48790483D01*
X37429700Y-48790483D01*
X37287183Y-48804520D01*
X37150143Y-48846090D01*
X37023847Y-48913597D01*
X36913146Y-49004446D01*
X36822297Y-49115147D01*
X36791374Y-49173000D01*
X36766819Y-49173000D01*
X36718421Y-49124602D01*
X36533835Y-49001266D01*
X36328734Y-48916310D01*
X36111000Y-48873000D01*
X35889000Y-48873000D01*
X35671266Y-48916310D01*
X35466165Y-49001266D01*
X35318382Y-49100011D01*
X35239954Y-49004446D01*
X35129253Y-48913597D01*
X35002957Y-48846090D01*
X34865917Y-48804520D01*
X34723400Y-48790483D01*
X33723400Y-48790483D01*
X33580883Y-48804520D01*
X33443843Y-48846090D01*
X33317547Y-48913597D01*
X33273400Y-48949827D01*
X33229253Y-48913597D01*
X33102957Y-48846090D01*
X32965917Y-48804520D01*
X32823400Y-48790483D01*
X31823400Y-48790483D01*
X31680883Y-48804520D01*
X31543843Y-48846090D01*
X31417547Y-48913597D01*
X31306846Y-49004446D01*
X31215997Y-49115147D01*
X31148490Y-49241443D01*
X31106920Y-49378483D01*
X31092883Y-49521000D01*
X31092883Y-50040720D01*
X31033835Y-50001266D01*
X30828734Y-49916310D01*
X30611000Y-49873000D01*
X30389000Y-49873000D01*
X30171266Y-49916310D01*
X29966165Y-50001266D01*
X29781579Y-50124602D01*
X29624602Y-50281579D01*
X29501266Y-50466165D01*
X29416310Y-50671266D01*
X29373000Y-50889000D01*
X29373000Y-51111000D01*
X29416310Y-51328734D01*
X29501266Y-51533835D01*
X29624602Y-51718421D01*
X29781579Y-51875398D01*
X29966165Y-51998734D01*
X30167762Y-52082238D01*
X30251266Y-52283835D01*
X30374602Y-52468421D01*
X30531579Y-52625398D01*
X30716165Y-52748734D01*
X30921266Y-52833690D01*
X31139000Y-52877000D01*
X31207446Y-52877000D01*
X31287883Y-52957437D01*
X31287883Y-53301200D01*
X31301920Y-53443717D01*
X31343490Y-53580757D01*
X31410997Y-53707053D01*
X31501846Y-53817754D01*
X31612547Y-53908603D01*
X31738843Y-53976110D01*
X31875883Y-54017680D01*
X32018400Y-54031717D01*
X32254651Y-54031717D01*
X32242883Y-54151200D01*
X32242883Y-55401200D01*
X32255518Y-55529483D01*
X31823400Y-55529483D01*
X31680883Y-55543520D01*
X31543843Y-55585090D01*
X31417547Y-55652597D01*
X31306846Y-55743446D01*
X31215997Y-55854147D01*
X31148490Y-55980443D01*
X31106920Y-56117483D01*
X31092883Y-56260000D01*
X31092883Y-57132173D01*
X30921266Y-57166310D01*
X30716165Y-57251266D01*
X30531579Y-57374602D01*
X30374602Y-57531579D01*
X30251266Y-57716165D01*
X30166310Y-57921266D01*
X30123000Y-58139000D01*
X30123000Y-58361000D01*
X30166310Y-58578734D01*
X30251266Y-58783835D01*
X30374602Y-58968421D01*
X30531579Y-59125398D01*
X30716165Y-59248734D01*
X30921266Y-59333690D01*
X31139000Y-59377000D01*
X31361000Y-59377000D01*
X31578734Y-59333690D01*
X31783835Y-59248734D01*
X31968421Y-59125398D01*
X31991819Y-59102000D01*
X32706703Y-59102000D01*
X32680600Y-59233228D01*
X32680600Y-59524172D01*
X32737360Y-59809525D01*
X32848699Y-60078322D01*
X33010339Y-60320233D01*
X33216067Y-60525961D01*
X33457978Y-60687601D01*
X33726775Y-60798940D01*
X34012128Y-60855700D01*
X34303072Y-60855700D01*
X34588425Y-60798940D01*
X34857222Y-60687601D01*
X35099133Y-60525961D01*
X35304861Y-60320233D01*
X35466501Y-60078322D01*
X35577840Y-59809525D01*
X35634600Y-59524172D01*
X35634600Y-59376125D01*
X35639000Y-59377000D01*
X35861000Y-59377000D01*
X36078734Y-59333690D01*
X36283835Y-59248734D01*
X36468421Y-59125398D01*
X36491819Y-59102000D01*
X40306703Y-59102000D01*
X40280600Y-59233228D01*
X40280600Y-59524172D01*
X40337360Y-59809525D01*
X40448699Y-60078322D01*
X40610339Y-60320233D01*
X40816067Y-60525961D01*
X41057978Y-60687601D01*
X41326775Y-60798940D01*
X41612128Y-60855700D01*
X41903072Y-60855700D01*
X42188425Y-60798940D01*
X42457222Y-60687601D01*
X42699133Y-60525961D01*
X42904861Y-60320233D01*
X42964685Y-60230700D01*
X45525791Y-60230700D01*
X46941191Y-61646100D01*
X46830798Y-61646100D01*
X46830798Y-61827848D01*
X46649050Y-61646100D01*
X46303800Y-61642582D01*
X46161283Y-61656619D01*
X46024243Y-61698189D01*
X45897946Y-61765696D01*
X45787246Y-61856546D01*
X45696396Y-61967246D01*
X45628889Y-62093543D01*
X45587319Y-62230583D01*
X45573282Y-62373100D01*
X45576800Y-62518350D01*
X45758548Y-62700098D01*
X45576800Y-62700098D01*
X45576800Y-62820271D01*
X45534515Y-62792017D01*
X45233871Y-62667486D01*
X44914708Y-62604000D01*
X44589292Y-62604000D01*
X44270129Y-62667486D01*
X43969485Y-62792017D01*
X43698912Y-62972808D01*
X43468808Y-63202912D01*
X43317741Y-63429000D01*
X33686259Y-63429000D01*
X33535192Y-63202912D01*
X33305088Y-62972808D01*
X33034515Y-62792017D01*
X32733871Y-62667486D01*
X32414708Y-62604000D01*
X32089292Y-62604000D01*
X31770129Y-62667486D01*
X31469485Y-62792017D01*
X31198912Y-62972808D01*
X30968808Y-63202912D01*
X30788017Y-63473485D01*
X30663486Y-63774129D01*
X30600000Y-64093292D01*
X30600000Y-64418708D01*
X30663486Y-64737871D01*
X30788017Y-65038515D01*
X30968808Y-65309088D01*
X31198912Y-65539192D01*
X31469485Y-65719983D01*
X31770129Y-65844514D01*
X32089292Y-65908000D01*
X32414708Y-65908000D01*
X32733871Y-65844514D01*
X33034515Y-65719983D01*
X33305088Y-65539192D01*
X33535192Y-65309088D01*
X33686259Y-65083000D01*
X43317741Y-65083000D01*
X43468808Y-65309088D01*
X43698912Y-65539192D01*
X43969485Y-65719983D01*
X44270129Y-65844514D01*
X44589292Y-65908000D01*
X44914708Y-65908000D01*
X45233871Y-65844514D01*
X45534515Y-65719983D01*
X45669955Y-65629485D01*
X45696397Y-65678953D01*
X45736730Y-65728100D01*
X45696397Y-65777247D01*
X45628890Y-65903543D01*
X45587320Y-66040583D01*
X45573283Y-66183100D01*
X45573283Y-67183100D01*
X45587320Y-67325617D01*
X45587960Y-67327728D01*
X45534515Y-67292017D01*
X45233871Y-67167486D01*
X44914708Y-67104000D01*
X44589292Y-67104000D01*
X44270129Y-67167486D01*
X43969485Y-67292017D01*
X43698912Y-67472808D01*
X43468808Y-67702912D01*
X43288017Y-67973485D01*
X43163486Y-68274129D01*
X43100000Y-68593292D01*
X43100000Y-68918708D01*
X43163486Y-69237871D01*
X43288017Y-69538515D01*
X43468808Y-69809088D01*
X43698912Y-70039192D01*
X43969485Y-70219983D01*
X44270129Y-70344514D01*
X44589292Y-70408000D01*
X44914708Y-70408000D01*
X45233871Y-70344514D01*
X45534515Y-70219983D01*
X45805088Y-70039192D01*
X46011001Y-69833279D01*
X46011000Y-70830405D01*
X45894647Y-70892597D01*
X45783946Y-70983446D01*
X45693097Y-71094147D01*
X45625590Y-71220443D01*
X45584020Y-71357483D01*
X45569983Y-71500000D01*
X45569983Y-72000000D01*
X45584020Y-72142517D01*
X45625590Y-72279557D01*
X45693097Y-72405853D01*
X45783946Y-72516554D01*
X45894647Y-72607403D01*
X46020943Y-72674910D01*
X46157983Y-72716480D01*
X46300500Y-72730517D01*
X47375500Y-72730517D01*
X47518017Y-72716480D01*
X47655057Y-72674910D01*
X47781353Y-72607403D01*
X47892054Y-72516554D01*
X47982903Y-72405853D01*
X48000000Y-72373867D01*
X48017097Y-72405853D01*
X48107946Y-72516554D01*
X48218647Y-72607403D01*
X48344943Y-72674910D01*
X48481983Y-72716480D01*
X48624500Y-72730517D01*
X48972964Y-72730517D01*
X49048495Y-72806048D01*
X49074394Y-72837606D01*
X49146372Y-72896677D01*
X49200320Y-72940952D01*
X49277113Y-72981998D01*
X49343990Y-73017745D01*
X49499880Y-73065034D01*
X49621376Y-73077000D01*
X49621386Y-73077000D01*
X49662000Y-73081000D01*
X49702614Y-73077000D01*
X49733181Y-73077000D01*
X49781579Y-73125398D01*
X49966165Y-73248734D01*
X50171266Y-73333690D01*
X50389000Y-73377000D01*
X50611000Y-73377000D01*
X50828734Y-73333690D01*
X51033835Y-73248734D01*
X51218421Y-73125398D01*
X51375398Y-72968421D01*
X51498734Y-72783835D01*
X51583690Y-72578734D01*
X51627000Y-72361000D01*
X51627000Y-72270517D01*
X52372100Y-72270517D01*
X52514617Y-72256480D01*
X52651657Y-72214910D01*
X52777953Y-72147403D01*
X52797100Y-72131690D01*
X52816247Y-72147403D01*
X52942543Y-72214910D01*
X53079583Y-72256480D01*
X53222100Y-72270517D01*
X54272100Y-72270517D01*
X54414617Y-72256480D01*
X54551657Y-72214910D01*
X54641290Y-72167000D01*
X56369686Y-72167000D01*
X56410300Y-72171000D01*
X56450914Y-72167000D01*
X56450924Y-72167000D01*
X56572420Y-72155034D01*
X56728310Y-72107745D01*
X56871979Y-72030952D01*
X56997906Y-71927606D01*
X57023805Y-71896048D01*
X57120836Y-71799017D01*
X57881800Y-71799017D01*
X58024317Y-71784980D01*
X58161357Y-71743410D01*
X58169830Y-71738881D01*
X58203512Y-71761387D01*
X58408613Y-71846343D01*
X58588689Y-71882162D01*
X58543320Y-71927531D01*
X58378944Y-72173536D01*
X58265721Y-72446883D01*
X58208000Y-72737066D01*
X58208000Y-73032934D01*
X58265721Y-73323117D01*
X58378944Y-73596464D01*
X58543320Y-73842469D01*
X58752531Y-74051680D01*
X58998536Y-74216056D01*
X59271883Y-74329279D01*
X59562066Y-74387000D01*
X59857934Y-74387000D01*
X60135115Y-74331865D01*
X60161644Y-74358394D01*
X60164966Y-74392120D01*
X60209181Y-74537873D01*
X60212256Y-74548010D01*
X60289048Y-74691679D01*
X60365012Y-74784240D01*
X60373000Y-74793973D01*
X60373000Y-74861000D01*
X60416310Y-75078734D01*
X60465712Y-75198000D01*
X30481783Y-75198000D01*
X30521105Y-75158678D01*
X30805863Y-74732509D01*
X31002007Y-74258975D01*
X31102000Y-73756275D01*
X31102000Y-73243725D01*
X31002007Y-72741025D01*
X30805863Y-72267491D01*
X30521105Y-71841322D01*
X30158678Y-71478895D01*
X29732509Y-71194137D01*
X29258975Y-70997993D01*
X28756275Y-70898000D01*
X28243725Y-70898000D01*
X27741025Y-70997993D01*
X27267491Y-71194137D01*
X26841322Y-71478895D01*
X26802000Y-71518217D01*
X26802000Y-68593292D01*
X30600000Y-68593292D01*
X30600000Y-68918708D01*
X30663486Y-69237871D01*
X30788017Y-69538515D01*
X30968808Y-69809088D01*
X31198912Y-70039192D01*
X31469485Y-70219983D01*
X31770129Y-70344514D01*
X32089292Y-70408000D01*
X32414708Y-70408000D01*
X32733871Y-70344514D01*
X33034515Y-70219983D01*
X33305088Y-70039192D01*
X33535192Y-69809088D01*
X33715983Y-69538515D01*
X33840514Y-69237871D01*
X33904000Y-68918708D01*
X33904000Y-68593292D01*
X33840514Y-68274129D01*
X33715983Y-67973485D01*
X33535192Y-67702912D01*
X33305088Y-67472808D01*
X33034515Y-67292017D01*
X32733871Y-67167486D01*
X32414708Y-67104000D01*
X32089292Y-67104000D01*
X31770129Y-67167486D01*
X31469485Y-67292017D01*
X31198912Y-67472808D01*
X30968808Y-67702912D01*
X30788017Y-67973485D01*
X30663486Y-68274129D01*
X30600000Y-68593292D01*
X26802000Y-68593292D01*
X26802000Y-35481783D01*
X26841322Y-35521105D01*
X27267491Y-35805863D01*
X27741025Y-36002007D01*
X28243725Y-36102000D01*
X28756275Y-36102000D01*
X29258975Y-36002007D01*
X29732509Y-35805863D01*
X30158678Y-35521105D01*
X30521105Y-35158678D01*
X30805863Y-34732509D01*
X31002007Y-34258975D01*
X31102000Y-33756275D01*
X31102000Y-33243725D01*
X31002007Y-32741025D01*
X30805863Y-32267491D01*
X30521105Y-31841322D01*
X30481783Y-31802000D01*
X86518217Y-31802000D01*
X86478895Y-31841322D01*
%TA.AperFunction,Conductor*%
D30*
G36*
X86478895Y-31841322D02*
G01*
X86194137Y-32267491D01*
X85997993Y-32741025D01*
X85898000Y-33243725D01*
X85898000Y-33756275D01*
X85997993Y-34258975D01*
X86194137Y-34732509D01*
X86478895Y-35158678D01*
X86841322Y-35521105D01*
X87267491Y-35805863D01*
X87741025Y-36002007D01*
X88243725Y-36102000D01*
X88756275Y-36102000D01*
X89258975Y-36002007D01*
X89732509Y-35805863D01*
X90158678Y-35521105D01*
X90198000Y-35481783D01*
X90198001Y-71518218D01*
X90158678Y-71478895D01*
X89732509Y-71194137D01*
X89258975Y-70997993D01*
X88756275Y-70898000D01*
X88243725Y-70898000D01*
X87741025Y-70997993D01*
X87267491Y-71194137D01*
X86841322Y-71478895D01*
X86478895Y-71841322D01*
X86194137Y-72267491D01*
X85997993Y-72741025D01*
X85898000Y-73243725D01*
X85898000Y-73756275D01*
X85997993Y-74258975D01*
X86194137Y-74732509D01*
X86478895Y-75158678D01*
X86518217Y-75198000D01*
X66253555Y-75198000D01*
X67588054Y-73863502D01*
X67619606Y-73837608D01*
X67645502Y-73806054D01*
X67722952Y-73711683D01*
X67787531Y-73590863D01*
X67799745Y-73568012D01*
X67847034Y-73412122D01*
X67859000Y-73290626D01*
X67859000Y-73290617D01*
X67863000Y-73250003D01*
X67859000Y-73209389D01*
X67859000Y-70430017D01*
X68120000Y-70430017D01*
X68262517Y-70415980D01*
X68399557Y-70374410D01*
X68525853Y-70306903D01*
X68636554Y-70216054D01*
X68727403Y-70105353D01*
X68794910Y-69979057D01*
X68836480Y-69842017D01*
X68850517Y-69699500D01*
X68850517Y-68624500D01*
X68836480Y-68481983D01*
X68794910Y-68344943D01*
X68727403Y-68218647D01*
X68636554Y-68107946D01*
X68525853Y-68017097D01*
X68493867Y-68000000D01*
X68525853Y-67982903D01*
X68636554Y-67892054D01*
X68727403Y-67781353D01*
X68789595Y-67665000D01*
X71006720Y-67665000D01*
X70968808Y-67702912D01*
X70788017Y-67973485D01*
X70663486Y-68274129D01*
X70600000Y-68593292D01*
X70600000Y-68918708D01*
X70663486Y-69237871D01*
X70788017Y-69538515D01*
X70968808Y-69809088D01*
X71198912Y-70039192D01*
X71469485Y-70219983D01*
X71770129Y-70344514D01*
X72089292Y-70408000D01*
X72414708Y-70408000D01*
X72733871Y-70344514D01*
X73034515Y-70219983D01*
X73305088Y-70039192D01*
X73535192Y-69809088D01*
X73715983Y-69538515D01*
X73840514Y-69237871D01*
X73904000Y-68918708D01*
X73904000Y-68593292D01*
X83100000Y-68593292D01*
X83100000Y-68918708D01*
X83163486Y-69237871D01*
X83288017Y-69538515D01*
X83468808Y-69809088D01*
X83698912Y-70039192D01*
X83969485Y-70219983D01*
X84270129Y-70344514D01*
X84589292Y-70408000D01*
X84914708Y-70408000D01*
X85233871Y-70344514D01*
X85534515Y-70219983D01*
X85805088Y-70039192D01*
X86035192Y-69809088D01*
X86215983Y-69538515D01*
X86340514Y-69237871D01*
X86404000Y-68918708D01*
X86404000Y-68593292D01*
X86340514Y-68274129D01*
X86215983Y-67973485D01*
X86035192Y-67702912D01*
X85805088Y-67472808D01*
X85534515Y-67292017D01*
X85233871Y-67167486D01*
X84914708Y-67104000D01*
X84589292Y-67104000D01*
X84270129Y-67167486D01*
X83969485Y-67292017D01*
X83698912Y-67472808D01*
X83468808Y-67702912D01*
X83288017Y-67973485D01*
X83163486Y-68274129D01*
X83100000Y-68593292D01*
X73904000Y-68593292D01*
X73840514Y-68274129D01*
X73715983Y-67973485D01*
X73535192Y-67702912D01*
X73497280Y-67665000D01*
X73982386Y-67665000D01*
X74023000Y-67669000D01*
X74063614Y-67665000D01*
X74063624Y-67665000D01*
X74185120Y-67653034D01*
X74341010Y-67605745D01*
X74484679Y-67528952D01*
X74610606Y-67425606D01*
X74636505Y-67394048D01*
X77937261Y-64093292D01*
X83100000Y-64093292D01*
X83100000Y-64418708D01*
X83163486Y-64737871D01*
X83288017Y-65038515D01*
X83468808Y-65309088D01*
X83698912Y-65539192D01*
X83969485Y-65719983D01*
X84270129Y-65844514D01*
X84589292Y-65908000D01*
X84914708Y-65908000D01*
X85233871Y-65844514D01*
X85534515Y-65719983D01*
X85805088Y-65539192D01*
X86035192Y-65309088D01*
X86215983Y-65038515D01*
X86340514Y-64737871D01*
X86404000Y-64418708D01*
X86404000Y-64093292D01*
X86340514Y-63774129D01*
X86215983Y-63473485D01*
X86035192Y-63202912D01*
X85805088Y-62972808D01*
X85534515Y-62792017D01*
X85233871Y-62667486D01*
X84914708Y-62604000D01*
X84589292Y-62604000D01*
X84270129Y-62667486D01*
X83969485Y-62792017D01*
X83698912Y-62972808D01*
X83468808Y-63202912D01*
X83288017Y-63473485D01*
X83163486Y-63774129D01*
X83100000Y-64093292D01*
X77937261Y-64093292D01*
X81214054Y-60816500D01*
X81245606Y-60790606D01*
X81274006Y-60756001D01*
X81302084Y-60721788D01*
X81325517Y-60719480D01*
X81462557Y-60677910D01*
X81588853Y-60610403D01*
X81699554Y-60519554D01*
X81790403Y-60408853D01*
X81857910Y-60282557D01*
X81899480Y-60145517D01*
X81913517Y-60003000D01*
X81913517Y-58960036D01*
X82461037Y-58412517D01*
X83222000Y-58412517D01*
X83364517Y-58398480D01*
X83501557Y-58356910D01*
X83627853Y-58289403D01*
X83738554Y-58198554D01*
X83829403Y-58087853D01*
X83896910Y-57961557D01*
X83938480Y-57824517D01*
X83952517Y-57682000D01*
X83952517Y-56282000D01*
X83938480Y-56139483D01*
X83935032Y-56128117D01*
X84030000Y-56128117D01*
X84172517Y-56114080D01*
X84309557Y-56072510D01*
X84435853Y-56005003D01*
X84546554Y-55914154D01*
X84637403Y-55803453D01*
X84704910Y-55677157D01*
X84746480Y-55540117D01*
X84760517Y-55397600D01*
X84760517Y-54147600D01*
X84748749Y-54028117D01*
X84985000Y-54028117D01*
X85127517Y-54014080D01*
X85264557Y-53972510D01*
X85390853Y-53905003D01*
X85501554Y-53814154D01*
X85592403Y-53703453D01*
X85659910Y-53577157D01*
X85701480Y-53440117D01*
X85715517Y-53297600D01*
X85715517Y-52047600D01*
X85701480Y-51905083D01*
X85659910Y-51768043D01*
X85592403Y-51641747D01*
X85536588Y-51573736D01*
X85585853Y-51547403D01*
X85696554Y-51456554D01*
X85787403Y-51345853D01*
X85854910Y-51219557D01*
X85896480Y-51082517D01*
X85910517Y-50940000D01*
X85910517Y-49540000D01*
X85896480Y-49397483D01*
X85854910Y-49260443D01*
X85787403Y-49134147D01*
X85696554Y-49023446D01*
X85585853Y-48932597D01*
X85459557Y-48865090D01*
X85322517Y-48823520D01*
X85180000Y-48809483D01*
X84180000Y-48809483D01*
X84037483Y-48823520D01*
X83900443Y-48865090D01*
X83774147Y-48932597D01*
X83730000Y-48968827D01*
X83685853Y-48932597D01*
X83559557Y-48865090D01*
X83422517Y-48823520D01*
X83280000Y-48809483D01*
X82280000Y-48809483D01*
X82137483Y-48823520D01*
X82000443Y-48865090D01*
X81874147Y-48932597D01*
X81763446Y-49023446D01*
X81672597Y-49134147D01*
X81672063Y-49135146D01*
X81611000Y-49123000D01*
X81389000Y-49123000D01*
X81171266Y-49166310D01*
X80966165Y-49251266D01*
X80781579Y-49374602D01*
X80624602Y-49531579D01*
X80501266Y-49716165D01*
X80416310Y-49921266D01*
X80373000Y-50139000D01*
X80373000Y-50361000D01*
X80416310Y-50578734D01*
X80501266Y-50783835D01*
X80624602Y-50968421D01*
X80781579Y-51125398D01*
X80966165Y-51248734D01*
X81171266Y-51333690D01*
X81389000Y-51377000D01*
X81611000Y-51377000D01*
X81685927Y-51362096D01*
X81763446Y-51456554D01*
X81874147Y-51547403D01*
X81923412Y-51573736D01*
X81867597Y-51641747D01*
X81802420Y-51763684D01*
X81783835Y-51751266D01*
X81578734Y-51666310D01*
X81361000Y-51623000D01*
X81139000Y-51623000D01*
X80921266Y-51666310D01*
X80716165Y-51751266D01*
X80531579Y-51874602D01*
X80374602Y-52031579D01*
X80251266Y-52216165D01*
X80166310Y-52421266D01*
X80123000Y-52639000D01*
X80123000Y-52861000D01*
X80166310Y-53078734D01*
X80251266Y-53283835D01*
X80374602Y-53468421D01*
X80531579Y-53625398D01*
X80716165Y-53748734D01*
X80921266Y-53833690D01*
X81139000Y-53877000D01*
X81361000Y-53877000D01*
X81578734Y-53833690D01*
X81783835Y-53748734D01*
X81863388Y-53695579D01*
X81867597Y-53703453D01*
X81958446Y-53814154D01*
X82069147Y-53905003D01*
X82195443Y-53972510D01*
X82332483Y-54014080D01*
X82475000Y-54028117D01*
X82711251Y-54028117D01*
X82700159Y-54140735D01*
X82611000Y-54123000D01*
X82389000Y-54123000D01*
X82171266Y-54166310D01*
X81966165Y-54251266D01*
X81781579Y-54374602D01*
X81624602Y-54531579D01*
X81501266Y-54716165D01*
X81416310Y-54921266D01*
X81373000Y-55139000D01*
X81373000Y-55361000D01*
X81412666Y-55560413D01*
X81322000Y-55551483D01*
X80322000Y-55551483D01*
X80179483Y-55565520D01*
X80042443Y-55607090D01*
X79916147Y-55674597D01*
X79867000Y-55714930D01*
X79817853Y-55674597D01*
X79691557Y-55607090D01*
X79554517Y-55565520D01*
X79412000Y-55551483D01*
X79136490Y-55551483D01*
X79140180Y-55539317D01*
X79154217Y-55396800D01*
X79154217Y-54146800D01*
X79142449Y-54027317D01*
X79378700Y-54027317D01*
X79521217Y-54013280D01*
X79658257Y-53971710D01*
X79784553Y-53904203D01*
X79895254Y-53813354D01*
X79986103Y-53702653D01*
X80053610Y-53576357D01*
X80095180Y-53439317D01*
X80109217Y-53296800D01*
X80109217Y-52046800D01*
X80095180Y-51904283D01*
X80053610Y-51767243D01*
X79986103Y-51640947D01*
X79925040Y-51566541D01*
X79979553Y-51537403D01*
X80090254Y-51446554D01*
X80181103Y-51335853D01*
X80248610Y-51209557D01*
X80290180Y-51072517D01*
X80304217Y-50930000D01*
X80304217Y-49530000D01*
X80290180Y-49387483D01*
X80248610Y-49250443D01*
X80181103Y-49124147D01*
X80090254Y-49013446D01*
X79979553Y-48922597D01*
X79853257Y-48855090D01*
X79716217Y-48813520D01*
X79573700Y-48799483D01*
X78573700Y-48799483D01*
X78431183Y-48813520D01*
X78294143Y-48855090D01*
X78167847Y-48922597D01*
X78123700Y-48958827D01*
X78079553Y-48922597D01*
X77953257Y-48855090D01*
X77816217Y-48813520D01*
X77673700Y-48799483D01*
X76673700Y-48799483D01*
X76531183Y-48813520D01*
X76508694Y-48820342D01*
X76507001Y-48803151D01*
X76507001Y-47704781D01*
X76689175Y-47780240D01*
X76974528Y-47837000D01*
X77265472Y-47837000D01*
X77550825Y-47780240D01*
X77819622Y-47668901D01*
X78061533Y-47507261D01*
X78267261Y-47301533D01*
X78390000Y-47117841D01*
X78512739Y-47301533D01*
X78718467Y-47507261D01*
X78960378Y-47668901D01*
X79229175Y-47780240D01*
X79514528Y-47837000D01*
X79805472Y-47837000D01*
X80090825Y-47780240D01*
X80359622Y-47668901D01*
X80601533Y-47507261D01*
X80807261Y-47301533D01*
X80968901Y-47059622D01*
X81080240Y-46790825D01*
X81137000Y-46505472D01*
X81137000Y-46214528D01*
X81080240Y-45929175D01*
X80968901Y-45660378D01*
X80807261Y-45418467D01*
X80601533Y-45212739D01*
X80359622Y-45051099D01*
X80090825Y-44939760D01*
X79805472Y-44883000D01*
X79514528Y-44883000D01*
X79229175Y-44939760D01*
X78960378Y-45051099D01*
X78718467Y-45212739D01*
X78512739Y-45418467D01*
X78390000Y-45602159D01*
X78267261Y-45418467D01*
X78061533Y-45212739D01*
X77819622Y-45051099D01*
X77550825Y-44939760D01*
X77265472Y-44883000D01*
X76974528Y-44883000D01*
X76689175Y-44939760D01*
X76507001Y-45015219D01*
X76507001Y-42446849D01*
X76511123Y-42405000D01*
X76501626Y-42308580D01*
X76494673Y-42237980D01*
X76445955Y-42077377D01*
X76393824Y-41979847D01*
X76366840Y-41929364D01*
X76312339Y-41862955D01*
X76260371Y-41799631D01*
X76227861Y-41772951D01*
X74877000Y-40422091D01*
X74877000Y-40389000D01*
X74833690Y-40171266D01*
X74748734Y-39966165D01*
X74625398Y-39781579D01*
X74468421Y-39624602D01*
X74283835Y-39501266D01*
X74078734Y-39416310D01*
X73861000Y-39373000D01*
X73639000Y-39373000D01*
X73421266Y-39416310D01*
X73216165Y-39501266D01*
X73031579Y-39624602D01*
X72874602Y-39781579D01*
X72751266Y-39966165D01*
X72666310Y-40171266D01*
X72623000Y-40389000D01*
X72623000Y-40611000D01*
X72666310Y-40828734D01*
X72751266Y-41033835D01*
X72874602Y-41218421D01*
X73031579Y-41375398D01*
X73216165Y-41498734D01*
X73421266Y-41583690D01*
X73639000Y-41627000D01*
X73672091Y-41627000D01*
X74803002Y-42757912D01*
X74803002Y-44898422D01*
X74725472Y-44883000D01*
X74434528Y-44883000D01*
X74149175Y-44939760D01*
X73880378Y-45051099D01*
X73638467Y-45212739D01*
X73432739Y-45418467D01*
X73310000Y-45602159D01*
X73187261Y-45418467D01*
X72981533Y-45212739D01*
X72739622Y-45051099D01*
X72470825Y-44939760D01*
X72185472Y-44883000D01*
X71894528Y-44883000D01*
X71609175Y-44939760D01*
X71340378Y-45051099D01*
X71098467Y-45212739D01*
X70892739Y-45418467D01*
X70770000Y-45602159D01*
X70647261Y-45418467D01*
X70441533Y-45212739D01*
X70199622Y-45051099D01*
X69930825Y-44939760D01*
X69645472Y-44883000D01*
X69354528Y-44883000D01*
X69069175Y-44939760D01*
X68800378Y-45051099D01*
X68558467Y-45212739D01*
X68397909Y-45373297D01*
X68384910Y-45330443D01*
X68317403Y-45204147D01*
X68226554Y-45093446D01*
X68115853Y-45002597D01*
X67989557Y-44935090D01*
X67852517Y-44893520D01*
X67710000Y-44879483D01*
X67560424Y-44879483D01*
X70123000Y-42316908D01*
X70123000Y-42361000D01*
X70166310Y-42578734D01*
X70251266Y-42783835D01*
X70374602Y-42968421D01*
X70531579Y-43125398D01*
X70716165Y-43248734D01*
X70921266Y-43333690D01*
X71139000Y-43377000D01*
X71361000Y-43377000D01*
X71578734Y-43333690D01*
X71783835Y-43248734D01*
X71968421Y-43125398D01*
X72125398Y-42968421D01*
X72248734Y-42783835D01*
X72333690Y-42578734D01*
X72377000Y-42361000D01*
X72377000Y-42139000D01*
X72333690Y-41921266D01*
X72248734Y-41716165D01*
X72125398Y-41531579D01*
X71968421Y-41374602D01*
X71783835Y-41251266D01*
X71578734Y-41166310D01*
X71361000Y-41123000D01*
X71316908Y-41123000D01*
X72612861Y-39827047D01*
X72645370Y-39800368D01*
X72751839Y-39670634D01*
X72830954Y-39522622D01*
X72879672Y-39362019D01*
X72892000Y-39236850D01*
X72892000Y-39236847D01*
X72896122Y-39194998D01*
X72892000Y-39153149D01*
X72892000Y-37407085D01*
X72981533Y-37347261D01*
X73187261Y-37141533D01*
X73310000Y-36957841D01*
X73432739Y-37141533D01*
X73638467Y-37347261D01*
X73880378Y-37508901D01*
X74149175Y-37620240D01*
X74434528Y-37677000D01*
X74725472Y-37677000D01*
X75010825Y-37620240D01*
X75279622Y-37508901D01*
X75521533Y-37347261D01*
X75727261Y-37141533D01*
X75850000Y-36957841D01*
X75972739Y-37141533D01*
X76178467Y-37347261D01*
X76420378Y-37508901D01*
X76689175Y-37620240D01*
X76974528Y-37677000D01*
X77265472Y-37677000D01*
X77550825Y-37620240D01*
X77819622Y-37508901D01*
X78061533Y-37347261D01*
X78267261Y-37141533D01*
X78390000Y-36957841D01*
X78512739Y-37141533D01*
X78718467Y-37347261D01*
X78960378Y-37508901D01*
X79229175Y-37620240D01*
X79514528Y-37677000D01*
X79805472Y-37677000D01*
X80090825Y-37620240D01*
X80359622Y-37508901D01*
X80601533Y-37347261D01*
X80807261Y-37141533D01*
X80968901Y-36899622D01*
X81080240Y-36630825D01*
X81137000Y-36345472D01*
X81137000Y-36054528D01*
X81080240Y-35769175D01*
X80968901Y-35500378D01*
X80807261Y-35258467D01*
X80601533Y-35052739D01*
X80359622Y-34891099D01*
X80090825Y-34779760D01*
X79805472Y-34723000D01*
X79514528Y-34723000D01*
X79229175Y-34779760D01*
X78960378Y-34891099D01*
X78718467Y-35052739D01*
X78512739Y-35258467D01*
X78390000Y-35442159D01*
X78267261Y-35258467D01*
X78061533Y-35052739D01*
X77819622Y-34891099D01*
X77550825Y-34779760D01*
X77265472Y-34723000D01*
X76974528Y-34723000D01*
X76689175Y-34779760D01*
X76420378Y-34891099D01*
X76178467Y-35052739D01*
X75972739Y-35258467D01*
X75850000Y-35442159D01*
X75727261Y-35258467D01*
X75521533Y-35052739D01*
X75279622Y-34891099D01*
X75010825Y-34779760D01*
X74725472Y-34723000D01*
X74434528Y-34723000D01*
X74149175Y-34779760D01*
X73880378Y-34891099D01*
X73638467Y-35052739D01*
X73432739Y-35258467D01*
X73310000Y-35442159D01*
X73187261Y-35258467D01*
X72981533Y-35052739D01*
X72739622Y-34891099D01*
X72470825Y-34779760D01*
X72185472Y-34723000D01*
X71894528Y-34723000D01*
X71609175Y-34779760D01*
X71340378Y-34891099D01*
X71098467Y-35052739D01*
X70892739Y-35258467D01*
X70770000Y-35442159D01*
X70647261Y-35258467D01*
X70441533Y-35052739D01*
X70199622Y-34891099D01*
X69930825Y-34779760D01*
X69645472Y-34723000D01*
X69354528Y-34723000D01*
X69069175Y-34779760D01*
X68800378Y-34891099D01*
X68558467Y-35052739D01*
X68352739Y-35258467D01*
X68230000Y-35442159D01*
X68107261Y-35258467D01*
X67901533Y-35052739D01*
X67659622Y-34891099D01*
X67390825Y-34779760D01*
X67105472Y-34723000D01*
X66814528Y-34723000D01*
X66529175Y-34779760D01*
X66260378Y-34891099D01*
X66018467Y-35052739D01*
X65812739Y-35258467D01*
X65651099Y-35500378D01*
X65539760Y-35769175D01*
X65483000Y-36054528D01*
X65483000Y-36345472D01*
X65539760Y-36630825D01*
X65651099Y-36899622D01*
X65812739Y-37141533D01*
X66018467Y-37347261D01*
X66260378Y-37508901D01*
X66529175Y-37620240D01*
X66814528Y-37677000D01*
X67105472Y-37677000D01*
X67390825Y-37620240D01*
X67659622Y-37508901D01*
X67901533Y-37347261D01*
X68107261Y-37141533D01*
X68230000Y-36957841D01*
X68352739Y-37141533D01*
X68558467Y-37347261D01*
X68800378Y-37508901D01*
X69069175Y-37620240D01*
X69354528Y-37677000D01*
X69645472Y-37677000D01*
X69930825Y-37620240D01*
X70199622Y-37508901D01*
X70441533Y-37347261D01*
X70647261Y-37141533D01*
X70770000Y-36957841D01*
X70892739Y-37141533D01*
X71098467Y-37347261D01*
X71188001Y-37407086D01*
X71188000Y-38842088D01*
X68934703Y-41095385D01*
X68763681Y-40981112D01*
X68558580Y-40896156D01*
X68340846Y-40852846D01*
X68118846Y-40852846D01*
X67901112Y-40896156D01*
X67696011Y-40981112D01*
X67511425Y-41104448D01*
X67467873Y-41148000D01*
X67178539Y-41148000D01*
X67136690Y-41143878D01*
X67094841Y-41148000D01*
X67094838Y-41148000D01*
X66969669Y-41160328D01*
X66809066Y-41209046D01*
X66661054Y-41288161D01*
X66531320Y-41394630D01*
X66504641Y-41427139D01*
X62676067Y-45255714D01*
X62643557Y-45282394D01*
X62616878Y-45314903D01*
X62537087Y-45412128D01*
X62457972Y-45560141D01*
X62455271Y-45569046D01*
X62409541Y-45719802D01*
X62409255Y-45720744D01*
X62392804Y-45887764D01*
X62396927Y-45929623D01*
X62396927Y-48790483D01*
X61754800Y-48790483D01*
X61612283Y-48804520D01*
X61475243Y-48846090D01*
X61377000Y-48898602D01*
X61377000Y-48889000D01*
X61333690Y-48671266D01*
X61248734Y-48466165D01*
X61125398Y-48281579D01*
X60968421Y-48124602D01*
X60783835Y-48001266D01*
X60578734Y-47916310D01*
X60361000Y-47873000D01*
X60139000Y-47873000D01*
X59921266Y-47916310D01*
X59716165Y-48001266D01*
X59577001Y-48094252D01*
X59577001Y-42380440D01*
X59581123Y-42338591D01*
X59577001Y-42296739D01*
X59564673Y-42171570D01*
X59515955Y-42010967D01*
X59436840Y-41862955D01*
X59330371Y-41733221D01*
X59297861Y-41706541D01*
X52143464Y-34552145D01*
X52116779Y-34519629D01*
X51987045Y-34413160D01*
X51839033Y-34334045D01*
X51678430Y-34285327D01*
X51553261Y-34272999D01*
X51553258Y-34272999D01*
X51511409Y-34268877D01*
X51469560Y-34272999D01*
X48626850Y-34272999D01*
X48585001Y-34268877D01*
X48543152Y-34272999D01*
X48543149Y-34272999D01*
X48417980Y-34285327D01*
X48257377Y-34334045D01*
X48109364Y-34413160D01*
X48043460Y-34467246D01*
X47979631Y-34519629D01*
X47952951Y-34552139D01*
X47761083Y-34744007D01*
X47655472Y-34723000D01*
X47364528Y-34723000D01*
X47079175Y-34779760D01*
X46810378Y-34891099D01*
X46568467Y-35052739D01*
X46362739Y-35258467D01*
X46240000Y-35442159D01*
X46117261Y-35258467D01*
X45911533Y-35052739D01*
X45669622Y-34891099D01*
X45400825Y-34779760D01*
X45115472Y-34723000D01*
X44824528Y-34723000D01*
X44539175Y-34779760D01*
X44270378Y-34891099D01*
X44028467Y-35052739D01*
X43822739Y-35258467D01*
X43700000Y-35442159D01*
X43577261Y-35258467D01*
X43371533Y-35052739D01*
X43129622Y-34891099D01*
X42860825Y-34779760D01*
X42575472Y-34723000D01*
X42284528Y-34723000D01*
X41999175Y-34779760D01*
X41730378Y-34891099D01*
X41488467Y-35052739D01*
X41282739Y-35258467D01*
X41160000Y-35442159D01*
X41037261Y-35258467D01*
X40831533Y-35052739D01*
X40589622Y-34891099D01*
X40320825Y-34779760D01*
X40035472Y-34723000D01*
X39744528Y-34723000D01*
X39459175Y-34779760D01*
X39190378Y-34891099D01*
X38948467Y-35052739D01*
X38742739Y-35258467D01*
X38620000Y-35442159D01*
X38497261Y-35258467D01*
X38291533Y-35052739D01*
X38049622Y-34891099D01*
X37780825Y-34779760D01*
X37495472Y-34723000D01*
X37204528Y-34723000D01*
X36919175Y-34779760D01*
X36650378Y-34891099D01*
X36408467Y-35052739D01*
X36202739Y-35258467D01*
X36041099Y-35500378D01*
X35929760Y-35769175D01*
X35873000Y-36054528D01*
X35873000Y-36345472D01*
X35929760Y-36630825D01*
X36041099Y-36899622D01*
X36202739Y-37141533D01*
X36408467Y-37347261D01*
X36650378Y-37508901D01*
X36919175Y-37620240D01*
X37204528Y-37677000D01*
X37495472Y-37677000D01*
X37601084Y-37655993D01*
X42767950Y-42822860D01*
X42794630Y-42855370D01*
X42827138Y-42882048D01*
X42924363Y-42961839D01*
X43015158Y-43010370D01*
X43072376Y-43040954D01*
X43232979Y-43089672D01*
X43358148Y-43102000D01*
X43358150Y-43102000D01*
X43399999Y-43106122D01*
X43441848Y-43102000D01*
X47195001Y-43102000D01*
X47166310Y-43171266D01*
X47123000Y-43389000D01*
X47123000Y-43611000D01*
X47166310Y-43828734D01*
X47251266Y-44033835D01*
X47374602Y-44218421D01*
X47531579Y-44375398D01*
X47716165Y-44498734D01*
X47921266Y-44583690D01*
X48139000Y-44627000D01*
X48361000Y-44627000D01*
X48578734Y-44583690D01*
X48783835Y-44498734D01*
X48968421Y-44375398D01*
X49125398Y-44218421D01*
X49248734Y-44033835D01*
X49333690Y-43828734D01*
X49377000Y-43611000D01*
X49377000Y-43389000D01*
X49374020Y-43374020D01*
X49389000Y-43377000D01*
X49611000Y-43377000D01*
X49828734Y-43333690D01*
X50033835Y-43248734D01*
X50218421Y-43125398D01*
X50375398Y-42968421D01*
X50438729Y-42873638D01*
X51398001Y-43832910D01*
X51398000Y-44758181D01*
X51374602Y-44781579D01*
X51251266Y-44966165D01*
X51166310Y-45171266D01*
X51130432Y-45351638D01*
X50991533Y-45212739D01*
X50749622Y-45051099D01*
X50480825Y-44939760D01*
X50195472Y-44883000D01*
X49904528Y-44883000D01*
X49619175Y-44939760D01*
X49350378Y-45051099D01*
X49108467Y-45212739D01*
X48902739Y-45418467D01*
X48780000Y-45602159D01*
X48657261Y-45418467D01*
X48451533Y-45212739D01*
X48209622Y-45051099D01*
X47940825Y-44939760D01*
X47655472Y-44883000D01*
X47364528Y-44883000D01*
X47079175Y-44939760D01*
X46810378Y-45051099D01*
X46568467Y-45212739D01*
X46362739Y-45418467D01*
X46240000Y-45602159D01*
X46117261Y-45418467D01*
X45911533Y-45212739D01*
X45669622Y-45051099D01*
X45400825Y-44939760D01*
X45115472Y-44883000D01*
X44824528Y-44883000D01*
X44539175Y-44939760D01*
X44270378Y-45051099D01*
X44028467Y-45212739D01*
X43822739Y-45418467D01*
X43700000Y-45602159D01*
X43577261Y-45418467D01*
X43371533Y-45212739D01*
X43129622Y-45051099D01*
X42860825Y-44939760D01*
X42575472Y-44883000D01*
X42284528Y-44883000D01*
X41999175Y-44939760D01*
X41730378Y-45051099D01*
X41488467Y-45212739D01*
X41282739Y-45418467D01*
X41160000Y-45602159D01*
X41037261Y-45418467D01*
X40831533Y-45212739D01*
X40589622Y-45051099D01*
X40320825Y-44939760D01*
X40035472Y-44883000D01*
X39744528Y-44883000D01*
X39459175Y-44939760D01*
X39190378Y-45051099D01*
X38948467Y-45212739D01*
X38787909Y-45373297D01*
X38774910Y-45330443D01*
X38707403Y-45204147D01*
X38616554Y-45093446D01*
X38505853Y-45002597D01*
X38379557Y-44935090D01*
X38242517Y-44893520D01*
X38100000Y-44879483D01*
X36600000Y-44879483D01*
X36457483Y-44893520D01*
X36320443Y-44935090D01*
X36194147Y-45002597D01*
X36083446Y-45093446D01*
X35992597Y-45204147D01*
X35925090Y-45330443D01*
X35883520Y-45467483D01*
X35869483Y-45610000D01*
X35869483Y-47110000D01*
X35883520Y-47252517D01*
X35925090Y-47389557D01*
X35992597Y-47515853D01*
X36083446Y-47626554D01*
X36194147Y-47717403D01*
X36320443Y-47784910D01*
X36457483Y-47826480D01*
X36600000Y-47840517D01*
X38100000Y-47840517D01*
X38242517Y-47826480D01*
X38379557Y-47784910D01*
X38505853Y-47717403D01*
X38616554Y-47626554D01*
X38707403Y-47515853D01*
X38774910Y-47389557D01*
X38787909Y-47346703D01*
X38948467Y-47507261D01*
X39190378Y-47668901D01*
X39459175Y-47780240D01*
X39744528Y-47837000D01*
X40035472Y-47837000D01*
X40320825Y-47780240D01*
X40589622Y-47668901D01*
X40831533Y-47507261D01*
X41037261Y-47301533D01*
X41160000Y-47117841D01*
X41282739Y-47301533D01*
X41488467Y-47507261D01*
X41730378Y-47668901D01*
X41999175Y-47780240D01*
X42284528Y-47837000D01*
X42575472Y-47837000D01*
X42860825Y-47780240D01*
X43129622Y-47668901D01*
X43371533Y-47507261D01*
X43577261Y-47301533D01*
X43700000Y-47117841D01*
X43822739Y-47301533D01*
X44028467Y-47507261D01*
X44270378Y-47668901D01*
X44539175Y-47780240D01*
X44824528Y-47837000D01*
X45115472Y-47837000D01*
X45400825Y-47780240D01*
X45669622Y-47668901D01*
X45911533Y-47507261D01*
X46117261Y-47301533D01*
X46240000Y-47117841D01*
X46362739Y-47301533D01*
X46568467Y-47507261D01*
X46810378Y-47668901D01*
X47079175Y-47780240D01*
X47364528Y-47837000D01*
X47655472Y-47837000D01*
X47940825Y-47780240D01*
X48209622Y-47668901D01*
X48451533Y-47507261D01*
X48657261Y-47301533D01*
X48780000Y-47117841D01*
X48902739Y-47301533D01*
X49108467Y-47507261D01*
X49350378Y-47668901D01*
X49619175Y-47780240D01*
X49904528Y-47837000D01*
X50195472Y-47837000D01*
X50301083Y-47815993D01*
X51275573Y-48790483D01*
X50542300Y-48790483D01*
X50399783Y-48804520D01*
X50262743Y-48846090D01*
X50136447Y-48913597D01*
X50092300Y-48949827D01*
X50048153Y-48913597D01*
X49921857Y-48846090D01*
X49784817Y-48804520D01*
X49642300Y-48790483D01*
X48642300Y-48790483D01*
X48499783Y-48804520D01*
X48362743Y-48846090D01*
X48236447Y-48913597D01*
X48125746Y-49004446D01*
X48034897Y-49115147D01*
X47967390Y-49241443D01*
X47925820Y-49378483D01*
X47911783Y-49521000D01*
X47911783Y-49883101D01*
X47861000Y-49873000D01*
X47639000Y-49873000D01*
X47421266Y-49916310D01*
X47216165Y-50001266D01*
X47031579Y-50124602D01*
X46874602Y-50281579D01*
X46751266Y-50466165D01*
X46666517Y-50670766D01*
X46666517Y-49521000D01*
X46652480Y-49378483D01*
X46610910Y-49241443D01*
X46543403Y-49115147D01*
X46452554Y-49004446D01*
X46341853Y-48913597D01*
X46215557Y-48846090D01*
X46078517Y-48804520D01*
X45936000Y-48790483D01*
X44936000Y-48790483D01*
X44793483Y-48804520D01*
X44656443Y-48846090D01*
X44530147Y-48913597D01*
X44486000Y-48949827D01*
X44441853Y-48913597D01*
X44315557Y-48846090D01*
X44178517Y-48804520D01*
X44036000Y-48790483D01*
X43529518Y-48790483D01*
X43498734Y-48716165D01*
X43375398Y-48531579D01*
X43218421Y-48374602D01*
X43033835Y-48251266D01*
X42828734Y-48166310D01*
X42611000Y-48123000D01*
X42389000Y-48123000D01*
X42171266Y-48166310D01*
X41966165Y-48251266D01*
X41781579Y-48374602D01*
X41624602Y-48531579D01*
X41501266Y-48716165D01*
X41416310Y-48921266D01*
X41373000Y-49139000D01*
X41373000Y-49361000D01*
X41416310Y-49578734D01*
X41501266Y-49783835D01*
X41624602Y-49968421D01*
X41741516Y-50085335D01*
X41766485Y-50132048D01*
X41809048Y-50211679D01*
X41839459Y-50248734D01*
X41912394Y-50337606D01*
X41943952Y-50363505D01*
X42305483Y-50725037D01*
X42305483Y-50765731D01*
X42283835Y-50751266D01*
X42078734Y-50666310D01*
X41861000Y-50623000D01*
X41639000Y-50623000D01*
X41421266Y-50666310D01*
X41216165Y-50751266D01*
X41060217Y-50855467D01*
X41060217Y-49521000D01*
X41046180Y-49378483D01*
X41004610Y-49241443D01*
X40937103Y-49115147D01*
X40846254Y-49004446D01*
X40735553Y-48913597D01*
X40609257Y-48846090D01*
X40472217Y-48804520D01*
X40329700Y-48790483D01*
X39329700Y-48790483D01*
X39187183Y-48804520D01*
X39050143Y-48846090D01*
X38923847Y-48913597D01*
X38879700Y-48949827D01*
X38835553Y-48913597D01*
X38709257Y-48846090D01*
X38572217Y-48804520D01*
X38429700Y-48790483D01*
X37429700Y-48790483D01*
X37287183Y-48804520D01*
X37150143Y-48846090D01*
X37023847Y-48913597D01*
X36913146Y-49004446D01*
X36822297Y-49115147D01*
X36791374Y-49173000D01*
X36766819Y-49173000D01*
X36718421Y-49124602D01*
X36533835Y-49001266D01*
X36328734Y-48916310D01*
X36111000Y-48873000D01*
X35889000Y-48873000D01*
X35671266Y-48916310D01*
X35466165Y-49001266D01*
X35318382Y-49100011D01*
X35239954Y-49004446D01*
X35129253Y-48913597D01*
X35002957Y-48846090D01*
X34865917Y-48804520D01*
X34723400Y-48790483D01*
X33723400Y-48790483D01*
X33580883Y-48804520D01*
X33443843Y-48846090D01*
X33317547Y-48913597D01*
X33273400Y-48949827D01*
X33229253Y-48913597D01*
X33102957Y-48846090D01*
X32965917Y-48804520D01*
X32823400Y-48790483D01*
X31823400Y-48790483D01*
X31680883Y-48804520D01*
X31543843Y-48846090D01*
X31417547Y-48913597D01*
X31306846Y-49004446D01*
X31215997Y-49115147D01*
X31148490Y-49241443D01*
X31106920Y-49378483D01*
X31092883Y-49521000D01*
X31092883Y-50040720D01*
X31033835Y-50001266D01*
X30828734Y-49916310D01*
X30611000Y-49873000D01*
X30389000Y-49873000D01*
X30171266Y-49916310D01*
X29966165Y-50001266D01*
X29781579Y-50124602D01*
X29624602Y-50281579D01*
X29501266Y-50466165D01*
X29416310Y-50671266D01*
X29373000Y-50889000D01*
X29373000Y-51111000D01*
X29416310Y-51328734D01*
X29501266Y-51533835D01*
X29624602Y-51718421D01*
X29781579Y-51875398D01*
X29966165Y-51998734D01*
X30167762Y-52082238D01*
X30251266Y-52283835D01*
X30374602Y-52468421D01*
X30531579Y-52625398D01*
X30716165Y-52748734D01*
X30921266Y-52833690D01*
X31139000Y-52877000D01*
X31207446Y-52877000D01*
X31287883Y-52957437D01*
X31287883Y-53301200D01*
X31301920Y-53443717D01*
X31343490Y-53580757D01*
X31410997Y-53707053D01*
X31501846Y-53817754D01*
X31612547Y-53908603D01*
X31738843Y-53976110D01*
X31875883Y-54017680D01*
X32018400Y-54031717D01*
X32254651Y-54031717D01*
X32242883Y-54151200D01*
X32242883Y-55401200D01*
X32255518Y-55529483D01*
X31823400Y-55529483D01*
X31680883Y-55543520D01*
X31543843Y-55585090D01*
X31417547Y-55652597D01*
X31306846Y-55743446D01*
X31215997Y-55854147D01*
X31148490Y-55980443D01*
X31106920Y-56117483D01*
X31092883Y-56260000D01*
X31092883Y-57132173D01*
X30921266Y-57166310D01*
X30716165Y-57251266D01*
X30531579Y-57374602D01*
X30374602Y-57531579D01*
X30251266Y-57716165D01*
X30166310Y-57921266D01*
X30123000Y-58139000D01*
X30123000Y-58361000D01*
X30166310Y-58578734D01*
X30251266Y-58783835D01*
X30374602Y-58968421D01*
X30531579Y-59125398D01*
X30716165Y-59248734D01*
X30921266Y-59333690D01*
X31139000Y-59377000D01*
X31361000Y-59377000D01*
X31578734Y-59333690D01*
X31783835Y-59248734D01*
X31968421Y-59125398D01*
X31991819Y-59102000D01*
X32706703Y-59102000D01*
X32680600Y-59233228D01*
X32680600Y-59524172D01*
X32737360Y-59809525D01*
X32848699Y-60078322D01*
X33010339Y-60320233D01*
X33216067Y-60525961D01*
X33457978Y-60687601D01*
X33726775Y-60798940D01*
X34012128Y-60855700D01*
X34303072Y-60855700D01*
X34588425Y-60798940D01*
X34857222Y-60687601D01*
X35099133Y-60525961D01*
X35304861Y-60320233D01*
X35466501Y-60078322D01*
X35577840Y-59809525D01*
X35634600Y-59524172D01*
X35634600Y-59376125D01*
X35639000Y-59377000D01*
X35861000Y-59377000D01*
X36078734Y-59333690D01*
X36283835Y-59248734D01*
X36468421Y-59125398D01*
X36491819Y-59102000D01*
X40306703Y-59102000D01*
X40280600Y-59233228D01*
X40280600Y-59524172D01*
X40337360Y-59809525D01*
X40448699Y-60078322D01*
X40610339Y-60320233D01*
X40816067Y-60525961D01*
X41057978Y-60687601D01*
X41326775Y-60798940D01*
X41612128Y-60855700D01*
X41903072Y-60855700D01*
X42188425Y-60798940D01*
X42457222Y-60687601D01*
X42699133Y-60525961D01*
X42904861Y-60320233D01*
X42964685Y-60230700D01*
X45525791Y-60230700D01*
X46941191Y-61646100D01*
X46830798Y-61646100D01*
X46830798Y-61827848D01*
X46649050Y-61646100D01*
X46303800Y-61642582D01*
X46161283Y-61656619D01*
X46024243Y-61698189D01*
X45897946Y-61765696D01*
X45787246Y-61856546D01*
X45696396Y-61967246D01*
X45628889Y-62093543D01*
X45587319Y-62230583D01*
X45573282Y-62373100D01*
X45576800Y-62518350D01*
X45758548Y-62700098D01*
X45576800Y-62700098D01*
X45576800Y-62820271D01*
X45534515Y-62792017D01*
X45233871Y-62667486D01*
X44914708Y-62604000D01*
X44589292Y-62604000D01*
X44270129Y-62667486D01*
X43969485Y-62792017D01*
X43698912Y-62972808D01*
X43468808Y-63202912D01*
X43317741Y-63429000D01*
X33686259Y-63429000D01*
X33535192Y-63202912D01*
X33305088Y-62972808D01*
X33034515Y-62792017D01*
X32733871Y-62667486D01*
X32414708Y-62604000D01*
X32089292Y-62604000D01*
X31770129Y-62667486D01*
X31469485Y-62792017D01*
X31198912Y-62972808D01*
X30968808Y-63202912D01*
X30788017Y-63473485D01*
X30663486Y-63774129D01*
X30600000Y-64093292D01*
X30600000Y-64418708D01*
X30663486Y-64737871D01*
X30788017Y-65038515D01*
X30968808Y-65309088D01*
X31198912Y-65539192D01*
X31469485Y-65719983D01*
X31770129Y-65844514D01*
X32089292Y-65908000D01*
X32414708Y-65908000D01*
X32733871Y-65844514D01*
X33034515Y-65719983D01*
X33305088Y-65539192D01*
X33535192Y-65309088D01*
X33686259Y-65083000D01*
X43317741Y-65083000D01*
X43468808Y-65309088D01*
X43698912Y-65539192D01*
X43969485Y-65719983D01*
X44270129Y-65844514D01*
X44589292Y-65908000D01*
X44914708Y-65908000D01*
X45233871Y-65844514D01*
X45534515Y-65719983D01*
X45669955Y-65629485D01*
X45696397Y-65678953D01*
X45736730Y-65728100D01*
X45696397Y-65777247D01*
X45628890Y-65903543D01*
X45587320Y-66040583D01*
X45573283Y-66183100D01*
X45573283Y-67183100D01*
X45587320Y-67325617D01*
X45587960Y-67327728D01*
X45534515Y-67292017D01*
X45233871Y-67167486D01*
X44914708Y-67104000D01*
X44589292Y-67104000D01*
X44270129Y-67167486D01*
X43969485Y-67292017D01*
X43698912Y-67472808D01*
X43468808Y-67702912D01*
X43288017Y-67973485D01*
X43163486Y-68274129D01*
X43100000Y-68593292D01*
X43100000Y-68918708D01*
X43163486Y-69237871D01*
X43288017Y-69538515D01*
X43468808Y-69809088D01*
X43698912Y-70039192D01*
X43969485Y-70219983D01*
X44270129Y-70344514D01*
X44589292Y-70408000D01*
X44914708Y-70408000D01*
X45233871Y-70344514D01*
X45534515Y-70219983D01*
X45805088Y-70039192D01*
X46011001Y-69833279D01*
X46011000Y-70830405D01*
X45894647Y-70892597D01*
X45783946Y-70983446D01*
X45693097Y-71094147D01*
X45625590Y-71220443D01*
X45584020Y-71357483D01*
X45569983Y-71500000D01*
X45569983Y-72000000D01*
X45584020Y-72142517D01*
X45625590Y-72279557D01*
X45693097Y-72405853D01*
X45783946Y-72516554D01*
X45894647Y-72607403D01*
X46020943Y-72674910D01*
X46157983Y-72716480D01*
X46300500Y-72730517D01*
X47375500Y-72730517D01*
X47518017Y-72716480D01*
X47655057Y-72674910D01*
X47781353Y-72607403D01*
X47892054Y-72516554D01*
X47982903Y-72405853D01*
X48000000Y-72373867D01*
X48017097Y-72405853D01*
X48107946Y-72516554D01*
X48218647Y-72607403D01*
X48344943Y-72674910D01*
X48481983Y-72716480D01*
X48624500Y-72730517D01*
X48972964Y-72730517D01*
X49048495Y-72806048D01*
X49074394Y-72837606D01*
X49146372Y-72896677D01*
X49200320Y-72940952D01*
X49277113Y-72981998D01*
X49343990Y-73017745D01*
X49499880Y-73065034D01*
X49621376Y-73077000D01*
X49621386Y-73077000D01*
X49662000Y-73081000D01*
X49702614Y-73077000D01*
X49733181Y-73077000D01*
X49781579Y-73125398D01*
X49966165Y-73248734D01*
X50171266Y-73333690D01*
X50389000Y-73377000D01*
X50611000Y-73377000D01*
X50828734Y-73333690D01*
X51033835Y-73248734D01*
X51218421Y-73125398D01*
X51375398Y-72968421D01*
X51498734Y-72783835D01*
X51583690Y-72578734D01*
X51627000Y-72361000D01*
X51627000Y-72270517D01*
X52372100Y-72270517D01*
X52514617Y-72256480D01*
X52651657Y-72214910D01*
X52777953Y-72147403D01*
X52797100Y-72131690D01*
X52816247Y-72147403D01*
X52942543Y-72214910D01*
X53079583Y-72256480D01*
X53222100Y-72270517D01*
X54272100Y-72270517D01*
X54414617Y-72256480D01*
X54551657Y-72214910D01*
X54641290Y-72167000D01*
X56369686Y-72167000D01*
X56410300Y-72171000D01*
X56450914Y-72167000D01*
X56450924Y-72167000D01*
X56572420Y-72155034D01*
X56728310Y-72107745D01*
X56871979Y-72030952D01*
X56997906Y-71927606D01*
X57023805Y-71896048D01*
X57120836Y-71799017D01*
X57881800Y-71799017D01*
X58024317Y-71784980D01*
X58161357Y-71743410D01*
X58169830Y-71738881D01*
X58203512Y-71761387D01*
X58408613Y-71846343D01*
X58588689Y-71882162D01*
X58543320Y-71927531D01*
X58378944Y-72173536D01*
X58265721Y-72446883D01*
X58208000Y-72737066D01*
X58208000Y-73032934D01*
X58265721Y-73323117D01*
X58378944Y-73596464D01*
X58543320Y-73842469D01*
X58752531Y-74051680D01*
X58998536Y-74216056D01*
X59271883Y-74329279D01*
X59562066Y-74387000D01*
X59857934Y-74387000D01*
X60135115Y-74331865D01*
X60161644Y-74358394D01*
X60164966Y-74392120D01*
X60209181Y-74537873D01*
X60212256Y-74548010D01*
X60289048Y-74691679D01*
X60365012Y-74784240D01*
X60373000Y-74793973D01*
X60373000Y-74861000D01*
X60416310Y-75078734D01*
X60465712Y-75198000D01*
X30481783Y-75198000D01*
X30521105Y-75158678D01*
X30805863Y-74732509D01*
X31002007Y-74258975D01*
X31102000Y-73756275D01*
X31102000Y-73243725D01*
X31002007Y-72741025D01*
X30805863Y-72267491D01*
X30521105Y-71841322D01*
X30158678Y-71478895D01*
X29732509Y-71194137D01*
X29258975Y-70997993D01*
X28756275Y-70898000D01*
X28243725Y-70898000D01*
X27741025Y-70997993D01*
X27267491Y-71194137D01*
X26841322Y-71478895D01*
X26802000Y-71518217D01*
X26802000Y-68593292D01*
X30600000Y-68593292D01*
X30600000Y-68918708D01*
X30663486Y-69237871D01*
X30788017Y-69538515D01*
X30968808Y-69809088D01*
X31198912Y-70039192D01*
X31469485Y-70219983D01*
X31770129Y-70344514D01*
X32089292Y-70408000D01*
X32414708Y-70408000D01*
X32733871Y-70344514D01*
X33034515Y-70219983D01*
X33305088Y-70039192D01*
X33535192Y-69809088D01*
X33715983Y-69538515D01*
X33840514Y-69237871D01*
X33904000Y-68918708D01*
X33904000Y-68593292D01*
X33840514Y-68274129D01*
X33715983Y-67973485D01*
X33535192Y-67702912D01*
X33305088Y-67472808D01*
X33034515Y-67292017D01*
X32733871Y-67167486D01*
X32414708Y-67104000D01*
X32089292Y-67104000D01*
X31770129Y-67167486D01*
X31469485Y-67292017D01*
X31198912Y-67472808D01*
X30968808Y-67702912D01*
X30788017Y-67973485D01*
X30663486Y-68274129D01*
X30600000Y-68593292D01*
X26802000Y-68593292D01*
X26802000Y-35481783D01*
X26841322Y-35521105D01*
X27267491Y-35805863D01*
X27741025Y-36002007D01*
X28243725Y-36102000D01*
X28756275Y-36102000D01*
X29258975Y-36002007D01*
X29732509Y-35805863D01*
X30158678Y-35521105D01*
X30521105Y-35158678D01*
X30805863Y-34732509D01*
X31002007Y-34258975D01*
X31102000Y-33756275D01*
X31102000Y-33243725D01*
X31002007Y-32741025D01*
X30805863Y-32267491D01*
X30521105Y-31841322D01*
X30481783Y-31802000D01*
X86518217Y-31802000D01*
X86478895Y-31841322D01*
G37*
%TD.AperFunction*%
D29*
X58610922Y-68741903D02*
X58659605Y-68902392D01*
X58738664Y-69050300D01*
X58845058Y-69179942D01*
X58974700Y-69286336D01*
X59122608Y-69365395D01*
X59283097Y-69414078D01*
X59450000Y-69430517D01*
X59700000Y-69430517D01*
X59866903Y-69414078D01*
X59900000Y-69404038D01*
X59933097Y-69414078D01*
X60100000Y-69430517D01*
X60350000Y-69430517D01*
X60516903Y-69414078D01*
X60550000Y-69404038D01*
X60583097Y-69414078D01*
X60750000Y-69430517D01*
X61000000Y-69430517D01*
X61166903Y-69414078D01*
X61200000Y-69404038D01*
X61233097Y-69414078D01*
X61400000Y-69430517D01*
X61650000Y-69430517D01*
X61816903Y-69414078D01*
X61850000Y-69404038D01*
X61883097Y-69414078D01*
X62050000Y-69430517D01*
X62300000Y-69430517D01*
X62466903Y-69414078D01*
X62500000Y-69404038D01*
X62533097Y-69414078D01*
X62700000Y-69430517D01*
X62950000Y-69430517D01*
X63116903Y-69414078D01*
X63150000Y-69404038D01*
X63183097Y-69414078D01*
X63207948Y-69416526D01*
X63209977Y-69437130D01*
X63257266Y-69593020D01*
X63284410Y-69643804D01*
X63171266Y-69666310D01*
X62966165Y-69751266D01*
X62781579Y-69874602D01*
X62624602Y-70031579D01*
X62501266Y-70216165D01*
X62416310Y-70421266D01*
X62373000Y-70639000D01*
X62373000Y-70861000D01*
X62389001Y-70941445D01*
X62251947Y-71078500D01*
X62134617Y-71078500D01*
X61908286Y-71123520D01*
X61695087Y-71211831D01*
X61537275Y-71317278D01*
X61524449Y-71206305D01*
X61310372Y-71120143D01*
X61083600Y-71077401D01*
X60852846Y-71079721D01*
X60626979Y-71127013D01*
X60435551Y-71206305D01*
X60409175Y-71434516D01*
X60980000Y-72005341D01*
X60994142Y-71991199D01*
X61088299Y-72085356D01*
X61078500Y-72134617D01*
X61078500Y-72263935D01*
X61041056Y-72173536D01*
X60876680Y-71927531D01*
X60667469Y-71718320D01*
X60421464Y-71553944D01*
X60148117Y-71440721D01*
X59857934Y-71383000D01*
X59678276Y-71383000D01*
X59736081Y-71296488D01*
X59821037Y-71091387D01*
X59864347Y-70873653D01*
X59864347Y-70651653D01*
X59821037Y-70433919D01*
X59736081Y-70228818D01*
X59612745Y-70044232D01*
X59455768Y-69887255D01*
X59271182Y-69763919D01*
X59066081Y-69678963D01*
X58848347Y-69635653D01*
X58626347Y-69635653D01*
X58489341Y-69662905D01*
X58489203Y-69662647D01*
X58452973Y-69618501D01*
X58489204Y-69574354D01*
X58556711Y-69448057D01*
X58598281Y-69311017D01*
X58612318Y-69168500D01*
X58608800Y-69023250D01*
X58427052Y-68841502D01*
X58608800Y-68841502D01*
X58608800Y-68720359D01*
X58610922Y-68741903D01*
%TA.AperFunction,Conductor*%
D30*
G36*
X58610922Y-68741903D02*
G01*
X58659605Y-68902392D01*
X58738664Y-69050300D01*
X58845058Y-69179942D01*
X58974700Y-69286336D01*
X59122608Y-69365395D01*
X59283097Y-69414078D01*
X59450000Y-69430517D01*
X59700000Y-69430517D01*
X59866903Y-69414078D01*
X59900000Y-69404038D01*
X59933097Y-69414078D01*
X60100000Y-69430517D01*
X60350000Y-69430517D01*
X60516903Y-69414078D01*
X60550000Y-69404038D01*
X60583097Y-69414078D01*
X60750000Y-69430517D01*
X61000000Y-69430517D01*
X61166903Y-69414078D01*
X61200000Y-69404038D01*
X61233097Y-69414078D01*
X61400000Y-69430517D01*
X61650000Y-69430517D01*
X61816903Y-69414078D01*
X61850000Y-69404038D01*
X61883097Y-69414078D01*
X62050000Y-69430517D01*
X62300000Y-69430517D01*
X62466903Y-69414078D01*
X62500000Y-69404038D01*
X62533097Y-69414078D01*
X62700000Y-69430517D01*
X62950000Y-69430517D01*
X63116903Y-69414078D01*
X63150000Y-69404038D01*
X63183097Y-69414078D01*
X63207948Y-69416526D01*
X63209977Y-69437130D01*
X63257266Y-69593020D01*
X63284410Y-69643804D01*
X63171266Y-69666310D01*
X62966165Y-69751266D01*
X62781579Y-69874602D01*
X62624602Y-70031579D01*
X62501266Y-70216165D01*
X62416310Y-70421266D01*
X62373000Y-70639000D01*
X62373000Y-70861000D01*
X62389001Y-70941445D01*
X62251947Y-71078500D01*
X62134617Y-71078500D01*
X61908286Y-71123520D01*
X61695087Y-71211831D01*
X61537275Y-71317278D01*
X61524449Y-71206305D01*
X61310372Y-71120143D01*
X61083600Y-71077401D01*
X60852846Y-71079721D01*
X60626979Y-71127013D01*
X60435551Y-71206305D01*
X60409175Y-71434516D01*
X60980000Y-72005341D01*
X60994142Y-71991199D01*
X61088299Y-72085356D01*
X61078500Y-72134617D01*
X61078500Y-72263935D01*
X61041056Y-72173536D01*
X60876680Y-71927531D01*
X60667469Y-71718320D01*
X60421464Y-71553944D01*
X60148117Y-71440721D01*
X59857934Y-71383000D01*
X59678276Y-71383000D01*
X59736081Y-71296488D01*
X59821037Y-71091387D01*
X59864347Y-70873653D01*
X59864347Y-70651653D01*
X59821037Y-70433919D01*
X59736081Y-70228818D01*
X59612745Y-70044232D01*
X59455768Y-69887255D01*
X59271182Y-69763919D01*
X59066081Y-69678963D01*
X58848347Y-69635653D01*
X58626347Y-69635653D01*
X58489341Y-69662905D01*
X58489203Y-69662647D01*
X58452973Y-69618501D01*
X58489204Y-69574354D01*
X58556711Y-69448057D01*
X58598281Y-69311017D01*
X58612318Y-69168500D01*
X58608800Y-69023250D01*
X58427052Y-68841502D01*
X58608800Y-68841502D01*
X58608800Y-68720359D01*
X58610922Y-68741903D01*
G37*
%TD.AperFunction*%
D29*
X55171266Y-68083690D02*
X55389000Y-68127000D01*
X55611000Y-68127000D01*
X55758254Y-68097709D01*
X55751282Y-68168500D01*
X55754800Y-68313750D01*
X55936550Y-68495500D01*
X57008800Y-68495500D01*
X57008800Y-68475500D01*
X57354800Y-68475500D01*
X57354800Y-68495500D01*
X57374800Y-68495500D01*
X57374800Y-68841500D01*
X57354800Y-68841500D01*
X57354800Y-68861500D01*
X57008800Y-68861500D01*
X57008800Y-68841500D01*
X55936550Y-68841500D01*
X55754800Y-69023250D01*
X55751282Y-69168500D01*
X55765319Y-69311017D01*
X55806889Y-69448057D01*
X55874396Y-69574354D01*
X55910627Y-69618501D01*
X55874397Y-69662647D01*
X55806890Y-69788943D01*
X55765320Y-69925983D01*
X55751283Y-70068500D01*
X55751283Y-70513000D01*
X54947259Y-70513000D01*
X54983853Y-70404514D01*
X54999100Y-70294750D01*
X54817350Y-70113000D01*
X53920100Y-70113000D01*
X53920100Y-70233000D01*
X53574100Y-70233000D01*
X53574100Y-70113000D01*
X53554100Y-70113000D01*
X53554100Y-69967000D01*
X53574100Y-69967000D01*
X53574100Y-69847000D01*
X53920100Y-69847000D01*
X53920100Y-69967000D01*
X54817350Y-69967000D01*
X54999100Y-69785250D01*
X54983853Y-69675486D01*
X54938081Y-69539791D01*
X54866717Y-69415633D01*
X54772502Y-69307783D01*
X54694225Y-69247480D01*
X54701853Y-69243403D01*
X54812554Y-69152554D01*
X54903403Y-69041853D01*
X54970910Y-68915557D01*
X55012480Y-68778517D01*
X55026517Y-68636000D01*
X55026517Y-68023733D01*
X55171266Y-68083690D01*
%TA.AperFunction,Conductor*%
D30*
G36*
X55171266Y-68083690D02*
G01*
X55389000Y-68127000D01*
X55611000Y-68127000D01*
X55758254Y-68097709D01*
X55751282Y-68168500D01*
X55754800Y-68313750D01*
X55936550Y-68495500D01*
X57008800Y-68495500D01*
X57008800Y-68475500D01*
X57354800Y-68475500D01*
X57354800Y-68495500D01*
X57374800Y-68495500D01*
X57374800Y-68841500D01*
X57354800Y-68841500D01*
X57354800Y-68861500D01*
X57008800Y-68861500D01*
X57008800Y-68841500D01*
X55936550Y-68841500D01*
X55754800Y-69023250D01*
X55751282Y-69168500D01*
X55765319Y-69311017D01*
X55806889Y-69448057D01*
X55874396Y-69574354D01*
X55910627Y-69618501D01*
X55874397Y-69662647D01*
X55806890Y-69788943D01*
X55765320Y-69925983D01*
X55751283Y-70068500D01*
X55751283Y-70513000D01*
X54947259Y-70513000D01*
X54983853Y-70404514D01*
X54999100Y-70294750D01*
X54817350Y-70113000D01*
X53920100Y-70113000D01*
X53920100Y-70233000D01*
X53574100Y-70233000D01*
X53574100Y-70113000D01*
X53554100Y-70113000D01*
X53554100Y-69967000D01*
X53574100Y-69967000D01*
X53574100Y-69847000D01*
X53920100Y-69847000D01*
X53920100Y-69967000D01*
X54817350Y-69967000D01*
X54999100Y-69785250D01*
X54983853Y-69675486D01*
X54938081Y-69539791D01*
X54866717Y-69415633D01*
X54772502Y-69307783D01*
X54694225Y-69247480D01*
X54701853Y-69243403D01*
X54812554Y-69152554D01*
X54903403Y-69041853D01*
X54970910Y-68915557D01*
X55012480Y-68778517D01*
X55026517Y-68636000D01*
X55026517Y-68023733D01*
X55171266Y-68083690D01*
G37*
%TD.AperFunction*%
D29*
X52069000Y-67763000D02*
X52089000Y-67763000D01*
X52089000Y-68109000D01*
X52069000Y-68109000D01*
X52069000Y-68129000D01*
X51723000Y-68129000D01*
X51723000Y-68109000D01*
X50850750Y-68109000D01*
X50836750Y-68123000D01*
X50639000Y-68123000D01*
X50421266Y-68166310D01*
X50216165Y-68251266D01*
X50141800Y-68300955D01*
X50141800Y-67763093D01*
X50167317Y-67760580D01*
X50213106Y-67746690D01*
X50216165Y-67748734D01*
X50421266Y-67833690D01*
X50639000Y-67877000D01*
X50861000Y-67877000D01*
X51078734Y-67833690D01*
X51249394Y-67763000D01*
X51723000Y-67763000D01*
X51723000Y-67743000D01*
X52069000Y-67743000D01*
X52069000Y-67763000D01*
%TA.AperFunction,Conductor*%
D30*
G36*
X52069000Y-67763000D02*
G01*
X52089000Y-67763000D01*
X52089000Y-68109000D01*
X52069000Y-68109000D01*
X52069000Y-68129000D01*
X51723000Y-68129000D01*
X51723000Y-68109000D01*
X50850750Y-68109000D01*
X50836750Y-68123000D01*
X50639000Y-68123000D01*
X50421266Y-68166310D01*
X50216165Y-68251266D01*
X50141800Y-68300955D01*
X50141800Y-67763093D01*
X50167317Y-67760580D01*
X50213106Y-67746690D01*
X50216165Y-67748734D01*
X50421266Y-67833690D01*
X50639000Y-67877000D01*
X50861000Y-67877000D01*
X51078734Y-67833690D01*
X51249394Y-67763000D01*
X51723000Y-67763000D01*
X51723000Y-67743000D01*
X52069000Y-67743000D01*
X52069000Y-67763000D01*
G37*
%TD.AperFunction*%
D29*
X50916090Y-64488557D02*
X50983597Y-64614853D01*
X51074446Y-64725554D01*
X51185147Y-64816403D01*
X51311443Y-64883910D01*
X51448483Y-64925480D01*
X51591000Y-64939517D01*
X51827251Y-64939517D01*
X51815483Y-65059000D01*
X51815483Y-66309000D01*
X51824310Y-66398621D01*
X51748734Y-66216165D01*
X51625398Y-66031579D01*
X51468421Y-65874602D01*
X51283835Y-65751266D01*
X51078734Y-65666310D01*
X50861000Y-65623000D01*
X50705976Y-65623000D01*
X50741280Y-65506617D01*
X50755317Y-65364100D01*
X50755317Y-64436000D01*
X50900147Y-64436000D01*
X50916090Y-64488557D01*
%TA.AperFunction,Conductor*%
D30*
G36*
X50916090Y-64488557D02*
G01*
X50983597Y-64614853D01*
X51074446Y-64725554D01*
X51185147Y-64816403D01*
X51311443Y-64883910D01*
X51448483Y-64925480D01*
X51591000Y-64939517D01*
X51827251Y-64939517D01*
X51815483Y-65059000D01*
X51815483Y-66309000D01*
X51824310Y-66398621D01*
X51748734Y-66216165D01*
X51625398Y-66031579D01*
X51468421Y-65874602D01*
X51283835Y-65751266D01*
X51078734Y-65666310D01*
X50861000Y-65623000D01*
X50705976Y-65623000D01*
X50741280Y-65506617D01*
X50755317Y-65364100D01*
X50755317Y-64436000D01*
X50900147Y-64436000D01*
X50916090Y-64488557D01*
G37*
%TD.AperFunction*%
D29*
X69001266Y-51283835D02*
X69124602Y-51468421D01*
X69281579Y-51625398D01*
X69466165Y-51748734D01*
X69671266Y-51833690D01*
X69889000Y-51877000D01*
X69957447Y-51877000D01*
X70531883Y-52451437D01*
X70531883Y-53301200D01*
X70545920Y-53443717D01*
X70587490Y-53580757D01*
X70654997Y-53707053D01*
X70745846Y-53817754D01*
X70856547Y-53908603D01*
X70982843Y-53976110D01*
X71119883Y-54017680D01*
X71262400Y-54031717D01*
X71498651Y-54031717D01*
X71486883Y-54151200D01*
X71486883Y-55401200D01*
X71499518Y-55529483D01*
X71050000Y-55529483D01*
X70907483Y-55543520D01*
X70770443Y-55585090D01*
X70644147Y-55652597D01*
X70533446Y-55743446D01*
X70442597Y-55854147D01*
X70375090Y-55980443D01*
X70333520Y-56117483D01*
X70319483Y-56260000D01*
X70319483Y-57603925D01*
X70125406Y-57596079D01*
X69779615Y-57650444D01*
X69451074Y-57771226D01*
X69323849Y-57839230D01*
X69223355Y-58128896D01*
X70228500Y-59134041D01*
X70242642Y-59119899D01*
X70487301Y-59364558D01*
X70473159Y-59378700D01*
X71478304Y-60383845D01*
X71767970Y-60283351D01*
X71914879Y-59965633D01*
X71996981Y-59625359D01*
X72011121Y-59275606D01*
X71956756Y-58929815D01*
X71835974Y-58601274D01*
X71767970Y-58474049D01*
X71527196Y-58390517D01*
X72050000Y-58390517D01*
X72192517Y-58376480D01*
X72329557Y-58334910D01*
X72455853Y-58267403D01*
X72500000Y-58231173D01*
X72544147Y-58267403D01*
X72670443Y-58334910D01*
X72807483Y-58376480D01*
X72950000Y-58390517D01*
X73691901Y-58390517D01*
X73751266Y-58533835D01*
X73874602Y-58718421D01*
X74031579Y-58875398D01*
X74216165Y-58998734D01*
X74421266Y-59083690D01*
X74639000Y-59127000D01*
X74861000Y-59127000D01*
X75078734Y-59083690D01*
X75283835Y-58998734D01*
X75468421Y-58875398D01*
X75625398Y-58718421D01*
X75748734Y-58533835D01*
X75833690Y-58328734D01*
X75877000Y-58111000D01*
X75877000Y-58036225D01*
X75904596Y-58087854D01*
X75995446Y-58198554D01*
X76106146Y-58289404D01*
X76232443Y-58356911D01*
X76336094Y-58388353D01*
X75443952Y-59280495D01*
X75412394Y-59306394D01*
X75386498Y-59337949D01*
X75309048Y-59432321D01*
X75277702Y-59490966D01*
X75232255Y-59575991D01*
X75184966Y-59731881D01*
X75173000Y-59853377D01*
X75173000Y-59853386D01*
X75169000Y-59894000D01*
X75173000Y-59934614D01*
X75173000Y-60165445D01*
X72681398Y-62657048D01*
X72414708Y-62604000D01*
X72089292Y-62604000D01*
X71770129Y-62667486D01*
X71469485Y-62792017D01*
X71198912Y-62972808D01*
X70968808Y-63202912D01*
X70788017Y-63473485D01*
X70663486Y-63774129D01*
X70600000Y-64093292D01*
X70600000Y-64418708D01*
X70663486Y-64737871D01*
X70788017Y-65038515D01*
X70968808Y-65309088D01*
X71198912Y-65539192D01*
X71469485Y-65719983D01*
X71770129Y-65844514D01*
X72089292Y-65908000D01*
X72414708Y-65908000D01*
X72733871Y-65844514D01*
X73034515Y-65719983D01*
X73305088Y-65539192D01*
X73535192Y-65309088D01*
X73686259Y-65083000D01*
X74489181Y-65083000D01*
X74531579Y-65125398D01*
X74552242Y-65139205D01*
X73680447Y-66011000D01*
X70082819Y-66011000D01*
X70125398Y-65968421D01*
X70248734Y-65783835D01*
X70333690Y-65578734D01*
X70377000Y-65361000D01*
X70377000Y-65139000D01*
X70333690Y-64921266D01*
X70248734Y-64716165D01*
X70125398Y-64531579D01*
X69968421Y-64374602D01*
X69783835Y-64251266D01*
X69578734Y-64166310D01*
X69361000Y-64123000D01*
X69276466Y-64123000D01*
X69260966Y-64094001D01*
X69279911Y-64058557D01*
X69321481Y-63921517D01*
X69335518Y-63779000D01*
X69332000Y-63608750D01*
X69150250Y-63427000D01*
X68043000Y-63427000D01*
X68043000Y-63447000D01*
X67697000Y-63447000D01*
X67697000Y-63427000D01*
X67677000Y-63427000D01*
X67677000Y-63081000D01*
X67697000Y-63081000D01*
X67697000Y-61727000D01*
X68043000Y-61727000D01*
X68043000Y-63081000D01*
X69150250Y-63081000D01*
X69332000Y-62899250D01*
X69335518Y-62729000D01*
X69321481Y-62586483D01*
X69279911Y-62449443D01*
X69231440Y-62358760D01*
X69244911Y-62333557D01*
X69286481Y-62196517D01*
X69300518Y-62054000D01*
X69297000Y-61908750D01*
X69115250Y-61727000D01*
X68043000Y-61727000D01*
X67697000Y-61727000D01*
X66624750Y-61727000D01*
X66510285Y-61841466D01*
X66468421Y-61799602D01*
X66400004Y-61753887D01*
X66405359Y-61684778D01*
X66402000Y-61104750D01*
X66220250Y-60923000D01*
X65755517Y-60923000D01*
X65755517Y-60577000D01*
X66220250Y-60577000D01*
X66402000Y-60395250D01*
X66405359Y-59815222D01*
X66394295Y-59672443D01*
X66367501Y-59577000D01*
X66439483Y-59577000D01*
X66439483Y-60154000D01*
X66453520Y-60296517D01*
X66495090Y-60433557D01*
X66562597Y-60559853D01*
X66598827Y-60603999D01*
X66562596Y-60648146D01*
X66495089Y-60774443D01*
X66453519Y-60911483D01*
X66439482Y-61054000D01*
X66443000Y-61199250D01*
X66624750Y-61381000D01*
X67697000Y-61381000D01*
X67697000Y-61361000D01*
X68043000Y-61361000D01*
X68043000Y-61381000D01*
X69115250Y-61381000D01*
X69297000Y-61199250D01*
X69300518Y-61054000D01*
X69286481Y-60911483D01*
X69244911Y-60774443D01*
X69186569Y-60665293D01*
X69223356Y-60628506D01*
X69323849Y-60918170D01*
X69641567Y-61065079D01*
X69981841Y-61147181D01*
X70331594Y-61161321D01*
X70677385Y-61106956D01*
X71005926Y-60986174D01*
X71133151Y-60918170D01*
X71233645Y-60628504D01*
X70228500Y-59623359D01*
X70214358Y-59637501D01*
X69969699Y-59392842D01*
X69983841Y-59378700D01*
X68978696Y-58373555D01*
X68756161Y-58450759D01*
X68712517Y-58437520D01*
X68570000Y-58423483D01*
X68343036Y-58423483D01*
X68310070Y-58390517D01*
X68346200Y-58390517D01*
X68488717Y-58376480D01*
X68625757Y-58334910D01*
X68752053Y-58267403D01*
X68862754Y-58176554D01*
X68953603Y-58065853D01*
X69021110Y-57939557D01*
X69062680Y-57802517D01*
X69076717Y-57660000D01*
X69076717Y-56260000D01*
X69062680Y-56117483D01*
X69036694Y-56031819D01*
X69125245Y-55943268D01*
X69248581Y-55758682D01*
X69333537Y-55553581D01*
X69376847Y-55335847D01*
X69376847Y-55113847D01*
X69333537Y-54896113D01*
X69248581Y-54691012D01*
X69125245Y-54506426D01*
X68968268Y-54349449D01*
X68783682Y-54226113D01*
X68578581Y-54141157D01*
X68360847Y-54097847D01*
X68138847Y-54097847D01*
X67940253Y-54137350D01*
X67929849Y-54031717D01*
X68166100Y-54031717D01*
X68308617Y-54017680D01*
X68445657Y-53976110D01*
X68571953Y-53908603D01*
X68682654Y-53817754D01*
X68773503Y-53707053D01*
X68841010Y-53580757D01*
X68882580Y-53443717D01*
X68896617Y-53301200D01*
X68896617Y-52051200D01*
X68882580Y-51908683D01*
X68841010Y-51771643D01*
X68773503Y-51645347D01*
X68704796Y-51561627D01*
X68766953Y-51528403D01*
X68877654Y-51437554D01*
X68968503Y-51326853D01*
X68997001Y-51273538D01*
X69001266Y-51283835D01*
%TA.AperFunction,Conductor*%
D30*
G36*
X69001266Y-51283835D02*
G01*
X69124602Y-51468421D01*
X69281579Y-51625398D01*
X69466165Y-51748734D01*
X69671266Y-51833690D01*
X69889000Y-51877000D01*
X69957447Y-51877000D01*
X70531883Y-52451437D01*
X70531883Y-53301200D01*
X70545920Y-53443717D01*
X70587490Y-53580757D01*
X70654997Y-53707053D01*
X70745846Y-53817754D01*
X70856547Y-53908603D01*
X70982843Y-53976110D01*
X71119883Y-54017680D01*
X71262400Y-54031717D01*
X71498651Y-54031717D01*
X71486883Y-54151200D01*
X71486883Y-55401200D01*
X71499518Y-55529483D01*
X71050000Y-55529483D01*
X70907483Y-55543520D01*
X70770443Y-55585090D01*
X70644147Y-55652597D01*
X70533446Y-55743446D01*
X70442597Y-55854147D01*
X70375090Y-55980443D01*
X70333520Y-56117483D01*
X70319483Y-56260000D01*
X70319483Y-57603925D01*
X70125406Y-57596079D01*
X69779615Y-57650444D01*
X69451074Y-57771226D01*
X69323849Y-57839230D01*
X69223355Y-58128896D01*
X70228500Y-59134041D01*
X70242642Y-59119899D01*
X70487301Y-59364558D01*
X70473159Y-59378700D01*
X71478304Y-60383845D01*
X71767970Y-60283351D01*
X71914879Y-59965633D01*
X71996981Y-59625359D01*
X72011121Y-59275606D01*
X71956756Y-58929815D01*
X71835974Y-58601274D01*
X71767970Y-58474049D01*
X71527196Y-58390517D01*
X72050000Y-58390517D01*
X72192517Y-58376480D01*
X72329557Y-58334910D01*
X72455853Y-58267403D01*
X72500000Y-58231173D01*
X72544147Y-58267403D01*
X72670443Y-58334910D01*
X72807483Y-58376480D01*
X72950000Y-58390517D01*
X73691901Y-58390517D01*
X73751266Y-58533835D01*
X73874602Y-58718421D01*
X74031579Y-58875398D01*
X74216165Y-58998734D01*
X74421266Y-59083690D01*
X74639000Y-59127000D01*
X74861000Y-59127000D01*
X75078734Y-59083690D01*
X75283835Y-58998734D01*
X75468421Y-58875398D01*
X75625398Y-58718421D01*
X75748734Y-58533835D01*
X75833690Y-58328734D01*
X75877000Y-58111000D01*
X75877000Y-58036225D01*
X75904596Y-58087854D01*
X75995446Y-58198554D01*
X76106146Y-58289404D01*
X76232443Y-58356911D01*
X76336094Y-58388353D01*
X75443952Y-59280495D01*
X75412394Y-59306394D01*
X75386498Y-59337949D01*
X75309048Y-59432321D01*
X75277702Y-59490966D01*
X75232255Y-59575991D01*
X75184966Y-59731881D01*
X75173000Y-59853377D01*
X75173000Y-59853386D01*
X75169000Y-59894000D01*
X75173000Y-59934614D01*
X75173000Y-60165445D01*
X72681398Y-62657048D01*
X72414708Y-62604000D01*
X72089292Y-62604000D01*
X71770129Y-62667486D01*
X71469485Y-62792017D01*
X71198912Y-62972808D01*
X70968808Y-63202912D01*
X70788017Y-63473485D01*
X70663486Y-63774129D01*
X70600000Y-64093292D01*
X70600000Y-64418708D01*
X70663486Y-64737871D01*
X70788017Y-65038515D01*
X70968808Y-65309088D01*
X71198912Y-65539192D01*
X71469485Y-65719983D01*
X71770129Y-65844514D01*
X72089292Y-65908000D01*
X72414708Y-65908000D01*
X72733871Y-65844514D01*
X73034515Y-65719983D01*
X73305088Y-65539192D01*
X73535192Y-65309088D01*
X73686259Y-65083000D01*
X74489181Y-65083000D01*
X74531579Y-65125398D01*
X74552242Y-65139205D01*
X73680447Y-66011000D01*
X70082819Y-66011000D01*
X70125398Y-65968421D01*
X70248734Y-65783835D01*
X70333690Y-65578734D01*
X70377000Y-65361000D01*
X70377000Y-65139000D01*
X70333690Y-64921266D01*
X70248734Y-64716165D01*
X70125398Y-64531579D01*
X69968421Y-64374602D01*
X69783835Y-64251266D01*
X69578734Y-64166310D01*
X69361000Y-64123000D01*
X69276466Y-64123000D01*
X69260966Y-64094001D01*
X69279911Y-64058557D01*
X69321481Y-63921517D01*
X69335518Y-63779000D01*
X69332000Y-63608750D01*
X69150250Y-63427000D01*
X68043000Y-63427000D01*
X68043000Y-63447000D01*
X67697000Y-63447000D01*
X67697000Y-63427000D01*
X67677000Y-63427000D01*
X67677000Y-63081000D01*
X67697000Y-63081000D01*
X67697000Y-61727000D01*
X68043000Y-61727000D01*
X68043000Y-63081000D01*
X69150250Y-63081000D01*
X69332000Y-62899250D01*
X69335518Y-62729000D01*
X69321481Y-62586483D01*
X69279911Y-62449443D01*
X69231440Y-62358760D01*
X69244911Y-62333557D01*
X69286481Y-62196517D01*
X69300518Y-62054000D01*
X69297000Y-61908750D01*
X69115250Y-61727000D01*
X68043000Y-61727000D01*
X67697000Y-61727000D01*
X66624750Y-61727000D01*
X66510285Y-61841466D01*
X66468421Y-61799602D01*
X66400004Y-61753887D01*
X66405359Y-61684778D01*
X66402000Y-61104750D01*
X66220250Y-60923000D01*
X65755517Y-60923000D01*
X65755517Y-60577000D01*
X66220250Y-60577000D01*
X66402000Y-60395250D01*
X66405359Y-59815222D01*
X66394295Y-59672443D01*
X66367501Y-59577000D01*
X66439483Y-59577000D01*
X66439483Y-60154000D01*
X66453520Y-60296517D01*
X66495090Y-60433557D01*
X66562597Y-60559853D01*
X66598827Y-60603999D01*
X66562596Y-60648146D01*
X66495089Y-60774443D01*
X66453519Y-60911483D01*
X66439482Y-61054000D01*
X66443000Y-61199250D01*
X66624750Y-61381000D01*
X67697000Y-61381000D01*
X67697000Y-61361000D01*
X68043000Y-61361000D01*
X68043000Y-61381000D01*
X69115250Y-61381000D01*
X69297000Y-61199250D01*
X69300518Y-61054000D01*
X69286481Y-60911483D01*
X69244911Y-60774443D01*
X69186569Y-60665293D01*
X69223356Y-60628506D01*
X69323849Y-60918170D01*
X69641567Y-61065079D01*
X69981841Y-61147181D01*
X70331594Y-61161321D01*
X70677385Y-61106956D01*
X71005926Y-60986174D01*
X71133151Y-60918170D01*
X71233645Y-60628504D01*
X70228500Y-59623359D01*
X70214358Y-59637501D01*
X69969699Y-59392842D01*
X69983841Y-59378700D01*
X68978696Y-58373555D01*
X68756161Y-58450759D01*
X68712517Y-58437520D01*
X68570000Y-58423483D01*
X68343036Y-58423483D01*
X68310070Y-58390517D01*
X68346200Y-58390517D01*
X68488717Y-58376480D01*
X68625757Y-58334910D01*
X68752053Y-58267403D01*
X68862754Y-58176554D01*
X68953603Y-58065853D01*
X69021110Y-57939557D01*
X69062680Y-57802517D01*
X69076717Y-57660000D01*
X69076717Y-56260000D01*
X69062680Y-56117483D01*
X69036694Y-56031819D01*
X69125245Y-55943268D01*
X69248581Y-55758682D01*
X69333537Y-55553581D01*
X69376847Y-55335847D01*
X69376847Y-55113847D01*
X69333537Y-54896113D01*
X69248581Y-54691012D01*
X69125245Y-54506426D01*
X68968268Y-54349449D01*
X68783682Y-54226113D01*
X68578581Y-54141157D01*
X68360847Y-54097847D01*
X68138847Y-54097847D01*
X67940253Y-54137350D01*
X67929849Y-54031717D01*
X68166100Y-54031717D01*
X68308617Y-54017680D01*
X68445657Y-53976110D01*
X68571953Y-53908603D01*
X68682654Y-53817754D01*
X68773503Y-53707053D01*
X68841010Y-53580757D01*
X68882580Y-53443717D01*
X68896617Y-53301200D01*
X68896617Y-52051200D01*
X68882580Y-51908683D01*
X68841010Y-51771643D01*
X68773503Y-51645347D01*
X68704796Y-51561627D01*
X68766953Y-51528403D01*
X68877654Y-51437554D01*
X68968503Y-51326853D01*
X68997001Y-51273538D01*
X69001266Y-51283835D01*
G37*
%TD.AperFunction*%
D29*
X47176800Y-62700100D02*
X47196800Y-62700100D01*
X47196800Y-63046100D01*
X47176800Y-63046100D01*
X47176800Y-63066100D01*
X46830800Y-63066100D01*
X46830800Y-63046100D01*
X46810800Y-63046100D01*
X46810800Y-62700100D01*
X46830800Y-62700100D01*
X46830800Y-62680100D01*
X47176800Y-62680100D01*
X47176800Y-62700100D01*
%TA.AperFunction,Conductor*%
D30*
G36*
X47176800Y-62700100D02*
G01*
X47196800Y-62700100D01*
X47196800Y-63046100D01*
X47176800Y-63046100D01*
X47176800Y-63066100D01*
X46830800Y-63066100D01*
X46830800Y-63046100D01*
X46810800Y-63046100D01*
X46810800Y-62700100D01*
X46830800Y-62700100D01*
X46830800Y-62680100D01*
X47176800Y-62680100D01*
X47176800Y-62700100D01*
G37*
%TD.AperFunction*%
D29*
X77185000Y-56809000D02*
X77205000Y-56809000D01*
X77205000Y-57155000D01*
X77185000Y-57155000D01*
X77185000Y-57175000D01*
X76839000Y-57175000D01*
X76839000Y-57155000D01*
X76819000Y-57155000D01*
X76819000Y-56809000D01*
X76839000Y-56809000D01*
X76839000Y-56789000D01*
X77185000Y-56789000D01*
X77185000Y-56809000D01*
%TA.AperFunction,Conductor*%
D30*
G36*
X77185000Y-56809000D02*
G01*
X77205000Y-56809000D01*
X77205000Y-57155000D01*
X77185000Y-57155000D01*
X77185000Y-57175000D01*
X76839000Y-57175000D01*
X76839000Y-57155000D01*
X76819000Y-57155000D01*
X76819000Y-56809000D01*
X76839000Y-56809000D01*
X76839000Y-56789000D01*
X77185000Y-56789000D01*
X77185000Y-56809000D01*
G37*
%TD.AperFunction*%
%TD*%
M02*
